G04 #@! TF.GenerationSoftware,KiCad,Pcbnew,5.1.6*
G04 #@! TF.CreationDate,2020-08-31T22:31:01-05:00*
G04 #@! TF.ProjectId,shear_pcb,73686561-725f-4706-9362-2e6b69636164,rev?*
G04 #@! TF.SameCoordinates,Original*
G04 #@! TF.FileFunction,Copper,L1,Top*
G04 #@! TF.FilePolarity,Positive*
%FSLAX46Y46*%
G04 Gerber Fmt 4.6, Leading zero omitted, Abs format (unit mm)*
G04 Created by KiCad (PCBNEW 5.1.6) date 2020-08-31 22:31:01*
%MOMM*%
%LPD*%
G01*
G04 APERTURE LIST*
G04 #@! TA.AperFunction,ComponentPad*
%ADD10O,1.700000X2.000000*%
G04 #@! TD*
G04 #@! TA.AperFunction,ComponentPad*
%ADD11C,2.540000*%
G04 #@! TD*
G04 #@! TA.AperFunction,ComponentPad*
%ADD12C,1.470000*%
G04 #@! TD*
G04 #@! TA.AperFunction,ComponentPad*
%ADD13O,1.700000X1.700000*%
G04 #@! TD*
G04 #@! TA.AperFunction,ComponentPad*
%ADD14R,1.700000X1.700000*%
G04 #@! TD*
G04 #@! TA.AperFunction,ComponentPad*
%ADD15C,1.600000*%
G04 #@! TD*
G04 #@! TA.AperFunction,ComponentPad*
%ADD16R,1.600000X1.600000*%
G04 #@! TD*
G04 #@! TA.AperFunction,ComponentPad*
%ADD17O,2.300000X1.500000*%
G04 #@! TD*
G04 #@! TA.AperFunction,ComponentPad*
%ADD18R,2.300000X1.500000*%
G04 #@! TD*
G04 #@! TA.AperFunction,ComponentPad*
%ADD19C,3.000000*%
G04 #@! TD*
G04 #@! TA.AperFunction,ComponentPad*
%ADD20R,3.000000X3.000000*%
G04 #@! TD*
G04 #@! TA.AperFunction,ViaPad*
%ADD21C,0.500000*%
G04 #@! TD*
G04 #@! TA.AperFunction,Conductor*
%ADD22C,0.300000*%
G04 #@! TD*
G04 #@! TA.AperFunction,Conductor*
%ADD23C,1.500000*%
G04 #@! TD*
G04 #@! TA.AperFunction,Conductor*
%ADD24C,0.254000*%
G04 #@! TD*
G04 APERTURE END LIST*
D10*
X184745000Y-110490000D03*
G04 #@! TA.AperFunction,ComponentPad*
G36*
G01*
X181395000Y-111240000D02*
X181395000Y-109740000D01*
G75*
G02*
X181645000Y-109490000I250000J0D01*
G01*
X182845000Y-109490000D01*
G75*
G02*
X183095000Y-109740000I0J-250000D01*
G01*
X183095000Y-111240000D01*
G75*
G02*
X182845000Y-111490000I-250000J0D01*
G01*
X181645000Y-111490000D01*
G75*
G02*
X181395000Y-111240000I0J250000D01*
G01*
G37*
G04 #@! TD.AperFunction*
D11*
X184785000Y-79375000D03*
X184785000Y-104775000D03*
D12*
X165735000Y-78105000D03*
X163195000Y-78105000D03*
X163195000Y-80645000D03*
X163195000Y-83185000D03*
X163195000Y-85725000D03*
X163195000Y-88265000D03*
X163195000Y-90805000D03*
X163195000Y-93345000D03*
X163195000Y-95885000D03*
X163195000Y-98425000D03*
X163195000Y-100965000D03*
X163195000Y-103505000D03*
X163195000Y-106045000D03*
X186055000Y-83185000D03*
X186055000Y-85725000D03*
X186055000Y-90805000D03*
X186055000Y-93345000D03*
X186055000Y-95885000D03*
X186055000Y-98425000D03*
D13*
X172720000Y-118745000D03*
X170180000Y-118745000D03*
D14*
X167640000Y-118745000D03*
D13*
X161925000Y-118745000D03*
X159385000Y-118745000D03*
D14*
X156845000Y-118745000D03*
D13*
X156210000Y-71120000D03*
X156210000Y-73660000D03*
X156210000Y-76200000D03*
X156210000Y-78740000D03*
D14*
X156210000Y-81280000D03*
D13*
X156210000Y-48260000D03*
X156210000Y-50800000D03*
X156210000Y-53340000D03*
D14*
X156210000Y-55880000D03*
D13*
X156210000Y-62230000D03*
D14*
X156210000Y-64770000D03*
G04 #@! TA.AperFunction,SMDPad,CuDef*
G36*
G01*
X191855000Y-70165000D02*
X192955000Y-70165000D01*
G75*
G02*
X193205000Y-70415000I0J-250000D01*
G01*
X193205000Y-73415000D01*
G75*
G02*
X192955000Y-73665000I-250000J0D01*
G01*
X191855000Y-73665000D01*
G75*
G02*
X191605000Y-73415000I0J250000D01*
G01*
X191605000Y-70415000D01*
G75*
G02*
X191855000Y-70165000I250000J0D01*
G01*
G37*
G04 #@! TD.AperFunction*
G04 #@! TA.AperFunction,SMDPad,CuDef*
G36*
G01*
X191855000Y-64765000D02*
X192955000Y-64765000D01*
G75*
G02*
X193205000Y-65015000I0J-250000D01*
G01*
X193205000Y-68015000D01*
G75*
G02*
X192955000Y-68265000I-250000J0D01*
G01*
X191855000Y-68265000D01*
G75*
G02*
X191605000Y-68015000I0J250000D01*
G01*
X191605000Y-65015000D01*
G75*
G02*
X191855000Y-64765000I250000J0D01*
G01*
G37*
G04 #@! TD.AperFunction*
G04 #@! TA.AperFunction,SMDPad,CuDef*
G36*
G01*
X192955000Y-58740000D02*
X191855000Y-58740000D01*
G75*
G02*
X191605000Y-58490000I0J250000D01*
G01*
X191605000Y-55490000D01*
G75*
G02*
X191855000Y-55240000I250000J0D01*
G01*
X192955000Y-55240000D01*
G75*
G02*
X193205000Y-55490000I0J-250000D01*
G01*
X193205000Y-58490000D01*
G75*
G02*
X192955000Y-58740000I-250000J0D01*
G01*
G37*
G04 #@! TD.AperFunction*
G04 #@! TA.AperFunction,SMDPad,CuDef*
G36*
G01*
X192955000Y-64140000D02*
X191855000Y-64140000D01*
G75*
G02*
X191605000Y-63890000I0J250000D01*
G01*
X191605000Y-60890000D01*
G75*
G02*
X191855000Y-60640000I250000J0D01*
G01*
X192955000Y-60640000D01*
G75*
G02*
X193205000Y-60890000I0J-250000D01*
G01*
X193205000Y-63890000D01*
G75*
G02*
X192955000Y-64140000I-250000J0D01*
G01*
G37*
G04 #@! TD.AperFunction*
G04 #@! TA.AperFunction,SMDPad,CuDef*
G36*
G01*
X191855000Y-100805000D02*
X192955000Y-100805000D01*
G75*
G02*
X193205000Y-101055000I0J-250000D01*
G01*
X193205000Y-104055000D01*
G75*
G02*
X192955000Y-104305000I-250000J0D01*
G01*
X191855000Y-104305000D01*
G75*
G02*
X191605000Y-104055000I0J250000D01*
G01*
X191605000Y-101055000D01*
G75*
G02*
X191855000Y-100805000I250000J0D01*
G01*
G37*
G04 #@! TD.AperFunction*
G04 #@! TA.AperFunction,SMDPad,CuDef*
G36*
G01*
X191855000Y-95405000D02*
X192955000Y-95405000D01*
G75*
G02*
X193205000Y-95655000I0J-250000D01*
G01*
X193205000Y-98655000D01*
G75*
G02*
X192955000Y-98905000I-250000J0D01*
G01*
X191855000Y-98905000D01*
G75*
G02*
X191605000Y-98655000I0J250000D01*
G01*
X191605000Y-95655000D01*
G75*
G02*
X191855000Y-95405000I250000J0D01*
G01*
G37*
G04 #@! TD.AperFunction*
G04 #@! TA.AperFunction,SMDPad,CuDef*
G36*
G01*
X192955000Y-89220000D02*
X191855000Y-89220000D01*
G75*
G02*
X191605000Y-88970000I0J250000D01*
G01*
X191605000Y-85970000D01*
G75*
G02*
X191855000Y-85720000I250000J0D01*
G01*
X192955000Y-85720000D01*
G75*
G02*
X193205000Y-85970000I0J-250000D01*
G01*
X193205000Y-88970000D01*
G75*
G02*
X192955000Y-89220000I-250000J0D01*
G01*
G37*
G04 #@! TD.AperFunction*
G04 #@! TA.AperFunction,SMDPad,CuDef*
G36*
G01*
X192955000Y-94620000D02*
X191855000Y-94620000D01*
G75*
G02*
X191605000Y-94370000I0J250000D01*
G01*
X191605000Y-91370000D01*
G75*
G02*
X191855000Y-91120000I250000J0D01*
G01*
X192955000Y-91120000D01*
G75*
G02*
X193205000Y-91370000I0J-250000D01*
G01*
X193205000Y-94370000D01*
G75*
G02*
X192955000Y-94620000I-250000J0D01*
G01*
G37*
G04 #@! TD.AperFunction*
D15*
X152400000Y-65405000D03*
X152400000Y-62865000D03*
X152400000Y-60325000D03*
X152400000Y-57785000D03*
X152400000Y-67945000D03*
X152400000Y-70485000D03*
X152400000Y-73025000D03*
X152400000Y-55245000D03*
X152400000Y-52705000D03*
X152400000Y-50165000D03*
X152400000Y-47625000D03*
X149860000Y-60325000D03*
X147320000Y-60325000D03*
X144780000Y-60325000D03*
X142240000Y-60325000D03*
X139700000Y-60325000D03*
X137160000Y-47625000D03*
X137160000Y-50165000D03*
X137160000Y-52705000D03*
X137160000Y-55245000D03*
X137160000Y-57785000D03*
X137160000Y-60325000D03*
X137160000Y-62865000D03*
X137160000Y-65405000D03*
X152400000Y-75565000D03*
X152400000Y-78105000D03*
X152400000Y-80645000D03*
X152400000Y-83185000D03*
X152400000Y-85725000D03*
X152400000Y-88265000D03*
X152400000Y-90805000D03*
X152400000Y-93345000D03*
X152400000Y-95885000D03*
X152400000Y-98425000D03*
X152400000Y-100965000D03*
X152400000Y-103505000D03*
D16*
X152400000Y-106045000D03*
D15*
X137160000Y-67945000D03*
X137160000Y-70485000D03*
X137160000Y-73025000D03*
X137160000Y-75565000D03*
X137160000Y-78105000D03*
X137160000Y-80645000D03*
X137160000Y-83185000D03*
X137160000Y-85725000D03*
X137160000Y-88265000D03*
X137160000Y-90805000D03*
X137160000Y-93345000D03*
X137160000Y-95885000D03*
X137160000Y-98425000D03*
X137160000Y-100965000D03*
X137160000Y-103505000D03*
X137160000Y-106045000D03*
X139700000Y-103505000D03*
X139700000Y-98425000D03*
X139700000Y-95885000D03*
X139700000Y-93345000D03*
X144780000Y-90805000D03*
X144780000Y-88265000D03*
X144780000Y-85725000D03*
X144780000Y-83185000D03*
X144780000Y-67945000D03*
X144780000Y-65405000D03*
X144780000Y-62865000D03*
X144780000Y-57785000D03*
X144780000Y-55245000D03*
X144780000Y-52705000D03*
X144780000Y-50165000D03*
X144780000Y-47625000D03*
X142240000Y-47625000D03*
X142240000Y-50165000D03*
X142240000Y-52705000D03*
X142240000Y-55245000D03*
X142240000Y-57785000D03*
X142240000Y-62865000D03*
X142240000Y-65405000D03*
X142240000Y-67945000D03*
X142240000Y-83185000D03*
X142240000Y-85725000D03*
X142240000Y-88265000D03*
X142240000Y-90805000D03*
X149400000Y-99695000D03*
X149400000Y-97155000D03*
X149400000Y-94615000D03*
X149400000Y-92075000D03*
X149400000Y-89535000D03*
D17*
X127635000Y-104140000D03*
X127635000Y-101600000D03*
D18*
X127635000Y-99060000D03*
G04 #@! TA.AperFunction,SMDPad,CuDef*
G36*
G01*
X170755000Y-114484999D02*
X170755000Y-115385001D01*
G75*
G02*
X170505001Y-115635000I-249999J0D01*
G01*
X169854999Y-115635000D01*
G75*
G02*
X169605000Y-115385001I0J249999D01*
G01*
X169605000Y-114484999D01*
G75*
G02*
X169854999Y-114235000I249999J0D01*
G01*
X170505001Y-114235000D01*
G75*
G02*
X170755000Y-114484999I0J-249999D01*
G01*
G37*
G04 #@! TD.AperFunction*
G04 #@! TA.AperFunction,SMDPad,CuDef*
G36*
G01*
X172805000Y-114484999D02*
X172805000Y-115385001D01*
G75*
G02*
X172555001Y-115635000I-249999J0D01*
G01*
X171904999Y-115635000D01*
G75*
G02*
X171655000Y-115385001I0J249999D01*
G01*
X171655000Y-114484999D01*
G75*
G02*
X171904999Y-114235000I249999J0D01*
G01*
X172555001Y-114235000D01*
G75*
G02*
X172805000Y-114484999I0J-249999D01*
G01*
G37*
G04 #@! TD.AperFunction*
G04 #@! TA.AperFunction,SMDPad,CuDef*
G36*
G01*
X159960000Y-114484999D02*
X159960000Y-115385001D01*
G75*
G02*
X159710001Y-115635000I-249999J0D01*
G01*
X159059999Y-115635000D01*
G75*
G02*
X158810000Y-115385001I0J249999D01*
G01*
X158810000Y-114484999D01*
G75*
G02*
X159059999Y-114235000I249999J0D01*
G01*
X159710001Y-114235000D01*
G75*
G02*
X159960000Y-114484999I0J-249999D01*
G01*
G37*
G04 #@! TD.AperFunction*
G04 #@! TA.AperFunction,SMDPad,CuDef*
G36*
G01*
X162010000Y-114484999D02*
X162010000Y-115385001D01*
G75*
G02*
X161760001Y-115635000I-249999J0D01*
G01*
X161109999Y-115635000D01*
G75*
G02*
X160860000Y-115385001I0J249999D01*
G01*
X160860000Y-114484999D01*
G75*
G02*
X161109999Y-114235000I249999J0D01*
G01*
X161760001Y-114235000D01*
G75*
G02*
X162010000Y-114484999I0J-249999D01*
G01*
G37*
G04 #@! TD.AperFunction*
D19*
X184785000Y-118110000D03*
D20*
X179705000Y-118110000D03*
D12*
X186055000Y-67945000D03*
X186055000Y-65405000D03*
X186055000Y-62865000D03*
X186055000Y-60325000D03*
X186055000Y-55245000D03*
X186055000Y-52705000D03*
X163195000Y-75565000D03*
X163195000Y-73025000D03*
X163195000Y-70485000D03*
X163195000Y-67945000D03*
X163195000Y-65405000D03*
X163195000Y-62865000D03*
X163195000Y-60325000D03*
X163195000Y-57785000D03*
X163195000Y-55245000D03*
X163195000Y-52705000D03*
X163195000Y-50165000D03*
X163195000Y-47625000D03*
X165735000Y-47625000D03*
D11*
X184785000Y-74295000D03*
X184785000Y-48895000D03*
D21*
X191770000Y-57785000D03*
X191770000Y-57150000D03*
X191770000Y-56515000D03*
X191770000Y-55880000D03*
X193040000Y-55880000D03*
X193040000Y-56515000D03*
X193040000Y-57150000D03*
X193040000Y-57785000D03*
X193040000Y-71755000D03*
X193040000Y-72390000D03*
X193040000Y-73025000D03*
X191770000Y-73025000D03*
X191770000Y-72390000D03*
X191770000Y-71755000D03*
X191770000Y-71120000D03*
X193040000Y-71120000D03*
X193040000Y-86360000D03*
X191770000Y-86360000D03*
X191770000Y-86995000D03*
X193040000Y-86995000D03*
X193040000Y-87630000D03*
X191770000Y-87630000D03*
X191770000Y-88265000D03*
X193040000Y-88265000D03*
X193040000Y-102235000D03*
X193040000Y-102870000D03*
X193040000Y-103505000D03*
X191770000Y-103505000D03*
X191770000Y-102870000D03*
X191770000Y-102235000D03*
X191770000Y-101600000D03*
X193040000Y-101600000D03*
X192405000Y-102870000D03*
X192405000Y-102235000D03*
X192405000Y-87630000D03*
X192405000Y-86995000D03*
X192405000Y-72390000D03*
X192405000Y-71755000D03*
X192405000Y-57150000D03*
X192405000Y-56515000D03*
X192405000Y-103505000D03*
X192405000Y-101600000D03*
X192405000Y-86360000D03*
X192405000Y-88265000D03*
X192405000Y-73025000D03*
X192405000Y-71120000D03*
X192405000Y-57785000D03*
X192405000Y-55880000D03*
X172085000Y-69215000D03*
X170180000Y-64770000D03*
X158114996Y-66675004D03*
D22*
X155575000Y-80645000D02*
X156210000Y-81280000D01*
X152400000Y-80645000D02*
X155575000Y-80645000D01*
X137160000Y-93345000D02*
X138430000Y-94615000D01*
X138430000Y-94615000D02*
X146685000Y-94615000D01*
X146685000Y-94615000D02*
X147955000Y-95885000D01*
X147955000Y-95885000D02*
X149860000Y-95885000D01*
X161805001Y-97274999D02*
X163195000Y-95885000D01*
X151249999Y-97274999D02*
X161805001Y-97274999D01*
X149860000Y-95885000D02*
X151249999Y-97274999D01*
X155575000Y-75565000D02*
X156210000Y-76200000D01*
X152400000Y-75565000D02*
X155575000Y-75565000D01*
X163195000Y-60325000D02*
X172085000Y-69215000D01*
X155575000Y-73025000D02*
X156210000Y-73660000D01*
X152400000Y-73025000D02*
X155575000Y-73025000D01*
X163195000Y-57785000D02*
X168910000Y-63500000D01*
X168910000Y-63500000D02*
X170180000Y-64770000D01*
X137160000Y-78105000D02*
X148589996Y-66675004D01*
X148589996Y-66675004D02*
X158114996Y-66675004D01*
X152400000Y-78105000D02*
X155575000Y-78105000D01*
X155575000Y-78105000D02*
X156210000Y-78740000D01*
X161925000Y-56515000D02*
X163195000Y-55245000D01*
X161925000Y-80010000D02*
X161925000Y-56515000D01*
X152400000Y-88265000D02*
X153670000Y-88265000D01*
X153670000Y-88265000D02*
X161925000Y-80010000D01*
X160655000Y-55245000D02*
X163195000Y-52705000D01*
X160655000Y-79165002D02*
X160655000Y-55245000D01*
X152400000Y-85725000D02*
X154095002Y-85725000D01*
X154095002Y-85725000D02*
X160655000Y-79165002D01*
X162560000Y-85725000D02*
X163195000Y-85725000D01*
X152400000Y-95885000D02*
X162560000Y-85725000D01*
X162560000Y-83185000D02*
X163195000Y-83185000D01*
X152400000Y-93345000D02*
X162560000Y-83185000D01*
D23*
X184745000Y-110490000D02*
X184785000Y-110490000D01*
X184785000Y-110490000D02*
X189865000Y-105410000D01*
X189865000Y-99695000D02*
X192405000Y-97155000D01*
X189865000Y-105410000D02*
X189865000Y-99695000D01*
X192405000Y-97155000D02*
X192405000Y-92870000D01*
X192405000Y-92870000D02*
X189865000Y-90330000D01*
X187087802Y-83185000D02*
X186690000Y-83185000D01*
X189865000Y-85962198D02*
X187087802Y-83185000D01*
X189865000Y-90330000D02*
X189865000Y-85962198D01*
X189865000Y-69055000D02*
X192405000Y-66515000D01*
X189865000Y-85962198D02*
X189865000Y-69055000D01*
X192405000Y-66515000D02*
X192405000Y-62390000D01*
X187729446Y-52705000D02*
X186690000Y-52705000D01*
X189554999Y-54530553D02*
X187729446Y-52705000D01*
X189554999Y-59539999D02*
X189554999Y-54530553D01*
X192405000Y-62390000D02*
X189554999Y-59539999D01*
X184785000Y-110530000D02*
X184745000Y-110490000D01*
X184785000Y-118110000D02*
X184785000Y-110530000D01*
D22*
X159385000Y-110490000D02*
X159385000Y-114935000D01*
X152400000Y-103505000D02*
X159385000Y-110490000D01*
X159385000Y-118745000D02*
X159385000Y-114935000D01*
X152400000Y-100965000D02*
X161925000Y-110490000D01*
X165735000Y-110490000D02*
X170180000Y-114935000D01*
X161925000Y-110490000D02*
X165735000Y-110490000D01*
X170180000Y-114935000D02*
X170180000Y-118745000D01*
X155575000Y-47625000D02*
X156210000Y-48260000D01*
X152400000Y-47625000D02*
X155575000Y-47625000D01*
X154305000Y-52705000D02*
X156210000Y-50800000D01*
X152400000Y-52705000D02*
X154305000Y-52705000D01*
X154305000Y-55245000D02*
X156210000Y-53340000D01*
X152400000Y-55245000D02*
X154305000Y-55245000D01*
D24*
G36*
X135780147Y-47206426D02*
G01*
X135725000Y-47483665D01*
X135725000Y-47766335D01*
X135780147Y-48043574D01*
X135888320Y-48304727D01*
X136045363Y-48539759D01*
X136245241Y-48739637D01*
X136477759Y-48895000D01*
X136245241Y-49050363D01*
X136045363Y-49250241D01*
X135888320Y-49485273D01*
X135780147Y-49746426D01*
X135725000Y-50023665D01*
X135725000Y-50306335D01*
X135780147Y-50583574D01*
X135888320Y-50844727D01*
X136045363Y-51079759D01*
X136245241Y-51279637D01*
X136477759Y-51435000D01*
X136245241Y-51590363D01*
X136045363Y-51790241D01*
X135888320Y-52025273D01*
X135780147Y-52286426D01*
X135725000Y-52563665D01*
X135725000Y-52846335D01*
X135780147Y-53123574D01*
X135888320Y-53384727D01*
X136045363Y-53619759D01*
X136245241Y-53819637D01*
X136477759Y-53975000D01*
X136245241Y-54130363D01*
X136045363Y-54330241D01*
X135888320Y-54565273D01*
X135780147Y-54826426D01*
X135725000Y-55103665D01*
X135725000Y-55386335D01*
X135780147Y-55663574D01*
X135888320Y-55924727D01*
X136045363Y-56159759D01*
X136245241Y-56359637D01*
X136477759Y-56515000D01*
X136245241Y-56670363D01*
X136045363Y-56870241D01*
X135888320Y-57105273D01*
X135780147Y-57366426D01*
X135725000Y-57643665D01*
X135725000Y-57926335D01*
X135780147Y-58203574D01*
X135888320Y-58464727D01*
X136045363Y-58699759D01*
X136245241Y-58899637D01*
X136477759Y-59055000D01*
X136245241Y-59210363D01*
X136045363Y-59410241D01*
X135888320Y-59645273D01*
X135780147Y-59906426D01*
X135725000Y-60183665D01*
X135725000Y-60466335D01*
X135780147Y-60743574D01*
X135888320Y-61004727D01*
X136045363Y-61239759D01*
X136245241Y-61439637D01*
X136477759Y-61595000D01*
X136245241Y-61750363D01*
X136045363Y-61950241D01*
X135888320Y-62185273D01*
X135780147Y-62446426D01*
X135725000Y-62723665D01*
X135725000Y-63006335D01*
X135780147Y-63283574D01*
X135888320Y-63544727D01*
X136045363Y-63779759D01*
X136245241Y-63979637D01*
X136477759Y-64135000D01*
X136245241Y-64290363D01*
X136045363Y-64490241D01*
X135888320Y-64725273D01*
X135780147Y-64986426D01*
X135725000Y-65263665D01*
X135725000Y-65546335D01*
X135780147Y-65823574D01*
X135888320Y-66084727D01*
X136045363Y-66319759D01*
X136245241Y-66519637D01*
X136477759Y-66675000D01*
X136245241Y-66830363D01*
X136045363Y-67030241D01*
X135888320Y-67265273D01*
X135780147Y-67526426D01*
X135725000Y-67803665D01*
X135725000Y-68086335D01*
X135780147Y-68363574D01*
X135888320Y-68624727D01*
X136045363Y-68859759D01*
X136245241Y-69059637D01*
X136477759Y-69215000D01*
X136245241Y-69370363D01*
X136045363Y-69570241D01*
X135888320Y-69805273D01*
X135780147Y-70066426D01*
X135725000Y-70343665D01*
X135725000Y-70626335D01*
X135780147Y-70903574D01*
X135888320Y-71164727D01*
X136045363Y-71399759D01*
X136245241Y-71599637D01*
X136477759Y-71755000D01*
X136245241Y-71910363D01*
X136045363Y-72110241D01*
X135888320Y-72345273D01*
X135780147Y-72606426D01*
X135725000Y-72883665D01*
X135725000Y-73166335D01*
X135780147Y-73443574D01*
X135888320Y-73704727D01*
X136045363Y-73939759D01*
X136245241Y-74139637D01*
X136477759Y-74295000D01*
X136245241Y-74450363D01*
X136045363Y-74650241D01*
X135888320Y-74885273D01*
X135780147Y-75146426D01*
X135725000Y-75423665D01*
X135725000Y-75706335D01*
X135780147Y-75983574D01*
X135888320Y-76244727D01*
X136045363Y-76479759D01*
X136245241Y-76679637D01*
X136477759Y-76835000D01*
X136245241Y-76990363D01*
X136045363Y-77190241D01*
X135888320Y-77425273D01*
X135780147Y-77686426D01*
X135725000Y-77963665D01*
X135725000Y-78246335D01*
X135780147Y-78523574D01*
X135888320Y-78784727D01*
X136045363Y-79019759D01*
X136245241Y-79219637D01*
X136477759Y-79375000D01*
X136245241Y-79530363D01*
X136045363Y-79730241D01*
X135888320Y-79965273D01*
X135780147Y-80226426D01*
X135725000Y-80503665D01*
X135725000Y-80786335D01*
X135780147Y-81063574D01*
X135888320Y-81324727D01*
X136045363Y-81559759D01*
X136245241Y-81759637D01*
X136477759Y-81915000D01*
X136245241Y-82070363D01*
X136045363Y-82270241D01*
X135888320Y-82505273D01*
X135780147Y-82766426D01*
X135725000Y-83043665D01*
X135725000Y-83326335D01*
X135780147Y-83603574D01*
X135888320Y-83864727D01*
X136045363Y-84099759D01*
X136245241Y-84299637D01*
X136477759Y-84455000D01*
X136245241Y-84610363D01*
X136045363Y-84810241D01*
X135888320Y-85045273D01*
X135780147Y-85306426D01*
X135725000Y-85583665D01*
X135725000Y-85866335D01*
X135780147Y-86143574D01*
X135888320Y-86404727D01*
X136045363Y-86639759D01*
X136245241Y-86839637D01*
X136477759Y-86995000D01*
X136245241Y-87150363D01*
X136045363Y-87350241D01*
X135888320Y-87585273D01*
X135780147Y-87846426D01*
X135725000Y-88123665D01*
X135725000Y-88406335D01*
X135780147Y-88683574D01*
X135888320Y-88944727D01*
X136045363Y-89179759D01*
X136245241Y-89379637D01*
X136477759Y-89535000D01*
X136245241Y-89690363D01*
X136045363Y-89890241D01*
X135888320Y-90125273D01*
X135780147Y-90386426D01*
X135725000Y-90663665D01*
X135725000Y-90946335D01*
X135780147Y-91223574D01*
X135888320Y-91484727D01*
X136045363Y-91719759D01*
X136245241Y-91919637D01*
X136477759Y-92075000D01*
X136245241Y-92230363D01*
X136045363Y-92430241D01*
X135888320Y-92665273D01*
X135780147Y-92926426D01*
X135725000Y-93203665D01*
X135725000Y-93486335D01*
X135780147Y-93763574D01*
X135888320Y-94024727D01*
X136045363Y-94259759D01*
X136245241Y-94459637D01*
X136477759Y-94615000D01*
X136245241Y-94770363D01*
X136045363Y-94970241D01*
X135888320Y-95205273D01*
X135780147Y-95466426D01*
X135725000Y-95743665D01*
X135725000Y-96026335D01*
X135780147Y-96303574D01*
X135888320Y-96564727D01*
X136045363Y-96799759D01*
X136245241Y-96999637D01*
X136477759Y-97155000D01*
X136245241Y-97310363D01*
X136045363Y-97510241D01*
X135888320Y-97745273D01*
X135780147Y-98006426D01*
X135725000Y-98283665D01*
X135725000Y-98566335D01*
X135780147Y-98843574D01*
X135888320Y-99104727D01*
X136045363Y-99339759D01*
X136245241Y-99539637D01*
X136479128Y-99695915D01*
X136418486Y-99728329D01*
X136346903Y-99972298D01*
X137160000Y-100785395D01*
X137973097Y-99972298D01*
X137901514Y-99728329D01*
X137837008Y-99697806D01*
X137839727Y-99696680D01*
X138074759Y-99539637D01*
X138274637Y-99339759D01*
X138430000Y-99107241D01*
X138585363Y-99339759D01*
X138785241Y-99539637D01*
X139020273Y-99696680D01*
X139281426Y-99804853D01*
X139558665Y-99860000D01*
X139841335Y-99860000D01*
X140118574Y-99804853D01*
X140379727Y-99696680D01*
X140614759Y-99539637D01*
X140814637Y-99339759D01*
X140971680Y-99104727D01*
X141079853Y-98843574D01*
X141135000Y-98566335D01*
X141135000Y-98283665D01*
X141079853Y-98006426D01*
X140971680Y-97745273D01*
X140814637Y-97510241D01*
X140614759Y-97310363D01*
X140382241Y-97155000D01*
X140614759Y-96999637D01*
X140814637Y-96799759D01*
X140971680Y-96564727D01*
X141079853Y-96303574D01*
X141135000Y-96026335D01*
X141135000Y-95743665D01*
X141079853Y-95466426D01*
X141052338Y-95400000D01*
X146359843Y-95400000D01*
X147372655Y-96412813D01*
X147397236Y-96442764D01*
X147427184Y-96467342D01*
X147427187Y-96467345D01*
X147454791Y-96489999D01*
X147516767Y-96540862D01*
X147653140Y-96613754D01*
X147766672Y-96648194D01*
X147801112Y-96658641D01*
X147815490Y-96660057D01*
X147916439Y-96670000D01*
X147916446Y-96670000D01*
X147954999Y-96673797D01*
X147993552Y-96670000D01*
X148047662Y-96670000D01*
X148020147Y-96736426D01*
X147965000Y-97013665D01*
X147965000Y-97296335D01*
X148020147Y-97573574D01*
X148128320Y-97834727D01*
X148285363Y-98069759D01*
X148485241Y-98269637D01*
X148717759Y-98425000D01*
X148485241Y-98580363D01*
X148285363Y-98780241D01*
X148128320Y-99015273D01*
X148020147Y-99276426D01*
X147965000Y-99553665D01*
X147965000Y-99836335D01*
X148020147Y-100113574D01*
X148128320Y-100374727D01*
X148285363Y-100609759D01*
X148485241Y-100809637D01*
X148720273Y-100966680D01*
X148981426Y-101074853D01*
X149258665Y-101130000D01*
X149541335Y-101130000D01*
X149818574Y-101074853D01*
X150079727Y-100966680D01*
X150314759Y-100809637D01*
X150514637Y-100609759D01*
X150671680Y-100374727D01*
X150779853Y-100113574D01*
X150835000Y-99836335D01*
X150835000Y-99553665D01*
X150779853Y-99276426D01*
X150671680Y-99015273D01*
X150514637Y-98780241D01*
X150314759Y-98580363D01*
X150082241Y-98425000D01*
X150314759Y-98269637D01*
X150514637Y-98069759D01*
X150671680Y-97834727D01*
X150679115Y-97816777D01*
X150692235Y-97832763D01*
X150722183Y-97857341D01*
X150722186Y-97857344D01*
X150751558Y-97881449D01*
X150811766Y-97930861D01*
X150948139Y-98003753D01*
X151016551Y-98024505D01*
X150965000Y-98283665D01*
X150965000Y-98566335D01*
X151020147Y-98843574D01*
X151128320Y-99104727D01*
X151285363Y-99339759D01*
X151485241Y-99539637D01*
X151717759Y-99695000D01*
X151485241Y-99850363D01*
X151285363Y-100050241D01*
X151128320Y-100285273D01*
X151020147Y-100546426D01*
X150965000Y-100823665D01*
X150965000Y-101106335D01*
X151020147Y-101383574D01*
X151128320Y-101644727D01*
X151285363Y-101879759D01*
X151485241Y-102079637D01*
X151717759Y-102235000D01*
X151485241Y-102390363D01*
X151285363Y-102590241D01*
X151128320Y-102825273D01*
X151020147Y-103086426D01*
X150965000Y-103363665D01*
X150965000Y-103646335D01*
X151020147Y-103923574D01*
X151128320Y-104184727D01*
X151285363Y-104419759D01*
X151483961Y-104618357D01*
X151475518Y-104619188D01*
X151355820Y-104655498D01*
X151245506Y-104714463D01*
X151148815Y-104793815D01*
X151069463Y-104890506D01*
X151010498Y-105000820D01*
X150974188Y-105120518D01*
X150961928Y-105245000D01*
X150961928Y-106845000D01*
X150974188Y-106969482D01*
X151010498Y-107089180D01*
X151069463Y-107199494D01*
X151148815Y-107296185D01*
X151245506Y-107375537D01*
X151355820Y-107434502D01*
X151475518Y-107470812D01*
X151600000Y-107483072D01*
X153200000Y-107483072D01*
X153324482Y-107470812D01*
X153444180Y-107434502D01*
X153554494Y-107375537D01*
X153651185Y-107296185D01*
X153730537Y-107199494D01*
X153789502Y-107089180D01*
X153825812Y-106969482D01*
X153838072Y-106845000D01*
X153838072Y-106053229D01*
X158600000Y-110815157D01*
X158600001Y-113728749D01*
X158566613Y-113746595D01*
X158432038Y-113857038D01*
X158321595Y-113991613D01*
X158239528Y-114145149D01*
X158188992Y-114311745D01*
X158171928Y-114484999D01*
X158171928Y-115385001D01*
X158188992Y-115558255D01*
X158239528Y-115724851D01*
X158321595Y-115878387D01*
X158432038Y-116012962D01*
X158566613Y-116123405D01*
X158600001Y-116141251D01*
X158600000Y-117483526D01*
X158438368Y-117591525D01*
X158306513Y-117723380D01*
X158284502Y-117650820D01*
X158225537Y-117540506D01*
X158146185Y-117443815D01*
X158049494Y-117364463D01*
X157939180Y-117305498D01*
X157819482Y-117269188D01*
X157695000Y-117256928D01*
X155995000Y-117256928D01*
X155870518Y-117269188D01*
X155750820Y-117305498D01*
X155640506Y-117364463D01*
X155543815Y-117443815D01*
X155464463Y-117540506D01*
X155405498Y-117650820D01*
X155369188Y-117770518D01*
X155356928Y-117895000D01*
X155356928Y-119595000D01*
X155369188Y-119719482D01*
X155405498Y-119839180D01*
X155464463Y-119949494D01*
X155543815Y-120046185D01*
X155640506Y-120125537D01*
X155750820Y-120184502D01*
X155870518Y-120220812D01*
X155995000Y-120233072D01*
X157695000Y-120233072D01*
X157819482Y-120220812D01*
X157939180Y-120184502D01*
X158049494Y-120125537D01*
X158146185Y-120046185D01*
X158225537Y-119949494D01*
X158284502Y-119839180D01*
X158306513Y-119766620D01*
X158438368Y-119898475D01*
X158681589Y-120060990D01*
X158951842Y-120172932D01*
X159238740Y-120230000D01*
X159531260Y-120230000D01*
X159818158Y-120172932D01*
X160088411Y-120060990D01*
X160331632Y-119898475D01*
X160538475Y-119691632D01*
X160655000Y-119517240D01*
X160771525Y-119691632D01*
X160978368Y-119898475D01*
X161221589Y-120060990D01*
X161491842Y-120172932D01*
X161778740Y-120230000D01*
X162071260Y-120230000D01*
X162358158Y-120172932D01*
X162628411Y-120060990D01*
X162871632Y-119898475D01*
X163078475Y-119691632D01*
X163240990Y-119448411D01*
X163352932Y-119178158D01*
X163410000Y-118891260D01*
X163410000Y-118598740D01*
X163352932Y-118311842D01*
X163240990Y-118041589D01*
X163078475Y-117798368D01*
X162871632Y-117591525D01*
X162628411Y-117429010D01*
X162358158Y-117317068D01*
X162071260Y-117260000D01*
X161778740Y-117260000D01*
X161491842Y-117317068D01*
X161221589Y-117429010D01*
X160978368Y-117591525D01*
X160771525Y-117798368D01*
X160655000Y-117972760D01*
X160538475Y-117798368D01*
X160331632Y-117591525D01*
X160170000Y-117483526D01*
X160170000Y-116141251D01*
X160203387Y-116123405D01*
X160337962Y-116012962D01*
X160343342Y-116006406D01*
X160408815Y-116086185D01*
X160505506Y-116165537D01*
X160615820Y-116224502D01*
X160735518Y-116260812D01*
X160860000Y-116273072D01*
X161149250Y-116270000D01*
X161308000Y-116111250D01*
X161308000Y-115062000D01*
X161562000Y-115062000D01*
X161562000Y-116111250D01*
X161720750Y-116270000D01*
X162010000Y-116273072D01*
X162134482Y-116260812D01*
X162254180Y-116224502D01*
X162364494Y-116165537D01*
X162461185Y-116086185D01*
X162540537Y-115989494D01*
X162599502Y-115879180D01*
X162635812Y-115759482D01*
X162648072Y-115635000D01*
X162645000Y-115220750D01*
X162486250Y-115062000D01*
X161562000Y-115062000D01*
X161308000Y-115062000D01*
X161288000Y-115062000D01*
X161288000Y-114808000D01*
X161308000Y-114808000D01*
X161308000Y-113758750D01*
X161562000Y-113758750D01*
X161562000Y-114808000D01*
X162486250Y-114808000D01*
X162645000Y-114649250D01*
X162648072Y-114235000D01*
X162635812Y-114110518D01*
X162599502Y-113990820D01*
X162540537Y-113880506D01*
X162461185Y-113783815D01*
X162364494Y-113704463D01*
X162254180Y-113645498D01*
X162134482Y-113609188D01*
X162010000Y-113596928D01*
X161720750Y-113600000D01*
X161562000Y-113758750D01*
X161308000Y-113758750D01*
X161149250Y-113600000D01*
X160860000Y-113596928D01*
X160735518Y-113609188D01*
X160615820Y-113645498D01*
X160505506Y-113704463D01*
X160408815Y-113783815D01*
X160343342Y-113863594D01*
X160337962Y-113857038D01*
X160203387Y-113746595D01*
X160170000Y-113728749D01*
X160170000Y-110528556D01*
X160173797Y-110490000D01*
X160170000Y-110451440D01*
X160170000Y-110451439D01*
X160166020Y-110411026D01*
X160158642Y-110336113D01*
X160113754Y-110188140D01*
X160040862Y-110051767D01*
X159942764Y-109932236D01*
X159912811Y-109907654D01*
X153804554Y-103799397D01*
X153835000Y-103646335D01*
X153835000Y-103510157D01*
X161342658Y-111017816D01*
X161367236Y-111047764D01*
X161397184Y-111072342D01*
X161397187Y-111072345D01*
X161426559Y-111096450D01*
X161486767Y-111145862D01*
X161608695Y-111211033D01*
X161623140Y-111218754D01*
X161771112Y-111263641D01*
X161785490Y-111265057D01*
X161886439Y-111275000D01*
X161886446Y-111275000D01*
X161924999Y-111278797D01*
X161963552Y-111275000D01*
X165409843Y-111275000D01*
X168966928Y-114832086D01*
X168966928Y-115385001D01*
X168983992Y-115558255D01*
X169034528Y-115724851D01*
X169116595Y-115878387D01*
X169227038Y-116012962D01*
X169361613Y-116123405D01*
X169395000Y-116141251D01*
X169395001Y-117483526D01*
X169233368Y-117591525D01*
X169101513Y-117723380D01*
X169079502Y-117650820D01*
X169020537Y-117540506D01*
X168941185Y-117443815D01*
X168844494Y-117364463D01*
X168734180Y-117305498D01*
X168614482Y-117269188D01*
X168490000Y-117256928D01*
X166790000Y-117256928D01*
X166665518Y-117269188D01*
X166545820Y-117305498D01*
X166435506Y-117364463D01*
X166338815Y-117443815D01*
X166259463Y-117540506D01*
X166200498Y-117650820D01*
X166164188Y-117770518D01*
X166151928Y-117895000D01*
X166151928Y-119595000D01*
X166164188Y-119719482D01*
X166200498Y-119839180D01*
X166259463Y-119949494D01*
X166338815Y-120046185D01*
X166435506Y-120125537D01*
X166545820Y-120184502D01*
X166665518Y-120220812D01*
X166790000Y-120233072D01*
X168490000Y-120233072D01*
X168614482Y-120220812D01*
X168734180Y-120184502D01*
X168844494Y-120125537D01*
X168941185Y-120046185D01*
X169020537Y-119949494D01*
X169079502Y-119839180D01*
X169101513Y-119766620D01*
X169233368Y-119898475D01*
X169476589Y-120060990D01*
X169746842Y-120172932D01*
X170033740Y-120230000D01*
X170326260Y-120230000D01*
X170613158Y-120172932D01*
X170883411Y-120060990D01*
X171126632Y-119898475D01*
X171333475Y-119691632D01*
X171450000Y-119517240D01*
X171566525Y-119691632D01*
X171773368Y-119898475D01*
X172016589Y-120060990D01*
X172286842Y-120172932D01*
X172573740Y-120230000D01*
X172866260Y-120230000D01*
X173153158Y-120172932D01*
X173423411Y-120060990D01*
X173666632Y-119898475D01*
X173873475Y-119691632D01*
X174035990Y-119448411D01*
X174147932Y-119178158D01*
X174205000Y-118891260D01*
X174205000Y-118598740D01*
X174147932Y-118311842D01*
X174035990Y-118041589D01*
X173873475Y-117798368D01*
X173666632Y-117591525D01*
X173423411Y-117429010D01*
X173153158Y-117317068D01*
X172866260Y-117260000D01*
X172573740Y-117260000D01*
X172286842Y-117317068D01*
X172016589Y-117429010D01*
X171773368Y-117591525D01*
X171566525Y-117798368D01*
X171450000Y-117972760D01*
X171333475Y-117798368D01*
X171126632Y-117591525D01*
X170965000Y-117483526D01*
X170965000Y-116610000D01*
X177566928Y-116610000D01*
X177566928Y-119610000D01*
X177579188Y-119734482D01*
X177615498Y-119854180D01*
X177674463Y-119964494D01*
X177753815Y-120061185D01*
X177850506Y-120140537D01*
X177960820Y-120199502D01*
X178080518Y-120235812D01*
X178205000Y-120248072D01*
X181205000Y-120248072D01*
X181329482Y-120235812D01*
X181449180Y-120199502D01*
X181559494Y-120140537D01*
X181656185Y-120061185D01*
X181735537Y-119964494D01*
X181794502Y-119854180D01*
X181830812Y-119734482D01*
X181843072Y-119610000D01*
X181843072Y-116610000D01*
X181830812Y-116485518D01*
X181794502Y-116365820D01*
X181735537Y-116255506D01*
X181656185Y-116158815D01*
X181559494Y-116079463D01*
X181449180Y-116020498D01*
X181329482Y-115984188D01*
X181205000Y-115971928D01*
X178205000Y-115971928D01*
X178080518Y-115984188D01*
X177960820Y-116020498D01*
X177850506Y-116079463D01*
X177753815Y-116158815D01*
X177674463Y-116255506D01*
X177615498Y-116365820D01*
X177579188Y-116485518D01*
X177566928Y-116610000D01*
X170965000Y-116610000D01*
X170965000Y-116141251D01*
X170998387Y-116123405D01*
X171132962Y-116012962D01*
X171138342Y-116006406D01*
X171203815Y-116086185D01*
X171300506Y-116165537D01*
X171410820Y-116224502D01*
X171530518Y-116260812D01*
X171655000Y-116273072D01*
X171944250Y-116270000D01*
X172103000Y-116111250D01*
X172103000Y-115062000D01*
X172357000Y-115062000D01*
X172357000Y-116111250D01*
X172515750Y-116270000D01*
X172805000Y-116273072D01*
X172929482Y-116260812D01*
X173049180Y-116224502D01*
X173159494Y-116165537D01*
X173256185Y-116086185D01*
X173335537Y-115989494D01*
X173394502Y-115879180D01*
X173430812Y-115759482D01*
X173443072Y-115635000D01*
X173440000Y-115220750D01*
X173281250Y-115062000D01*
X172357000Y-115062000D01*
X172103000Y-115062000D01*
X172083000Y-115062000D01*
X172083000Y-114808000D01*
X172103000Y-114808000D01*
X172103000Y-113758750D01*
X172357000Y-113758750D01*
X172357000Y-114808000D01*
X173281250Y-114808000D01*
X173440000Y-114649250D01*
X173443072Y-114235000D01*
X173430812Y-114110518D01*
X173394502Y-113990820D01*
X173335537Y-113880506D01*
X173256185Y-113783815D01*
X173159494Y-113704463D01*
X173049180Y-113645498D01*
X172929482Y-113609188D01*
X172805000Y-113596928D01*
X172515750Y-113600000D01*
X172357000Y-113758750D01*
X172103000Y-113758750D01*
X171944250Y-113600000D01*
X171655000Y-113596928D01*
X171530518Y-113609188D01*
X171410820Y-113645498D01*
X171300506Y-113704463D01*
X171203815Y-113783815D01*
X171138342Y-113863594D01*
X171132962Y-113857038D01*
X170998387Y-113746595D01*
X170844851Y-113664528D01*
X170678255Y-113613992D01*
X170505001Y-113596928D01*
X169952086Y-113596928D01*
X166317345Y-109962188D01*
X166292764Y-109932236D01*
X166173233Y-109834138D01*
X166036860Y-109761246D01*
X165966822Y-109740000D01*
X180756928Y-109740000D01*
X180756928Y-111240000D01*
X180773992Y-111413254D01*
X180824528Y-111579850D01*
X180906595Y-111733386D01*
X181017038Y-111867962D01*
X181151614Y-111978405D01*
X181305150Y-112060472D01*
X181471746Y-112111008D01*
X181645000Y-112128072D01*
X182845000Y-112128072D01*
X183018254Y-112111008D01*
X183184850Y-112060472D01*
X183338386Y-111978405D01*
X183400001Y-111927839D01*
X183400000Y-116475654D01*
X183126637Y-116749017D01*
X182892988Y-117098698D01*
X182732047Y-117487244D01*
X182650000Y-117899721D01*
X182650000Y-118320279D01*
X182732047Y-118732756D01*
X182892988Y-119121302D01*
X183126637Y-119470983D01*
X183424017Y-119768363D01*
X183773698Y-120002012D01*
X184162244Y-120162953D01*
X184574721Y-120245000D01*
X184995279Y-120245000D01*
X185407756Y-120162953D01*
X185796302Y-120002012D01*
X186145983Y-119768363D01*
X186443363Y-119470983D01*
X186677012Y-119121302D01*
X186837953Y-118732756D01*
X186920000Y-118320279D01*
X186920000Y-117899721D01*
X186837953Y-117487244D01*
X186677012Y-117098698D01*
X186443363Y-116749017D01*
X186170000Y-116475654D01*
X186170000Y-111063685D01*
X190796241Y-106437445D01*
X190849080Y-106394081D01*
X190892445Y-106341241D01*
X190892452Y-106341234D01*
X190963460Y-106254710D01*
X191022157Y-106183188D01*
X191150764Y-105942581D01*
X191229960Y-105681507D01*
X191250000Y-105478037D01*
X191250000Y-105478029D01*
X191256700Y-105410000D01*
X191250000Y-105341971D01*
X191250000Y-104701806D01*
X191361614Y-104793405D01*
X191515150Y-104875472D01*
X191681746Y-104926008D01*
X191855000Y-104943072D01*
X192955000Y-104943072D01*
X193128254Y-104926008D01*
X193294850Y-104875472D01*
X193448386Y-104793405D01*
X193582962Y-104682962D01*
X193693405Y-104548386D01*
X193775472Y-104394850D01*
X193826008Y-104228254D01*
X193843072Y-104055000D01*
X193843072Y-103878830D01*
X193890990Y-103763145D01*
X193925000Y-103592165D01*
X193925000Y-103417835D01*
X193890990Y-103246855D01*
X193866404Y-103187500D01*
X193890990Y-103128145D01*
X193925000Y-102957165D01*
X193925000Y-102782835D01*
X193890990Y-102611855D01*
X193866404Y-102552500D01*
X193890990Y-102493145D01*
X193925000Y-102322165D01*
X193925000Y-102147835D01*
X193890990Y-101976855D01*
X193866404Y-101917500D01*
X193890990Y-101858145D01*
X193925000Y-101687165D01*
X193925000Y-101512835D01*
X193890990Y-101341855D01*
X193843072Y-101226170D01*
X193843072Y-101055000D01*
X193826008Y-100881746D01*
X193775472Y-100715150D01*
X193693405Y-100561614D01*
X193582962Y-100427038D01*
X193448386Y-100316595D01*
X193294850Y-100234528D01*
X193128254Y-100183992D01*
X192955000Y-100166928D01*
X191855000Y-100166928D01*
X191681746Y-100183992D01*
X191515150Y-100234528D01*
X191361614Y-100316595D01*
X191250000Y-100408194D01*
X191250000Y-100268685D01*
X191975613Y-99543072D01*
X192955000Y-99543072D01*
X193128254Y-99526008D01*
X193294850Y-99475472D01*
X193448386Y-99393405D01*
X193582962Y-99282962D01*
X193693405Y-99148386D01*
X193775472Y-98994850D01*
X193826008Y-98828254D01*
X193843072Y-98655000D01*
X193843072Y-95655000D01*
X193826008Y-95481746D01*
X193790000Y-95363043D01*
X193790000Y-94661957D01*
X193826008Y-94543254D01*
X193843072Y-94370000D01*
X193843072Y-91370000D01*
X193826008Y-91196746D01*
X193775472Y-91030150D01*
X193693405Y-90876614D01*
X193582962Y-90742038D01*
X193448386Y-90631595D01*
X193294850Y-90549528D01*
X193128254Y-90498992D01*
X192955000Y-90481928D01*
X191975613Y-90481928D01*
X191250000Y-89756315D01*
X191250000Y-89616806D01*
X191361614Y-89708405D01*
X191515150Y-89790472D01*
X191681746Y-89841008D01*
X191855000Y-89858072D01*
X192955000Y-89858072D01*
X193128254Y-89841008D01*
X193294850Y-89790472D01*
X193448386Y-89708405D01*
X193582962Y-89597962D01*
X193693405Y-89463386D01*
X193775472Y-89309850D01*
X193826008Y-89143254D01*
X193843072Y-88970000D01*
X193843072Y-88638830D01*
X193890990Y-88523145D01*
X193925000Y-88352165D01*
X193925000Y-88177835D01*
X193890990Y-88006855D01*
X193866404Y-87947500D01*
X193890990Y-87888145D01*
X193925000Y-87717165D01*
X193925000Y-87542835D01*
X193890990Y-87371855D01*
X193866404Y-87312500D01*
X193890990Y-87253145D01*
X193925000Y-87082165D01*
X193925000Y-86907835D01*
X193890990Y-86736855D01*
X193866404Y-86677500D01*
X193890990Y-86618145D01*
X193925000Y-86447165D01*
X193925000Y-86272835D01*
X193890990Y-86101855D01*
X193843072Y-85986170D01*
X193843072Y-85970000D01*
X193826008Y-85796746D01*
X193775472Y-85630150D01*
X193693405Y-85476614D01*
X193582962Y-85342038D01*
X193448386Y-85231595D01*
X193294850Y-85149528D01*
X193128254Y-85098992D01*
X192955000Y-85081928D01*
X191855000Y-85081928D01*
X191681746Y-85098992D01*
X191515150Y-85149528D01*
X191361614Y-85231595D01*
X191250000Y-85323194D01*
X191250000Y-74061806D01*
X191361614Y-74153405D01*
X191515150Y-74235472D01*
X191681746Y-74286008D01*
X191855000Y-74303072D01*
X192955000Y-74303072D01*
X193128254Y-74286008D01*
X193294850Y-74235472D01*
X193448386Y-74153405D01*
X193582962Y-74042962D01*
X193693405Y-73908386D01*
X193775472Y-73754850D01*
X193826008Y-73588254D01*
X193843072Y-73415000D01*
X193843072Y-73398830D01*
X193890990Y-73283145D01*
X193925000Y-73112165D01*
X193925000Y-72937835D01*
X193890990Y-72766855D01*
X193866404Y-72707500D01*
X193890990Y-72648145D01*
X193925000Y-72477165D01*
X193925000Y-72302835D01*
X193890990Y-72131855D01*
X193866404Y-72072500D01*
X193890990Y-72013145D01*
X193925000Y-71842165D01*
X193925000Y-71667835D01*
X193890990Y-71496855D01*
X193866404Y-71437500D01*
X193890990Y-71378145D01*
X193925000Y-71207165D01*
X193925000Y-71032835D01*
X193890990Y-70861855D01*
X193843072Y-70746170D01*
X193843072Y-70415000D01*
X193826008Y-70241746D01*
X193775472Y-70075150D01*
X193693405Y-69921614D01*
X193582962Y-69787038D01*
X193448386Y-69676595D01*
X193294850Y-69594528D01*
X193128254Y-69543992D01*
X192955000Y-69526928D01*
X191855000Y-69526928D01*
X191681746Y-69543992D01*
X191515150Y-69594528D01*
X191361614Y-69676595D01*
X191250000Y-69768194D01*
X191250000Y-69628685D01*
X191975613Y-68903072D01*
X192955000Y-68903072D01*
X193128254Y-68886008D01*
X193294850Y-68835472D01*
X193448386Y-68753405D01*
X193582962Y-68642962D01*
X193693405Y-68508386D01*
X193775472Y-68354850D01*
X193826008Y-68188254D01*
X193843072Y-68015000D01*
X193843072Y-65015000D01*
X193826008Y-64841746D01*
X193790000Y-64723043D01*
X193790000Y-64181957D01*
X193826008Y-64063254D01*
X193843072Y-63890000D01*
X193843072Y-60890000D01*
X193826008Y-60716746D01*
X193775472Y-60550150D01*
X193693405Y-60396614D01*
X193582962Y-60262038D01*
X193448386Y-60151595D01*
X193294850Y-60069528D01*
X193128254Y-60018992D01*
X192955000Y-60001928D01*
X191975614Y-60001928D01*
X190939999Y-58966314D01*
X190939999Y-58093817D01*
X190966928Y-58158830D01*
X190966928Y-58490000D01*
X190983992Y-58663254D01*
X191034528Y-58829850D01*
X191116595Y-58983386D01*
X191227038Y-59117962D01*
X191361614Y-59228405D01*
X191515150Y-59310472D01*
X191681746Y-59361008D01*
X191855000Y-59378072D01*
X192955000Y-59378072D01*
X193128254Y-59361008D01*
X193294850Y-59310472D01*
X193448386Y-59228405D01*
X193582962Y-59117962D01*
X193693405Y-58983386D01*
X193775472Y-58829850D01*
X193826008Y-58663254D01*
X193843072Y-58490000D01*
X193843072Y-58158830D01*
X193890990Y-58043145D01*
X193925000Y-57872165D01*
X193925000Y-57697835D01*
X193890990Y-57526855D01*
X193866404Y-57467500D01*
X193890990Y-57408145D01*
X193925000Y-57237165D01*
X193925000Y-57062835D01*
X193890990Y-56891855D01*
X193866404Y-56832500D01*
X193890990Y-56773145D01*
X193925000Y-56602165D01*
X193925000Y-56427835D01*
X193890990Y-56256855D01*
X193866404Y-56197500D01*
X193890990Y-56138145D01*
X193925000Y-55967165D01*
X193925000Y-55792835D01*
X193890990Y-55621855D01*
X193843072Y-55506170D01*
X193843072Y-55490000D01*
X193826008Y-55316746D01*
X193775472Y-55150150D01*
X193693405Y-54996614D01*
X193582962Y-54862038D01*
X193448386Y-54751595D01*
X193294850Y-54669528D01*
X193128254Y-54618992D01*
X192955000Y-54601928D01*
X191855000Y-54601928D01*
X191681746Y-54618992D01*
X191515150Y-54669528D01*
X191361614Y-54751595D01*
X191227038Y-54862038D01*
X191116595Y-54996614D01*
X191034528Y-55150150D01*
X190983992Y-55316746D01*
X190966928Y-55490000D01*
X190966928Y-55506170D01*
X190939999Y-55571183D01*
X190939999Y-54598582D01*
X190946699Y-54530553D01*
X190939999Y-54462524D01*
X190939999Y-54462516D01*
X190919959Y-54259046D01*
X190840763Y-53997972D01*
X190712156Y-53757365D01*
X190617363Y-53641860D01*
X190582451Y-53599319D01*
X190582449Y-53599317D01*
X190539080Y-53546472D01*
X190486235Y-53503103D01*
X188756900Y-51773769D01*
X188713527Y-51720919D01*
X188502634Y-51547843D01*
X188262027Y-51419236D01*
X188000953Y-51340040D01*
X187797483Y-51320000D01*
X187797475Y-51320000D01*
X187729446Y-51313300D01*
X187661417Y-51320000D01*
X186621963Y-51320000D01*
X186418493Y-51340040D01*
X186338010Y-51364454D01*
X186189933Y-51335000D01*
X185920067Y-51335000D01*
X185655386Y-51387648D01*
X185406062Y-51490922D01*
X185181676Y-51640851D01*
X184990851Y-51831676D01*
X184840922Y-52056062D01*
X184737648Y-52305386D01*
X184685000Y-52570067D01*
X184685000Y-52839933D01*
X184737648Y-53104614D01*
X184840922Y-53353938D01*
X184990851Y-53578324D01*
X185181676Y-53769149D01*
X185406062Y-53919078D01*
X185541069Y-53975000D01*
X185406062Y-54030922D01*
X185181676Y-54180851D01*
X184990851Y-54371676D01*
X184840922Y-54596062D01*
X184737648Y-54845386D01*
X184685000Y-55110067D01*
X184685000Y-55379933D01*
X184737648Y-55644614D01*
X184840922Y-55893938D01*
X184990851Y-56118324D01*
X185181676Y-56309149D01*
X185406062Y-56459078D01*
X185655386Y-56562352D01*
X185920067Y-56615000D01*
X186189933Y-56615000D01*
X186454614Y-56562352D01*
X186703938Y-56459078D01*
X186928324Y-56309149D01*
X187119149Y-56118324D01*
X187269078Y-55893938D01*
X187372352Y-55644614D01*
X187425000Y-55379933D01*
X187425000Y-55110067D01*
X187372352Y-54845386D01*
X187269078Y-54596062D01*
X187119149Y-54371676D01*
X186928324Y-54180851D01*
X186792355Y-54090000D01*
X187155761Y-54090000D01*
X188170000Y-55104240D01*
X188169999Y-59471970D01*
X188163299Y-59539999D01*
X188169999Y-59608028D01*
X188169999Y-59608035D01*
X188176699Y-59676062D01*
X188190039Y-59811506D01*
X188269235Y-60072579D01*
X188397843Y-60313187D01*
X188523529Y-60466335D01*
X188570918Y-60524079D01*
X188623764Y-60567449D01*
X190966928Y-62910614D01*
X190966928Y-63890000D01*
X190983992Y-64063254D01*
X191020001Y-64181959D01*
X191020000Y-64723041D01*
X190983992Y-64841746D01*
X190966928Y-65015000D01*
X190966928Y-65994387D01*
X188933765Y-68027550D01*
X188880920Y-68070919D01*
X188837551Y-68123764D01*
X188837548Y-68123767D01*
X188707844Y-68281812D01*
X188579236Y-68522420D01*
X188500040Y-68783493D01*
X188473300Y-69055000D01*
X188480001Y-69123039D01*
X188480000Y-82618513D01*
X188115256Y-82253769D01*
X188071883Y-82200919D01*
X187860990Y-82027843D01*
X187620383Y-81899236D01*
X187359309Y-81820040D01*
X187155839Y-81800000D01*
X187155831Y-81800000D01*
X187087802Y-81793300D01*
X187019773Y-81800000D01*
X186621963Y-81800000D01*
X186418493Y-81820040D01*
X186338010Y-81844454D01*
X186189933Y-81815000D01*
X185920067Y-81815000D01*
X185655386Y-81867648D01*
X185406062Y-81970922D01*
X185181676Y-82120851D01*
X184990851Y-82311676D01*
X184840922Y-82536062D01*
X184737648Y-82785386D01*
X184685000Y-83050067D01*
X184685000Y-83319933D01*
X184737648Y-83584614D01*
X184840922Y-83833938D01*
X184990851Y-84058324D01*
X185181676Y-84249149D01*
X185406062Y-84399078D01*
X185541069Y-84455000D01*
X185406062Y-84510922D01*
X185181676Y-84660851D01*
X184990851Y-84851676D01*
X184840922Y-85076062D01*
X184737648Y-85325386D01*
X184685000Y-85590067D01*
X184685000Y-85859933D01*
X184737648Y-86124614D01*
X184840922Y-86373938D01*
X184990851Y-86598324D01*
X185181676Y-86789149D01*
X185406062Y-86939078D01*
X185655386Y-87042352D01*
X185920067Y-87095000D01*
X186189933Y-87095000D01*
X186454614Y-87042352D01*
X186703938Y-86939078D01*
X186928324Y-86789149D01*
X187119149Y-86598324D01*
X187269078Y-86373938D01*
X187372352Y-86124614D01*
X187425000Y-85859933D01*
X187425000Y-85590067D01*
X187397890Y-85453773D01*
X188480001Y-86535885D01*
X188480000Y-90261971D01*
X188473300Y-90330000D01*
X188480000Y-90398029D01*
X188480000Y-90398036D01*
X188500040Y-90601506D01*
X188579236Y-90862580D01*
X188707843Y-91103187D01*
X188880919Y-91314080D01*
X188933765Y-91357450D01*
X190966928Y-93390613D01*
X190966928Y-94370000D01*
X190983992Y-94543254D01*
X191020001Y-94661959D01*
X191020000Y-95363041D01*
X190983992Y-95481746D01*
X190966928Y-95655000D01*
X190966928Y-96634387D01*
X188933765Y-98667550D01*
X188880920Y-98710919D01*
X188837551Y-98763764D01*
X188837548Y-98763767D01*
X188707844Y-98921812D01*
X188579236Y-99162420D01*
X188500040Y-99423493D01*
X188473300Y-99695000D01*
X188480001Y-99763039D01*
X188480000Y-104836314D01*
X184433705Y-108882610D01*
X184173966Y-108961401D01*
X183915986Y-109099294D01*
X183689866Y-109284866D01*
X183637777Y-109348337D01*
X183583405Y-109246614D01*
X183472962Y-109112038D01*
X183338386Y-109001595D01*
X183184850Y-108919528D01*
X183018254Y-108868992D01*
X182845000Y-108851928D01*
X181645000Y-108851928D01*
X181471746Y-108868992D01*
X181305150Y-108919528D01*
X181151614Y-109001595D01*
X181017038Y-109112038D01*
X180906595Y-109246614D01*
X180824528Y-109400150D01*
X180773992Y-109566746D01*
X180756928Y-109740000D01*
X165966822Y-109740000D01*
X165888887Y-109716359D01*
X165773561Y-109705000D01*
X165773553Y-109705000D01*
X165735000Y-109701203D01*
X165696447Y-109705000D01*
X162250158Y-109705000D01*
X153804554Y-101259397D01*
X153835000Y-101106335D01*
X153835000Y-100823665D01*
X153779853Y-100546426D01*
X153671680Y-100285273D01*
X153514637Y-100050241D01*
X153314759Y-99850363D01*
X153082241Y-99695000D01*
X153314759Y-99539637D01*
X153514637Y-99339759D01*
X153671680Y-99104727D01*
X153779853Y-98843574D01*
X153835000Y-98566335D01*
X153835000Y-98283665D01*
X153790509Y-98059999D01*
X161766448Y-98059999D01*
X161805001Y-98063796D01*
X161843554Y-98059999D01*
X161843562Y-98059999D01*
X161871307Y-98057266D01*
X161825000Y-98290067D01*
X161825000Y-98559933D01*
X161877648Y-98824614D01*
X161980922Y-99073938D01*
X162130851Y-99298324D01*
X162321676Y-99489149D01*
X162546062Y-99639078D01*
X162681069Y-99695000D01*
X162546062Y-99750922D01*
X162321676Y-99900851D01*
X162130851Y-100091676D01*
X161980922Y-100316062D01*
X161877648Y-100565386D01*
X161825000Y-100830067D01*
X161825000Y-101099933D01*
X161877648Y-101364614D01*
X161980922Y-101613938D01*
X162130851Y-101838324D01*
X162321676Y-102029149D01*
X162546062Y-102179078D01*
X162681069Y-102235000D01*
X162546062Y-102290922D01*
X162321676Y-102440851D01*
X162130851Y-102631676D01*
X161980922Y-102856062D01*
X161877648Y-103105386D01*
X161825000Y-103370067D01*
X161825000Y-103639933D01*
X161877648Y-103904614D01*
X161980922Y-104153938D01*
X162130851Y-104378324D01*
X162321676Y-104569149D01*
X162546062Y-104719078D01*
X162681069Y-104775000D01*
X162546062Y-104830922D01*
X162321676Y-104980851D01*
X162130851Y-105171676D01*
X161980922Y-105396062D01*
X161877648Y-105645386D01*
X161825000Y-105910067D01*
X161825000Y-106179933D01*
X161877648Y-106444614D01*
X161980922Y-106693938D01*
X162130851Y-106918324D01*
X162321676Y-107109149D01*
X162546062Y-107259078D01*
X162795386Y-107362352D01*
X163060067Y-107415000D01*
X163329933Y-107415000D01*
X163594614Y-107362352D01*
X163843938Y-107259078D01*
X164068324Y-107109149D01*
X164259149Y-106918324D01*
X164409078Y-106693938D01*
X164512352Y-106444614D01*
X164565000Y-106179933D01*
X164565000Y-105910067D01*
X164512352Y-105645386D01*
X164409078Y-105396062D01*
X164259149Y-105171676D01*
X164068324Y-104980851D01*
X163843938Y-104830922D01*
X163708931Y-104775000D01*
X163843938Y-104719078D01*
X164041048Y-104587374D01*
X182880000Y-104587374D01*
X182880000Y-104962626D01*
X182953209Y-105330668D01*
X183096811Y-105677356D01*
X183305290Y-105989366D01*
X183570634Y-106254710D01*
X183882644Y-106463189D01*
X184229332Y-106606791D01*
X184597374Y-106680000D01*
X184972626Y-106680000D01*
X185340668Y-106606791D01*
X185687356Y-106463189D01*
X185999366Y-106254710D01*
X186264710Y-105989366D01*
X186473189Y-105677356D01*
X186616791Y-105330668D01*
X186690000Y-104962626D01*
X186690000Y-104587374D01*
X186616791Y-104219332D01*
X186473189Y-103872644D01*
X186264710Y-103560634D01*
X185999366Y-103295290D01*
X185687356Y-103086811D01*
X185340668Y-102943209D01*
X184972626Y-102870000D01*
X184597374Y-102870000D01*
X184229332Y-102943209D01*
X183882644Y-103086811D01*
X183570634Y-103295290D01*
X183305290Y-103560634D01*
X183096811Y-103872644D01*
X182953209Y-104219332D01*
X182880000Y-104587374D01*
X164041048Y-104587374D01*
X164068324Y-104569149D01*
X164259149Y-104378324D01*
X164409078Y-104153938D01*
X164512352Y-103904614D01*
X164565000Y-103639933D01*
X164565000Y-103370067D01*
X164512352Y-103105386D01*
X164409078Y-102856062D01*
X164259149Y-102631676D01*
X164068324Y-102440851D01*
X163843938Y-102290922D01*
X163708931Y-102235000D01*
X163843938Y-102179078D01*
X164068324Y-102029149D01*
X164259149Y-101838324D01*
X164409078Y-101613938D01*
X164512352Y-101364614D01*
X164565000Y-101099933D01*
X164565000Y-100830067D01*
X164512352Y-100565386D01*
X164409078Y-100316062D01*
X164259149Y-100091676D01*
X164068324Y-99900851D01*
X163843938Y-99750922D01*
X163708931Y-99695000D01*
X163843938Y-99639078D01*
X164068324Y-99489149D01*
X164259149Y-99298324D01*
X164409078Y-99073938D01*
X164512352Y-98824614D01*
X164565000Y-98559933D01*
X164565000Y-98290067D01*
X164512352Y-98025386D01*
X164409078Y-97776062D01*
X164259149Y-97551676D01*
X164068324Y-97360851D01*
X163843938Y-97210922D01*
X163708931Y-97155000D01*
X163843938Y-97099078D01*
X164068324Y-96949149D01*
X164259149Y-96758324D01*
X164409078Y-96533938D01*
X164512352Y-96284614D01*
X164565000Y-96019933D01*
X164565000Y-95750067D01*
X164512352Y-95485386D01*
X164409078Y-95236062D01*
X164259149Y-95011676D01*
X164068324Y-94820851D01*
X163843938Y-94670922D01*
X163708931Y-94615000D01*
X163843938Y-94559078D01*
X164068324Y-94409149D01*
X164259149Y-94218324D01*
X164409078Y-93993938D01*
X164512352Y-93744614D01*
X164565000Y-93479933D01*
X164565000Y-93210067D01*
X164512352Y-92945386D01*
X164409078Y-92696062D01*
X164259149Y-92471676D01*
X164068324Y-92280851D01*
X163843938Y-92130922D01*
X163708931Y-92075000D01*
X163843938Y-92019078D01*
X164068324Y-91869149D01*
X164259149Y-91678324D01*
X164409078Y-91453938D01*
X164512352Y-91204614D01*
X164565000Y-90939933D01*
X164565000Y-90670067D01*
X184685000Y-90670067D01*
X184685000Y-90939933D01*
X184737648Y-91204614D01*
X184840922Y-91453938D01*
X184990851Y-91678324D01*
X185181676Y-91869149D01*
X185406062Y-92019078D01*
X185541069Y-92075000D01*
X185406062Y-92130922D01*
X185181676Y-92280851D01*
X184990851Y-92471676D01*
X184840922Y-92696062D01*
X184737648Y-92945386D01*
X184685000Y-93210067D01*
X184685000Y-93479933D01*
X184737648Y-93744614D01*
X184840922Y-93993938D01*
X184990851Y-94218324D01*
X185181676Y-94409149D01*
X185406062Y-94559078D01*
X185541069Y-94615000D01*
X185406062Y-94670922D01*
X185181676Y-94820851D01*
X184990851Y-95011676D01*
X184840922Y-95236062D01*
X184737648Y-95485386D01*
X184685000Y-95750067D01*
X184685000Y-96019933D01*
X184737648Y-96284614D01*
X184840922Y-96533938D01*
X184990851Y-96758324D01*
X185181676Y-96949149D01*
X185406062Y-97099078D01*
X185541069Y-97155000D01*
X185406062Y-97210922D01*
X185181676Y-97360851D01*
X184990851Y-97551676D01*
X184840922Y-97776062D01*
X184737648Y-98025386D01*
X184685000Y-98290067D01*
X184685000Y-98559933D01*
X184737648Y-98824614D01*
X184840922Y-99073938D01*
X184990851Y-99298324D01*
X185181676Y-99489149D01*
X185406062Y-99639078D01*
X185655386Y-99742352D01*
X185920067Y-99795000D01*
X186189933Y-99795000D01*
X186454614Y-99742352D01*
X186703938Y-99639078D01*
X186928324Y-99489149D01*
X187119149Y-99298324D01*
X187269078Y-99073938D01*
X187372352Y-98824614D01*
X187425000Y-98559933D01*
X187425000Y-98290067D01*
X187372352Y-98025386D01*
X187269078Y-97776062D01*
X187119149Y-97551676D01*
X186928324Y-97360851D01*
X186703938Y-97210922D01*
X186568931Y-97155000D01*
X186703938Y-97099078D01*
X186928324Y-96949149D01*
X187119149Y-96758324D01*
X187269078Y-96533938D01*
X187372352Y-96284614D01*
X187425000Y-96019933D01*
X187425000Y-95750067D01*
X187372352Y-95485386D01*
X187269078Y-95236062D01*
X187119149Y-95011676D01*
X186928324Y-94820851D01*
X186703938Y-94670922D01*
X186568931Y-94615000D01*
X186703938Y-94559078D01*
X186928324Y-94409149D01*
X187119149Y-94218324D01*
X187269078Y-93993938D01*
X187372352Y-93744614D01*
X187425000Y-93479933D01*
X187425000Y-93210067D01*
X187372352Y-92945386D01*
X187269078Y-92696062D01*
X187119149Y-92471676D01*
X186928324Y-92280851D01*
X186703938Y-92130922D01*
X186568931Y-92075000D01*
X186703938Y-92019078D01*
X186928324Y-91869149D01*
X187119149Y-91678324D01*
X187269078Y-91453938D01*
X187372352Y-91204614D01*
X187425000Y-90939933D01*
X187425000Y-90670067D01*
X187372352Y-90405386D01*
X187269078Y-90156062D01*
X187119149Y-89931676D01*
X186928324Y-89740851D01*
X186703938Y-89590922D01*
X186454614Y-89487648D01*
X186189933Y-89435000D01*
X185920067Y-89435000D01*
X185655386Y-89487648D01*
X185406062Y-89590922D01*
X185181676Y-89740851D01*
X184990851Y-89931676D01*
X184840922Y-90156062D01*
X184737648Y-90405386D01*
X184685000Y-90670067D01*
X164565000Y-90670067D01*
X164512352Y-90405386D01*
X164409078Y-90156062D01*
X164259149Y-89931676D01*
X164068324Y-89740851D01*
X163843938Y-89590922D01*
X163708931Y-89535000D01*
X163843938Y-89479078D01*
X164068324Y-89329149D01*
X164259149Y-89138324D01*
X164409078Y-88913938D01*
X164512352Y-88664614D01*
X164565000Y-88399933D01*
X164565000Y-88130067D01*
X164512352Y-87865386D01*
X164409078Y-87616062D01*
X164259149Y-87391676D01*
X164068324Y-87200851D01*
X163843938Y-87050922D01*
X163708931Y-86995000D01*
X163843938Y-86939078D01*
X164068324Y-86789149D01*
X164259149Y-86598324D01*
X164409078Y-86373938D01*
X164512352Y-86124614D01*
X164565000Y-85859933D01*
X164565000Y-85590067D01*
X164512352Y-85325386D01*
X164409078Y-85076062D01*
X164259149Y-84851676D01*
X164068324Y-84660851D01*
X163843938Y-84510922D01*
X163708931Y-84455000D01*
X163843938Y-84399078D01*
X164068324Y-84249149D01*
X164259149Y-84058324D01*
X164409078Y-83833938D01*
X164512352Y-83584614D01*
X164565000Y-83319933D01*
X164565000Y-83050067D01*
X164512352Y-82785386D01*
X164409078Y-82536062D01*
X164259149Y-82311676D01*
X164068324Y-82120851D01*
X163843938Y-81970922D01*
X163708931Y-81915000D01*
X163843938Y-81859078D01*
X164068324Y-81709149D01*
X164259149Y-81518324D01*
X164409078Y-81293938D01*
X164512352Y-81044614D01*
X164565000Y-80779933D01*
X164565000Y-80510067D01*
X164512352Y-80245386D01*
X164409078Y-79996062D01*
X164259149Y-79771676D01*
X164068324Y-79580851D01*
X163843938Y-79430922D01*
X163710145Y-79375503D01*
X163788592Y-79347077D01*
X163897967Y-79288615D01*
X163961673Y-79051278D01*
X163195000Y-78284605D01*
X163180858Y-78298748D01*
X163001253Y-78119143D01*
X163015395Y-78105000D01*
X163374605Y-78105000D01*
X164141278Y-78871673D01*
X164378615Y-78807967D01*
X164465982Y-78621303D01*
X164520922Y-78753938D01*
X164670851Y-78978324D01*
X164861676Y-79169149D01*
X165086062Y-79319078D01*
X165335386Y-79422352D01*
X165600067Y-79475000D01*
X165869933Y-79475000D01*
X166134614Y-79422352D01*
X166383938Y-79319078D01*
X166581048Y-79187374D01*
X182880000Y-79187374D01*
X182880000Y-79562626D01*
X182953209Y-79930668D01*
X183096811Y-80277356D01*
X183305290Y-80589366D01*
X183570634Y-80854710D01*
X183882644Y-81063189D01*
X184229332Y-81206791D01*
X184597374Y-81280000D01*
X184972626Y-81280000D01*
X185340668Y-81206791D01*
X185687356Y-81063189D01*
X185999366Y-80854710D01*
X186264710Y-80589366D01*
X186473189Y-80277356D01*
X186616791Y-79930668D01*
X186690000Y-79562626D01*
X186690000Y-79187374D01*
X186616791Y-78819332D01*
X186473189Y-78472644D01*
X186264710Y-78160634D01*
X185999366Y-77895290D01*
X185687356Y-77686811D01*
X185340668Y-77543209D01*
X184972626Y-77470000D01*
X184597374Y-77470000D01*
X184229332Y-77543209D01*
X183882644Y-77686811D01*
X183570634Y-77895290D01*
X183305290Y-78160634D01*
X183096811Y-78472644D01*
X182953209Y-78819332D01*
X182880000Y-79187374D01*
X166581048Y-79187374D01*
X166608324Y-79169149D01*
X166799149Y-78978324D01*
X166949078Y-78753938D01*
X167052352Y-78504614D01*
X167105000Y-78239933D01*
X167105000Y-77970067D01*
X167052352Y-77705386D01*
X166949078Y-77456062D01*
X166799149Y-77231676D01*
X166608324Y-77040851D01*
X166383938Y-76890922D01*
X166134614Y-76787648D01*
X165869933Y-76735000D01*
X165600067Y-76735000D01*
X165335386Y-76787648D01*
X165086062Y-76890922D01*
X164861676Y-77040851D01*
X164670851Y-77231676D01*
X164520922Y-77456062D01*
X164465503Y-77589855D01*
X164437077Y-77511408D01*
X164378615Y-77402033D01*
X164141278Y-77338327D01*
X163374605Y-78105000D01*
X163015395Y-78105000D01*
X163001253Y-78090858D01*
X163180858Y-77911253D01*
X163195000Y-77925395D01*
X163961673Y-77158722D01*
X163897967Y-76921385D01*
X163711303Y-76834018D01*
X163843938Y-76779078D01*
X164068324Y-76629149D01*
X164259149Y-76438324D01*
X164409078Y-76213938D01*
X164512352Y-75964614D01*
X164565000Y-75699933D01*
X164565000Y-75430067D01*
X164512352Y-75165386D01*
X164409078Y-74916062D01*
X164259149Y-74691676D01*
X164068324Y-74500851D01*
X163843938Y-74350922D01*
X163708931Y-74295000D01*
X163843938Y-74239078D01*
X164041048Y-74107374D01*
X182880000Y-74107374D01*
X182880000Y-74482626D01*
X182953209Y-74850668D01*
X183096811Y-75197356D01*
X183305290Y-75509366D01*
X183570634Y-75774710D01*
X183882644Y-75983189D01*
X184229332Y-76126791D01*
X184597374Y-76200000D01*
X184972626Y-76200000D01*
X185340668Y-76126791D01*
X185687356Y-75983189D01*
X185999366Y-75774710D01*
X186264710Y-75509366D01*
X186473189Y-75197356D01*
X186616791Y-74850668D01*
X186690000Y-74482626D01*
X186690000Y-74107374D01*
X186616791Y-73739332D01*
X186473189Y-73392644D01*
X186264710Y-73080634D01*
X185999366Y-72815290D01*
X185687356Y-72606811D01*
X185340668Y-72463209D01*
X184972626Y-72390000D01*
X184597374Y-72390000D01*
X184229332Y-72463209D01*
X183882644Y-72606811D01*
X183570634Y-72815290D01*
X183305290Y-73080634D01*
X183096811Y-73392644D01*
X182953209Y-73739332D01*
X182880000Y-74107374D01*
X164041048Y-74107374D01*
X164068324Y-74089149D01*
X164259149Y-73898324D01*
X164409078Y-73673938D01*
X164512352Y-73424614D01*
X164565000Y-73159933D01*
X164565000Y-72890067D01*
X164512352Y-72625386D01*
X164409078Y-72376062D01*
X164259149Y-72151676D01*
X164068324Y-71960851D01*
X163843938Y-71810922D01*
X163708931Y-71755000D01*
X163843938Y-71699078D01*
X164068324Y-71549149D01*
X164259149Y-71358324D01*
X164409078Y-71133938D01*
X164512352Y-70884614D01*
X164565000Y-70619933D01*
X164565000Y-70350067D01*
X164512352Y-70085386D01*
X164409078Y-69836062D01*
X164259149Y-69611676D01*
X164068324Y-69420851D01*
X163843938Y-69270922D01*
X163708931Y-69215000D01*
X163843938Y-69159078D01*
X164068324Y-69009149D01*
X164259149Y-68818324D01*
X164409078Y-68593938D01*
X164512352Y-68344614D01*
X164565000Y-68079933D01*
X164565000Y-67810067D01*
X164512352Y-67545386D01*
X164409078Y-67296062D01*
X164259149Y-67071676D01*
X164068324Y-66880851D01*
X163843938Y-66730922D01*
X163708931Y-66675000D01*
X163843938Y-66619078D01*
X164068324Y-66469149D01*
X164259149Y-66278324D01*
X164409078Y-66053938D01*
X164512352Y-65804614D01*
X164565000Y-65539933D01*
X164565000Y-65270067D01*
X164512352Y-65005386D01*
X164409078Y-64756062D01*
X164259149Y-64531676D01*
X164068324Y-64340851D01*
X163843938Y-64190922D01*
X163708931Y-64135000D01*
X163843938Y-64079078D01*
X164068324Y-63929149D01*
X164259149Y-63738324D01*
X164409078Y-63513938D01*
X164512352Y-63264614D01*
X164565000Y-62999933D01*
X164565000Y-62805157D01*
X171234733Y-69474890D01*
X171300723Y-69634205D01*
X171397576Y-69779155D01*
X171520845Y-69902424D01*
X171665795Y-69999277D01*
X171826855Y-70065990D01*
X171997835Y-70100000D01*
X172172165Y-70100000D01*
X172343145Y-70065990D01*
X172504205Y-69999277D01*
X172649155Y-69902424D01*
X172772424Y-69779155D01*
X172869277Y-69634205D01*
X172935990Y-69473145D01*
X172970000Y-69302165D01*
X172970000Y-69127835D01*
X172935990Y-68956855D01*
X172869277Y-68795795D01*
X172772424Y-68650845D01*
X172649155Y-68527576D01*
X172504205Y-68430723D01*
X172344890Y-68364733D01*
X164544276Y-60564119D01*
X164565000Y-60459933D01*
X164565000Y-60265157D01*
X168327655Y-64027812D01*
X169329733Y-65029891D01*
X169395723Y-65189205D01*
X169492576Y-65334155D01*
X169615845Y-65457424D01*
X169760795Y-65554277D01*
X169921855Y-65620990D01*
X170092835Y-65655000D01*
X170267165Y-65655000D01*
X170438145Y-65620990D01*
X170599205Y-65554277D01*
X170744155Y-65457424D01*
X170867424Y-65334155D01*
X170964277Y-65189205D01*
X171030990Y-65028145D01*
X171065000Y-64857165D01*
X171065000Y-64682835D01*
X171030990Y-64511855D01*
X170964277Y-64350795D01*
X170867424Y-64205845D01*
X170744155Y-64082576D01*
X170599205Y-63985723D01*
X170439891Y-63919733D01*
X169437812Y-62917655D01*
X166710224Y-60190067D01*
X184685000Y-60190067D01*
X184685000Y-60459933D01*
X184737648Y-60724614D01*
X184840922Y-60973938D01*
X184990851Y-61198324D01*
X185181676Y-61389149D01*
X185406062Y-61539078D01*
X185541069Y-61595000D01*
X185406062Y-61650922D01*
X185181676Y-61800851D01*
X184990851Y-61991676D01*
X184840922Y-62216062D01*
X184737648Y-62465386D01*
X184685000Y-62730067D01*
X184685000Y-62999933D01*
X184737648Y-63264614D01*
X184840922Y-63513938D01*
X184990851Y-63738324D01*
X185181676Y-63929149D01*
X185406062Y-64079078D01*
X185541069Y-64135000D01*
X185406062Y-64190922D01*
X185181676Y-64340851D01*
X184990851Y-64531676D01*
X184840922Y-64756062D01*
X184737648Y-65005386D01*
X184685000Y-65270067D01*
X184685000Y-65539933D01*
X184737648Y-65804614D01*
X184840922Y-66053938D01*
X184990851Y-66278324D01*
X185181676Y-66469149D01*
X185406062Y-66619078D01*
X185541069Y-66675000D01*
X185406062Y-66730922D01*
X185181676Y-66880851D01*
X184990851Y-67071676D01*
X184840922Y-67296062D01*
X184737648Y-67545386D01*
X184685000Y-67810067D01*
X184685000Y-68079933D01*
X184737648Y-68344614D01*
X184840922Y-68593938D01*
X184990851Y-68818324D01*
X185181676Y-69009149D01*
X185406062Y-69159078D01*
X185655386Y-69262352D01*
X185920067Y-69315000D01*
X186189933Y-69315000D01*
X186454614Y-69262352D01*
X186703938Y-69159078D01*
X186928324Y-69009149D01*
X187119149Y-68818324D01*
X187269078Y-68593938D01*
X187372352Y-68344614D01*
X187425000Y-68079933D01*
X187425000Y-67810067D01*
X187372352Y-67545386D01*
X187269078Y-67296062D01*
X187119149Y-67071676D01*
X186928324Y-66880851D01*
X186703938Y-66730922D01*
X186568931Y-66675000D01*
X186703938Y-66619078D01*
X186928324Y-66469149D01*
X187119149Y-66278324D01*
X187269078Y-66053938D01*
X187372352Y-65804614D01*
X187425000Y-65539933D01*
X187425000Y-65270067D01*
X187372352Y-65005386D01*
X187269078Y-64756062D01*
X187119149Y-64531676D01*
X186928324Y-64340851D01*
X186703938Y-64190922D01*
X186568931Y-64135000D01*
X186703938Y-64079078D01*
X186928324Y-63929149D01*
X187119149Y-63738324D01*
X187269078Y-63513938D01*
X187372352Y-63264614D01*
X187425000Y-62999933D01*
X187425000Y-62730067D01*
X187372352Y-62465386D01*
X187269078Y-62216062D01*
X187119149Y-61991676D01*
X186928324Y-61800851D01*
X186703938Y-61650922D01*
X186568931Y-61595000D01*
X186703938Y-61539078D01*
X186928324Y-61389149D01*
X187119149Y-61198324D01*
X187269078Y-60973938D01*
X187372352Y-60724614D01*
X187425000Y-60459933D01*
X187425000Y-60190067D01*
X187372352Y-59925386D01*
X187269078Y-59676062D01*
X187119149Y-59451676D01*
X186928324Y-59260851D01*
X186703938Y-59110922D01*
X186454614Y-59007648D01*
X186189933Y-58955000D01*
X185920067Y-58955000D01*
X185655386Y-59007648D01*
X185406062Y-59110922D01*
X185181676Y-59260851D01*
X184990851Y-59451676D01*
X184840922Y-59676062D01*
X184737648Y-59925386D01*
X184685000Y-60190067D01*
X166710224Y-60190067D01*
X164544276Y-58024119D01*
X164565000Y-57919933D01*
X164565000Y-57650067D01*
X164512352Y-57385386D01*
X164409078Y-57136062D01*
X164259149Y-56911676D01*
X164068324Y-56720851D01*
X163843938Y-56570922D01*
X163708931Y-56515000D01*
X163843938Y-56459078D01*
X164068324Y-56309149D01*
X164259149Y-56118324D01*
X164409078Y-55893938D01*
X164512352Y-55644614D01*
X164565000Y-55379933D01*
X164565000Y-55110067D01*
X164512352Y-54845386D01*
X164409078Y-54596062D01*
X164259149Y-54371676D01*
X164068324Y-54180851D01*
X163843938Y-54030922D01*
X163708931Y-53975000D01*
X163843938Y-53919078D01*
X164068324Y-53769149D01*
X164259149Y-53578324D01*
X164409078Y-53353938D01*
X164512352Y-53104614D01*
X164565000Y-52839933D01*
X164565000Y-52570067D01*
X164512352Y-52305386D01*
X164409078Y-52056062D01*
X164259149Y-51831676D01*
X164068324Y-51640851D01*
X163843938Y-51490922D01*
X163708931Y-51435000D01*
X163843938Y-51379078D01*
X164068324Y-51229149D01*
X164082601Y-51214872D01*
X190170000Y-51214872D01*
X190170000Y-51655128D01*
X190255890Y-52086925D01*
X190424369Y-52493669D01*
X190668962Y-52859729D01*
X190980271Y-53171038D01*
X191346331Y-53415631D01*
X191753075Y-53584110D01*
X192184872Y-53670000D01*
X192625128Y-53670000D01*
X193056925Y-53584110D01*
X193463669Y-53415631D01*
X193829729Y-53171038D01*
X194141038Y-52859729D01*
X194385631Y-52493669D01*
X194554110Y-52086925D01*
X194640000Y-51655128D01*
X194640000Y-51214872D01*
X194554110Y-50783075D01*
X194385631Y-50376331D01*
X194141038Y-50010271D01*
X193829729Y-49698962D01*
X193463669Y-49454369D01*
X193056925Y-49285890D01*
X192625128Y-49200000D01*
X192184872Y-49200000D01*
X191753075Y-49285890D01*
X191346331Y-49454369D01*
X190980271Y-49698962D01*
X190668962Y-50010271D01*
X190424369Y-50376331D01*
X190255890Y-50783075D01*
X190170000Y-51214872D01*
X164082601Y-51214872D01*
X164259149Y-51038324D01*
X164409078Y-50813938D01*
X164512352Y-50564614D01*
X164565000Y-50299933D01*
X164565000Y-50030067D01*
X164512352Y-49765386D01*
X164409078Y-49516062D01*
X164259149Y-49291676D01*
X164068324Y-49100851D01*
X163843938Y-48950922D01*
X163710145Y-48895503D01*
X163788592Y-48867077D01*
X163897967Y-48808615D01*
X163961673Y-48571278D01*
X163195000Y-47804605D01*
X162428327Y-48571278D01*
X162492033Y-48808615D01*
X162678697Y-48895982D01*
X162546062Y-48950922D01*
X162321676Y-49100851D01*
X162130851Y-49291676D01*
X161980922Y-49516062D01*
X161877648Y-49765386D01*
X161825000Y-50030067D01*
X161825000Y-50299933D01*
X161877648Y-50564614D01*
X161980922Y-50813938D01*
X162130851Y-51038324D01*
X162321676Y-51229149D01*
X162546062Y-51379078D01*
X162681069Y-51435000D01*
X162546062Y-51490922D01*
X162321676Y-51640851D01*
X162130851Y-51831676D01*
X161980922Y-52056062D01*
X161877648Y-52305386D01*
X161825000Y-52570067D01*
X161825000Y-52839933D01*
X161845724Y-52944119D01*
X160127185Y-54662658D01*
X160097237Y-54687236D01*
X160072659Y-54717184D01*
X160072655Y-54717188D01*
X160044418Y-54751595D01*
X159999139Y-54806767D01*
X159960177Y-54879660D01*
X159926246Y-54943141D01*
X159881359Y-55091114D01*
X159866203Y-55245000D01*
X159870001Y-55283563D01*
X159870000Y-78839844D01*
X157698072Y-81011772D01*
X157698072Y-80430000D01*
X157685812Y-80305518D01*
X157649502Y-80185820D01*
X157590537Y-80075506D01*
X157511185Y-79978815D01*
X157414494Y-79899463D01*
X157304180Y-79840498D01*
X157231620Y-79818487D01*
X157363475Y-79686632D01*
X157525990Y-79443411D01*
X157637932Y-79173158D01*
X157695000Y-78886260D01*
X157695000Y-78593740D01*
X157637932Y-78306842D01*
X157525990Y-78036589D01*
X157363475Y-77793368D01*
X157156632Y-77586525D01*
X156982240Y-77470000D01*
X157156632Y-77353475D01*
X157363475Y-77146632D01*
X157525990Y-76903411D01*
X157637932Y-76633158D01*
X157695000Y-76346260D01*
X157695000Y-76053740D01*
X157637932Y-75766842D01*
X157525990Y-75496589D01*
X157363475Y-75253368D01*
X157156632Y-75046525D01*
X156982240Y-74930000D01*
X157156632Y-74813475D01*
X157363475Y-74606632D01*
X157525990Y-74363411D01*
X157637932Y-74093158D01*
X157695000Y-73806260D01*
X157695000Y-73513740D01*
X157637932Y-73226842D01*
X157525990Y-72956589D01*
X157363475Y-72713368D01*
X157156632Y-72506525D01*
X156982240Y-72390000D01*
X157156632Y-72273475D01*
X157363475Y-72066632D01*
X157525990Y-71823411D01*
X157637932Y-71553158D01*
X157695000Y-71266260D01*
X157695000Y-70973740D01*
X157637932Y-70686842D01*
X157525990Y-70416589D01*
X157363475Y-70173368D01*
X157156632Y-69966525D01*
X156913411Y-69804010D01*
X156643158Y-69692068D01*
X156356260Y-69635000D01*
X156063740Y-69635000D01*
X155776842Y-69692068D01*
X155506589Y-69804010D01*
X155263368Y-69966525D01*
X155056525Y-70173368D01*
X154894010Y-70416589D01*
X154782068Y-70686842D01*
X154725000Y-70973740D01*
X154725000Y-71266260D01*
X154782068Y-71553158D01*
X154894010Y-71823411D01*
X155056525Y-72066632D01*
X155229893Y-72240000D01*
X153601339Y-72240000D01*
X153514637Y-72110241D01*
X153314759Y-71910363D01*
X153080872Y-71754085D01*
X153141514Y-71721671D01*
X153213097Y-71477702D01*
X152400000Y-70664605D01*
X151586903Y-71477702D01*
X151658486Y-71721671D01*
X151722992Y-71752194D01*
X151720273Y-71753320D01*
X151485241Y-71910363D01*
X151285363Y-72110241D01*
X151128320Y-72345273D01*
X151020147Y-72606426D01*
X150965000Y-72883665D01*
X150965000Y-73166335D01*
X151020147Y-73443574D01*
X151128320Y-73704727D01*
X151285363Y-73939759D01*
X151485241Y-74139637D01*
X151717759Y-74295000D01*
X151485241Y-74450363D01*
X151285363Y-74650241D01*
X151128320Y-74885273D01*
X151020147Y-75146426D01*
X150965000Y-75423665D01*
X150965000Y-75706335D01*
X151020147Y-75983574D01*
X151128320Y-76244727D01*
X151285363Y-76479759D01*
X151485241Y-76679637D01*
X151717759Y-76835000D01*
X151485241Y-76990363D01*
X151285363Y-77190241D01*
X151128320Y-77425273D01*
X151020147Y-77686426D01*
X150965000Y-77963665D01*
X150965000Y-78246335D01*
X151020147Y-78523574D01*
X151128320Y-78784727D01*
X151285363Y-79019759D01*
X151485241Y-79219637D01*
X151717759Y-79375000D01*
X151485241Y-79530363D01*
X151285363Y-79730241D01*
X151128320Y-79965273D01*
X151020147Y-80226426D01*
X150965000Y-80503665D01*
X150965000Y-80786335D01*
X151020147Y-81063574D01*
X151128320Y-81324727D01*
X151285363Y-81559759D01*
X151485241Y-81759637D01*
X151717759Y-81915000D01*
X151485241Y-82070363D01*
X151285363Y-82270241D01*
X151128320Y-82505273D01*
X151020147Y-82766426D01*
X150965000Y-83043665D01*
X150965000Y-83326335D01*
X151020147Y-83603574D01*
X151128320Y-83864727D01*
X151285363Y-84099759D01*
X151485241Y-84299637D01*
X151717759Y-84455000D01*
X151485241Y-84610363D01*
X151285363Y-84810241D01*
X151128320Y-85045273D01*
X151020147Y-85306426D01*
X150965000Y-85583665D01*
X150965000Y-85866335D01*
X151020147Y-86143574D01*
X151128320Y-86404727D01*
X151285363Y-86639759D01*
X151485241Y-86839637D01*
X151717759Y-86995000D01*
X151485241Y-87150363D01*
X151285363Y-87350241D01*
X151128320Y-87585273D01*
X151020147Y-87846426D01*
X150965000Y-88123665D01*
X150965000Y-88406335D01*
X151020147Y-88683574D01*
X151128320Y-88944727D01*
X151285363Y-89179759D01*
X151485241Y-89379637D01*
X151717759Y-89535000D01*
X151485241Y-89690363D01*
X151285363Y-89890241D01*
X151128320Y-90125273D01*
X151020147Y-90386426D01*
X150965000Y-90663665D01*
X150965000Y-90946335D01*
X151020147Y-91223574D01*
X151128320Y-91484727D01*
X151285363Y-91719759D01*
X151485241Y-91919637D01*
X151717759Y-92075000D01*
X151485241Y-92230363D01*
X151285363Y-92430241D01*
X151128320Y-92665273D01*
X151020147Y-92926426D01*
X150965000Y-93203665D01*
X150965000Y-93486335D01*
X151020147Y-93763574D01*
X151128320Y-94024727D01*
X151285363Y-94259759D01*
X151485241Y-94459637D01*
X151717759Y-94615000D01*
X151485241Y-94770363D01*
X151285363Y-94970241D01*
X151128320Y-95205273D01*
X151020147Y-95466426D01*
X150965000Y-95743665D01*
X150965000Y-95879843D01*
X150554803Y-95469646D01*
X150671680Y-95294727D01*
X150779853Y-95033574D01*
X150835000Y-94756335D01*
X150835000Y-94473665D01*
X150779853Y-94196426D01*
X150671680Y-93935273D01*
X150514637Y-93700241D01*
X150314759Y-93500363D01*
X150082241Y-93345000D01*
X150314759Y-93189637D01*
X150514637Y-92989759D01*
X150671680Y-92754727D01*
X150779853Y-92493574D01*
X150835000Y-92216335D01*
X150835000Y-91933665D01*
X150779853Y-91656426D01*
X150671680Y-91395273D01*
X150514637Y-91160241D01*
X150314759Y-90960363D01*
X150082241Y-90805000D01*
X150314759Y-90649637D01*
X150514637Y-90449759D01*
X150671680Y-90214727D01*
X150779853Y-89953574D01*
X150835000Y-89676335D01*
X150835000Y-89393665D01*
X150779853Y-89116426D01*
X150671680Y-88855273D01*
X150514637Y-88620241D01*
X150314759Y-88420363D01*
X150079727Y-88263320D01*
X149818574Y-88155147D01*
X149541335Y-88100000D01*
X149258665Y-88100000D01*
X148981426Y-88155147D01*
X148720273Y-88263320D01*
X148485241Y-88420363D01*
X148285363Y-88620241D01*
X148128320Y-88855273D01*
X148020147Y-89116426D01*
X147965000Y-89393665D01*
X147965000Y-89676335D01*
X148020147Y-89953574D01*
X148128320Y-90214727D01*
X148285363Y-90449759D01*
X148485241Y-90649637D01*
X148717759Y-90805000D01*
X148485241Y-90960363D01*
X148285363Y-91160241D01*
X148128320Y-91395273D01*
X148020147Y-91656426D01*
X147965000Y-91933665D01*
X147965000Y-92216335D01*
X148020147Y-92493574D01*
X148128320Y-92754727D01*
X148285363Y-92989759D01*
X148485241Y-93189637D01*
X148717759Y-93345000D01*
X148485241Y-93500363D01*
X148285363Y-93700241D01*
X148128320Y-93935273D01*
X148020147Y-94196426D01*
X147965000Y-94473665D01*
X147965000Y-94756335D01*
X147972079Y-94791921D01*
X147267347Y-94087190D01*
X147242764Y-94057236D01*
X147123233Y-93959138D01*
X146986860Y-93886246D01*
X146838887Y-93841359D01*
X146723561Y-93830000D01*
X146723553Y-93830000D01*
X146685000Y-93826203D01*
X146646447Y-93830000D01*
X141052338Y-93830000D01*
X141079853Y-93763574D01*
X141135000Y-93486335D01*
X141135000Y-93203665D01*
X141079853Y-92926426D01*
X140971680Y-92665273D01*
X140814637Y-92430241D01*
X140614759Y-92230363D01*
X140379727Y-92073320D01*
X140118574Y-91965147D01*
X139841335Y-91910000D01*
X139558665Y-91910000D01*
X139281426Y-91965147D01*
X139020273Y-92073320D01*
X138785241Y-92230363D01*
X138585363Y-92430241D01*
X138430000Y-92662759D01*
X138274637Y-92430241D01*
X138074759Y-92230363D01*
X137842241Y-92075000D01*
X138074759Y-91919637D01*
X138274637Y-91719759D01*
X138431680Y-91484727D01*
X138539853Y-91223574D01*
X138595000Y-90946335D01*
X138595000Y-90663665D01*
X138539853Y-90386426D01*
X138431680Y-90125273D01*
X138274637Y-89890241D01*
X138074759Y-89690363D01*
X137842241Y-89535000D01*
X138074759Y-89379637D01*
X138274637Y-89179759D01*
X138431680Y-88944727D01*
X138539853Y-88683574D01*
X138595000Y-88406335D01*
X138595000Y-88123665D01*
X138539853Y-87846426D01*
X138431680Y-87585273D01*
X138274637Y-87350241D01*
X138074759Y-87150363D01*
X137842241Y-86995000D01*
X138074759Y-86839637D01*
X138274637Y-86639759D01*
X138431680Y-86404727D01*
X138539853Y-86143574D01*
X138595000Y-85866335D01*
X138595000Y-85583665D01*
X138539853Y-85306426D01*
X138431680Y-85045273D01*
X138274637Y-84810241D01*
X138074759Y-84610363D01*
X137842241Y-84455000D01*
X138074759Y-84299637D01*
X138274637Y-84099759D01*
X138431680Y-83864727D01*
X138539853Y-83603574D01*
X138595000Y-83326335D01*
X138595000Y-83043665D01*
X140805000Y-83043665D01*
X140805000Y-83326335D01*
X140860147Y-83603574D01*
X140968320Y-83864727D01*
X141125363Y-84099759D01*
X141325241Y-84299637D01*
X141557759Y-84455000D01*
X141325241Y-84610363D01*
X141125363Y-84810241D01*
X140968320Y-85045273D01*
X140860147Y-85306426D01*
X140805000Y-85583665D01*
X140805000Y-85866335D01*
X140860147Y-86143574D01*
X140968320Y-86404727D01*
X141125363Y-86639759D01*
X141325241Y-86839637D01*
X141557759Y-86995000D01*
X141325241Y-87150363D01*
X141125363Y-87350241D01*
X140968320Y-87585273D01*
X140860147Y-87846426D01*
X140805000Y-88123665D01*
X140805000Y-88406335D01*
X140860147Y-88683574D01*
X140968320Y-88944727D01*
X141125363Y-89179759D01*
X141325241Y-89379637D01*
X141557759Y-89535000D01*
X141325241Y-89690363D01*
X141125363Y-89890241D01*
X140968320Y-90125273D01*
X140860147Y-90386426D01*
X140805000Y-90663665D01*
X140805000Y-90946335D01*
X140860147Y-91223574D01*
X140968320Y-91484727D01*
X141125363Y-91719759D01*
X141325241Y-91919637D01*
X141560273Y-92076680D01*
X141821426Y-92184853D01*
X142098665Y-92240000D01*
X142381335Y-92240000D01*
X142658574Y-92184853D01*
X142919727Y-92076680D01*
X143154759Y-91919637D01*
X143354637Y-91719759D01*
X143510000Y-91487241D01*
X143665363Y-91719759D01*
X143865241Y-91919637D01*
X144100273Y-92076680D01*
X144361426Y-92184853D01*
X144638665Y-92240000D01*
X144921335Y-92240000D01*
X145198574Y-92184853D01*
X145459727Y-92076680D01*
X145694759Y-91919637D01*
X145894637Y-91719759D01*
X146051680Y-91484727D01*
X146159853Y-91223574D01*
X146215000Y-90946335D01*
X146215000Y-90663665D01*
X146159853Y-90386426D01*
X146051680Y-90125273D01*
X145894637Y-89890241D01*
X145694759Y-89690363D01*
X145462241Y-89535000D01*
X145694759Y-89379637D01*
X145894637Y-89179759D01*
X146051680Y-88944727D01*
X146159853Y-88683574D01*
X146215000Y-88406335D01*
X146215000Y-88123665D01*
X146159853Y-87846426D01*
X146051680Y-87585273D01*
X145894637Y-87350241D01*
X145694759Y-87150363D01*
X145462241Y-86995000D01*
X145694759Y-86839637D01*
X145894637Y-86639759D01*
X146051680Y-86404727D01*
X146159853Y-86143574D01*
X146215000Y-85866335D01*
X146215000Y-85583665D01*
X146159853Y-85306426D01*
X146051680Y-85045273D01*
X145894637Y-84810241D01*
X145694759Y-84610363D01*
X145462241Y-84455000D01*
X145694759Y-84299637D01*
X145894637Y-84099759D01*
X146051680Y-83864727D01*
X146159853Y-83603574D01*
X146215000Y-83326335D01*
X146215000Y-83043665D01*
X146159853Y-82766426D01*
X146051680Y-82505273D01*
X145894637Y-82270241D01*
X145694759Y-82070363D01*
X145459727Y-81913320D01*
X145198574Y-81805147D01*
X144921335Y-81750000D01*
X144638665Y-81750000D01*
X144361426Y-81805147D01*
X144100273Y-81913320D01*
X143865241Y-82070363D01*
X143665363Y-82270241D01*
X143510000Y-82502759D01*
X143354637Y-82270241D01*
X143154759Y-82070363D01*
X142919727Y-81913320D01*
X142658574Y-81805147D01*
X142381335Y-81750000D01*
X142098665Y-81750000D01*
X141821426Y-81805147D01*
X141560273Y-81913320D01*
X141325241Y-82070363D01*
X141125363Y-82270241D01*
X140968320Y-82505273D01*
X140860147Y-82766426D01*
X140805000Y-83043665D01*
X138595000Y-83043665D01*
X138539853Y-82766426D01*
X138431680Y-82505273D01*
X138274637Y-82270241D01*
X138074759Y-82070363D01*
X137842241Y-81915000D01*
X138074759Y-81759637D01*
X138274637Y-81559759D01*
X138431680Y-81324727D01*
X138539853Y-81063574D01*
X138595000Y-80786335D01*
X138595000Y-80503665D01*
X138539853Y-80226426D01*
X138431680Y-79965273D01*
X138274637Y-79730241D01*
X138074759Y-79530363D01*
X137842241Y-79375000D01*
X138074759Y-79219637D01*
X138274637Y-79019759D01*
X138431680Y-78784727D01*
X138539853Y-78523574D01*
X138595000Y-78246335D01*
X138595000Y-77963665D01*
X138564554Y-77810603D01*
X145819645Y-70555512D01*
X150959783Y-70555512D01*
X151001213Y-70835130D01*
X151096397Y-71101292D01*
X151163329Y-71226514D01*
X151407298Y-71298097D01*
X152220395Y-70485000D01*
X152579605Y-70485000D01*
X153392702Y-71298097D01*
X153636671Y-71226514D01*
X153757571Y-70971004D01*
X153826300Y-70696816D01*
X153840217Y-70414488D01*
X153798787Y-70134870D01*
X153703603Y-69868708D01*
X153636671Y-69743486D01*
X153392702Y-69671903D01*
X152579605Y-70485000D01*
X152220395Y-70485000D01*
X151407298Y-69671903D01*
X151163329Y-69743486D01*
X151042429Y-69998996D01*
X150973700Y-70273184D01*
X150959783Y-70555512D01*
X145819645Y-70555512D01*
X148915154Y-67460004D01*
X151047660Y-67460004D01*
X151020147Y-67526426D01*
X150965000Y-67803665D01*
X150965000Y-68086335D01*
X151020147Y-68363574D01*
X151128320Y-68624727D01*
X151285363Y-68859759D01*
X151485241Y-69059637D01*
X151719128Y-69215915D01*
X151658486Y-69248329D01*
X151586903Y-69492298D01*
X152400000Y-70305395D01*
X153213097Y-69492298D01*
X153141514Y-69248329D01*
X153077008Y-69217806D01*
X153079727Y-69216680D01*
X153314759Y-69059637D01*
X153514637Y-68859759D01*
X153671680Y-68624727D01*
X153779853Y-68363574D01*
X153835000Y-68086335D01*
X153835000Y-67803665D01*
X153779853Y-67526426D01*
X153752340Y-67460004D01*
X157697536Y-67460004D01*
X157856851Y-67525994D01*
X158027831Y-67560004D01*
X158202161Y-67560004D01*
X158373141Y-67525994D01*
X158534201Y-67459281D01*
X158679151Y-67362428D01*
X158802420Y-67239159D01*
X158899273Y-67094209D01*
X158965986Y-66933149D01*
X158999996Y-66762169D01*
X158999996Y-66587839D01*
X158965986Y-66416859D01*
X158899273Y-66255799D01*
X158802420Y-66110849D01*
X158679151Y-65987580D01*
X158534201Y-65890727D01*
X158373141Y-65824014D01*
X158202161Y-65790004D01*
X158027831Y-65790004D01*
X157856851Y-65824014D01*
X157697536Y-65890004D01*
X157635699Y-65890004D01*
X157649502Y-65864180D01*
X157685812Y-65744482D01*
X157698072Y-65620000D01*
X157698072Y-63920000D01*
X157685812Y-63795518D01*
X157649502Y-63675820D01*
X157590537Y-63565506D01*
X157511185Y-63468815D01*
X157414494Y-63389463D01*
X157304180Y-63330498D01*
X157223534Y-63306034D01*
X157307588Y-63230269D01*
X157481641Y-62996920D01*
X157606825Y-62734099D01*
X157651476Y-62586890D01*
X157530155Y-62357000D01*
X156337000Y-62357000D01*
X156337000Y-62377000D01*
X156083000Y-62377000D01*
X156083000Y-62357000D01*
X154889845Y-62357000D01*
X154768524Y-62586890D01*
X154813175Y-62734099D01*
X154938359Y-62996920D01*
X155112412Y-63230269D01*
X155196466Y-63306034D01*
X155115820Y-63330498D01*
X155005506Y-63389463D01*
X154908815Y-63468815D01*
X154829463Y-63565506D01*
X154770498Y-63675820D01*
X154734188Y-63795518D01*
X154721928Y-63920000D01*
X154721928Y-65620000D01*
X154734188Y-65744482D01*
X154770498Y-65864180D01*
X154784301Y-65890004D01*
X153752337Y-65890004D01*
X153779853Y-65823574D01*
X153835000Y-65546335D01*
X153835000Y-65263665D01*
X153779853Y-64986426D01*
X153671680Y-64725273D01*
X153514637Y-64490241D01*
X153314759Y-64290363D01*
X153082241Y-64135000D01*
X153314759Y-63979637D01*
X153514637Y-63779759D01*
X153671680Y-63544727D01*
X153779853Y-63283574D01*
X153835000Y-63006335D01*
X153835000Y-62723665D01*
X153779853Y-62446426D01*
X153671680Y-62185273D01*
X153514637Y-61950241D01*
X153437506Y-61873110D01*
X154768524Y-61873110D01*
X154889845Y-62103000D01*
X156083000Y-62103000D01*
X156083000Y-60909186D01*
X156337000Y-60909186D01*
X156337000Y-62103000D01*
X157530155Y-62103000D01*
X157651476Y-61873110D01*
X157606825Y-61725901D01*
X157481641Y-61463080D01*
X157307588Y-61229731D01*
X157091355Y-61034822D01*
X156841252Y-60885843D01*
X156566891Y-60788519D01*
X156337000Y-60909186D01*
X156083000Y-60909186D01*
X155853109Y-60788519D01*
X155578748Y-60885843D01*
X155328645Y-61034822D01*
X155112412Y-61229731D01*
X154938359Y-61463080D01*
X154813175Y-61725901D01*
X154768524Y-61873110D01*
X153437506Y-61873110D01*
X153314759Y-61750363D01*
X153082241Y-61595000D01*
X153314759Y-61439637D01*
X153514637Y-61239759D01*
X153671680Y-61004727D01*
X153779853Y-60743574D01*
X153835000Y-60466335D01*
X153835000Y-60183665D01*
X153779853Y-59906426D01*
X153671680Y-59645273D01*
X153514637Y-59410241D01*
X153314759Y-59210363D01*
X153082241Y-59055000D01*
X153314759Y-58899637D01*
X153514637Y-58699759D01*
X153671680Y-58464727D01*
X153779853Y-58203574D01*
X153835000Y-57926335D01*
X153835000Y-57643665D01*
X153779853Y-57366426D01*
X153671680Y-57105273D01*
X153514637Y-56870241D01*
X153314759Y-56670363D01*
X153082241Y-56515000D01*
X153314759Y-56359637D01*
X153514637Y-56159759D01*
X153601339Y-56030000D01*
X154266447Y-56030000D01*
X154305000Y-56033797D01*
X154343553Y-56030000D01*
X154343561Y-56030000D01*
X154458887Y-56018641D01*
X154606860Y-55973754D01*
X154721928Y-55912250D01*
X154721928Y-56730000D01*
X154734188Y-56854482D01*
X154770498Y-56974180D01*
X154829463Y-57084494D01*
X154908815Y-57181185D01*
X155005506Y-57260537D01*
X155115820Y-57319502D01*
X155235518Y-57355812D01*
X155360000Y-57368072D01*
X157060000Y-57368072D01*
X157184482Y-57355812D01*
X157304180Y-57319502D01*
X157414494Y-57260537D01*
X157511185Y-57181185D01*
X157590537Y-57084494D01*
X157649502Y-56974180D01*
X157685812Y-56854482D01*
X157698072Y-56730000D01*
X157698072Y-55030000D01*
X157685812Y-54905518D01*
X157649502Y-54785820D01*
X157590537Y-54675506D01*
X157511185Y-54578815D01*
X157414494Y-54499463D01*
X157304180Y-54440498D01*
X157231620Y-54418487D01*
X157363475Y-54286632D01*
X157525990Y-54043411D01*
X157637932Y-53773158D01*
X157695000Y-53486260D01*
X157695000Y-53193740D01*
X157637932Y-52906842D01*
X157525990Y-52636589D01*
X157363475Y-52393368D01*
X157156632Y-52186525D01*
X156982240Y-52070000D01*
X157156632Y-51953475D01*
X157363475Y-51746632D01*
X157525990Y-51503411D01*
X157637932Y-51233158D01*
X157695000Y-50946260D01*
X157695000Y-50653740D01*
X157637932Y-50366842D01*
X157525990Y-50096589D01*
X157363475Y-49853368D01*
X157156632Y-49646525D01*
X156982240Y-49530000D01*
X157156632Y-49413475D01*
X157363475Y-49206632D01*
X157525990Y-48963411D01*
X157637932Y-48693158D01*
X157695000Y-48406260D01*
X157695000Y-48113740D01*
X157637932Y-47826842D01*
X157525990Y-47556589D01*
X157363475Y-47313368D01*
X157156632Y-47106525D01*
X157019655Y-47015000D01*
X161967872Y-47015000D01*
X161896985Y-47166453D01*
X161832468Y-47428493D01*
X161820312Y-47698085D01*
X161860985Y-47964869D01*
X161952923Y-48218592D01*
X162011385Y-48327967D01*
X162248722Y-48391673D01*
X163015395Y-47625000D01*
X163001253Y-47610858D01*
X163180858Y-47431253D01*
X163195000Y-47445395D01*
X163209143Y-47431253D01*
X163388748Y-47610858D01*
X163374605Y-47625000D01*
X164141278Y-48391673D01*
X164378615Y-48327967D01*
X164465982Y-48141303D01*
X164520922Y-48273938D01*
X164670851Y-48498324D01*
X164861676Y-48689149D01*
X165086062Y-48839078D01*
X165335386Y-48942352D01*
X165600067Y-48995000D01*
X165869933Y-48995000D01*
X166134614Y-48942352D01*
X166383938Y-48839078D01*
X166608324Y-48689149D01*
X166799149Y-48498324D01*
X166949078Y-48273938D01*
X167052352Y-48024614D01*
X167105000Y-47759933D01*
X167105000Y-47490067D01*
X167052352Y-47225386D01*
X166965207Y-47015000D01*
X184471692Y-47015000D01*
X184229332Y-47063209D01*
X183882644Y-47206811D01*
X183570634Y-47415290D01*
X183305290Y-47680634D01*
X183096811Y-47992644D01*
X182953209Y-48339332D01*
X182880000Y-48707374D01*
X182880000Y-49082626D01*
X182953209Y-49450668D01*
X183096811Y-49797356D01*
X183305290Y-50109366D01*
X183570634Y-50374710D01*
X183882644Y-50583189D01*
X184229332Y-50726791D01*
X184597374Y-50800000D01*
X184972626Y-50800000D01*
X185340668Y-50726791D01*
X185687356Y-50583189D01*
X185999366Y-50374710D01*
X186264710Y-50109366D01*
X186473189Y-49797356D01*
X186616791Y-49450668D01*
X186690000Y-49082626D01*
X186690000Y-48707374D01*
X186616791Y-48339332D01*
X186473189Y-47992644D01*
X186264710Y-47680634D01*
X185999366Y-47415290D01*
X185687356Y-47206811D01*
X185340668Y-47063209D01*
X185098308Y-47015000D01*
X196825000Y-47015000D01*
X196825001Y-126975000D01*
X119405000Y-126975000D01*
X119405000Y-122334872D01*
X120955000Y-122334872D01*
X120955000Y-122775128D01*
X121040890Y-123206925D01*
X121209369Y-123613669D01*
X121453962Y-123979729D01*
X121765271Y-124291038D01*
X122131331Y-124535631D01*
X122538075Y-124704110D01*
X122969872Y-124790000D01*
X123410128Y-124790000D01*
X123841925Y-124704110D01*
X124248669Y-124535631D01*
X124614729Y-124291038D01*
X124926038Y-123979729D01*
X125170631Y-123613669D01*
X125339110Y-123206925D01*
X125425000Y-122775128D01*
X125425000Y-122334872D01*
X190170000Y-122334872D01*
X190170000Y-122775128D01*
X190255890Y-123206925D01*
X190424369Y-123613669D01*
X190668962Y-123979729D01*
X190980271Y-124291038D01*
X191346331Y-124535631D01*
X191753075Y-124704110D01*
X192184872Y-124790000D01*
X192625128Y-124790000D01*
X193056925Y-124704110D01*
X193463669Y-124535631D01*
X193829729Y-124291038D01*
X194141038Y-123979729D01*
X194385631Y-123613669D01*
X194554110Y-123206925D01*
X194640000Y-122775128D01*
X194640000Y-122334872D01*
X194554110Y-121903075D01*
X194385631Y-121496331D01*
X194141038Y-121130271D01*
X193829729Y-120818962D01*
X193463669Y-120574369D01*
X193056925Y-120405890D01*
X192625128Y-120320000D01*
X192184872Y-120320000D01*
X191753075Y-120405890D01*
X191346331Y-120574369D01*
X190980271Y-120818962D01*
X190668962Y-121130271D01*
X190424369Y-121496331D01*
X190255890Y-121903075D01*
X190170000Y-122334872D01*
X125425000Y-122334872D01*
X125339110Y-121903075D01*
X125170631Y-121496331D01*
X124926038Y-121130271D01*
X124614729Y-120818962D01*
X124248669Y-120574369D01*
X123841925Y-120405890D01*
X123410128Y-120320000D01*
X122969872Y-120320000D01*
X122538075Y-120405890D01*
X122131331Y-120574369D01*
X121765271Y-120818962D01*
X121453962Y-121130271D01*
X121209369Y-121496331D01*
X121040890Y-121903075D01*
X120955000Y-122334872D01*
X119405000Y-122334872D01*
X119405000Y-101600000D01*
X125843299Y-101600000D01*
X125870040Y-101871507D01*
X125949236Y-102132581D01*
X126077843Y-102373188D01*
X126250919Y-102584081D01*
X126461812Y-102757157D01*
X126672927Y-102870000D01*
X126461812Y-102982843D01*
X126250919Y-103155919D01*
X126077843Y-103366812D01*
X125949236Y-103607419D01*
X125870040Y-103868493D01*
X125843299Y-104140000D01*
X125870040Y-104411507D01*
X125949236Y-104672581D01*
X126077843Y-104913188D01*
X126250919Y-105124081D01*
X126461812Y-105297157D01*
X126702419Y-105425764D01*
X126963493Y-105504960D01*
X127166963Y-105525000D01*
X128103037Y-105525000D01*
X128306507Y-105504960D01*
X128567581Y-105425764D01*
X128808188Y-105297157D01*
X129019081Y-105124081D01*
X129192157Y-104913188D01*
X129320764Y-104672581D01*
X129399960Y-104411507D01*
X129426701Y-104140000D01*
X129399960Y-103868493D01*
X129320764Y-103607419D01*
X129192157Y-103366812D01*
X129189575Y-103363665D01*
X135725000Y-103363665D01*
X135725000Y-103646335D01*
X135780147Y-103923574D01*
X135888320Y-104184727D01*
X136045363Y-104419759D01*
X136245241Y-104619637D01*
X136477759Y-104775000D01*
X136245241Y-104930363D01*
X136045363Y-105130241D01*
X135888320Y-105365273D01*
X135780147Y-105626426D01*
X135725000Y-105903665D01*
X135725000Y-106186335D01*
X135780147Y-106463574D01*
X135888320Y-106724727D01*
X136045363Y-106959759D01*
X136245241Y-107159637D01*
X136480273Y-107316680D01*
X136741426Y-107424853D01*
X137018665Y-107480000D01*
X137301335Y-107480000D01*
X137578574Y-107424853D01*
X137839727Y-107316680D01*
X138074759Y-107159637D01*
X138274637Y-106959759D01*
X138431680Y-106724727D01*
X138539853Y-106463574D01*
X138595000Y-106186335D01*
X138595000Y-105903665D01*
X138539853Y-105626426D01*
X138431680Y-105365273D01*
X138274637Y-105130241D01*
X138074759Y-104930363D01*
X137842241Y-104775000D01*
X138074759Y-104619637D01*
X138274637Y-104419759D01*
X138430000Y-104187241D01*
X138585363Y-104419759D01*
X138785241Y-104619637D01*
X139020273Y-104776680D01*
X139281426Y-104884853D01*
X139558665Y-104940000D01*
X139841335Y-104940000D01*
X140118574Y-104884853D01*
X140379727Y-104776680D01*
X140614759Y-104619637D01*
X140814637Y-104419759D01*
X140971680Y-104184727D01*
X141079853Y-103923574D01*
X141135000Y-103646335D01*
X141135000Y-103363665D01*
X141079853Y-103086426D01*
X140971680Y-102825273D01*
X140814637Y-102590241D01*
X140614759Y-102390363D01*
X140379727Y-102233320D01*
X140118574Y-102125147D01*
X139841335Y-102070000D01*
X139558665Y-102070000D01*
X139281426Y-102125147D01*
X139020273Y-102233320D01*
X138785241Y-102390363D01*
X138585363Y-102590241D01*
X138430000Y-102822759D01*
X138274637Y-102590241D01*
X138074759Y-102390363D01*
X137840872Y-102234085D01*
X137901514Y-102201671D01*
X137973097Y-101957702D01*
X137160000Y-101144605D01*
X136346903Y-101957702D01*
X136418486Y-102201671D01*
X136482992Y-102232194D01*
X136480273Y-102233320D01*
X136245241Y-102390363D01*
X136045363Y-102590241D01*
X135888320Y-102825273D01*
X135780147Y-103086426D01*
X135725000Y-103363665D01*
X129189575Y-103363665D01*
X129019081Y-103155919D01*
X128808188Y-102982843D01*
X128597073Y-102870000D01*
X128808188Y-102757157D01*
X129019081Y-102584081D01*
X129192157Y-102373188D01*
X129320764Y-102132581D01*
X129399960Y-101871507D01*
X129426701Y-101600000D01*
X129399960Y-101328493D01*
X129320764Y-101067419D01*
X129303710Y-101035512D01*
X135719783Y-101035512D01*
X135761213Y-101315130D01*
X135856397Y-101581292D01*
X135923329Y-101706514D01*
X136167298Y-101778097D01*
X136980395Y-100965000D01*
X137339605Y-100965000D01*
X138152702Y-101778097D01*
X138396671Y-101706514D01*
X138517571Y-101451004D01*
X138586300Y-101176816D01*
X138600217Y-100894488D01*
X138558787Y-100614870D01*
X138463603Y-100348708D01*
X138396671Y-100223486D01*
X138152702Y-100151903D01*
X137339605Y-100965000D01*
X136980395Y-100965000D01*
X136167298Y-100151903D01*
X135923329Y-100223486D01*
X135802429Y-100478996D01*
X135733700Y-100753184D01*
X135719783Y-101035512D01*
X129303710Y-101035512D01*
X129192157Y-100826812D01*
X129019081Y-100615919D01*
X128811392Y-100445473D01*
X128909482Y-100435812D01*
X129029180Y-100399502D01*
X129139494Y-100340537D01*
X129236185Y-100261185D01*
X129315537Y-100164494D01*
X129374502Y-100054180D01*
X129410812Y-99934482D01*
X129423072Y-99810000D01*
X129423072Y-98310000D01*
X129410812Y-98185518D01*
X129374502Y-98065820D01*
X129315537Y-97955506D01*
X129236185Y-97858815D01*
X129139494Y-97779463D01*
X129029180Y-97720498D01*
X128909482Y-97684188D01*
X128785000Y-97671928D01*
X126485000Y-97671928D01*
X126360518Y-97684188D01*
X126240820Y-97720498D01*
X126130506Y-97779463D01*
X126033815Y-97858815D01*
X125954463Y-97955506D01*
X125895498Y-98065820D01*
X125859188Y-98185518D01*
X125846928Y-98310000D01*
X125846928Y-99810000D01*
X125859188Y-99934482D01*
X125895498Y-100054180D01*
X125954463Y-100164494D01*
X126033815Y-100261185D01*
X126130506Y-100340537D01*
X126240820Y-100399502D01*
X126360518Y-100435812D01*
X126458608Y-100445473D01*
X126250919Y-100615919D01*
X126077843Y-100826812D01*
X125949236Y-101067419D01*
X125870040Y-101328493D01*
X125843299Y-101600000D01*
X119405000Y-101600000D01*
X119405000Y-51214872D01*
X121590000Y-51214872D01*
X121590000Y-51655128D01*
X121675890Y-52086925D01*
X121844369Y-52493669D01*
X122088962Y-52859729D01*
X122400271Y-53171038D01*
X122766331Y-53415631D01*
X123173075Y-53584110D01*
X123604872Y-53670000D01*
X124045128Y-53670000D01*
X124476925Y-53584110D01*
X124883669Y-53415631D01*
X125249729Y-53171038D01*
X125561038Y-52859729D01*
X125805631Y-52493669D01*
X125974110Y-52086925D01*
X126060000Y-51655128D01*
X126060000Y-51214872D01*
X125974110Y-50783075D01*
X125805631Y-50376331D01*
X125561038Y-50010271D01*
X125249729Y-49698962D01*
X124883669Y-49454369D01*
X124476925Y-49285890D01*
X124045128Y-49200000D01*
X123604872Y-49200000D01*
X123173075Y-49285890D01*
X122766331Y-49454369D01*
X122400271Y-49698962D01*
X122088962Y-50010271D01*
X121844369Y-50376331D01*
X121675890Y-50783075D01*
X121590000Y-51214872D01*
X119405000Y-51214872D01*
X119405000Y-47015000D01*
X135859438Y-47015000D01*
X135780147Y-47206426D01*
G37*
X135780147Y-47206426D02*
X135725000Y-47483665D01*
X135725000Y-47766335D01*
X135780147Y-48043574D01*
X135888320Y-48304727D01*
X136045363Y-48539759D01*
X136245241Y-48739637D01*
X136477759Y-48895000D01*
X136245241Y-49050363D01*
X136045363Y-49250241D01*
X135888320Y-49485273D01*
X135780147Y-49746426D01*
X135725000Y-50023665D01*
X135725000Y-50306335D01*
X135780147Y-50583574D01*
X135888320Y-50844727D01*
X136045363Y-51079759D01*
X136245241Y-51279637D01*
X136477759Y-51435000D01*
X136245241Y-51590363D01*
X136045363Y-51790241D01*
X135888320Y-52025273D01*
X135780147Y-52286426D01*
X135725000Y-52563665D01*
X135725000Y-52846335D01*
X135780147Y-53123574D01*
X135888320Y-53384727D01*
X136045363Y-53619759D01*
X136245241Y-53819637D01*
X136477759Y-53975000D01*
X136245241Y-54130363D01*
X136045363Y-54330241D01*
X135888320Y-54565273D01*
X135780147Y-54826426D01*
X135725000Y-55103665D01*
X135725000Y-55386335D01*
X135780147Y-55663574D01*
X135888320Y-55924727D01*
X136045363Y-56159759D01*
X136245241Y-56359637D01*
X136477759Y-56515000D01*
X136245241Y-56670363D01*
X136045363Y-56870241D01*
X135888320Y-57105273D01*
X135780147Y-57366426D01*
X135725000Y-57643665D01*
X135725000Y-57926335D01*
X135780147Y-58203574D01*
X135888320Y-58464727D01*
X136045363Y-58699759D01*
X136245241Y-58899637D01*
X136477759Y-59055000D01*
X136245241Y-59210363D01*
X136045363Y-59410241D01*
X135888320Y-59645273D01*
X135780147Y-59906426D01*
X135725000Y-60183665D01*
X135725000Y-60466335D01*
X135780147Y-60743574D01*
X135888320Y-61004727D01*
X136045363Y-61239759D01*
X136245241Y-61439637D01*
X136477759Y-61595000D01*
X136245241Y-61750363D01*
X136045363Y-61950241D01*
X135888320Y-62185273D01*
X135780147Y-62446426D01*
X135725000Y-62723665D01*
X135725000Y-63006335D01*
X135780147Y-63283574D01*
X135888320Y-63544727D01*
X136045363Y-63779759D01*
X136245241Y-63979637D01*
X136477759Y-64135000D01*
X136245241Y-64290363D01*
X136045363Y-64490241D01*
X135888320Y-64725273D01*
X135780147Y-64986426D01*
X135725000Y-65263665D01*
X135725000Y-65546335D01*
X135780147Y-65823574D01*
X135888320Y-66084727D01*
X136045363Y-66319759D01*
X136245241Y-66519637D01*
X136477759Y-66675000D01*
X136245241Y-66830363D01*
X136045363Y-67030241D01*
X135888320Y-67265273D01*
X135780147Y-67526426D01*
X135725000Y-67803665D01*
X135725000Y-68086335D01*
X135780147Y-68363574D01*
X135888320Y-68624727D01*
X136045363Y-68859759D01*
X136245241Y-69059637D01*
X136477759Y-69215000D01*
X136245241Y-69370363D01*
X136045363Y-69570241D01*
X135888320Y-69805273D01*
X135780147Y-70066426D01*
X135725000Y-70343665D01*
X135725000Y-70626335D01*
X135780147Y-70903574D01*
X135888320Y-71164727D01*
X136045363Y-71399759D01*
X136245241Y-71599637D01*
X136477759Y-71755000D01*
X136245241Y-71910363D01*
X136045363Y-72110241D01*
X135888320Y-72345273D01*
X135780147Y-72606426D01*
X135725000Y-72883665D01*
X135725000Y-73166335D01*
X135780147Y-73443574D01*
X135888320Y-73704727D01*
X136045363Y-73939759D01*
X136245241Y-74139637D01*
X136477759Y-74295000D01*
X136245241Y-74450363D01*
X136045363Y-74650241D01*
X135888320Y-74885273D01*
X135780147Y-75146426D01*
X135725000Y-75423665D01*
X135725000Y-75706335D01*
X135780147Y-75983574D01*
X135888320Y-76244727D01*
X136045363Y-76479759D01*
X136245241Y-76679637D01*
X136477759Y-76835000D01*
X136245241Y-76990363D01*
X136045363Y-77190241D01*
X135888320Y-77425273D01*
X135780147Y-77686426D01*
X135725000Y-77963665D01*
X135725000Y-78246335D01*
X135780147Y-78523574D01*
X135888320Y-78784727D01*
X136045363Y-79019759D01*
X136245241Y-79219637D01*
X136477759Y-79375000D01*
X136245241Y-79530363D01*
X136045363Y-79730241D01*
X135888320Y-79965273D01*
X135780147Y-80226426D01*
X135725000Y-80503665D01*
X135725000Y-80786335D01*
X135780147Y-81063574D01*
X135888320Y-81324727D01*
X136045363Y-81559759D01*
X136245241Y-81759637D01*
X136477759Y-81915000D01*
X136245241Y-82070363D01*
X136045363Y-82270241D01*
X135888320Y-82505273D01*
X135780147Y-82766426D01*
X135725000Y-83043665D01*
X135725000Y-83326335D01*
X135780147Y-83603574D01*
X135888320Y-83864727D01*
X136045363Y-84099759D01*
X136245241Y-84299637D01*
X136477759Y-84455000D01*
X136245241Y-84610363D01*
X136045363Y-84810241D01*
X135888320Y-85045273D01*
X135780147Y-85306426D01*
X135725000Y-85583665D01*
X135725000Y-85866335D01*
X135780147Y-86143574D01*
X135888320Y-86404727D01*
X136045363Y-86639759D01*
X136245241Y-86839637D01*
X136477759Y-86995000D01*
X136245241Y-87150363D01*
X136045363Y-87350241D01*
X135888320Y-87585273D01*
X135780147Y-87846426D01*
X135725000Y-88123665D01*
X135725000Y-88406335D01*
X135780147Y-88683574D01*
X135888320Y-88944727D01*
X136045363Y-89179759D01*
X136245241Y-89379637D01*
X136477759Y-89535000D01*
X136245241Y-89690363D01*
X136045363Y-89890241D01*
X135888320Y-90125273D01*
X135780147Y-90386426D01*
X135725000Y-90663665D01*
X135725000Y-90946335D01*
X135780147Y-91223574D01*
X135888320Y-91484727D01*
X136045363Y-91719759D01*
X136245241Y-91919637D01*
X136477759Y-92075000D01*
X136245241Y-92230363D01*
X136045363Y-92430241D01*
X135888320Y-92665273D01*
X135780147Y-92926426D01*
X135725000Y-93203665D01*
X135725000Y-93486335D01*
X135780147Y-93763574D01*
X135888320Y-94024727D01*
X136045363Y-94259759D01*
X136245241Y-94459637D01*
X136477759Y-94615000D01*
X136245241Y-94770363D01*
X136045363Y-94970241D01*
X135888320Y-95205273D01*
X135780147Y-95466426D01*
X135725000Y-95743665D01*
X135725000Y-96026335D01*
X135780147Y-96303574D01*
X135888320Y-96564727D01*
X136045363Y-96799759D01*
X136245241Y-96999637D01*
X136477759Y-97155000D01*
X136245241Y-97310363D01*
X136045363Y-97510241D01*
X135888320Y-97745273D01*
X135780147Y-98006426D01*
X135725000Y-98283665D01*
X135725000Y-98566335D01*
X135780147Y-98843574D01*
X135888320Y-99104727D01*
X136045363Y-99339759D01*
X136245241Y-99539637D01*
X136479128Y-99695915D01*
X136418486Y-99728329D01*
X136346903Y-99972298D01*
X137160000Y-100785395D01*
X137973097Y-99972298D01*
X137901514Y-99728329D01*
X137837008Y-99697806D01*
X137839727Y-99696680D01*
X138074759Y-99539637D01*
X138274637Y-99339759D01*
X138430000Y-99107241D01*
X138585363Y-99339759D01*
X138785241Y-99539637D01*
X139020273Y-99696680D01*
X139281426Y-99804853D01*
X139558665Y-99860000D01*
X139841335Y-99860000D01*
X140118574Y-99804853D01*
X140379727Y-99696680D01*
X140614759Y-99539637D01*
X140814637Y-99339759D01*
X140971680Y-99104727D01*
X141079853Y-98843574D01*
X141135000Y-98566335D01*
X141135000Y-98283665D01*
X141079853Y-98006426D01*
X140971680Y-97745273D01*
X140814637Y-97510241D01*
X140614759Y-97310363D01*
X140382241Y-97155000D01*
X140614759Y-96999637D01*
X140814637Y-96799759D01*
X140971680Y-96564727D01*
X141079853Y-96303574D01*
X141135000Y-96026335D01*
X141135000Y-95743665D01*
X141079853Y-95466426D01*
X141052338Y-95400000D01*
X146359843Y-95400000D01*
X147372655Y-96412813D01*
X147397236Y-96442764D01*
X147427184Y-96467342D01*
X147427187Y-96467345D01*
X147454791Y-96489999D01*
X147516767Y-96540862D01*
X147653140Y-96613754D01*
X147766672Y-96648194D01*
X147801112Y-96658641D01*
X147815490Y-96660057D01*
X147916439Y-96670000D01*
X147916446Y-96670000D01*
X147954999Y-96673797D01*
X147993552Y-96670000D01*
X148047662Y-96670000D01*
X148020147Y-96736426D01*
X147965000Y-97013665D01*
X147965000Y-97296335D01*
X148020147Y-97573574D01*
X148128320Y-97834727D01*
X148285363Y-98069759D01*
X148485241Y-98269637D01*
X148717759Y-98425000D01*
X148485241Y-98580363D01*
X148285363Y-98780241D01*
X148128320Y-99015273D01*
X148020147Y-99276426D01*
X147965000Y-99553665D01*
X147965000Y-99836335D01*
X148020147Y-100113574D01*
X148128320Y-100374727D01*
X148285363Y-100609759D01*
X148485241Y-100809637D01*
X148720273Y-100966680D01*
X148981426Y-101074853D01*
X149258665Y-101130000D01*
X149541335Y-101130000D01*
X149818574Y-101074853D01*
X150079727Y-100966680D01*
X150314759Y-100809637D01*
X150514637Y-100609759D01*
X150671680Y-100374727D01*
X150779853Y-100113574D01*
X150835000Y-99836335D01*
X150835000Y-99553665D01*
X150779853Y-99276426D01*
X150671680Y-99015273D01*
X150514637Y-98780241D01*
X150314759Y-98580363D01*
X150082241Y-98425000D01*
X150314759Y-98269637D01*
X150514637Y-98069759D01*
X150671680Y-97834727D01*
X150679115Y-97816777D01*
X150692235Y-97832763D01*
X150722183Y-97857341D01*
X150722186Y-97857344D01*
X150751558Y-97881449D01*
X150811766Y-97930861D01*
X150948139Y-98003753D01*
X151016551Y-98024505D01*
X150965000Y-98283665D01*
X150965000Y-98566335D01*
X151020147Y-98843574D01*
X151128320Y-99104727D01*
X151285363Y-99339759D01*
X151485241Y-99539637D01*
X151717759Y-99695000D01*
X151485241Y-99850363D01*
X151285363Y-100050241D01*
X151128320Y-100285273D01*
X151020147Y-100546426D01*
X150965000Y-100823665D01*
X150965000Y-101106335D01*
X151020147Y-101383574D01*
X151128320Y-101644727D01*
X151285363Y-101879759D01*
X151485241Y-102079637D01*
X151717759Y-102235000D01*
X151485241Y-102390363D01*
X151285363Y-102590241D01*
X151128320Y-102825273D01*
X151020147Y-103086426D01*
X150965000Y-103363665D01*
X150965000Y-103646335D01*
X151020147Y-103923574D01*
X151128320Y-104184727D01*
X151285363Y-104419759D01*
X151483961Y-104618357D01*
X151475518Y-104619188D01*
X151355820Y-104655498D01*
X151245506Y-104714463D01*
X151148815Y-104793815D01*
X151069463Y-104890506D01*
X151010498Y-105000820D01*
X150974188Y-105120518D01*
X150961928Y-105245000D01*
X150961928Y-106845000D01*
X150974188Y-106969482D01*
X151010498Y-107089180D01*
X151069463Y-107199494D01*
X151148815Y-107296185D01*
X151245506Y-107375537D01*
X151355820Y-107434502D01*
X151475518Y-107470812D01*
X151600000Y-107483072D01*
X153200000Y-107483072D01*
X153324482Y-107470812D01*
X153444180Y-107434502D01*
X153554494Y-107375537D01*
X153651185Y-107296185D01*
X153730537Y-107199494D01*
X153789502Y-107089180D01*
X153825812Y-106969482D01*
X153838072Y-106845000D01*
X153838072Y-106053229D01*
X158600000Y-110815157D01*
X158600001Y-113728749D01*
X158566613Y-113746595D01*
X158432038Y-113857038D01*
X158321595Y-113991613D01*
X158239528Y-114145149D01*
X158188992Y-114311745D01*
X158171928Y-114484999D01*
X158171928Y-115385001D01*
X158188992Y-115558255D01*
X158239528Y-115724851D01*
X158321595Y-115878387D01*
X158432038Y-116012962D01*
X158566613Y-116123405D01*
X158600001Y-116141251D01*
X158600000Y-117483526D01*
X158438368Y-117591525D01*
X158306513Y-117723380D01*
X158284502Y-117650820D01*
X158225537Y-117540506D01*
X158146185Y-117443815D01*
X158049494Y-117364463D01*
X157939180Y-117305498D01*
X157819482Y-117269188D01*
X157695000Y-117256928D01*
X155995000Y-117256928D01*
X155870518Y-117269188D01*
X155750820Y-117305498D01*
X155640506Y-117364463D01*
X155543815Y-117443815D01*
X155464463Y-117540506D01*
X155405498Y-117650820D01*
X155369188Y-117770518D01*
X155356928Y-117895000D01*
X155356928Y-119595000D01*
X155369188Y-119719482D01*
X155405498Y-119839180D01*
X155464463Y-119949494D01*
X155543815Y-120046185D01*
X155640506Y-120125537D01*
X155750820Y-120184502D01*
X155870518Y-120220812D01*
X155995000Y-120233072D01*
X157695000Y-120233072D01*
X157819482Y-120220812D01*
X157939180Y-120184502D01*
X158049494Y-120125537D01*
X158146185Y-120046185D01*
X158225537Y-119949494D01*
X158284502Y-119839180D01*
X158306513Y-119766620D01*
X158438368Y-119898475D01*
X158681589Y-120060990D01*
X158951842Y-120172932D01*
X159238740Y-120230000D01*
X159531260Y-120230000D01*
X159818158Y-120172932D01*
X160088411Y-120060990D01*
X160331632Y-119898475D01*
X160538475Y-119691632D01*
X160655000Y-119517240D01*
X160771525Y-119691632D01*
X160978368Y-119898475D01*
X161221589Y-120060990D01*
X161491842Y-120172932D01*
X161778740Y-120230000D01*
X162071260Y-120230000D01*
X162358158Y-120172932D01*
X162628411Y-120060990D01*
X162871632Y-119898475D01*
X163078475Y-119691632D01*
X163240990Y-119448411D01*
X163352932Y-119178158D01*
X163410000Y-118891260D01*
X163410000Y-118598740D01*
X163352932Y-118311842D01*
X163240990Y-118041589D01*
X163078475Y-117798368D01*
X162871632Y-117591525D01*
X162628411Y-117429010D01*
X162358158Y-117317068D01*
X162071260Y-117260000D01*
X161778740Y-117260000D01*
X161491842Y-117317068D01*
X161221589Y-117429010D01*
X160978368Y-117591525D01*
X160771525Y-117798368D01*
X160655000Y-117972760D01*
X160538475Y-117798368D01*
X160331632Y-117591525D01*
X160170000Y-117483526D01*
X160170000Y-116141251D01*
X160203387Y-116123405D01*
X160337962Y-116012962D01*
X160343342Y-116006406D01*
X160408815Y-116086185D01*
X160505506Y-116165537D01*
X160615820Y-116224502D01*
X160735518Y-116260812D01*
X160860000Y-116273072D01*
X161149250Y-116270000D01*
X161308000Y-116111250D01*
X161308000Y-115062000D01*
X161562000Y-115062000D01*
X161562000Y-116111250D01*
X161720750Y-116270000D01*
X162010000Y-116273072D01*
X162134482Y-116260812D01*
X162254180Y-116224502D01*
X162364494Y-116165537D01*
X162461185Y-116086185D01*
X162540537Y-115989494D01*
X162599502Y-115879180D01*
X162635812Y-115759482D01*
X162648072Y-115635000D01*
X162645000Y-115220750D01*
X162486250Y-115062000D01*
X161562000Y-115062000D01*
X161308000Y-115062000D01*
X161288000Y-115062000D01*
X161288000Y-114808000D01*
X161308000Y-114808000D01*
X161308000Y-113758750D01*
X161562000Y-113758750D01*
X161562000Y-114808000D01*
X162486250Y-114808000D01*
X162645000Y-114649250D01*
X162648072Y-114235000D01*
X162635812Y-114110518D01*
X162599502Y-113990820D01*
X162540537Y-113880506D01*
X162461185Y-113783815D01*
X162364494Y-113704463D01*
X162254180Y-113645498D01*
X162134482Y-113609188D01*
X162010000Y-113596928D01*
X161720750Y-113600000D01*
X161562000Y-113758750D01*
X161308000Y-113758750D01*
X161149250Y-113600000D01*
X160860000Y-113596928D01*
X160735518Y-113609188D01*
X160615820Y-113645498D01*
X160505506Y-113704463D01*
X160408815Y-113783815D01*
X160343342Y-113863594D01*
X160337962Y-113857038D01*
X160203387Y-113746595D01*
X160170000Y-113728749D01*
X160170000Y-110528556D01*
X160173797Y-110490000D01*
X160170000Y-110451440D01*
X160170000Y-110451439D01*
X160166020Y-110411026D01*
X160158642Y-110336113D01*
X160113754Y-110188140D01*
X160040862Y-110051767D01*
X159942764Y-109932236D01*
X159912811Y-109907654D01*
X153804554Y-103799397D01*
X153835000Y-103646335D01*
X153835000Y-103510157D01*
X161342658Y-111017816D01*
X161367236Y-111047764D01*
X161397184Y-111072342D01*
X161397187Y-111072345D01*
X161426559Y-111096450D01*
X161486767Y-111145862D01*
X161608695Y-111211033D01*
X161623140Y-111218754D01*
X161771112Y-111263641D01*
X161785490Y-111265057D01*
X161886439Y-111275000D01*
X161886446Y-111275000D01*
X161924999Y-111278797D01*
X161963552Y-111275000D01*
X165409843Y-111275000D01*
X168966928Y-114832086D01*
X168966928Y-115385001D01*
X168983992Y-115558255D01*
X169034528Y-115724851D01*
X169116595Y-115878387D01*
X169227038Y-116012962D01*
X169361613Y-116123405D01*
X169395000Y-116141251D01*
X169395001Y-117483526D01*
X169233368Y-117591525D01*
X169101513Y-117723380D01*
X169079502Y-117650820D01*
X169020537Y-117540506D01*
X168941185Y-117443815D01*
X168844494Y-117364463D01*
X168734180Y-117305498D01*
X168614482Y-117269188D01*
X168490000Y-117256928D01*
X166790000Y-117256928D01*
X166665518Y-117269188D01*
X166545820Y-117305498D01*
X166435506Y-117364463D01*
X166338815Y-117443815D01*
X166259463Y-117540506D01*
X166200498Y-117650820D01*
X166164188Y-117770518D01*
X166151928Y-117895000D01*
X166151928Y-119595000D01*
X166164188Y-119719482D01*
X166200498Y-119839180D01*
X166259463Y-119949494D01*
X166338815Y-120046185D01*
X166435506Y-120125537D01*
X166545820Y-120184502D01*
X166665518Y-120220812D01*
X166790000Y-120233072D01*
X168490000Y-120233072D01*
X168614482Y-120220812D01*
X168734180Y-120184502D01*
X168844494Y-120125537D01*
X168941185Y-120046185D01*
X169020537Y-119949494D01*
X169079502Y-119839180D01*
X169101513Y-119766620D01*
X169233368Y-119898475D01*
X169476589Y-120060990D01*
X169746842Y-120172932D01*
X170033740Y-120230000D01*
X170326260Y-120230000D01*
X170613158Y-120172932D01*
X170883411Y-120060990D01*
X171126632Y-119898475D01*
X171333475Y-119691632D01*
X171450000Y-119517240D01*
X171566525Y-119691632D01*
X171773368Y-119898475D01*
X172016589Y-120060990D01*
X172286842Y-120172932D01*
X172573740Y-120230000D01*
X172866260Y-120230000D01*
X173153158Y-120172932D01*
X173423411Y-120060990D01*
X173666632Y-119898475D01*
X173873475Y-119691632D01*
X174035990Y-119448411D01*
X174147932Y-119178158D01*
X174205000Y-118891260D01*
X174205000Y-118598740D01*
X174147932Y-118311842D01*
X174035990Y-118041589D01*
X173873475Y-117798368D01*
X173666632Y-117591525D01*
X173423411Y-117429010D01*
X173153158Y-117317068D01*
X172866260Y-117260000D01*
X172573740Y-117260000D01*
X172286842Y-117317068D01*
X172016589Y-117429010D01*
X171773368Y-117591525D01*
X171566525Y-117798368D01*
X171450000Y-117972760D01*
X171333475Y-117798368D01*
X171126632Y-117591525D01*
X170965000Y-117483526D01*
X170965000Y-116610000D01*
X177566928Y-116610000D01*
X177566928Y-119610000D01*
X177579188Y-119734482D01*
X177615498Y-119854180D01*
X177674463Y-119964494D01*
X177753815Y-120061185D01*
X177850506Y-120140537D01*
X177960820Y-120199502D01*
X178080518Y-120235812D01*
X178205000Y-120248072D01*
X181205000Y-120248072D01*
X181329482Y-120235812D01*
X181449180Y-120199502D01*
X181559494Y-120140537D01*
X181656185Y-120061185D01*
X181735537Y-119964494D01*
X181794502Y-119854180D01*
X181830812Y-119734482D01*
X181843072Y-119610000D01*
X181843072Y-116610000D01*
X181830812Y-116485518D01*
X181794502Y-116365820D01*
X181735537Y-116255506D01*
X181656185Y-116158815D01*
X181559494Y-116079463D01*
X181449180Y-116020498D01*
X181329482Y-115984188D01*
X181205000Y-115971928D01*
X178205000Y-115971928D01*
X178080518Y-115984188D01*
X177960820Y-116020498D01*
X177850506Y-116079463D01*
X177753815Y-116158815D01*
X177674463Y-116255506D01*
X177615498Y-116365820D01*
X177579188Y-116485518D01*
X177566928Y-116610000D01*
X170965000Y-116610000D01*
X170965000Y-116141251D01*
X170998387Y-116123405D01*
X171132962Y-116012962D01*
X171138342Y-116006406D01*
X171203815Y-116086185D01*
X171300506Y-116165537D01*
X171410820Y-116224502D01*
X171530518Y-116260812D01*
X171655000Y-116273072D01*
X171944250Y-116270000D01*
X172103000Y-116111250D01*
X172103000Y-115062000D01*
X172357000Y-115062000D01*
X172357000Y-116111250D01*
X172515750Y-116270000D01*
X172805000Y-116273072D01*
X172929482Y-116260812D01*
X173049180Y-116224502D01*
X173159494Y-116165537D01*
X173256185Y-116086185D01*
X173335537Y-115989494D01*
X173394502Y-115879180D01*
X173430812Y-115759482D01*
X173443072Y-115635000D01*
X173440000Y-115220750D01*
X173281250Y-115062000D01*
X172357000Y-115062000D01*
X172103000Y-115062000D01*
X172083000Y-115062000D01*
X172083000Y-114808000D01*
X172103000Y-114808000D01*
X172103000Y-113758750D01*
X172357000Y-113758750D01*
X172357000Y-114808000D01*
X173281250Y-114808000D01*
X173440000Y-114649250D01*
X173443072Y-114235000D01*
X173430812Y-114110518D01*
X173394502Y-113990820D01*
X173335537Y-113880506D01*
X173256185Y-113783815D01*
X173159494Y-113704463D01*
X173049180Y-113645498D01*
X172929482Y-113609188D01*
X172805000Y-113596928D01*
X172515750Y-113600000D01*
X172357000Y-113758750D01*
X172103000Y-113758750D01*
X171944250Y-113600000D01*
X171655000Y-113596928D01*
X171530518Y-113609188D01*
X171410820Y-113645498D01*
X171300506Y-113704463D01*
X171203815Y-113783815D01*
X171138342Y-113863594D01*
X171132962Y-113857038D01*
X170998387Y-113746595D01*
X170844851Y-113664528D01*
X170678255Y-113613992D01*
X170505001Y-113596928D01*
X169952086Y-113596928D01*
X166317345Y-109962188D01*
X166292764Y-109932236D01*
X166173233Y-109834138D01*
X166036860Y-109761246D01*
X165966822Y-109740000D01*
X180756928Y-109740000D01*
X180756928Y-111240000D01*
X180773992Y-111413254D01*
X180824528Y-111579850D01*
X180906595Y-111733386D01*
X181017038Y-111867962D01*
X181151614Y-111978405D01*
X181305150Y-112060472D01*
X181471746Y-112111008D01*
X181645000Y-112128072D01*
X182845000Y-112128072D01*
X183018254Y-112111008D01*
X183184850Y-112060472D01*
X183338386Y-111978405D01*
X183400001Y-111927839D01*
X183400000Y-116475654D01*
X183126637Y-116749017D01*
X182892988Y-117098698D01*
X182732047Y-117487244D01*
X182650000Y-117899721D01*
X182650000Y-118320279D01*
X182732047Y-118732756D01*
X182892988Y-119121302D01*
X183126637Y-119470983D01*
X183424017Y-119768363D01*
X183773698Y-120002012D01*
X184162244Y-120162953D01*
X184574721Y-120245000D01*
X184995279Y-120245000D01*
X185407756Y-120162953D01*
X185796302Y-120002012D01*
X186145983Y-119768363D01*
X186443363Y-119470983D01*
X186677012Y-119121302D01*
X186837953Y-118732756D01*
X186920000Y-118320279D01*
X186920000Y-117899721D01*
X186837953Y-117487244D01*
X186677012Y-117098698D01*
X186443363Y-116749017D01*
X186170000Y-116475654D01*
X186170000Y-111063685D01*
X190796241Y-106437445D01*
X190849080Y-106394081D01*
X190892445Y-106341241D01*
X190892452Y-106341234D01*
X190963460Y-106254710D01*
X191022157Y-106183188D01*
X191150764Y-105942581D01*
X191229960Y-105681507D01*
X191250000Y-105478037D01*
X191250000Y-105478029D01*
X191256700Y-105410000D01*
X191250000Y-105341971D01*
X191250000Y-104701806D01*
X191361614Y-104793405D01*
X191515150Y-104875472D01*
X191681746Y-104926008D01*
X191855000Y-104943072D01*
X192955000Y-104943072D01*
X193128254Y-104926008D01*
X193294850Y-104875472D01*
X193448386Y-104793405D01*
X193582962Y-104682962D01*
X193693405Y-104548386D01*
X193775472Y-104394850D01*
X193826008Y-104228254D01*
X193843072Y-104055000D01*
X193843072Y-103878830D01*
X193890990Y-103763145D01*
X193925000Y-103592165D01*
X193925000Y-103417835D01*
X193890990Y-103246855D01*
X193866404Y-103187500D01*
X193890990Y-103128145D01*
X193925000Y-102957165D01*
X193925000Y-102782835D01*
X193890990Y-102611855D01*
X193866404Y-102552500D01*
X193890990Y-102493145D01*
X193925000Y-102322165D01*
X193925000Y-102147835D01*
X193890990Y-101976855D01*
X193866404Y-101917500D01*
X193890990Y-101858145D01*
X193925000Y-101687165D01*
X193925000Y-101512835D01*
X193890990Y-101341855D01*
X193843072Y-101226170D01*
X193843072Y-101055000D01*
X193826008Y-100881746D01*
X193775472Y-100715150D01*
X193693405Y-100561614D01*
X193582962Y-100427038D01*
X193448386Y-100316595D01*
X193294850Y-100234528D01*
X193128254Y-100183992D01*
X192955000Y-100166928D01*
X191855000Y-100166928D01*
X191681746Y-100183992D01*
X191515150Y-100234528D01*
X191361614Y-100316595D01*
X191250000Y-100408194D01*
X191250000Y-100268685D01*
X191975613Y-99543072D01*
X192955000Y-99543072D01*
X193128254Y-99526008D01*
X193294850Y-99475472D01*
X193448386Y-99393405D01*
X193582962Y-99282962D01*
X193693405Y-99148386D01*
X193775472Y-98994850D01*
X193826008Y-98828254D01*
X193843072Y-98655000D01*
X193843072Y-95655000D01*
X193826008Y-95481746D01*
X193790000Y-95363043D01*
X193790000Y-94661957D01*
X193826008Y-94543254D01*
X193843072Y-94370000D01*
X193843072Y-91370000D01*
X193826008Y-91196746D01*
X193775472Y-91030150D01*
X193693405Y-90876614D01*
X193582962Y-90742038D01*
X193448386Y-90631595D01*
X193294850Y-90549528D01*
X193128254Y-90498992D01*
X192955000Y-90481928D01*
X191975613Y-90481928D01*
X191250000Y-89756315D01*
X191250000Y-89616806D01*
X191361614Y-89708405D01*
X191515150Y-89790472D01*
X191681746Y-89841008D01*
X191855000Y-89858072D01*
X192955000Y-89858072D01*
X193128254Y-89841008D01*
X193294850Y-89790472D01*
X193448386Y-89708405D01*
X193582962Y-89597962D01*
X193693405Y-89463386D01*
X193775472Y-89309850D01*
X193826008Y-89143254D01*
X193843072Y-88970000D01*
X193843072Y-88638830D01*
X193890990Y-88523145D01*
X193925000Y-88352165D01*
X193925000Y-88177835D01*
X193890990Y-88006855D01*
X193866404Y-87947500D01*
X193890990Y-87888145D01*
X193925000Y-87717165D01*
X193925000Y-87542835D01*
X193890990Y-87371855D01*
X193866404Y-87312500D01*
X193890990Y-87253145D01*
X193925000Y-87082165D01*
X193925000Y-86907835D01*
X193890990Y-86736855D01*
X193866404Y-86677500D01*
X193890990Y-86618145D01*
X193925000Y-86447165D01*
X193925000Y-86272835D01*
X193890990Y-86101855D01*
X193843072Y-85986170D01*
X193843072Y-85970000D01*
X193826008Y-85796746D01*
X193775472Y-85630150D01*
X193693405Y-85476614D01*
X193582962Y-85342038D01*
X193448386Y-85231595D01*
X193294850Y-85149528D01*
X193128254Y-85098992D01*
X192955000Y-85081928D01*
X191855000Y-85081928D01*
X191681746Y-85098992D01*
X191515150Y-85149528D01*
X191361614Y-85231595D01*
X191250000Y-85323194D01*
X191250000Y-74061806D01*
X191361614Y-74153405D01*
X191515150Y-74235472D01*
X191681746Y-74286008D01*
X191855000Y-74303072D01*
X192955000Y-74303072D01*
X193128254Y-74286008D01*
X193294850Y-74235472D01*
X193448386Y-74153405D01*
X193582962Y-74042962D01*
X193693405Y-73908386D01*
X193775472Y-73754850D01*
X193826008Y-73588254D01*
X193843072Y-73415000D01*
X193843072Y-73398830D01*
X193890990Y-73283145D01*
X193925000Y-73112165D01*
X193925000Y-72937835D01*
X193890990Y-72766855D01*
X193866404Y-72707500D01*
X193890990Y-72648145D01*
X193925000Y-72477165D01*
X193925000Y-72302835D01*
X193890990Y-72131855D01*
X193866404Y-72072500D01*
X193890990Y-72013145D01*
X193925000Y-71842165D01*
X193925000Y-71667835D01*
X193890990Y-71496855D01*
X193866404Y-71437500D01*
X193890990Y-71378145D01*
X193925000Y-71207165D01*
X193925000Y-71032835D01*
X193890990Y-70861855D01*
X193843072Y-70746170D01*
X193843072Y-70415000D01*
X193826008Y-70241746D01*
X193775472Y-70075150D01*
X193693405Y-69921614D01*
X193582962Y-69787038D01*
X193448386Y-69676595D01*
X193294850Y-69594528D01*
X193128254Y-69543992D01*
X192955000Y-69526928D01*
X191855000Y-69526928D01*
X191681746Y-69543992D01*
X191515150Y-69594528D01*
X191361614Y-69676595D01*
X191250000Y-69768194D01*
X191250000Y-69628685D01*
X191975613Y-68903072D01*
X192955000Y-68903072D01*
X193128254Y-68886008D01*
X193294850Y-68835472D01*
X193448386Y-68753405D01*
X193582962Y-68642962D01*
X193693405Y-68508386D01*
X193775472Y-68354850D01*
X193826008Y-68188254D01*
X193843072Y-68015000D01*
X193843072Y-65015000D01*
X193826008Y-64841746D01*
X193790000Y-64723043D01*
X193790000Y-64181957D01*
X193826008Y-64063254D01*
X193843072Y-63890000D01*
X193843072Y-60890000D01*
X193826008Y-60716746D01*
X193775472Y-60550150D01*
X193693405Y-60396614D01*
X193582962Y-60262038D01*
X193448386Y-60151595D01*
X193294850Y-60069528D01*
X193128254Y-60018992D01*
X192955000Y-60001928D01*
X191975614Y-60001928D01*
X190939999Y-58966314D01*
X190939999Y-58093817D01*
X190966928Y-58158830D01*
X190966928Y-58490000D01*
X190983992Y-58663254D01*
X191034528Y-58829850D01*
X191116595Y-58983386D01*
X191227038Y-59117962D01*
X191361614Y-59228405D01*
X191515150Y-59310472D01*
X191681746Y-59361008D01*
X191855000Y-59378072D01*
X192955000Y-59378072D01*
X193128254Y-59361008D01*
X193294850Y-59310472D01*
X193448386Y-59228405D01*
X193582962Y-59117962D01*
X193693405Y-58983386D01*
X193775472Y-58829850D01*
X193826008Y-58663254D01*
X193843072Y-58490000D01*
X193843072Y-58158830D01*
X193890990Y-58043145D01*
X193925000Y-57872165D01*
X193925000Y-57697835D01*
X193890990Y-57526855D01*
X193866404Y-57467500D01*
X193890990Y-57408145D01*
X193925000Y-57237165D01*
X193925000Y-57062835D01*
X193890990Y-56891855D01*
X193866404Y-56832500D01*
X193890990Y-56773145D01*
X193925000Y-56602165D01*
X193925000Y-56427835D01*
X193890990Y-56256855D01*
X193866404Y-56197500D01*
X193890990Y-56138145D01*
X193925000Y-55967165D01*
X193925000Y-55792835D01*
X193890990Y-55621855D01*
X193843072Y-55506170D01*
X193843072Y-55490000D01*
X193826008Y-55316746D01*
X193775472Y-55150150D01*
X193693405Y-54996614D01*
X193582962Y-54862038D01*
X193448386Y-54751595D01*
X193294850Y-54669528D01*
X193128254Y-54618992D01*
X192955000Y-54601928D01*
X191855000Y-54601928D01*
X191681746Y-54618992D01*
X191515150Y-54669528D01*
X191361614Y-54751595D01*
X191227038Y-54862038D01*
X191116595Y-54996614D01*
X191034528Y-55150150D01*
X190983992Y-55316746D01*
X190966928Y-55490000D01*
X190966928Y-55506170D01*
X190939999Y-55571183D01*
X190939999Y-54598582D01*
X190946699Y-54530553D01*
X190939999Y-54462524D01*
X190939999Y-54462516D01*
X190919959Y-54259046D01*
X190840763Y-53997972D01*
X190712156Y-53757365D01*
X190617363Y-53641860D01*
X190582451Y-53599319D01*
X190582449Y-53599317D01*
X190539080Y-53546472D01*
X190486235Y-53503103D01*
X188756900Y-51773769D01*
X188713527Y-51720919D01*
X188502634Y-51547843D01*
X188262027Y-51419236D01*
X188000953Y-51340040D01*
X187797483Y-51320000D01*
X187797475Y-51320000D01*
X187729446Y-51313300D01*
X187661417Y-51320000D01*
X186621963Y-51320000D01*
X186418493Y-51340040D01*
X186338010Y-51364454D01*
X186189933Y-51335000D01*
X185920067Y-51335000D01*
X185655386Y-51387648D01*
X185406062Y-51490922D01*
X185181676Y-51640851D01*
X184990851Y-51831676D01*
X184840922Y-52056062D01*
X184737648Y-52305386D01*
X184685000Y-52570067D01*
X184685000Y-52839933D01*
X184737648Y-53104614D01*
X184840922Y-53353938D01*
X184990851Y-53578324D01*
X185181676Y-53769149D01*
X185406062Y-53919078D01*
X185541069Y-53975000D01*
X185406062Y-54030922D01*
X185181676Y-54180851D01*
X184990851Y-54371676D01*
X184840922Y-54596062D01*
X184737648Y-54845386D01*
X184685000Y-55110067D01*
X184685000Y-55379933D01*
X184737648Y-55644614D01*
X184840922Y-55893938D01*
X184990851Y-56118324D01*
X185181676Y-56309149D01*
X185406062Y-56459078D01*
X185655386Y-56562352D01*
X185920067Y-56615000D01*
X186189933Y-56615000D01*
X186454614Y-56562352D01*
X186703938Y-56459078D01*
X186928324Y-56309149D01*
X187119149Y-56118324D01*
X187269078Y-55893938D01*
X187372352Y-55644614D01*
X187425000Y-55379933D01*
X187425000Y-55110067D01*
X187372352Y-54845386D01*
X187269078Y-54596062D01*
X187119149Y-54371676D01*
X186928324Y-54180851D01*
X186792355Y-54090000D01*
X187155761Y-54090000D01*
X188170000Y-55104240D01*
X188169999Y-59471970D01*
X188163299Y-59539999D01*
X188169999Y-59608028D01*
X188169999Y-59608035D01*
X188176699Y-59676062D01*
X188190039Y-59811506D01*
X188269235Y-60072579D01*
X188397843Y-60313187D01*
X188523529Y-60466335D01*
X188570918Y-60524079D01*
X188623764Y-60567449D01*
X190966928Y-62910614D01*
X190966928Y-63890000D01*
X190983992Y-64063254D01*
X191020001Y-64181959D01*
X191020000Y-64723041D01*
X190983992Y-64841746D01*
X190966928Y-65015000D01*
X190966928Y-65994387D01*
X188933765Y-68027550D01*
X188880920Y-68070919D01*
X188837551Y-68123764D01*
X188837548Y-68123767D01*
X188707844Y-68281812D01*
X188579236Y-68522420D01*
X188500040Y-68783493D01*
X188473300Y-69055000D01*
X188480001Y-69123039D01*
X188480000Y-82618513D01*
X188115256Y-82253769D01*
X188071883Y-82200919D01*
X187860990Y-82027843D01*
X187620383Y-81899236D01*
X187359309Y-81820040D01*
X187155839Y-81800000D01*
X187155831Y-81800000D01*
X187087802Y-81793300D01*
X187019773Y-81800000D01*
X186621963Y-81800000D01*
X186418493Y-81820040D01*
X186338010Y-81844454D01*
X186189933Y-81815000D01*
X185920067Y-81815000D01*
X185655386Y-81867648D01*
X185406062Y-81970922D01*
X185181676Y-82120851D01*
X184990851Y-82311676D01*
X184840922Y-82536062D01*
X184737648Y-82785386D01*
X184685000Y-83050067D01*
X184685000Y-83319933D01*
X184737648Y-83584614D01*
X184840922Y-83833938D01*
X184990851Y-84058324D01*
X185181676Y-84249149D01*
X185406062Y-84399078D01*
X185541069Y-84455000D01*
X185406062Y-84510922D01*
X185181676Y-84660851D01*
X184990851Y-84851676D01*
X184840922Y-85076062D01*
X184737648Y-85325386D01*
X184685000Y-85590067D01*
X184685000Y-85859933D01*
X184737648Y-86124614D01*
X184840922Y-86373938D01*
X184990851Y-86598324D01*
X185181676Y-86789149D01*
X185406062Y-86939078D01*
X185655386Y-87042352D01*
X185920067Y-87095000D01*
X186189933Y-87095000D01*
X186454614Y-87042352D01*
X186703938Y-86939078D01*
X186928324Y-86789149D01*
X187119149Y-86598324D01*
X187269078Y-86373938D01*
X187372352Y-86124614D01*
X187425000Y-85859933D01*
X187425000Y-85590067D01*
X187397890Y-85453773D01*
X188480001Y-86535885D01*
X188480000Y-90261971D01*
X188473300Y-90330000D01*
X188480000Y-90398029D01*
X188480000Y-90398036D01*
X188500040Y-90601506D01*
X188579236Y-90862580D01*
X188707843Y-91103187D01*
X188880919Y-91314080D01*
X188933765Y-91357450D01*
X190966928Y-93390613D01*
X190966928Y-94370000D01*
X190983992Y-94543254D01*
X191020001Y-94661959D01*
X191020000Y-95363041D01*
X190983992Y-95481746D01*
X190966928Y-95655000D01*
X190966928Y-96634387D01*
X188933765Y-98667550D01*
X188880920Y-98710919D01*
X188837551Y-98763764D01*
X188837548Y-98763767D01*
X188707844Y-98921812D01*
X188579236Y-99162420D01*
X188500040Y-99423493D01*
X188473300Y-99695000D01*
X188480001Y-99763039D01*
X188480000Y-104836314D01*
X184433705Y-108882610D01*
X184173966Y-108961401D01*
X183915986Y-109099294D01*
X183689866Y-109284866D01*
X183637777Y-109348337D01*
X183583405Y-109246614D01*
X183472962Y-109112038D01*
X183338386Y-109001595D01*
X183184850Y-108919528D01*
X183018254Y-108868992D01*
X182845000Y-108851928D01*
X181645000Y-108851928D01*
X181471746Y-108868992D01*
X181305150Y-108919528D01*
X181151614Y-109001595D01*
X181017038Y-109112038D01*
X180906595Y-109246614D01*
X180824528Y-109400150D01*
X180773992Y-109566746D01*
X180756928Y-109740000D01*
X165966822Y-109740000D01*
X165888887Y-109716359D01*
X165773561Y-109705000D01*
X165773553Y-109705000D01*
X165735000Y-109701203D01*
X165696447Y-109705000D01*
X162250158Y-109705000D01*
X153804554Y-101259397D01*
X153835000Y-101106335D01*
X153835000Y-100823665D01*
X153779853Y-100546426D01*
X153671680Y-100285273D01*
X153514637Y-100050241D01*
X153314759Y-99850363D01*
X153082241Y-99695000D01*
X153314759Y-99539637D01*
X153514637Y-99339759D01*
X153671680Y-99104727D01*
X153779853Y-98843574D01*
X153835000Y-98566335D01*
X153835000Y-98283665D01*
X153790509Y-98059999D01*
X161766448Y-98059999D01*
X161805001Y-98063796D01*
X161843554Y-98059999D01*
X161843562Y-98059999D01*
X161871307Y-98057266D01*
X161825000Y-98290067D01*
X161825000Y-98559933D01*
X161877648Y-98824614D01*
X161980922Y-99073938D01*
X162130851Y-99298324D01*
X162321676Y-99489149D01*
X162546062Y-99639078D01*
X162681069Y-99695000D01*
X162546062Y-99750922D01*
X162321676Y-99900851D01*
X162130851Y-100091676D01*
X161980922Y-100316062D01*
X161877648Y-100565386D01*
X161825000Y-100830067D01*
X161825000Y-101099933D01*
X161877648Y-101364614D01*
X161980922Y-101613938D01*
X162130851Y-101838324D01*
X162321676Y-102029149D01*
X162546062Y-102179078D01*
X162681069Y-102235000D01*
X162546062Y-102290922D01*
X162321676Y-102440851D01*
X162130851Y-102631676D01*
X161980922Y-102856062D01*
X161877648Y-103105386D01*
X161825000Y-103370067D01*
X161825000Y-103639933D01*
X161877648Y-103904614D01*
X161980922Y-104153938D01*
X162130851Y-104378324D01*
X162321676Y-104569149D01*
X162546062Y-104719078D01*
X162681069Y-104775000D01*
X162546062Y-104830922D01*
X162321676Y-104980851D01*
X162130851Y-105171676D01*
X161980922Y-105396062D01*
X161877648Y-105645386D01*
X161825000Y-105910067D01*
X161825000Y-106179933D01*
X161877648Y-106444614D01*
X161980922Y-106693938D01*
X162130851Y-106918324D01*
X162321676Y-107109149D01*
X162546062Y-107259078D01*
X162795386Y-107362352D01*
X163060067Y-107415000D01*
X163329933Y-107415000D01*
X163594614Y-107362352D01*
X163843938Y-107259078D01*
X164068324Y-107109149D01*
X164259149Y-106918324D01*
X164409078Y-106693938D01*
X164512352Y-106444614D01*
X164565000Y-106179933D01*
X164565000Y-105910067D01*
X164512352Y-105645386D01*
X164409078Y-105396062D01*
X164259149Y-105171676D01*
X164068324Y-104980851D01*
X163843938Y-104830922D01*
X163708931Y-104775000D01*
X163843938Y-104719078D01*
X164041048Y-104587374D01*
X182880000Y-104587374D01*
X182880000Y-104962626D01*
X182953209Y-105330668D01*
X183096811Y-105677356D01*
X183305290Y-105989366D01*
X183570634Y-106254710D01*
X183882644Y-106463189D01*
X184229332Y-106606791D01*
X184597374Y-106680000D01*
X184972626Y-106680000D01*
X185340668Y-106606791D01*
X185687356Y-106463189D01*
X185999366Y-106254710D01*
X186264710Y-105989366D01*
X186473189Y-105677356D01*
X186616791Y-105330668D01*
X186690000Y-104962626D01*
X186690000Y-104587374D01*
X186616791Y-104219332D01*
X186473189Y-103872644D01*
X186264710Y-103560634D01*
X185999366Y-103295290D01*
X185687356Y-103086811D01*
X185340668Y-102943209D01*
X184972626Y-102870000D01*
X184597374Y-102870000D01*
X184229332Y-102943209D01*
X183882644Y-103086811D01*
X183570634Y-103295290D01*
X183305290Y-103560634D01*
X183096811Y-103872644D01*
X182953209Y-104219332D01*
X182880000Y-104587374D01*
X164041048Y-104587374D01*
X164068324Y-104569149D01*
X164259149Y-104378324D01*
X164409078Y-104153938D01*
X164512352Y-103904614D01*
X164565000Y-103639933D01*
X164565000Y-103370067D01*
X164512352Y-103105386D01*
X164409078Y-102856062D01*
X164259149Y-102631676D01*
X164068324Y-102440851D01*
X163843938Y-102290922D01*
X163708931Y-102235000D01*
X163843938Y-102179078D01*
X164068324Y-102029149D01*
X164259149Y-101838324D01*
X164409078Y-101613938D01*
X164512352Y-101364614D01*
X164565000Y-101099933D01*
X164565000Y-100830067D01*
X164512352Y-100565386D01*
X164409078Y-100316062D01*
X164259149Y-100091676D01*
X164068324Y-99900851D01*
X163843938Y-99750922D01*
X163708931Y-99695000D01*
X163843938Y-99639078D01*
X164068324Y-99489149D01*
X164259149Y-99298324D01*
X164409078Y-99073938D01*
X164512352Y-98824614D01*
X164565000Y-98559933D01*
X164565000Y-98290067D01*
X164512352Y-98025386D01*
X164409078Y-97776062D01*
X164259149Y-97551676D01*
X164068324Y-97360851D01*
X163843938Y-97210922D01*
X163708931Y-97155000D01*
X163843938Y-97099078D01*
X164068324Y-96949149D01*
X164259149Y-96758324D01*
X164409078Y-96533938D01*
X164512352Y-96284614D01*
X164565000Y-96019933D01*
X164565000Y-95750067D01*
X164512352Y-95485386D01*
X164409078Y-95236062D01*
X164259149Y-95011676D01*
X164068324Y-94820851D01*
X163843938Y-94670922D01*
X163708931Y-94615000D01*
X163843938Y-94559078D01*
X164068324Y-94409149D01*
X164259149Y-94218324D01*
X164409078Y-93993938D01*
X164512352Y-93744614D01*
X164565000Y-93479933D01*
X164565000Y-93210067D01*
X164512352Y-92945386D01*
X164409078Y-92696062D01*
X164259149Y-92471676D01*
X164068324Y-92280851D01*
X163843938Y-92130922D01*
X163708931Y-92075000D01*
X163843938Y-92019078D01*
X164068324Y-91869149D01*
X164259149Y-91678324D01*
X164409078Y-91453938D01*
X164512352Y-91204614D01*
X164565000Y-90939933D01*
X164565000Y-90670067D01*
X184685000Y-90670067D01*
X184685000Y-90939933D01*
X184737648Y-91204614D01*
X184840922Y-91453938D01*
X184990851Y-91678324D01*
X185181676Y-91869149D01*
X185406062Y-92019078D01*
X185541069Y-92075000D01*
X185406062Y-92130922D01*
X185181676Y-92280851D01*
X184990851Y-92471676D01*
X184840922Y-92696062D01*
X184737648Y-92945386D01*
X184685000Y-93210067D01*
X184685000Y-93479933D01*
X184737648Y-93744614D01*
X184840922Y-93993938D01*
X184990851Y-94218324D01*
X185181676Y-94409149D01*
X185406062Y-94559078D01*
X185541069Y-94615000D01*
X185406062Y-94670922D01*
X185181676Y-94820851D01*
X184990851Y-95011676D01*
X184840922Y-95236062D01*
X184737648Y-95485386D01*
X184685000Y-95750067D01*
X184685000Y-96019933D01*
X184737648Y-96284614D01*
X184840922Y-96533938D01*
X184990851Y-96758324D01*
X185181676Y-96949149D01*
X185406062Y-97099078D01*
X185541069Y-97155000D01*
X185406062Y-97210922D01*
X185181676Y-97360851D01*
X184990851Y-97551676D01*
X184840922Y-97776062D01*
X184737648Y-98025386D01*
X184685000Y-98290067D01*
X184685000Y-98559933D01*
X184737648Y-98824614D01*
X184840922Y-99073938D01*
X184990851Y-99298324D01*
X185181676Y-99489149D01*
X185406062Y-99639078D01*
X185655386Y-99742352D01*
X185920067Y-99795000D01*
X186189933Y-99795000D01*
X186454614Y-99742352D01*
X186703938Y-99639078D01*
X186928324Y-99489149D01*
X187119149Y-99298324D01*
X187269078Y-99073938D01*
X187372352Y-98824614D01*
X187425000Y-98559933D01*
X187425000Y-98290067D01*
X187372352Y-98025386D01*
X187269078Y-97776062D01*
X187119149Y-97551676D01*
X186928324Y-97360851D01*
X186703938Y-97210922D01*
X186568931Y-97155000D01*
X186703938Y-97099078D01*
X186928324Y-96949149D01*
X187119149Y-96758324D01*
X187269078Y-96533938D01*
X187372352Y-96284614D01*
X187425000Y-96019933D01*
X187425000Y-95750067D01*
X187372352Y-95485386D01*
X187269078Y-95236062D01*
X187119149Y-95011676D01*
X186928324Y-94820851D01*
X186703938Y-94670922D01*
X186568931Y-94615000D01*
X186703938Y-94559078D01*
X186928324Y-94409149D01*
X187119149Y-94218324D01*
X187269078Y-93993938D01*
X187372352Y-93744614D01*
X187425000Y-93479933D01*
X187425000Y-93210067D01*
X187372352Y-92945386D01*
X187269078Y-92696062D01*
X187119149Y-92471676D01*
X186928324Y-92280851D01*
X186703938Y-92130922D01*
X186568931Y-92075000D01*
X186703938Y-92019078D01*
X186928324Y-91869149D01*
X187119149Y-91678324D01*
X187269078Y-91453938D01*
X187372352Y-91204614D01*
X187425000Y-90939933D01*
X187425000Y-90670067D01*
X187372352Y-90405386D01*
X187269078Y-90156062D01*
X187119149Y-89931676D01*
X186928324Y-89740851D01*
X186703938Y-89590922D01*
X186454614Y-89487648D01*
X186189933Y-89435000D01*
X185920067Y-89435000D01*
X185655386Y-89487648D01*
X185406062Y-89590922D01*
X185181676Y-89740851D01*
X184990851Y-89931676D01*
X184840922Y-90156062D01*
X184737648Y-90405386D01*
X184685000Y-90670067D01*
X164565000Y-90670067D01*
X164512352Y-90405386D01*
X164409078Y-90156062D01*
X164259149Y-89931676D01*
X164068324Y-89740851D01*
X163843938Y-89590922D01*
X163708931Y-89535000D01*
X163843938Y-89479078D01*
X164068324Y-89329149D01*
X164259149Y-89138324D01*
X164409078Y-88913938D01*
X164512352Y-88664614D01*
X164565000Y-88399933D01*
X164565000Y-88130067D01*
X164512352Y-87865386D01*
X164409078Y-87616062D01*
X164259149Y-87391676D01*
X164068324Y-87200851D01*
X163843938Y-87050922D01*
X163708931Y-86995000D01*
X163843938Y-86939078D01*
X164068324Y-86789149D01*
X164259149Y-86598324D01*
X164409078Y-86373938D01*
X164512352Y-86124614D01*
X164565000Y-85859933D01*
X164565000Y-85590067D01*
X164512352Y-85325386D01*
X164409078Y-85076062D01*
X164259149Y-84851676D01*
X164068324Y-84660851D01*
X163843938Y-84510922D01*
X163708931Y-84455000D01*
X163843938Y-84399078D01*
X164068324Y-84249149D01*
X164259149Y-84058324D01*
X164409078Y-83833938D01*
X164512352Y-83584614D01*
X164565000Y-83319933D01*
X164565000Y-83050067D01*
X164512352Y-82785386D01*
X164409078Y-82536062D01*
X164259149Y-82311676D01*
X164068324Y-82120851D01*
X163843938Y-81970922D01*
X163708931Y-81915000D01*
X163843938Y-81859078D01*
X164068324Y-81709149D01*
X164259149Y-81518324D01*
X164409078Y-81293938D01*
X164512352Y-81044614D01*
X164565000Y-80779933D01*
X164565000Y-80510067D01*
X164512352Y-80245386D01*
X164409078Y-79996062D01*
X164259149Y-79771676D01*
X164068324Y-79580851D01*
X163843938Y-79430922D01*
X163710145Y-79375503D01*
X163788592Y-79347077D01*
X163897967Y-79288615D01*
X163961673Y-79051278D01*
X163195000Y-78284605D01*
X163180858Y-78298748D01*
X163001253Y-78119143D01*
X163015395Y-78105000D01*
X163374605Y-78105000D01*
X164141278Y-78871673D01*
X164378615Y-78807967D01*
X164465982Y-78621303D01*
X164520922Y-78753938D01*
X164670851Y-78978324D01*
X164861676Y-79169149D01*
X165086062Y-79319078D01*
X165335386Y-79422352D01*
X165600067Y-79475000D01*
X165869933Y-79475000D01*
X166134614Y-79422352D01*
X166383938Y-79319078D01*
X166581048Y-79187374D01*
X182880000Y-79187374D01*
X182880000Y-79562626D01*
X182953209Y-79930668D01*
X183096811Y-80277356D01*
X183305290Y-80589366D01*
X183570634Y-80854710D01*
X183882644Y-81063189D01*
X184229332Y-81206791D01*
X184597374Y-81280000D01*
X184972626Y-81280000D01*
X185340668Y-81206791D01*
X185687356Y-81063189D01*
X185999366Y-80854710D01*
X186264710Y-80589366D01*
X186473189Y-80277356D01*
X186616791Y-79930668D01*
X186690000Y-79562626D01*
X186690000Y-79187374D01*
X186616791Y-78819332D01*
X186473189Y-78472644D01*
X186264710Y-78160634D01*
X185999366Y-77895290D01*
X185687356Y-77686811D01*
X185340668Y-77543209D01*
X184972626Y-77470000D01*
X184597374Y-77470000D01*
X184229332Y-77543209D01*
X183882644Y-77686811D01*
X183570634Y-77895290D01*
X183305290Y-78160634D01*
X183096811Y-78472644D01*
X182953209Y-78819332D01*
X182880000Y-79187374D01*
X166581048Y-79187374D01*
X166608324Y-79169149D01*
X166799149Y-78978324D01*
X166949078Y-78753938D01*
X167052352Y-78504614D01*
X167105000Y-78239933D01*
X167105000Y-77970067D01*
X167052352Y-77705386D01*
X166949078Y-77456062D01*
X166799149Y-77231676D01*
X166608324Y-77040851D01*
X166383938Y-76890922D01*
X166134614Y-76787648D01*
X165869933Y-76735000D01*
X165600067Y-76735000D01*
X165335386Y-76787648D01*
X165086062Y-76890922D01*
X164861676Y-77040851D01*
X164670851Y-77231676D01*
X164520922Y-77456062D01*
X164465503Y-77589855D01*
X164437077Y-77511408D01*
X164378615Y-77402033D01*
X164141278Y-77338327D01*
X163374605Y-78105000D01*
X163015395Y-78105000D01*
X163001253Y-78090858D01*
X163180858Y-77911253D01*
X163195000Y-77925395D01*
X163961673Y-77158722D01*
X163897967Y-76921385D01*
X163711303Y-76834018D01*
X163843938Y-76779078D01*
X164068324Y-76629149D01*
X164259149Y-76438324D01*
X164409078Y-76213938D01*
X164512352Y-75964614D01*
X164565000Y-75699933D01*
X164565000Y-75430067D01*
X164512352Y-75165386D01*
X164409078Y-74916062D01*
X164259149Y-74691676D01*
X164068324Y-74500851D01*
X163843938Y-74350922D01*
X163708931Y-74295000D01*
X163843938Y-74239078D01*
X164041048Y-74107374D01*
X182880000Y-74107374D01*
X182880000Y-74482626D01*
X182953209Y-74850668D01*
X183096811Y-75197356D01*
X183305290Y-75509366D01*
X183570634Y-75774710D01*
X183882644Y-75983189D01*
X184229332Y-76126791D01*
X184597374Y-76200000D01*
X184972626Y-76200000D01*
X185340668Y-76126791D01*
X185687356Y-75983189D01*
X185999366Y-75774710D01*
X186264710Y-75509366D01*
X186473189Y-75197356D01*
X186616791Y-74850668D01*
X186690000Y-74482626D01*
X186690000Y-74107374D01*
X186616791Y-73739332D01*
X186473189Y-73392644D01*
X186264710Y-73080634D01*
X185999366Y-72815290D01*
X185687356Y-72606811D01*
X185340668Y-72463209D01*
X184972626Y-72390000D01*
X184597374Y-72390000D01*
X184229332Y-72463209D01*
X183882644Y-72606811D01*
X183570634Y-72815290D01*
X183305290Y-73080634D01*
X183096811Y-73392644D01*
X182953209Y-73739332D01*
X182880000Y-74107374D01*
X164041048Y-74107374D01*
X164068324Y-74089149D01*
X164259149Y-73898324D01*
X164409078Y-73673938D01*
X164512352Y-73424614D01*
X164565000Y-73159933D01*
X164565000Y-72890067D01*
X164512352Y-72625386D01*
X164409078Y-72376062D01*
X164259149Y-72151676D01*
X164068324Y-71960851D01*
X163843938Y-71810922D01*
X163708931Y-71755000D01*
X163843938Y-71699078D01*
X164068324Y-71549149D01*
X164259149Y-71358324D01*
X164409078Y-71133938D01*
X164512352Y-70884614D01*
X164565000Y-70619933D01*
X164565000Y-70350067D01*
X164512352Y-70085386D01*
X164409078Y-69836062D01*
X164259149Y-69611676D01*
X164068324Y-69420851D01*
X163843938Y-69270922D01*
X163708931Y-69215000D01*
X163843938Y-69159078D01*
X164068324Y-69009149D01*
X164259149Y-68818324D01*
X164409078Y-68593938D01*
X164512352Y-68344614D01*
X164565000Y-68079933D01*
X164565000Y-67810067D01*
X164512352Y-67545386D01*
X164409078Y-67296062D01*
X164259149Y-67071676D01*
X164068324Y-66880851D01*
X163843938Y-66730922D01*
X163708931Y-66675000D01*
X163843938Y-66619078D01*
X164068324Y-66469149D01*
X164259149Y-66278324D01*
X164409078Y-66053938D01*
X164512352Y-65804614D01*
X164565000Y-65539933D01*
X164565000Y-65270067D01*
X164512352Y-65005386D01*
X164409078Y-64756062D01*
X164259149Y-64531676D01*
X164068324Y-64340851D01*
X163843938Y-64190922D01*
X163708931Y-64135000D01*
X163843938Y-64079078D01*
X164068324Y-63929149D01*
X164259149Y-63738324D01*
X164409078Y-63513938D01*
X164512352Y-63264614D01*
X164565000Y-62999933D01*
X164565000Y-62805157D01*
X171234733Y-69474890D01*
X171300723Y-69634205D01*
X171397576Y-69779155D01*
X171520845Y-69902424D01*
X171665795Y-69999277D01*
X171826855Y-70065990D01*
X171997835Y-70100000D01*
X172172165Y-70100000D01*
X172343145Y-70065990D01*
X172504205Y-69999277D01*
X172649155Y-69902424D01*
X172772424Y-69779155D01*
X172869277Y-69634205D01*
X172935990Y-69473145D01*
X172970000Y-69302165D01*
X172970000Y-69127835D01*
X172935990Y-68956855D01*
X172869277Y-68795795D01*
X172772424Y-68650845D01*
X172649155Y-68527576D01*
X172504205Y-68430723D01*
X172344890Y-68364733D01*
X164544276Y-60564119D01*
X164565000Y-60459933D01*
X164565000Y-60265157D01*
X168327655Y-64027812D01*
X169329733Y-65029891D01*
X169395723Y-65189205D01*
X169492576Y-65334155D01*
X169615845Y-65457424D01*
X169760795Y-65554277D01*
X169921855Y-65620990D01*
X170092835Y-65655000D01*
X170267165Y-65655000D01*
X170438145Y-65620990D01*
X170599205Y-65554277D01*
X170744155Y-65457424D01*
X170867424Y-65334155D01*
X170964277Y-65189205D01*
X171030990Y-65028145D01*
X171065000Y-64857165D01*
X171065000Y-64682835D01*
X171030990Y-64511855D01*
X170964277Y-64350795D01*
X170867424Y-64205845D01*
X170744155Y-64082576D01*
X170599205Y-63985723D01*
X170439891Y-63919733D01*
X169437812Y-62917655D01*
X166710224Y-60190067D01*
X184685000Y-60190067D01*
X184685000Y-60459933D01*
X184737648Y-60724614D01*
X184840922Y-60973938D01*
X184990851Y-61198324D01*
X185181676Y-61389149D01*
X185406062Y-61539078D01*
X185541069Y-61595000D01*
X185406062Y-61650922D01*
X185181676Y-61800851D01*
X184990851Y-61991676D01*
X184840922Y-62216062D01*
X184737648Y-62465386D01*
X184685000Y-62730067D01*
X184685000Y-62999933D01*
X184737648Y-63264614D01*
X184840922Y-63513938D01*
X184990851Y-63738324D01*
X185181676Y-63929149D01*
X185406062Y-64079078D01*
X185541069Y-64135000D01*
X185406062Y-64190922D01*
X185181676Y-64340851D01*
X184990851Y-64531676D01*
X184840922Y-64756062D01*
X184737648Y-65005386D01*
X184685000Y-65270067D01*
X184685000Y-65539933D01*
X184737648Y-65804614D01*
X184840922Y-66053938D01*
X184990851Y-66278324D01*
X185181676Y-66469149D01*
X185406062Y-66619078D01*
X185541069Y-66675000D01*
X185406062Y-66730922D01*
X185181676Y-66880851D01*
X184990851Y-67071676D01*
X184840922Y-67296062D01*
X184737648Y-67545386D01*
X184685000Y-67810067D01*
X184685000Y-68079933D01*
X184737648Y-68344614D01*
X184840922Y-68593938D01*
X184990851Y-68818324D01*
X185181676Y-69009149D01*
X185406062Y-69159078D01*
X185655386Y-69262352D01*
X185920067Y-69315000D01*
X186189933Y-69315000D01*
X186454614Y-69262352D01*
X186703938Y-69159078D01*
X186928324Y-69009149D01*
X187119149Y-68818324D01*
X187269078Y-68593938D01*
X187372352Y-68344614D01*
X187425000Y-68079933D01*
X187425000Y-67810067D01*
X187372352Y-67545386D01*
X187269078Y-67296062D01*
X187119149Y-67071676D01*
X186928324Y-66880851D01*
X186703938Y-66730922D01*
X186568931Y-66675000D01*
X186703938Y-66619078D01*
X186928324Y-66469149D01*
X187119149Y-66278324D01*
X187269078Y-66053938D01*
X187372352Y-65804614D01*
X187425000Y-65539933D01*
X187425000Y-65270067D01*
X187372352Y-65005386D01*
X187269078Y-64756062D01*
X187119149Y-64531676D01*
X186928324Y-64340851D01*
X186703938Y-64190922D01*
X186568931Y-64135000D01*
X186703938Y-64079078D01*
X186928324Y-63929149D01*
X187119149Y-63738324D01*
X187269078Y-63513938D01*
X187372352Y-63264614D01*
X187425000Y-62999933D01*
X187425000Y-62730067D01*
X187372352Y-62465386D01*
X187269078Y-62216062D01*
X187119149Y-61991676D01*
X186928324Y-61800851D01*
X186703938Y-61650922D01*
X186568931Y-61595000D01*
X186703938Y-61539078D01*
X186928324Y-61389149D01*
X187119149Y-61198324D01*
X187269078Y-60973938D01*
X187372352Y-60724614D01*
X187425000Y-60459933D01*
X187425000Y-60190067D01*
X187372352Y-59925386D01*
X187269078Y-59676062D01*
X187119149Y-59451676D01*
X186928324Y-59260851D01*
X186703938Y-59110922D01*
X186454614Y-59007648D01*
X186189933Y-58955000D01*
X185920067Y-58955000D01*
X185655386Y-59007648D01*
X185406062Y-59110922D01*
X185181676Y-59260851D01*
X184990851Y-59451676D01*
X184840922Y-59676062D01*
X184737648Y-59925386D01*
X184685000Y-60190067D01*
X166710224Y-60190067D01*
X164544276Y-58024119D01*
X164565000Y-57919933D01*
X164565000Y-57650067D01*
X164512352Y-57385386D01*
X164409078Y-57136062D01*
X164259149Y-56911676D01*
X164068324Y-56720851D01*
X163843938Y-56570922D01*
X163708931Y-56515000D01*
X163843938Y-56459078D01*
X164068324Y-56309149D01*
X164259149Y-56118324D01*
X164409078Y-55893938D01*
X164512352Y-55644614D01*
X164565000Y-55379933D01*
X164565000Y-55110067D01*
X164512352Y-54845386D01*
X164409078Y-54596062D01*
X164259149Y-54371676D01*
X164068324Y-54180851D01*
X163843938Y-54030922D01*
X163708931Y-53975000D01*
X163843938Y-53919078D01*
X164068324Y-53769149D01*
X164259149Y-53578324D01*
X164409078Y-53353938D01*
X164512352Y-53104614D01*
X164565000Y-52839933D01*
X164565000Y-52570067D01*
X164512352Y-52305386D01*
X164409078Y-52056062D01*
X164259149Y-51831676D01*
X164068324Y-51640851D01*
X163843938Y-51490922D01*
X163708931Y-51435000D01*
X163843938Y-51379078D01*
X164068324Y-51229149D01*
X164082601Y-51214872D01*
X190170000Y-51214872D01*
X190170000Y-51655128D01*
X190255890Y-52086925D01*
X190424369Y-52493669D01*
X190668962Y-52859729D01*
X190980271Y-53171038D01*
X191346331Y-53415631D01*
X191753075Y-53584110D01*
X192184872Y-53670000D01*
X192625128Y-53670000D01*
X193056925Y-53584110D01*
X193463669Y-53415631D01*
X193829729Y-53171038D01*
X194141038Y-52859729D01*
X194385631Y-52493669D01*
X194554110Y-52086925D01*
X194640000Y-51655128D01*
X194640000Y-51214872D01*
X194554110Y-50783075D01*
X194385631Y-50376331D01*
X194141038Y-50010271D01*
X193829729Y-49698962D01*
X193463669Y-49454369D01*
X193056925Y-49285890D01*
X192625128Y-49200000D01*
X192184872Y-49200000D01*
X191753075Y-49285890D01*
X191346331Y-49454369D01*
X190980271Y-49698962D01*
X190668962Y-50010271D01*
X190424369Y-50376331D01*
X190255890Y-50783075D01*
X190170000Y-51214872D01*
X164082601Y-51214872D01*
X164259149Y-51038324D01*
X164409078Y-50813938D01*
X164512352Y-50564614D01*
X164565000Y-50299933D01*
X164565000Y-50030067D01*
X164512352Y-49765386D01*
X164409078Y-49516062D01*
X164259149Y-49291676D01*
X164068324Y-49100851D01*
X163843938Y-48950922D01*
X163710145Y-48895503D01*
X163788592Y-48867077D01*
X163897967Y-48808615D01*
X163961673Y-48571278D01*
X163195000Y-47804605D01*
X162428327Y-48571278D01*
X162492033Y-48808615D01*
X162678697Y-48895982D01*
X162546062Y-48950922D01*
X162321676Y-49100851D01*
X162130851Y-49291676D01*
X161980922Y-49516062D01*
X161877648Y-49765386D01*
X161825000Y-50030067D01*
X161825000Y-50299933D01*
X161877648Y-50564614D01*
X161980922Y-50813938D01*
X162130851Y-51038324D01*
X162321676Y-51229149D01*
X162546062Y-51379078D01*
X162681069Y-51435000D01*
X162546062Y-51490922D01*
X162321676Y-51640851D01*
X162130851Y-51831676D01*
X161980922Y-52056062D01*
X161877648Y-52305386D01*
X161825000Y-52570067D01*
X161825000Y-52839933D01*
X161845724Y-52944119D01*
X160127185Y-54662658D01*
X160097237Y-54687236D01*
X160072659Y-54717184D01*
X160072655Y-54717188D01*
X160044418Y-54751595D01*
X159999139Y-54806767D01*
X159960177Y-54879660D01*
X159926246Y-54943141D01*
X159881359Y-55091114D01*
X159866203Y-55245000D01*
X159870001Y-55283563D01*
X159870000Y-78839844D01*
X157698072Y-81011772D01*
X157698072Y-80430000D01*
X157685812Y-80305518D01*
X157649502Y-80185820D01*
X157590537Y-80075506D01*
X157511185Y-79978815D01*
X157414494Y-79899463D01*
X157304180Y-79840498D01*
X157231620Y-79818487D01*
X157363475Y-79686632D01*
X157525990Y-79443411D01*
X157637932Y-79173158D01*
X157695000Y-78886260D01*
X157695000Y-78593740D01*
X157637932Y-78306842D01*
X157525990Y-78036589D01*
X157363475Y-77793368D01*
X157156632Y-77586525D01*
X156982240Y-77470000D01*
X157156632Y-77353475D01*
X157363475Y-77146632D01*
X157525990Y-76903411D01*
X157637932Y-76633158D01*
X157695000Y-76346260D01*
X157695000Y-76053740D01*
X157637932Y-75766842D01*
X157525990Y-75496589D01*
X157363475Y-75253368D01*
X157156632Y-75046525D01*
X156982240Y-74930000D01*
X157156632Y-74813475D01*
X157363475Y-74606632D01*
X157525990Y-74363411D01*
X157637932Y-74093158D01*
X157695000Y-73806260D01*
X157695000Y-73513740D01*
X157637932Y-73226842D01*
X157525990Y-72956589D01*
X157363475Y-72713368D01*
X157156632Y-72506525D01*
X156982240Y-72390000D01*
X157156632Y-72273475D01*
X157363475Y-72066632D01*
X157525990Y-71823411D01*
X157637932Y-71553158D01*
X157695000Y-71266260D01*
X157695000Y-70973740D01*
X157637932Y-70686842D01*
X157525990Y-70416589D01*
X157363475Y-70173368D01*
X157156632Y-69966525D01*
X156913411Y-69804010D01*
X156643158Y-69692068D01*
X156356260Y-69635000D01*
X156063740Y-69635000D01*
X155776842Y-69692068D01*
X155506589Y-69804010D01*
X155263368Y-69966525D01*
X155056525Y-70173368D01*
X154894010Y-70416589D01*
X154782068Y-70686842D01*
X154725000Y-70973740D01*
X154725000Y-71266260D01*
X154782068Y-71553158D01*
X154894010Y-71823411D01*
X155056525Y-72066632D01*
X155229893Y-72240000D01*
X153601339Y-72240000D01*
X153514637Y-72110241D01*
X153314759Y-71910363D01*
X153080872Y-71754085D01*
X153141514Y-71721671D01*
X153213097Y-71477702D01*
X152400000Y-70664605D01*
X151586903Y-71477702D01*
X151658486Y-71721671D01*
X151722992Y-71752194D01*
X151720273Y-71753320D01*
X151485241Y-71910363D01*
X151285363Y-72110241D01*
X151128320Y-72345273D01*
X151020147Y-72606426D01*
X150965000Y-72883665D01*
X150965000Y-73166335D01*
X151020147Y-73443574D01*
X151128320Y-73704727D01*
X151285363Y-73939759D01*
X151485241Y-74139637D01*
X151717759Y-74295000D01*
X151485241Y-74450363D01*
X151285363Y-74650241D01*
X151128320Y-74885273D01*
X151020147Y-75146426D01*
X150965000Y-75423665D01*
X150965000Y-75706335D01*
X151020147Y-75983574D01*
X151128320Y-76244727D01*
X151285363Y-76479759D01*
X151485241Y-76679637D01*
X151717759Y-76835000D01*
X151485241Y-76990363D01*
X151285363Y-77190241D01*
X151128320Y-77425273D01*
X151020147Y-77686426D01*
X150965000Y-77963665D01*
X150965000Y-78246335D01*
X151020147Y-78523574D01*
X151128320Y-78784727D01*
X151285363Y-79019759D01*
X151485241Y-79219637D01*
X151717759Y-79375000D01*
X151485241Y-79530363D01*
X151285363Y-79730241D01*
X151128320Y-79965273D01*
X151020147Y-80226426D01*
X150965000Y-80503665D01*
X150965000Y-80786335D01*
X151020147Y-81063574D01*
X151128320Y-81324727D01*
X151285363Y-81559759D01*
X151485241Y-81759637D01*
X151717759Y-81915000D01*
X151485241Y-82070363D01*
X151285363Y-82270241D01*
X151128320Y-82505273D01*
X151020147Y-82766426D01*
X150965000Y-83043665D01*
X150965000Y-83326335D01*
X151020147Y-83603574D01*
X151128320Y-83864727D01*
X151285363Y-84099759D01*
X151485241Y-84299637D01*
X151717759Y-84455000D01*
X151485241Y-84610363D01*
X151285363Y-84810241D01*
X151128320Y-85045273D01*
X151020147Y-85306426D01*
X150965000Y-85583665D01*
X150965000Y-85866335D01*
X151020147Y-86143574D01*
X151128320Y-86404727D01*
X151285363Y-86639759D01*
X151485241Y-86839637D01*
X151717759Y-86995000D01*
X151485241Y-87150363D01*
X151285363Y-87350241D01*
X151128320Y-87585273D01*
X151020147Y-87846426D01*
X150965000Y-88123665D01*
X150965000Y-88406335D01*
X151020147Y-88683574D01*
X151128320Y-88944727D01*
X151285363Y-89179759D01*
X151485241Y-89379637D01*
X151717759Y-89535000D01*
X151485241Y-89690363D01*
X151285363Y-89890241D01*
X151128320Y-90125273D01*
X151020147Y-90386426D01*
X150965000Y-90663665D01*
X150965000Y-90946335D01*
X151020147Y-91223574D01*
X151128320Y-91484727D01*
X151285363Y-91719759D01*
X151485241Y-91919637D01*
X151717759Y-92075000D01*
X151485241Y-92230363D01*
X151285363Y-92430241D01*
X151128320Y-92665273D01*
X151020147Y-92926426D01*
X150965000Y-93203665D01*
X150965000Y-93486335D01*
X151020147Y-93763574D01*
X151128320Y-94024727D01*
X151285363Y-94259759D01*
X151485241Y-94459637D01*
X151717759Y-94615000D01*
X151485241Y-94770363D01*
X151285363Y-94970241D01*
X151128320Y-95205273D01*
X151020147Y-95466426D01*
X150965000Y-95743665D01*
X150965000Y-95879843D01*
X150554803Y-95469646D01*
X150671680Y-95294727D01*
X150779853Y-95033574D01*
X150835000Y-94756335D01*
X150835000Y-94473665D01*
X150779853Y-94196426D01*
X150671680Y-93935273D01*
X150514637Y-93700241D01*
X150314759Y-93500363D01*
X150082241Y-93345000D01*
X150314759Y-93189637D01*
X150514637Y-92989759D01*
X150671680Y-92754727D01*
X150779853Y-92493574D01*
X150835000Y-92216335D01*
X150835000Y-91933665D01*
X150779853Y-91656426D01*
X150671680Y-91395273D01*
X150514637Y-91160241D01*
X150314759Y-90960363D01*
X150082241Y-90805000D01*
X150314759Y-90649637D01*
X150514637Y-90449759D01*
X150671680Y-90214727D01*
X150779853Y-89953574D01*
X150835000Y-89676335D01*
X150835000Y-89393665D01*
X150779853Y-89116426D01*
X150671680Y-88855273D01*
X150514637Y-88620241D01*
X150314759Y-88420363D01*
X150079727Y-88263320D01*
X149818574Y-88155147D01*
X149541335Y-88100000D01*
X149258665Y-88100000D01*
X148981426Y-88155147D01*
X148720273Y-88263320D01*
X148485241Y-88420363D01*
X148285363Y-88620241D01*
X148128320Y-88855273D01*
X148020147Y-89116426D01*
X147965000Y-89393665D01*
X147965000Y-89676335D01*
X148020147Y-89953574D01*
X148128320Y-90214727D01*
X148285363Y-90449759D01*
X148485241Y-90649637D01*
X148717759Y-90805000D01*
X148485241Y-90960363D01*
X148285363Y-91160241D01*
X148128320Y-91395273D01*
X148020147Y-91656426D01*
X147965000Y-91933665D01*
X147965000Y-92216335D01*
X148020147Y-92493574D01*
X148128320Y-92754727D01*
X148285363Y-92989759D01*
X148485241Y-93189637D01*
X148717759Y-93345000D01*
X148485241Y-93500363D01*
X148285363Y-93700241D01*
X148128320Y-93935273D01*
X148020147Y-94196426D01*
X147965000Y-94473665D01*
X147965000Y-94756335D01*
X147972079Y-94791921D01*
X147267347Y-94087190D01*
X147242764Y-94057236D01*
X147123233Y-93959138D01*
X146986860Y-93886246D01*
X146838887Y-93841359D01*
X146723561Y-93830000D01*
X146723553Y-93830000D01*
X146685000Y-93826203D01*
X146646447Y-93830000D01*
X141052338Y-93830000D01*
X141079853Y-93763574D01*
X141135000Y-93486335D01*
X141135000Y-93203665D01*
X141079853Y-92926426D01*
X140971680Y-92665273D01*
X140814637Y-92430241D01*
X140614759Y-92230363D01*
X140379727Y-92073320D01*
X140118574Y-91965147D01*
X139841335Y-91910000D01*
X139558665Y-91910000D01*
X139281426Y-91965147D01*
X139020273Y-92073320D01*
X138785241Y-92230363D01*
X138585363Y-92430241D01*
X138430000Y-92662759D01*
X138274637Y-92430241D01*
X138074759Y-92230363D01*
X137842241Y-92075000D01*
X138074759Y-91919637D01*
X138274637Y-91719759D01*
X138431680Y-91484727D01*
X138539853Y-91223574D01*
X138595000Y-90946335D01*
X138595000Y-90663665D01*
X138539853Y-90386426D01*
X138431680Y-90125273D01*
X138274637Y-89890241D01*
X138074759Y-89690363D01*
X137842241Y-89535000D01*
X138074759Y-89379637D01*
X138274637Y-89179759D01*
X138431680Y-88944727D01*
X138539853Y-88683574D01*
X138595000Y-88406335D01*
X138595000Y-88123665D01*
X138539853Y-87846426D01*
X138431680Y-87585273D01*
X138274637Y-87350241D01*
X138074759Y-87150363D01*
X137842241Y-86995000D01*
X138074759Y-86839637D01*
X138274637Y-86639759D01*
X138431680Y-86404727D01*
X138539853Y-86143574D01*
X138595000Y-85866335D01*
X138595000Y-85583665D01*
X138539853Y-85306426D01*
X138431680Y-85045273D01*
X138274637Y-84810241D01*
X138074759Y-84610363D01*
X137842241Y-84455000D01*
X138074759Y-84299637D01*
X138274637Y-84099759D01*
X138431680Y-83864727D01*
X138539853Y-83603574D01*
X138595000Y-83326335D01*
X138595000Y-83043665D01*
X140805000Y-83043665D01*
X140805000Y-83326335D01*
X140860147Y-83603574D01*
X140968320Y-83864727D01*
X141125363Y-84099759D01*
X141325241Y-84299637D01*
X141557759Y-84455000D01*
X141325241Y-84610363D01*
X141125363Y-84810241D01*
X140968320Y-85045273D01*
X140860147Y-85306426D01*
X140805000Y-85583665D01*
X140805000Y-85866335D01*
X140860147Y-86143574D01*
X140968320Y-86404727D01*
X141125363Y-86639759D01*
X141325241Y-86839637D01*
X141557759Y-86995000D01*
X141325241Y-87150363D01*
X141125363Y-87350241D01*
X140968320Y-87585273D01*
X140860147Y-87846426D01*
X140805000Y-88123665D01*
X140805000Y-88406335D01*
X140860147Y-88683574D01*
X140968320Y-88944727D01*
X141125363Y-89179759D01*
X141325241Y-89379637D01*
X141557759Y-89535000D01*
X141325241Y-89690363D01*
X141125363Y-89890241D01*
X140968320Y-90125273D01*
X140860147Y-90386426D01*
X140805000Y-90663665D01*
X140805000Y-90946335D01*
X140860147Y-91223574D01*
X140968320Y-91484727D01*
X141125363Y-91719759D01*
X141325241Y-91919637D01*
X141560273Y-92076680D01*
X141821426Y-92184853D01*
X142098665Y-92240000D01*
X142381335Y-92240000D01*
X142658574Y-92184853D01*
X142919727Y-92076680D01*
X143154759Y-91919637D01*
X143354637Y-91719759D01*
X143510000Y-91487241D01*
X143665363Y-91719759D01*
X143865241Y-91919637D01*
X144100273Y-92076680D01*
X144361426Y-92184853D01*
X144638665Y-92240000D01*
X144921335Y-92240000D01*
X145198574Y-92184853D01*
X145459727Y-92076680D01*
X145694759Y-91919637D01*
X145894637Y-91719759D01*
X146051680Y-91484727D01*
X146159853Y-91223574D01*
X146215000Y-90946335D01*
X146215000Y-90663665D01*
X146159853Y-90386426D01*
X146051680Y-90125273D01*
X145894637Y-89890241D01*
X145694759Y-89690363D01*
X145462241Y-89535000D01*
X145694759Y-89379637D01*
X145894637Y-89179759D01*
X146051680Y-88944727D01*
X146159853Y-88683574D01*
X146215000Y-88406335D01*
X146215000Y-88123665D01*
X146159853Y-87846426D01*
X146051680Y-87585273D01*
X145894637Y-87350241D01*
X145694759Y-87150363D01*
X145462241Y-86995000D01*
X145694759Y-86839637D01*
X145894637Y-86639759D01*
X146051680Y-86404727D01*
X146159853Y-86143574D01*
X146215000Y-85866335D01*
X146215000Y-85583665D01*
X146159853Y-85306426D01*
X146051680Y-85045273D01*
X145894637Y-84810241D01*
X145694759Y-84610363D01*
X145462241Y-84455000D01*
X145694759Y-84299637D01*
X145894637Y-84099759D01*
X146051680Y-83864727D01*
X146159853Y-83603574D01*
X146215000Y-83326335D01*
X146215000Y-83043665D01*
X146159853Y-82766426D01*
X146051680Y-82505273D01*
X145894637Y-82270241D01*
X145694759Y-82070363D01*
X145459727Y-81913320D01*
X145198574Y-81805147D01*
X144921335Y-81750000D01*
X144638665Y-81750000D01*
X144361426Y-81805147D01*
X144100273Y-81913320D01*
X143865241Y-82070363D01*
X143665363Y-82270241D01*
X143510000Y-82502759D01*
X143354637Y-82270241D01*
X143154759Y-82070363D01*
X142919727Y-81913320D01*
X142658574Y-81805147D01*
X142381335Y-81750000D01*
X142098665Y-81750000D01*
X141821426Y-81805147D01*
X141560273Y-81913320D01*
X141325241Y-82070363D01*
X141125363Y-82270241D01*
X140968320Y-82505273D01*
X140860147Y-82766426D01*
X140805000Y-83043665D01*
X138595000Y-83043665D01*
X138539853Y-82766426D01*
X138431680Y-82505273D01*
X138274637Y-82270241D01*
X138074759Y-82070363D01*
X137842241Y-81915000D01*
X138074759Y-81759637D01*
X138274637Y-81559759D01*
X138431680Y-81324727D01*
X138539853Y-81063574D01*
X138595000Y-80786335D01*
X138595000Y-80503665D01*
X138539853Y-80226426D01*
X138431680Y-79965273D01*
X138274637Y-79730241D01*
X138074759Y-79530363D01*
X137842241Y-79375000D01*
X138074759Y-79219637D01*
X138274637Y-79019759D01*
X138431680Y-78784727D01*
X138539853Y-78523574D01*
X138595000Y-78246335D01*
X138595000Y-77963665D01*
X138564554Y-77810603D01*
X145819645Y-70555512D01*
X150959783Y-70555512D01*
X151001213Y-70835130D01*
X151096397Y-71101292D01*
X151163329Y-71226514D01*
X151407298Y-71298097D01*
X152220395Y-70485000D01*
X152579605Y-70485000D01*
X153392702Y-71298097D01*
X153636671Y-71226514D01*
X153757571Y-70971004D01*
X153826300Y-70696816D01*
X153840217Y-70414488D01*
X153798787Y-70134870D01*
X153703603Y-69868708D01*
X153636671Y-69743486D01*
X153392702Y-69671903D01*
X152579605Y-70485000D01*
X152220395Y-70485000D01*
X151407298Y-69671903D01*
X151163329Y-69743486D01*
X151042429Y-69998996D01*
X150973700Y-70273184D01*
X150959783Y-70555512D01*
X145819645Y-70555512D01*
X148915154Y-67460004D01*
X151047660Y-67460004D01*
X151020147Y-67526426D01*
X150965000Y-67803665D01*
X150965000Y-68086335D01*
X151020147Y-68363574D01*
X151128320Y-68624727D01*
X151285363Y-68859759D01*
X151485241Y-69059637D01*
X151719128Y-69215915D01*
X151658486Y-69248329D01*
X151586903Y-69492298D01*
X152400000Y-70305395D01*
X153213097Y-69492298D01*
X153141514Y-69248329D01*
X153077008Y-69217806D01*
X153079727Y-69216680D01*
X153314759Y-69059637D01*
X153514637Y-68859759D01*
X153671680Y-68624727D01*
X153779853Y-68363574D01*
X153835000Y-68086335D01*
X153835000Y-67803665D01*
X153779853Y-67526426D01*
X153752340Y-67460004D01*
X157697536Y-67460004D01*
X157856851Y-67525994D01*
X158027831Y-67560004D01*
X158202161Y-67560004D01*
X158373141Y-67525994D01*
X158534201Y-67459281D01*
X158679151Y-67362428D01*
X158802420Y-67239159D01*
X158899273Y-67094209D01*
X158965986Y-66933149D01*
X158999996Y-66762169D01*
X158999996Y-66587839D01*
X158965986Y-66416859D01*
X158899273Y-66255799D01*
X158802420Y-66110849D01*
X158679151Y-65987580D01*
X158534201Y-65890727D01*
X158373141Y-65824014D01*
X158202161Y-65790004D01*
X158027831Y-65790004D01*
X157856851Y-65824014D01*
X157697536Y-65890004D01*
X157635699Y-65890004D01*
X157649502Y-65864180D01*
X157685812Y-65744482D01*
X157698072Y-65620000D01*
X157698072Y-63920000D01*
X157685812Y-63795518D01*
X157649502Y-63675820D01*
X157590537Y-63565506D01*
X157511185Y-63468815D01*
X157414494Y-63389463D01*
X157304180Y-63330498D01*
X157223534Y-63306034D01*
X157307588Y-63230269D01*
X157481641Y-62996920D01*
X157606825Y-62734099D01*
X157651476Y-62586890D01*
X157530155Y-62357000D01*
X156337000Y-62357000D01*
X156337000Y-62377000D01*
X156083000Y-62377000D01*
X156083000Y-62357000D01*
X154889845Y-62357000D01*
X154768524Y-62586890D01*
X154813175Y-62734099D01*
X154938359Y-62996920D01*
X155112412Y-63230269D01*
X155196466Y-63306034D01*
X155115820Y-63330498D01*
X155005506Y-63389463D01*
X154908815Y-63468815D01*
X154829463Y-63565506D01*
X154770498Y-63675820D01*
X154734188Y-63795518D01*
X154721928Y-63920000D01*
X154721928Y-65620000D01*
X154734188Y-65744482D01*
X154770498Y-65864180D01*
X154784301Y-65890004D01*
X153752337Y-65890004D01*
X153779853Y-65823574D01*
X153835000Y-65546335D01*
X153835000Y-65263665D01*
X153779853Y-64986426D01*
X153671680Y-64725273D01*
X153514637Y-64490241D01*
X153314759Y-64290363D01*
X153082241Y-64135000D01*
X153314759Y-63979637D01*
X153514637Y-63779759D01*
X153671680Y-63544727D01*
X153779853Y-63283574D01*
X153835000Y-63006335D01*
X153835000Y-62723665D01*
X153779853Y-62446426D01*
X153671680Y-62185273D01*
X153514637Y-61950241D01*
X153437506Y-61873110D01*
X154768524Y-61873110D01*
X154889845Y-62103000D01*
X156083000Y-62103000D01*
X156083000Y-60909186D01*
X156337000Y-60909186D01*
X156337000Y-62103000D01*
X157530155Y-62103000D01*
X157651476Y-61873110D01*
X157606825Y-61725901D01*
X157481641Y-61463080D01*
X157307588Y-61229731D01*
X157091355Y-61034822D01*
X156841252Y-60885843D01*
X156566891Y-60788519D01*
X156337000Y-60909186D01*
X156083000Y-60909186D01*
X155853109Y-60788519D01*
X155578748Y-60885843D01*
X155328645Y-61034822D01*
X155112412Y-61229731D01*
X154938359Y-61463080D01*
X154813175Y-61725901D01*
X154768524Y-61873110D01*
X153437506Y-61873110D01*
X153314759Y-61750363D01*
X153082241Y-61595000D01*
X153314759Y-61439637D01*
X153514637Y-61239759D01*
X153671680Y-61004727D01*
X153779853Y-60743574D01*
X153835000Y-60466335D01*
X153835000Y-60183665D01*
X153779853Y-59906426D01*
X153671680Y-59645273D01*
X153514637Y-59410241D01*
X153314759Y-59210363D01*
X153082241Y-59055000D01*
X153314759Y-58899637D01*
X153514637Y-58699759D01*
X153671680Y-58464727D01*
X153779853Y-58203574D01*
X153835000Y-57926335D01*
X153835000Y-57643665D01*
X153779853Y-57366426D01*
X153671680Y-57105273D01*
X153514637Y-56870241D01*
X153314759Y-56670363D01*
X153082241Y-56515000D01*
X153314759Y-56359637D01*
X153514637Y-56159759D01*
X153601339Y-56030000D01*
X154266447Y-56030000D01*
X154305000Y-56033797D01*
X154343553Y-56030000D01*
X154343561Y-56030000D01*
X154458887Y-56018641D01*
X154606860Y-55973754D01*
X154721928Y-55912250D01*
X154721928Y-56730000D01*
X154734188Y-56854482D01*
X154770498Y-56974180D01*
X154829463Y-57084494D01*
X154908815Y-57181185D01*
X155005506Y-57260537D01*
X155115820Y-57319502D01*
X155235518Y-57355812D01*
X155360000Y-57368072D01*
X157060000Y-57368072D01*
X157184482Y-57355812D01*
X157304180Y-57319502D01*
X157414494Y-57260537D01*
X157511185Y-57181185D01*
X157590537Y-57084494D01*
X157649502Y-56974180D01*
X157685812Y-56854482D01*
X157698072Y-56730000D01*
X157698072Y-55030000D01*
X157685812Y-54905518D01*
X157649502Y-54785820D01*
X157590537Y-54675506D01*
X157511185Y-54578815D01*
X157414494Y-54499463D01*
X157304180Y-54440498D01*
X157231620Y-54418487D01*
X157363475Y-54286632D01*
X157525990Y-54043411D01*
X157637932Y-53773158D01*
X157695000Y-53486260D01*
X157695000Y-53193740D01*
X157637932Y-52906842D01*
X157525990Y-52636589D01*
X157363475Y-52393368D01*
X157156632Y-52186525D01*
X156982240Y-52070000D01*
X157156632Y-51953475D01*
X157363475Y-51746632D01*
X157525990Y-51503411D01*
X157637932Y-51233158D01*
X157695000Y-50946260D01*
X157695000Y-50653740D01*
X157637932Y-50366842D01*
X157525990Y-50096589D01*
X157363475Y-49853368D01*
X157156632Y-49646525D01*
X156982240Y-49530000D01*
X157156632Y-49413475D01*
X157363475Y-49206632D01*
X157525990Y-48963411D01*
X157637932Y-48693158D01*
X157695000Y-48406260D01*
X157695000Y-48113740D01*
X157637932Y-47826842D01*
X157525990Y-47556589D01*
X157363475Y-47313368D01*
X157156632Y-47106525D01*
X157019655Y-47015000D01*
X161967872Y-47015000D01*
X161896985Y-47166453D01*
X161832468Y-47428493D01*
X161820312Y-47698085D01*
X161860985Y-47964869D01*
X161952923Y-48218592D01*
X162011385Y-48327967D01*
X162248722Y-48391673D01*
X163015395Y-47625000D01*
X163001253Y-47610858D01*
X163180858Y-47431253D01*
X163195000Y-47445395D01*
X163209143Y-47431253D01*
X163388748Y-47610858D01*
X163374605Y-47625000D01*
X164141278Y-48391673D01*
X164378615Y-48327967D01*
X164465982Y-48141303D01*
X164520922Y-48273938D01*
X164670851Y-48498324D01*
X164861676Y-48689149D01*
X165086062Y-48839078D01*
X165335386Y-48942352D01*
X165600067Y-48995000D01*
X165869933Y-48995000D01*
X166134614Y-48942352D01*
X166383938Y-48839078D01*
X166608324Y-48689149D01*
X166799149Y-48498324D01*
X166949078Y-48273938D01*
X167052352Y-48024614D01*
X167105000Y-47759933D01*
X167105000Y-47490067D01*
X167052352Y-47225386D01*
X166965207Y-47015000D01*
X184471692Y-47015000D01*
X184229332Y-47063209D01*
X183882644Y-47206811D01*
X183570634Y-47415290D01*
X183305290Y-47680634D01*
X183096811Y-47992644D01*
X182953209Y-48339332D01*
X182880000Y-48707374D01*
X182880000Y-49082626D01*
X182953209Y-49450668D01*
X183096811Y-49797356D01*
X183305290Y-50109366D01*
X183570634Y-50374710D01*
X183882644Y-50583189D01*
X184229332Y-50726791D01*
X184597374Y-50800000D01*
X184972626Y-50800000D01*
X185340668Y-50726791D01*
X185687356Y-50583189D01*
X185999366Y-50374710D01*
X186264710Y-50109366D01*
X186473189Y-49797356D01*
X186616791Y-49450668D01*
X186690000Y-49082626D01*
X186690000Y-48707374D01*
X186616791Y-48339332D01*
X186473189Y-47992644D01*
X186264710Y-47680634D01*
X185999366Y-47415290D01*
X185687356Y-47206811D01*
X185340668Y-47063209D01*
X185098308Y-47015000D01*
X196825000Y-47015000D01*
X196825001Y-126975000D01*
X119405000Y-126975000D01*
X119405000Y-122334872D01*
X120955000Y-122334872D01*
X120955000Y-122775128D01*
X121040890Y-123206925D01*
X121209369Y-123613669D01*
X121453962Y-123979729D01*
X121765271Y-124291038D01*
X122131331Y-124535631D01*
X122538075Y-124704110D01*
X122969872Y-124790000D01*
X123410128Y-124790000D01*
X123841925Y-124704110D01*
X124248669Y-124535631D01*
X124614729Y-124291038D01*
X124926038Y-123979729D01*
X125170631Y-123613669D01*
X125339110Y-123206925D01*
X125425000Y-122775128D01*
X125425000Y-122334872D01*
X190170000Y-122334872D01*
X190170000Y-122775128D01*
X190255890Y-123206925D01*
X190424369Y-123613669D01*
X190668962Y-123979729D01*
X190980271Y-124291038D01*
X191346331Y-124535631D01*
X191753075Y-124704110D01*
X192184872Y-124790000D01*
X192625128Y-124790000D01*
X193056925Y-124704110D01*
X193463669Y-124535631D01*
X193829729Y-124291038D01*
X194141038Y-123979729D01*
X194385631Y-123613669D01*
X194554110Y-123206925D01*
X194640000Y-122775128D01*
X194640000Y-122334872D01*
X194554110Y-121903075D01*
X194385631Y-121496331D01*
X194141038Y-121130271D01*
X193829729Y-120818962D01*
X193463669Y-120574369D01*
X193056925Y-120405890D01*
X192625128Y-120320000D01*
X192184872Y-120320000D01*
X191753075Y-120405890D01*
X191346331Y-120574369D01*
X190980271Y-120818962D01*
X190668962Y-121130271D01*
X190424369Y-121496331D01*
X190255890Y-121903075D01*
X190170000Y-122334872D01*
X125425000Y-122334872D01*
X125339110Y-121903075D01*
X125170631Y-121496331D01*
X124926038Y-121130271D01*
X124614729Y-120818962D01*
X124248669Y-120574369D01*
X123841925Y-120405890D01*
X123410128Y-120320000D01*
X122969872Y-120320000D01*
X122538075Y-120405890D01*
X122131331Y-120574369D01*
X121765271Y-120818962D01*
X121453962Y-121130271D01*
X121209369Y-121496331D01*
X121040890Y-121903075D01*
X120955000Y-122334872D01*
X119405000Y-122334872D01*
X119405000Y-101600000D01*
X125843299Y-101600000D01*
X125870040Y-101871507D01*
X125949236Y-102132581D01*
X126077843Y-102373188D01*
X126250919Y-102584081D01*
X126461812Y-102757157D01*
X126672927Y-102870000D01*
X126461812Y-102982843D01*
X126250919Y-103155919D01*
X126077843Y-103366812D01*
X125949236Y-103607419D01*
X125870040Y-103868493D01*
X125843299Y-104140000D01*
X125870040Y-104411507D01*
X125949236Y-104672581D01*
X126077843Y-104913188D01*
X126250919Y-105124081D01*
X126461812Y-105297157D01*
X126702419Y-105425764D01*
X126963493Y-105504960D01*
X127166963Y-105525000D01*
X128103037Y-105525000D01*
X128306507Y-105504960D01*
X128567581Y-105425764D01*
X128808188Y-105297157D01*
X129019081Y-105124081D01*
X129192157Y-104913188D01*
X129320764Y-104672581D01*
X129399960Y-104411507D01*
X129426701Y-104140000D01*
X129399960Y-103868493D01*
X129320764Y-103607419D01*
X129192157Y-103366812D01*
X129189575Y-103363665D01*
X135725000Y-103363665D01*
X135725000Y-103646335D01*
X135780147Y-103923574D01*
X135888320Y-104184727D01*
X136045363Y-104419759D01*
X136245241Y-104619637D01*
X136477759Y-104775000D01*
X136245241Y-104930363D01*
X136045363Y-105130241D01*
X135888320Y-105365273D01*
X135780147Y-105626426D01*
X135725000Y-105903665D01*
X135725000Y-106186335D01*
X135780147Y-106463574D01*
X135888320Y-106724727D01*
X136045363Y-106959759D01*
X136245241Y-107159637D01*
X136480273Y-107316680D01*
X136741426Y-107424853D01*
X137018665Y-107480000D01*
X137301335Y-107480000D01*
X137578574Y-107424853D01*
X137839727Y-107316680D01*
X138074759Y-107159637D01*
X138274637Y-106959759D01*
X138431680Y-106724727D01*
X138539853Y-106463574D01*
X138595000Y-106186335D01*
X138595000Y-105903665D01*
X138539853Y-105626426D01*
X138431680Y-105365273D01*
X138274637Y-105130241D01*
X138074759Y-104930363D01*
X137842241Y-104775000D01*
X138074759Y-104619637D01*
X138274637Y-104419759D01*
X138430000Y-104187241D01*
X138585363Y-104419759D01*
X138785241Y-104619637D01*
X139020273Y-104776680D01*
X139281426Y-104884853D01*
X139558665Y-104940000D01*
X139841335Y-104940000D01*
X140118574Y-104884853D01*
X140379727Y-104776680D01*
X140614759Y-104619637D01*
X140814637Y-104419759D01*
X140971680Y-104184727D01*
X141079853Y-103923574D01*
X141135000Y-103646335D01*
X141135000Y-103363665D01*
X141079853Y-103086426D01*
X140971680Y-102825273D01*
X140814637Y-102590241D01*
X140614759Y-102390363D01*
X140379727Y-102233320D01*
X140118574Y-102125147D01*
X139841335Y-102070000D01*
X139558665Y-102070000D01*
X139281426Y-102125147D01*
X139020273Y-102233320D01*
X138785241Y-102390363D01*
X138585363Y-102590241D01*
X138430000Y-102822759D01*
X138274637Y-102590241D01*
X138074759Y-102390363D01*
X137840872Y-102234085D01*
X137901514Y-102201671D01*
X137973097Y-101957702D01*
X137160000Y-101144605D01*
X136346903Y-101957702D01*
X136418486Y-102201671D01*
X136482992Y-102232194D01*
X136480273Y-102233320D01*
X136245241Y-102390363D01*
X136045363Y-102590241D01*
X135888320Y-102825273D01*
X135780147Y-103086426D01*
X135725000Y-103363665D01*
X129189575Y-103363665D01*
X129019081Y-103155919D01*
X128808188Y-102982843D01*
X128597073Y-102870000D01*
X128808188Y-102757157D01*
X129019081Y-102584081D01*
X129192157Y-102373188D01*
X129320764Y-102132581D01*
X129399960Y-101871507D01*
X129426701Y-101600000D01*
X129399960Y-101328493D01*
X129320764Y-101067419D01*
X129303710Y-101035512D01*
X135719783Y-101035512D01*
X135761213Y-101315130D01*
X135856397Y-101581292D01*
X135923329Y-101706514D01*
X136167298Y-101778097D01*
X136980395Y-100965000D01*
X137339605Y-100965000D01*
X138152702Y-101778097D01*
X138396671Y-101706514D01*
X138517571Y-101451004D01*
X138586300Y-101176816D01*
X138600217Y-100894488D01*
X138558787Y-100614870D01*
X138463603Y-100348708D01*
X138396671Y-100223486D01*
X138152702Y-100151903D01*
X137339605Y-100965000D01*
X136980395Y-100965000D01*
X136167298Y-100151903D01*
X135923329Y-100223486D01*
X135802429Y-100478996D01*
X135733700Y-100753184D01*
X135719783Y-101035512D01*
X129303710Y-101035512D01*
X129192157Y-100826812D01*
X129019081Y-100615919D01*
X128811392Y-100445473D01*
X128909482Y-100435812D01*
X129029180Y-100399502D01*
X129139494Y-100340537D01*
X129236185Y-100261185D01*
X129315537Y-100164494D01*
X129374502Y-100054180D01*
X129410812Y-99934482D01*
X129423072Y-99810000D01*
X129423072Y-98310000D01*
X129410812Y-98185518D01*
X129374502Y-98065820D01*
X129315537Y-97955506D01*
X129236185Y-97858815D01*
X129139494Y-97779463D01*
X129029180Y-97720498D01*
X128909482Y-97684188D01*
X128785000Y-97671928D01*
X126485000Y-97671928D01*
X126360518Y-97684188D01*
X126240820Y-97720498D01*
X126130506Y-97779463D01*
X126033815Y-97858815D01*
X125954463Y-97955506D01*
X125895498Y-98065820D01*
X125859188Y-98185518D01*
X125846928Y-98310000D01*
X125846928Y-99810000D01*
X125859188Y-99934482D01*
X125895498Y-100054180D01*
X125954463Y-100164494D01*
X126033815Y-100261185D01*
X126130506Y-100340537D01*
X126240820Y-100399502D01*
X126360518Y-100435812D01*
X126458608Y-100445473D01*
X126250919Y-100615919D01*
X126077843Y-100826812D01*
X125949236Y-101067419D01*
X125870040Y-101328493D01*
X125843299Y-101600000D01*
X119405000Y-101600000D01*
X119405000Y-51214872D01*
X121590000Y-51214872D01*
X121590000Y-51655128D01*
X121675890Y-52086925D01*
X121844369Y-52493669D01*
X122088962Y-52859729D01*
X122400271Y-53171038D01*
X122766331Y-53415631D01*
X123173075Y-53584110D01*
X123604872Y-53670000D01*
X124045128Y-53670000D01*
X124476925Y-53584110D01*
X124883669Y-53415631D01*
X125249729Y-53171038D01*
X125561038Y-52859729D01*
X125805631Y-52493669D01*
X125974110Y-52086925D01*
X126060000Y-51655128D01*
X126060000Y-51214872D01*
X125974110Y-50783075D01*
X125805631Y-50376331D01*
X125561038Y-50010271D01*
X125249729Y-49698962D01*
X124883669Y-49454369D01*
X124476925Y-49285890D01*
X124045128Y-49200000D01*
X123604872Y-49200000D01*
X123173075Y-49285890D01*
X122766331Y-49454369D01*
X122400271Y-49698962D01*
X122088962Y-50010271D01*
X121844369Y-50376331D01*
X121675890Y-50783075D01*
X121590000Y-51214872D01*
X119405000Y-51214872D01*
X119405000Y-47015000D01*
X135859438Y-47015000D01*
X135780147Y-47206426D01*
M02*
