G04 #@! TF.GenerationSoftware,KiCad,Pcbnew,5.1.6*
G04 #@! TF.CreationDate,2020-08-31T22:31:01-05:00*
G04 #@! TF.ProjectId,shear_pcb,73686561-725f-4706-9362-2e6b69636164,rev?*
G04 #@! TF.SameCoordinates,Original*
G04 #@! TF.FileFunction,Soldermask,Top*
G04 #@! TF.FilePolarity,Negative*
%FSLAX46Y46*%
G04 Gerber Fmt 4.6, Leading zero omitted, Abs format (unit mm)*
G04 Created by KiCad (PCBNEW 5.1.6) date 2020-08-31 22:31:01*
%MOMM*%
%LPD*%
G01*
G04 APERTURE LIST*
%ADD10C,0.100000*%
G04 APERTURE END LIST*
D10*
G36*
X192780256Y-120946298D02*
G01*
X192886579Y-120967447D01*
X193187042Y-121091903D01*
X193457451Y-121272585D01*
X193687415Y-121502549D01*
X193868097Y-121772958D01*
X193992553Y-122073421D01*
X194056000Y-122392391D01*
X194056000Y-122717609D01*
X193992553Y-123036579D01*
X193868097Y-123337042D01*
X193687415Y-123607451D01*
X193457451Y-123837415D01*
X193187042Y-124018097D01*
X192886579Y-124142553D01*
X192780256Y-124163702D01*
X192567611Y-124206000D01*
X192242389Y-124206000D01*
X192029744Y-124163702D01*
X191923421Y-124142553D01*
X191622958Y-124018097D01*
X191352549Y-123837415D01*
X191122585Y-123607451D01*
X190941903Y-123337042D01*
X190817447Y-123036579D01*
X190754000Y-122717609D01*
X190754000Y-122392391D01*
X190817447Y-122073421D01*
X190941903Y-121772958D01*
X191122585Y-121502549D01*
X191352549Y-121272585D01*
X191622958Y-121091903D01*
X191923421Y-120967447D01*
X192029744Y-120946298D01*
X192242389Y-120904000D01*
X192567611Y-120904000D01*
X192780256Y-120946298D01*
G37*
G36*
X123565256Y-120946298D02*
G01*
X123671579Y-120967447D01*
X123972042Y-121091903D01*
X124242451Y-121272585D01*
X124472415Y-121502549D01*
X124653097Y-121772958D01*
X124777553Y-122073421D01*
X124841000Y-122392391D01*
X124841000Y-122717609D01*
X124777553Y-123036579D01*
X124653097Y-123337042D01*
X124472415Y-123607451D01*
X124242451Y-123837415D01*
X123972042Y-124018097D01*
X123671579Y-124142553D01*
X123565256Y-124163702D01*
X123352611Y-124206000D01*
X123027389Y-124206000D01*
X122814744Y-124163702D01*
X122708421Y-124142553D01*
X122407958Y-124018097D01*
X122137549Y-123837415D01*
X121907585Y-123607451D01*
X121726903Y-123337042D01*
X121602447Y-123036579D01*
X121539000Y-122717609D01*
X121539000Y-122392391D01*
X121602447Y-122073421D01*
X121726903Y-121772958D01*
X121907585Y-121502549D01*
X122137549Y-121272585D01*
X122407958Y-121091903D01*
X122708421Y-120967447D01*
X122814744Y-120946298D01*
X123027389Y-120904000D01*
X123352611Y-120904000D01*
X123565256Y-120946298D01*
G37*
G36*
X185087585Y-116588802D02*
G01*
X185237410Y-116618604D01*
X185519674Y-116735521D01*
X185773705Y-116905259D01*
X185989741Y-117121295D01*
X186159479Y-117375326D01*
X186276396Y-117657590D01*
X186276396Y-117657591D01*
X186333873Y-117946544D01*
X186336000Y-117957240D01*
X186336000Y-118262760D01*
X186276396Y-118562410D01*
X186159479Y-118844674D01*
X185989741Y-119098705D01*
X185773705Y-119314741D01*
X185519674Y-119484479D01*
X185237410Y-119601396D01*
X185087585Y-119631198D01*
X184937761Y-119661000D01*
X184632239Y-119661000D01*
X184482415Y-119631198D01*
X184332590Y-119601396D01*
X184050326Y-119484479D01*
X183796295Y-119314741D01*
X183580259Y-119098705D01*
X183410521Y-118844674D01*
X183293604Y-118562410D01*
X183234000Y-118262760D01*
X183234000Y-117957240D01*
X183236128Y-117946544D01*
X183293604Y-117657591D01*
X183293604Y-117657590D01*
X183410521Y-117375326D01*
X183580259Y-117121295D01*
X183796295Y-116905259D01*
X184050326Y-116735521D01*
X184332590Y-116618604D01*
X184482415Y-116588802D01*
X184632239Y-116559000D01*
X184937761Y-116559000D01*
X185087585Y-116588802D01*
G37*
G36*
X181256000Y-119661000D02*
G01*
X178154000Y-119661000D01*
X178154000Y-116559000D01*
X181256000Y-116559000D01*
X181256000Y-119661000D01*
G37*
G36*
X157746000Y-119646000D02*
G01*
X155944000Y-119646000D01*
X155944000Y-117844000D01*
X157746000Y-117844000D01*
X157746000Y-119646000D01*
G37*
G36*
X168541000Y-119646000D02*
G01*
X166739000Y-119646000D01*
X166739000Y-117844000D01*
X168541000Y-117844000D01*
X168541000Y-119646000D01*
G37*
G36*
X170293512Y-117848927D02*
G01*
X170442812Y-117878624D01*
X170606784Y-117946544D01*
X170754354Y-118045147D01*
X170879853Y-118170646D01*
X170978456Y-118318216D01*
X171046376Y-118482188D01*
X171081000Y-118656259D01*
X171081000Y-118833741D01*
X171046376Y-119007812D01*
X170978456Y-119171784D01*
X170879853Y-119319354D01*
X170754354Y-119444853D01*
X170606784Y-119543456D01*
X170442812Y-119611376D01*
X170293512Y-119641073D01*
X170268742Y-119646000D01*
X170091258Y-119646000D01*
X170066488Y-119641073D01*
X169917188Y-119611376D01*
X169753216Y-119543456D01*
X169605646Y-119444853D01*
X169480147Y-119319354D01*
X169381544Y-119171784D01*
X169313624Y-119007812D01*
X169279000Y-118833741D01*
X169279000Y-118656259D01*
X169313624Y-118482188D01*
X169381544Y-118318216D01*
X169480147Y-118170646D01*
X169605646Y-118045147D01*
X169753216Y-117946544D01*
X169917188Y-117878624D01*
X170066488Y-117848927D01*
X170091258Y-117844000D01*
X170268742Y-117844000D01*
X170293512Y-117848927D01*
G37*
G36*
X162038512Y-117848927D02*
G01*
X162187812Y-117878624D01*
X162351784Y-117946544D01*
X162499354Y-118045147D01*
X162624853Y-118170646D01*
X162723456Y-118318216D01*
X162791376Y-118482188D01*
X162826000Y-118656259D01*
X162826000Y-118833741D01*
X162791376Y-119007812D01*
X162723456Y-119171784D01*
X162624853Y-119319354D01*
X162499354Y-119444853D01*
X162351784Y-119543456D01*
X162187812Y-119611376D01*
X162038512Y-119641073D01*
X162013742Y-119646000D01*
X161836258Y-119646000D01*
X161811488Y-119641073D01*
X161662188Y-119611376D01*
X161498216Y-119543456D01*
X161350646Y-119444853D01*
X161225147Y-119319354D01*
X161126544Y-119171784D01*
X161058624Y-119007812D01*
X161024000Y-118833741D01*
X161024000Y-118656259D01*
X161058624Y-118482188D01*
X161126544Y-118318216D01*
X161225147Y-118170646D01*
X161350646Y-118045147D01*
X161498216Y-117946544D01*
X161662188Y-117878624D01*
X161811488Y-117848927D01*
X161836258Y-117844000D01*
X162013742Y-117844000D01*
X162038512Y-117848927D01*
G37*
G36*
X172833512Y-117848927D02*
G01*
X172982812Y-117878624D01*
X173146784Y-117946544D01*
X173294354Y-118045147D01*
X173419853Y-118170646D01*
X173518456Y-118318216D01*
X173586376Y-118482188D01*
X173621000Y-118656259D01*
X173621000Y-118833741D01*
X173586376Y-119007812D01*
X173518456Y-119171784D01*
X173419853Y-119319354D01*
X173294354Y-119444853D01*
X173146784Y-119543456D01*
X172982812Y-119611376D01*
X172833512Y-119641073D01*
X172808742Y-119646000D01*
X172631258Y-119646000D01*
X172606488Y-119641073D01*
X172457188Y-119611376D01*
X172293216Y-119543456D01*
X172145646Y-119444853D01*
X172020147Y-119319354D01*
X171921544Y-119171784D01*
X171853624Y-119007812D01*
X171819000Y-118833741D01*
X171819000Y-118656259D01*
X171853624Y-118482188D01*
X171921544Y-118318216D01*
X172020147Y-118170646D01*
X172145646Y-118045147D01*
X172293216Y-117946544D01*
X172457188Y-117878624D01*
X172606488Y-117848927D01*
X172631258Y-117844000D01*
X172808742Y-117844000D01*
X172833512Y-117848927D01*
G37*
G36*
X159498512Y-117848927D02*
G01*
X159647812Y-117878624D01*
X159811784Y-117946544D01*
X159959354Y-118045147D01*
X160084853Y-118170646D01*
X160183456Y-118318216D01*
X160251376Y-118482188D01*
X160286000Y-118656259D01*
X160286000Y-118833741D01*
X160251376Y-119007812D01*
X160183456Y-119171784D01*
X160084853Y-119319354D01*
X159959354Y-119444853D01*
X159811784Y-119543456D01*
X159647812Y-119611376D01*
X159498512Y-119641073D01*
X159473742Y-119646000D01*
X159296258Y-119646000D01*
X159271488Y-119641073D01*
X159122188Y-119611376D01*
X158958216Y-119543456D01*
X158810646Y-119444853D01*
X158685147Y-119319354D01*
X158586544Y-119171784D01*
X158518624Y-119007812D01*
X158484000Y-118833741D01*
X158484000Y-118656259D01*
X158518624Y-118482188D01*
X158586544Y-118318216D01*
X158685147Y-118170646D01*
X158810646Y-118045147D01*
X158958216Y-117946544D01*
X159122188Y-117878624D01*
X159271488Y-117848927D01*
X159296258Y-117844000D01*
X159473742Y-117844000D01*
X159498512Y-117848927D01*
G37*
G36*
X161898674Y-114188465D02*
G01*
X161936367Y-114199899D01*
X161971103Y-114218466D01*
X162001548Y-114243452D01*
X162026534Y-114273897D01*
X162045101Y-114308633D01*
X162056535Y-114346326D01*
X162061000Y-114391661D01*
X162061000Y-115478339D01*
X162056535Y-115523674D01*
X162045101Y-115561367D01*
X162026534Y-115596103D01*
X162001548Y-115626548D01*
X161971103Y-115651534D01*
X161936367Y-115670101D01*
X161898674Y-115681535D01*
X161853339Y-115686000D01*
X161016661Y-115686000D01*
X160971326Y-115681535D01*
X160933633Y-115670101D01*
X160898897Y-115651534D01*
X160868452Y-115626548D01*
X160843466Y-115596103D01*
X160824899Y-115561367D01*
X160813465Y-115523674D01*
X160809000Y-115478339D01*
X160809000Y-114391661D01*
X160813465Y-114346326D01*
X160824899Y-114308633D01*
X160843466Y-114273897D01*
X160868452Y-114243452D01*
X160898897Y-114218466D01*
X160933633Y-114199899D01*
X160971326Y-114188465D01*
X161016661Y-114184000D01*
X161853339Y-114184000D01*
X161898674Y-114188465D01*
G37*
G36*
X170643674Y-114188465D02*
G01*
X170681367Y-114199899D01*
X170716103Y-114218466D01*
X170746548Y-114243452D01*
X170771534Y-114273897D01*
X170790101Y-114308633D01*
X170801535Y-114346326D01*
X170806000Y-114391661D01*
X170806000Y-115478339D01*
X170801535Y-115523674D01*
X170790101Y-115561367D01*
X170771534Y-115596103D01*
X170746548Y-115626548D01*
X170716103Y-115651534D01*
X170681367Y-115670101D01*
X170643674Y-115681535D01*
X170598339Y-115686000D01*
X169761661Y-115686000D01*
X169716326Y-115681535D01*
X169678633Y-115670101D01*
X169643897Y-115651534D01*
X169613452Y-115626548D01*
X169588466Y-115596103D01*
X169569899Y-115561367D01*
X169558465Y-115523674D01*
X169554000Y-115478339D01*
X169554000Y-114391661D01*
X169558465Y-114346326D01*
X169569899Y-114308633D01*
X169588466Y-114273897D01*
X169613452Y-114243452D01*
X169643897Y-114218466D01*
X169678633Y-114199899D01*
X169716326Y-114188465D01*
X169761661Y-114184000D01*
X170598339Y-114184000D01*
X170643674Y-114188465D01*
G37*
G36*
X172693674Y-114188465D02*
G01*
X172731367Y-114199899D01*
X172766103Y-114218466D01*
X172796548Y-114243452D01*
X172821534Y-114273897D01*
X172840101Y-114308633D01*
X172851535Y-114346326D01*
X172856000Y-114391661D01*
X172856000Y-115478339D01*
X172851535Y-115523674D01*
X172840101Y-115561367D01*
X172821534Y-115596103D01*
X172796548Y-115626548D01*
X172766103Y-115651534D01*
X172731367Y-115670101D01*
X172693674Y-115681535D01*
X172648339Y-115686000D01*
X171811661Y-115686000D01*
X171766326Y-115681535D01*
X171728633Y-115670101D01*
X171693897Y-115651534D01*
X171663452Y-115626548D01*
X171638466Y-115596103D01*
X171619899Y-115561367D01*
X171608465Y-115523674D01*
X171604000Y-115478339D01*
X171604000Y-114391661D01*
X171608465Y-114346326D01*
X171619899Y-114308633D01*
X171638466Y-114273897D01*
X171663452Y-114243452D01*
X171693897Y-114218466D01*
X171728633Y-114199899D01*
X171766326Y-114188465D01*
X171811661Y-114184000D01*
X172648339Y-114184000D01*
X172693674Y-114188465D01*
G37*
G36*
X159848674Y-114188465D02*
G01*
X159886367Y-114199899D01*
X159921103Y-114218466D01*
X159951548Y-114243452D01*
X159976534Y-114273897D01*
X159995101Y-114308633D01*
X160006535Y-114346326D01*
X160011000Y-114391661D01*
X160011000Y-115478339D01*
X160006535Y-115523674D01*
X159995101Y-115561367D01*
X159976534Y-115596103D01*
X159951548Y-115626548D01*
X159921103Y-115651534D01*
X159886367Y-115670101D01*
X159848674Y-115681535D01*
X159803339Y-115686000D01*
X158966661Y-115686000D01*
X158921326Y-115681535D01*
X158883633Y-115670101D01*
X158848897Y-115651534D01*
X158818452Y-115626548D01*
X158793466Y-115596103D01*
X158774899Y-115561367D01*
X158763465Y-115523674D01*
X158759000Y-115478339D01*
X158759000Y-114391661D01*
X158763465Y-114346326D01*
X158774899Y-114308633D01*
X158793466Y-114273897D01*
X158818452Y-114243452D01*
X158848897Y-114218466D01*
X158883633Y-114199899D01*
X158921326Y-114188465D01*
X158966661Y-114184000D01*
X159803339Y-114184000D01*
X159848674Y-114188465D01*
G37*
G36*
X184921626Y-109452037D02*
G01*
X185091465Y-109503557D01*
X185091467Y-109503558D01*
X185247989Y-109587221D01*
X185385186Y-109699814D01*
X185468448Y-109801271D01*
X185497778Y-109837009D01*
X185581443Y-109993534D01*
X185632963Y-110163373D01*
X185646000Y-110295742D01*
X185646000Y-110684257D01*
X185632963Y-110816626D01*
X185581443Y-110986466D01*
X185497778Y-111142991D01*
X185468448Y-111178729D01*
X185385186Y-111280186D01*
X185290250Y-111358097D01*
X185247991Y-111392778D01*
X185091466Y-111476443D01*
X184921627Y-111527963D01*
X184745000Y-111545359D01*
X184568374Y-111527963D01*
X184398535Y-111476443D01*
X184242010Y-111392778D01*
X184104815Y-111280185D01*
X183992222Y-111142991D01*
X183908557Y-110986466D01*
X183857037Y-110816627D01*
X183844000Y-110684258D01*
X183844000Y-110295743D01*
X183857037Y-110163374D01*
X183908557Y-109993535D01*
X183992222Y-109837010D01*
X183992223Y-109837009D01*
X184104814Y-109699814D01*
X184206271Y-109616552D01*
X184242009Y-109587222D01*
X184398534Y-109503557D01*
X184568373Y-109452037D01*
X184745000Y-109434641D01*
X184921626Y-109452037D01*
G37*
G36*
X183003600Y-109442989D02*
G01*
X183036652Y-109453015D01*
X183067103Y-109469292D01*
X183093799Y-109491201D01*
X183115708Y-109517897D01*
X183131985Y-109548348D01*
X183142011Y-109581400D01*
X183146000Y-109621903D01*
X183146000Y-111358097D01*
X183142011Y-111398600D01*
X183131985Y-111431652D01*
X183115708Y-111462103D01*
X183093799Y-111488799D01*
X183067103Y-111510708D01*
X183036652Y-111526985D01*
X183003600Y-111537011D01*
X182963097Y-111541000D01*
X181526903Y-111541000D01*
X181486400Y-111537011D01*
X181453348Y-111526985D01*
X181422897Y-111510708D01*
X181396201Y-111488799D01*
X181374292Y-111462103D01*
X181358015Y-111431652D01*
X181347989Y-111398600D01*
X181344000Y-111358097D01*
X181344000Y-109621903D01*
X181347989Y-109581400D01*
X181358015Y-109548348D01*
X181374292Y-109517897D01*
X181396201Y-109491201D01*
X181422897Y-109469292D01*
X181453348Y-109453015D01*
X181486400Y-109442989D01*
X181526903Y-109439000D01*
X182963097Y-109439000D01*
X183003600Y-109442989D01*
G37*
G36*
X153251000Y-106896000D02*
G01*
X151549000Y-106896000D01*
X151549000Y-105194000D01*
X153251000Y-105194000D01*
X153251000Y-106896000D01*
G37*
G36*
X137408228Y-105226703D02*
G01*
X137563100Y-105290853D01*
X137702481Y-105383985D01*
X137821015Y-105502519D01*
X137914147Y-105641900D01*
X137978297Y-105796772D01*
X138011000Y-105961184D01*
X138011000Y-106128816D01*
X137978297Y-106293228D01*
X137914147Y-106448100D01*
X137821015Y-106587481D01*
X137702481Y-106706015D01*
X137563100Y-106799147D01*
X137408228Y-106863297D01*
X137243816Y-106896000D01*
X137076184Y-106896000D01*
X136911772Y-106863297D01*
X136756900Y-106799147D01*
X136617519Y-106706015D01*
X136498985Y-106587481D01*
X136405853Y-106448100D01*
X136341703Y-106293228D01*
X136309000Y-106128816D01*
X136309000Y-105961184D01*
X136341703Y-105796772D01*
X136405853Y-105641900D01*
X136498985Y-105502519D01*
X136617519Y-105383985D01*
X136756900Y-105290853D01*
X136911772Y-105226703D01*
X137076184Y-105194000D01*
X137243816Y-105194000D01*
X137408228Y-105226703D01*
G37*
G36*
X163424267Y-105289205D02*
G01*
X163567309Y-105348455D01*
X163567311Y-105348456D01*
X163696046Y-105434474D01*
X163805526Y-105543954D01*
X163854393Y-105617089D01*
X163891545Y-105672691D01*
X163950795Y-105815733D01*
X163981000Y-105967584D01*
X163981000Y-106122416D01*
X163950795Y-106274267D01*
X163891545Y-106417309D01*
X163891544Y-106417311D01*
X163805526Y-106546046D01*
X163696046Y-106655526D01*
X163567311Y-106741544D01*
X163567310Y-106741545D01*
X163567309Y-106741545D01*
X163424267Y-106800795D01*
X163272416Y-106831000D01*
X163117584Y-106831000D01*
X162965733Y-106800795D01*
X162822691Y-106741545D01*
X162822690Y-106741545D01*
X162822689Y-106741544D01*
X162693954Y-106655526D01*
X162584474Y-106546046D01*
X162498456Y-106417311D01*
X162498455Y-106417309D01*
X162439205Y-106274267D01*
X162409000Y-106122416D01*
X162409000Y-105967584D01*
X162439205Y-105815733D01*
X162498455Y-105672691D01*
X162535607Y-105617089D01*
X162584474Y-105543954D01*
X162693954Y-105434474D01*
X162822689Y-105348456D01*
X162822691Y-105348455D01*
X162965733Y-105289205D01*
X163117584Y-105259000D01*
X163272416Y-105259000D01*
X163424267Y-105289205D01*
G37*
G36*
X185042715Y-103479383D02*
G01*
X185170322Y-103504765D01*
X185311148Y-103563097D01*
X185410727Y-103604344D01*
X185410728Y-103604345D01*
X185627089Y-103748912D01*
X185811088Y-103932911D01*
X185859955Y-104006046D01*
X185955656Y-104149273D01*
X185992329Y-104237810D01*
X186055235Y-104389678D01*
X186055235Y-104389680D01*
X186106000Y-104644891D01*
X186106000Y-104905109D01*
X186080618Y-105032714D01*
X186055235Y-105160322D01*
X186027738Y-105226705D01*
X185955656Y-105400727D01*
X185933107Y-105434474D01*
X185811088Y-105617089D01*
X185627089Y-105801088D01*
X185482521Y-105897685D01*
X185410727Y-105945656D01*
X185311148Y-105986903D01*
X185170322Y-106045235D01*
X185042714Y-106070618D01*
X184915109Y-106096000D01*
X184654891Y-106096000D01*
X184527286Y-106070618D01*
X184399678Y-106045235D01*
X184258852Y-105986903D01*
X184159273Y-105945656D01*
X184087479Y-105897685D01*
X183942911Y-105801088D01*
X183758912Y-105617089D01*
X183636893Y-105434474D01*
X183614344Y-105400727D01*
X183542262Y-105226705D01*
X183514765Y-105160322D01*
X183489382Y-105032714D01*
X183464000Y-104905109D01*
X183464000Y-104644891D01*
X183514765Y-104389680D01*
X183514765Y-104389678D01*
X183577671Y-104237810D01*
X183614344Y-104149273D01*
X183710045Y-104006046D01*
X183758912Y-103932911D01*
X183942911Y-103748912D01*
X184159272Y-103604345D01*
X184159273Y-103604344D01*
X184258852Y-103563097D01*
X184399678Y-103504765D01*
X184527286Y-103479382D01*
X184654891Y-103454000D01*
X184915109Y-103454000D01*
X185042715Y-103479383D01*
G37*
G36*
X128113571Y-103342863D02*
G01*
X128192023Y-103350590D01*
X128292682Y-103381125D01*
X128343013Y-103396392D01*
X128482165Y-103470771D01*
X128604133Y-103570867D01*
X128704229Y-103692835D01*
X128778608Y-103831987D01*
X128778608Y-103831988D01*
X128824410Y-103982977D01*
X128839875Y-104140000D01*
X128824410Y-104297023D01*
X128796303Y-104389678D01*
X128778608Y-104448013D01*
X128704229Y-104587165D01*
X128604133Y-104709133D01*
X128482165Y-104809229D01*
X128343013Y-104883608D01*
X128292682Y-104898875D01*
X128192023Y-104929410D01*
X128113571Y-104937137D01*
X128074346Y-104941000D01*
X127195654Y-104941000D01*
X127156429Y-104937137D01*
X127077977Y-104929410D01*
X126977318Y-104898875D01*
X126926987Y-104883608D01*
X126787835Y-104809229D01*
X126665867Y-104709133D01*
X126565771Y-104587165D01*
X126491392Y-104448013D01*
X126473697Y-104389678D01*
X126445590Y-104297023D01*
X126430125Y-104140000D01*
X126445590Y-103982977D01*
X126491392Y-103831988D01*
X126491392Y-103831987D01*
X126565771Y-103692835D01*
X126665867Y-103570867D01*
X126787835Y-103470771D01*
X126926987Y-103396392D01*
X126977318Y-103381125D01*
X127077977Y-103350590D01*
X127156429Y-103342863D01*
X127195654Y-103339000D01*
X128074346Y-103339000D01*
X128113571Y-103342863D01*
G37*
G36*
X137408228Y-102686703D02*
G01*
X137563100Y-102750853D01*
X137702481Y-102843985D01*
X137821015Y-102962519D01*
X137914147Y-103101900D01*
X137978297Y-103256772D01*
X138011000Y-103421184D01*
X138011000Y-103588816D01*
X137978297Y-103753228D01*
X137914147Y-103908100D01*
X137821015Y-104047481D01*
X137702481Y-104166015D01*
X137563100Y-104259147D01*
X137408228Y-104323297D01*
X137243816Y-104356000D01*
X137076184Y-104356000D01*
X136911772Y-104323297D01*
X136756900Y-104259147D01*
X136617519Y-104166015D01*
X136498985Y-104047481D01*
X136405853Y-103908100D01*
X136341703Y-103753228D01*
X136309000Y-103588816D01*
X136309000Y-103421184D01*
X136341703Y-103256772D01*
X136405853Y-103101900D01*
X136498985Y-102962519D01*
X136617519Y-102843985D01*
X136756900Y-102750853D01*
X136911772Y-102686703D01*
X137076184Y-102654000D01*
X137243816Y-102654000D01*
X137408228Y-102686703D01*
G37*
G36*
X193110997Y-100758051D02*
G01*
X193144652Y-100768261D01*
X193175665Y-100784838D01*
X193202851Y-100807149D01*
X193225162Y-100834335D01*
X193241739Y-100865348D01*
X193251949Y-100899003D01*
X193256000Y-100940138D01*
X193256000Y-104169862D01*
X193251949Y-104210997D01*
X193241739Y-104244652D01*
X193225162Y-104275665D01*
X193202851Y-104302851D01*
X193175665Y-104325162D01*
X193144652Y-104341739D01*
X193110997Y-104351949D01*
X193069862Y-104356000D01*
X191740138Y-104356000D01*
X191699003Y-104351949D01*
X191665348Y-104341739D01*
X191634335Y-104325162D01*
X191607149Y-104302851D01*
X191584838Y-104275665D01*
X191568261Y-104244652D01*
X191558051Y-104210997D01*
X191554000Y-104169862D01*
X191554000Y-100940138D01*
X191558051Y-100899003D01*
X191568261Y-100865348D01*
X191584838Y-100834335D01*
X191607149Y-100807149D01*
X191634335Y-100784838D01*
X191665348Y-100768261D01*
X191699003Y-100758051D01*
X191740138Y-100754000D01*
X193069862Y-100754000D01*
X193110997Y-100758051D01*
G37*
G36*
X139948228Y-102686703D02*
G01*
X140103100Y-102750853D01*
X140242481Y-102843985D01*
X140361015Y-102962519D01*
X140454147Y-103101900D01*
X140518297Y-103256772D01*
X140551000Y-103421184D01*
X140551000Y-103588816D01*
X140518297Y-103753228D01*
X140454147Y-103908100D01*
X140361015Y-104047481D01*
X140242481Y-104166015D01*
X140103100Y-104259147D01*
X139948228Y-104323297D01*
X139783816Y-104356000D01*
X139616184Y-104356000D01*
X139451772Y-104323297D01*
X139296900Y-104259147D01*
X139157519Y-104166015D01*
X139038985Y-104047481D01*
X138945853Y-103908100D01*
X138881703Y-103753228D01*
X138849000Y-103588816D01*
X138849000Y-103421184D01*
X138881703Y-103256772D01*
X138945853Y-103101900D01*
X139038985Y-102962519D01*
X139157519Y-102843985D01*
X139296900Y-102750853D01*
X139451772Y-102686703D01*
X139616184Y-102654000D01*
X139783816Y-102654000D01*
X139948228Y-102686703D01*
G37*
G36*
X152648228Y-102686703D02*
G01*
X152803100Y-102750853D01*
X152942481Y-102843985D01*
X153061015Y-102962519D01*
X153154147Y-103101900D01*
X153218297Y-103256772D01*
X153251000Y-103421184D01*
X153251000Y-103588816D01*
X153218297Y-103753228D01*
X153154147Y-103908100D01*
X153061015Y-104047481D01*
X152942481Y-104166015D01*
X152803100Y-104259147D01*
X152648228Y-104323297D01*
X152483816Y-104356000D01*
X152316184Y-104356000D01*
X152151772Y-104323297D01*
X151996900Y-104259147D01*
X151857519Y-104166015D01*
X151738985Y-104047481D01*
X151645853Y-103908100D01*
X151581703Y-103753228D01*
X151549000Y-103588816D01*
X151549000Y-103421184D01*
X151581703Y-103256772D01*
X151645853Y-103101900D01*
X151738985Y-102962519D01*
X151857519Y-102843985D01*
X151996900Y-102750853D01*
X152151772Y-102686703D01*
X152316184Y-102654000D01*
X152483816Y-102654000D01*
X152648228Y-102686703D01*
G37*
G36*
X163424267Y-102749205D02*
G01*
X163567309Y-102808455D01*
X163567311Y-102808456D01*
X163696046Y-102894474D01*
X163805526Y-103003954D01*
X163805527Y-103003956D01*
X163891545Y-103132691D01*
X163950795Y-103275733D01*
X163981000Y-103427584D01*
X163981000Y-103582416D01*
X163950795Y-103734267D01*
X163891545Y-103877309D01*
X163891544Y-103877311D01*
X163805526Y-104006046D01*
X163696046Y-104115526D01*
X163567311Y-104201544D01*
X163567310Y-104201545D01*
X163567309Y-104201545D01*
X163424267Y-104260795D01*
X163272416Y-104291000D01*
X163117584Y-104291000D01*
X162965733Y-104260795D01*
X162822691Y-104201545D01*
X162822690Y-104201545D01*
X162822689Y-104201544D01*
X162693954Y-104115526D01*
X162584474Y-104006046D01*
X162498456Y-103877311D01*
X162498455Y-103877309D01*
X162439205Y-103734267D01*
X162409000Y-103582416D01*
X162409000Y-103427584D01*
X162439205Y-103275733D01*
X162498455Y-103132691D01*
X162584473Y-103003956D01*
X162584474Y-103003954D01*
X162693954Y-102894474D01*
X162822689Y-102808456D01*
X162822691Y-102808455D01*
X162965733Y-102749205D01*
X163117584Y-102719000D01*
X163272416Y-102719000D01*
X163424267Y-102749205D01*
G37*
G36*
X128113571Y-100802863D02*
G01*
X128192023Y-100810590D01*
X128292682Y-100841125D01*
X128343013Y-100856392D01*
X128482165Y-100930771D01*
X128604133Y-101030867D01*
X128704229Y-101152835D01*
X128778608Y-101291987D01*
X128778608Y-101291988D01*
X128824410Y-101442977D01*
X128839875Y-101600000D01*
X128824410Y-101757023D01*
X128793875Y-101857682D01*
X128778608Y-101908013D01*
X128704229Y-102047165D01*
X128604133Y-102169133D01*
X128482165Y-102269229D01*
X128343013Y-102343608D01*
X128292682Y-102358875D01*
X128192023Y-102389410D01*
X128113571Y-102397137D01*
X128074346Y-102401000D01*
X127195654Y-102401000D01*
X127156429Y-102397137D01*
X127077977Y-102389410D01*
X126977318Y-102358875D01*
X126926987Y-102343608D01*
X126787835Y-102269229D01*
X126665867Y-102169133D01*
X126565771Y-102047165D01*
X126491392Y-101908013D01*
X126476125Y-101857682D01*
X126445590Y-101757023D01*
X126430125Y-101600000D01*
X126445590Y-101442977D01*
X126491392Y-101291988D01*
X126491392Y-101291987D01*
X126565771Y-101152835D01*
X126665867Y-101030867D01*
X126787835Y-100930771D01*
X126926987Y-100856392D01*
X126977318Y-100841125D01*
X127077977Y-100810590D01*
X127156429Y-100802863D01*
X127195654Y-100799000D01*
X128074346Y-100799000D01*
X128113571Y-100802863D01*
G37*
G36*
X137408228Y-100146703D02*
G01*
X137563100Y-100210853D01*
X137702481Y-100303985D01*
X137821015Y-100422519D01*
X137914147Y-100561900D01*
X137978297Y-100716772D01*
X138011000Y-100881184D01*
X138011000Y-101048816D01*
X137978297Y-101213228D01*
X137914147Y-101368100D01*
X137821015Y-101507481D01*
X137702481Y-101626015D01*
X137563100Y-101719147D01*
X137408228Y-101783297D01*
X137243816Y-101816000D01*
X137076184Y-101816000D01*
X136911772Y-101783297D01*
X136756900Y-101719147D01*
X136617519Y-101626015D01*
X136498985Y-101507481D01*
X136405853Y-101368100D01*
X136341703Y-101213228D01*
X136309000Y-101048816D01*
X136309000Y-100881184D01*
X136341703Y-100716772D01*
X136405853Y-100561900D01*
X136498985Y-100422519D01*
X136617519Y-100303985D01*
X136756900Y-100210853D01*
X136911772Y-100146703D01*
X137076184Y-100114000D01*
X137243816Y-100114000D01*
X137408228Y-100146703D01*
G37*
G36*
X152648228Y-100146703D02*
G01*
X152803100Y-100210853D01*
X152942481Y-100303985D01*
X153061015Y-100422519D01*
X153154147Y-100561900D01*
X153218297Y-100716772D01*
X153251000Y-100881184D01*
X153251000Y-101048816D01*
X153218297Y-101213228D01*
X153154147Y-101368100D01*
X153061015Y-101507481D01*
X152942481Y-101626015D01*
X152803100Y-101719147D01*
X152648228Y-101783297D01*
X152483816Y-101816000D01*
X152316184Y-101816000D01*
X152151772Y-101783297D01*
X151996900Y-101719147D01*
X151857519Y-101626015D01*
X151738985Y-101507481D01*
X151645853Y-101368100D01*
X151581703Y-101213228D01*
X151549000Y-101048816D01*
X151549000Y-100881184D01*
X151581703Y-100716772D01*
X151645853Y-100561900D01*
X151738985Y-100422519D01*
X151857519Y-100303985D01*
X151996900Y-100210853D01*
X152151772Y-100146703D01*
X152316184Y-100114000D01*
X152483816Y-100114000D01*
X152648228Y-100146703D01*
G37*
G36*
X163424267Y-100209205D02*
G01*
X163567309Y-100268455D01*
X163567311Y-100268456D01*
X163696046Y-100354474D01*
X163805526Y-100463954D01*
X163838496Y-100513297D01*
X163891545Y-100592691D01*
X163950795Y-100735733D01*
X163981000Y-100887584D01*
X163981000Y-101042416D01*
X163950795Y-101194267D01*
X163891545Y-101337309D01*
X163891544Y-101337311D01*
X163805526Y-101466046D01*
X163696046Y-101575526D01*
X163567311Y-101661544D01*
X163567310Y-101661545D01*
X163567309Y-101661545D01*
X163424267Y-101720795D01*
X163272416Y-101751000D01*
X163117584Y-101751000D01*
X162965733Y-101720795D01*
X162822691Y-101661545D01*
X162822690Y-101661545D01*
X162822689Y-101661544D01*
X162693954Y-101575526D01*
X162584474Y-101466046D01*
X162498456Y-101337311D01*
X162498455Y-101337309D01*
X162439205Y-101194267D01*
X162409000Y-101042416D01*
X162409000Y-100887584D01*
X162439205Y-100735733D01*
X162498455Y-100592691D01*
X162551504Y-100513297D01*
X162584474Y-100463954D01*
X162693954Y-100354474D01*
X162822689Y-100268456D01*
X162822691Y-100268455D01*
X162965733Y-100209205D01*
X163117584Y-100179000D01*
X163272416Y-100179000D01*
X163424267Y-100209205D01*
G37*
G36*
X149648228Y-98876703D02*
G01*
X149803100Y-98940853D01*
X149942481Y-99033985D01*
X150061015Y-99152519D01*
X150154147Y-99291900D01*
X150218297Y-99446772D01*
X150251000Y-99611184D01*
X150251000Y-99778816D01*
X150218297Y-99943228D01*
X150154147Y-100098100D01*
X150061015Y-100237481D01*
X149942481Y-100356015D01*
X149803100Y-100449147D01*
X149648228Y-100513297D01*
X149483816Y-100546000D01*
X149316184Y-100546000D01*
X149151772Y-100513297D01*
X148996900Y-100449147D01*
X148857519Y-100356015D01*
X148738985Y-100237481D01*
X148645853Y-100098100D01*
X148581703Y-99943228D01*
X148549000Y-99778816D01*
X148549000Y-99611184D01*
X148581703Y-99446772D01*
X148645853Y-99291900D01*
X148738985Y-99152519D01*
X148857519Y-99033985D01*
X148996900Y-98940853D01*
X149151772Y-98876703D01*
X149316184Y-98844000D01*
X149483816Y-98844000D01*
X149648228Y-98876703D01*
G37*
G36*
X128836000Y-99861000D02*
G01*
X126434000Y-99861000D01*
X126434000Y-98259000D01*
X128836000Y-98259000D01*
X128836000Y-99861000D01*
G37*
G36*
X139948228Y-97606703D02*
G01*
X140103100Y-97670853D01*
X140242481Y-97763985D01*
X140361015Y-97882519D01*
X140454147Y-98021900D01*
X140518297Y-98176772D01*
X140551000Y-98341184D01*
X140551000Y-98508816D01*
X140518297Y-98673228D01*
X140454147Y-98828100D01*
X140361015Y-98967481D01*
X140242481Y-99086015D01*
X140103100Y-99179147D01*
X139948228Y-99243297D01*
X139783816Y-99276000D01*
X139616184Y-99276000D01*
X139451772Y-99243297D01*
X139296900Y-99179147D01*
X139157519Y-99086015D01*
X139038985Y-98967481D01*
X138945853Y-98828100D01*
X138881703Y-98673228D01*
X138849000Y-98508816D01*
X138849000Y-98341184D01*
X138881703Y-98176772D01*
X138945853Y-98021900D01*
X139038985Y-97882519D01*
X139157519Y-97763985D01*
X139296900Y-97670853D01*
X139451772Y-97606703D01*
X139616184Y-97574000D01*
X139783816Y-97574000D01*
X139948228Y-97606703D01*
G37*
G36*
X137408228Y-97606703D02*
G01*
X137563100Y-97670853D01*
X137702481Y-97763985D01*
X137821015Y-97882519D01*
X137914147Y-98021900D01*
X137978297Y-98176772D01*
X138011000Y-98341184D01*
X138011000Y-98508816D01*
X137978297Y-98673228D01*
X137914147Y-98828100D01*
X137821015Y-98967481D01*
X137702481Y-99086015D01*
X137563100Y-99179147D01*
X137408228Y-99243297D01*
X137243816Y-99276000D01*
X137076184Y-99276000D01*
X136911772Y-99243297D01*
X136756900Y-99179147D01*
X136617519Y-99086015D01*
X136498985Y-98967481D01*
X136405853Y-98828100D01*
X136341703Y-98673228D01*
X136309000Y-98508816D01*
X136309000Y-98341184D01*
X136341703Y-98176772D01*
X136405853Y-98021900D01*
X136498985Y-97882519D01*
X136617519Y-97763985D01*
X136756900Y-97670853D01*
X136911772Y-97606703D01*
X137076184Y-97574000D01*
X137243816Y-97574000D01*
X137408228Y-97606703D01*
G37*
G36*
X152648228Y-97606703D02*
G01*
X152803100Y-97670853D01*
X152942481Y-97763985D01*
X153061015Y-97882519D01*
X153154147Y-98021900D01*
X153218297Y-98176772D01*
X153251000Y-98341184D01*
X153251000Y-98508816D01*
X153218297Y-98673228D01*
X153154147Y-98828100D01*
X153061015Y-98967481D01*
X152942481Y-99086015D01*
X152803100Y-99179147D01*
X152648228Y-99243297D01*
X152483816Y-99276000D01*
X152316184Y-99276000D01*
X152151772Y-99243297D01*
X151996900Y-99179147D01*
X151857519Y-99086015D01*
X151738985Y-98967481D01*
X151645853Y-98828100D01*
X151581703Y-98673228D01*
X151549000Y-98508816D01*
X151549000Y-98341184D01*
X151581703Y-98176772D01*
X151645853Y-98021900D01*
X151738985Y-97882519D01*
X151857519Y-97763985D01*
X151996900Y-97670853D01*
X152151772Y-97606703D01*
X152316184Y-97574000D01*
X152483816Y-97574000D01*
X152648228Y-97606703D01*
G37*
G36*
X186284267Y-97669205D02*
G01*
X186427309Y-97728455D01*
X186427311Y-97728456D01*
X186556046Y-97814474D01*
X186665526Y-97923954D01*
X186698496Y-97973297D01*
X186751545Y-98052691D01*
X186810795Y-98195733D01*
X186841000Y-98347584D01*
X186841000Y-98502416D01*
X186810795Y-98654267D01*
X186762914Y-98769862D01*
X186751544Y-98797311D01*
X186665526Y-98926046D01*
X186556046Y-99035526D01*
X186427311Y-99121544D01*
X186427310Y-99121545D01*
X186427309Y-99121545D01*
X186284267Y-99180795D01*
X186132416Y-99211000D01*
X185977584Y-99211000D01*
X185825733Y-99180795D01*
X185682691Y-99121545D01*
X185682690Y-99121545D01*
X185682689Y-99121544D01*
X185553954Y-99035526D01*
X185444474Y-98926046D01*
X185358456Y-98797311D01*
X185347086Y-98769862D01*
X185299205Y-98654267D01*
X185269000Y-98502416D01*
X185269000Y-98347584D01*
X185299205Y-98195733D01*
X185358455Y-98052691D01*
X185411504Y-97973297D01*
X185444474Y-97923954D01*
X185553954Y-97814474D01*
X185682689Y-97728456D01*
X185682691Y-97728455D01*
X185825733Y-97669205D01*
X185977584Y-97639000D01*
X186132416Y-97639000D01*
X186284267Y-97669205D01*
G37*
G36*
X163424267Y-97669205D02*
G01*
X163567309Y-97728455D01*
X163567311Y-97728456D01*
X163696046Y-97814474D01*
X163805526Y-97923954D01*
X163838496Y-97973297D01*
X163891545Y-98052691D01*
X163950795Y-98195733D01*
X163981000Y-98347584D01*
X163981000Y-98502416D01*
X163950795Y-98654267D01*
X163902914Y-98769862D01*
X163891544Y-98797311D01*
X163805526Y-98926046D01*
X163696046Y-99035526D01*
X163567311Y-99121544D01*
X163567310Y-99121545D01*
X163567309Y-99121545D01*
X163424267Y-99180795D01*
X163272416Y-99211000D01*
X163117584Y-99211000D01*
X162965733Y-99180795D01*
X162822691Y-99121545D01*
X162822690Y-99121545D01*
X162822689Y-99121544D01*
X162693954Y-99035526D01*
X162584474Y-98926046D01*
X162498456Y-98797311D01*
X162487086Y-98769862D01*
X162439205Y-98654267D01*
X162409000Y-98502416D01*
X162409000Y-98347584D01*
X162439205Y-98195733D01*
X162498455Y-98052691D01*
X162551504Y-97973297D01*
X162584474Y-97923954D01*
X162693954Y-97814474D01*
X162822689Y-97728456D01*
X162822691Y-97728455D01*
X162965733Y-97669205D01*
X163117584Y-97639000D01*
X163272416Y-97639000D01*
X163424267Y-97669205D01*
G37*
G36*
X193110997Y-95358051D02*
G01*
X193144652Y-95368261D01*
X193175665Y-95384838D01*
X193202851Y-95407149D01*
X193225162Y-95434335D01*
X193241739Y-95465348D01*
X193251949Y-95499003D01*
X193256000Y-95540138D01*
X193256000Y-98769862D01*
X193251949Y-98810997D01*
X193241739Y-98844652D01*
X193225162Y-98875665D01*
X193202851Y-98902851D01*
X193175665Y-98925162D01*
X193144652Y-98941739D01*
X193110997Y-98951949D01*
X193069862Y-98956000D01*
X191740138Y-98956000D01*
X191699003Y-98951949D01*
X191665348Y-98941739D01*
X191634335Y-98925162D01*
X191607149Y-98902851D01*
X191584838Y-98875665D01*
X191568261Y-98844652D01*
X191558051Y-98810997D01*
X191554000Y-98769862D01*
X191554000Y-95540138D01*
X191558051Y-95499003D01*
X191568261Y-95465348D01*
X191584838Y-95434335D01*
X191607149Y-95407149D01*
X191634335Y-95384838D01*
X191665348Y-95368261D01*
X191699003Y-95358051D01*
X191740138Y-95354000D01*
X193069862Y-95354000D01*
X193110997Y-95358051D01*
G37*
G36*
X149648228Y-96336703D02*
G01*
X149803100Y-96400853D01*
X149942481Y-96493985D01*
X150061015Y-96612519D01*
X150154147Y-96751900D01*
X150218297Y-96906772D01*
X150251000Y-97071184D01*
X150251000Y-97238816D01*
X150218297Y-97403228D01*
X150154147Y-97558100D01*
X150061015Y-97697481D01*
X149942481Y-97816015D01*
X149803100Y-97909147D01*
X149648228Y-97973297D01*
X149483816Y-98006000D01*
X149316184Y-98006000D01*
X149151772Y-97973297D01*
X148996900Y-97909147D01*
X148857519Y-97816015D01*
X148738985Y-97697481D01*
X148645853Y-97558100D01*
X148581703Y-97403228D01*
X148549000Y-97238816D01*
X148549000Y-97071184D01*
X148581703Y-96906772D01*
X148645853Y-96751900D01*
X148738985Y-96612519D01*
X148857519Y-96493985D01*
X148996900Y-96400853D01*
X149151772Y-96336703D01*
X149316184Y-96304000D01*
X149483816Y-96304000D01*
X149648228Y-96336703D01*
G37*
G36*
X152648228Y-95066703D02*
G01*
X152803100Y-95130853D01*
X152942481Y-95223985D01*
X153061015Y-95342519D01*
X153154147Y-95481900D01*
X153218297Y-95636772D01*
X153251000Y-95801184D01*
X153251000Y-95968816D01*
X153218297Y-96133228D01*
X153154147Y-96288100D01*
X153061015Y-96427481D01*
X152942481Y-96546015D01*
X152803100Y-96639147D01*
X152648228Y-96703297D01*
X152483816Y-96736000D01*
X152316184Y-96736000D01*
X152151772Y-96703297D01*
X151996900Y-96639147D01*
X151857519Y-96546015D01*
X151738985Y-96427481D01*
X151645853Y-96288100D01*
X151581703Y-96133228D01*
X151549000Y-95968816D01*
X151549000Y-95801184D01*
X151581703Y-95636772D01*
X151645853Y-95481900D01*
X151738985Y-95342519D01*
X151857519Y-95223985D01*
X151996900Y-95130853D01*
X152151772Y-95066703D01*
X152316184Y-95034000D01*
X152483816Y-95034000D01*
X152648228Y-95066703D01*
G37*
G36*
X137408228Y-95066703D02*
G01*
X137563100Y-95130853D01*
X137702481Y-95223985D01*
X137821015Y-95342519D01*
X137914147Y-95481900D01*
X137978297Y-95636772D01*
X138011000Y-95801184D01*
X138011000Y-95968816D01*
X137978297Y-96133228D01*
X137914147Y-96288100D01*
X137821015Y-96427481D01*
X137702481Y-96546015D01*
X137563100Y-96639147D01*
X137408228Y-96703297D01*
X137243816Y-96736000D01*
X137076184Y-96736000D01*
X136911772Y-96703297D01*
X136756900Y-96639147D01*
X136617519Y-96546015D01*
X136498985Y-96427481D01*
X136405853Y-96288100D01*
X136341703Y-96133228D01*
X136309000Y-95968816D01*
X136309000Y-95801184D01*
X136341703Y-95636772D01*
X136405853Y-95481900D01*
X136498985Y-95342519D01*
X136617519Y-95223985D01*
X136756900Y-95130853D01*
X136911772Y-95066703D01*
X137076184Y-95034000D01*
X137243816Y-95034000D01*
X137408228Y-95066703D01*
G37*
G36*
X139948228Y-95066703D02*
G01*
X140103100Y-95130853D01*
X140242481Y-95223985D01*
X140361015Y-95342519D01*
X140454147Y-95481900D01*
X140518297Y-95636772D01*
X140551000Y-95801184D01*
X140551000Y-95968816D01*
X140518297Y-96133228D01*
X140454147Y-96288100D01*
X140361015Y-96427481D01*
X140242481Y-96546015D01*
X140103100Y-96639147D01*
X139948228Y-96703297D01*
X139783816Y-96736000D01*
X139616184Y-96736000D01*
X139451772Y-96703297D01*
X139296900Y-96639147D01*
X139157519Y-96546015D01*
X139038985Y-96427481D01*
X138945853Y-96288100D01*
X138881703Y-96133228D01*
X138849000Y-95968816D01*
X138849000Y-95801184D01*
X138881703Y-95636772D01*
X138945853Y-95481900D01*
X139038985Y-95342519D01*
X139157519Y-95223985D01*
X139296900Y-95130853D01*
X139451772Y-95066703D01*
X139616184Y-95034000D01*
X139783816Y-95034000D01*
X139948228Y-95066703D01*
G37*
G36*
X163424267Y-95129205D02*
G01*
X163567309Y-95188455D01*
X163567311Y-95188456D01*
X163696046Y-95274474D01*
X163805526Y-95383954D01*
X163860347Y-95466000D01*
X163891545Y-95512691D01*
X163950795Y-95655733D01*
X163981000Y-95807584D01*
X163981000Y-95962416D01*
X163950795Y-96114267D01*
X163891545Y-96257309D01*
X163891544Y-96257311D01*
X163805526Y-96386046D01*
X163696046Y-96495526D01*
X163567311Y-96581544D01*
X163567310Y-96581545D01*
X163567309Y-96581545D01*
X163424267Y-96640795D01*
X163272416Y-96671000D01*
X163117584Y-96671000D01*
X162965733Y-96640795D01*
X162822691Y-96581545D01*
X162822690Y-96581545D01*
X162822689Y-96581544D01*
X162693954Y-96495526D01*
X162584474Y-96386046D01*
X162498456Y-96257311D01*
X162498455Y-96257309D01*
X162439205Y-96114267D01*
X162409000Y-95962416D01*
X162409000Y-95807584D01*
X162439205Y-95655733D01*
X162498455Y-95512691D01*
X162529653Y-95466000D01*
X162584474Y-95383954D01*
X162693954Y-95274474D01*
X162822689Y-95188456D01*
X162822691Y-95188455D01*
X162965733Y-95129205D01*
X163117584Y-95099000D01*
X163272416Y-95099000D01*
X163424267Y-95129205D01*
G37*
G36*
X186284267Y-95129205D02*
G01*
X186427309Y-95188455D01*
X186427311Y-95188456D01*
X186556046Y-95274474D01*
X186665526Y-95383954D01*
X186720347Y-95466000D01*
X186751545Y-95512691D01*
X186810795Y-95655733D01*
X186841000Y-95807584D01*
X186841000Y-95962416D01*
X186810795Y-96114267D01*
X186751545Y-96257309D01*
X186751544Y-96257311D01*
X186665526Y-96386046D01*
X186556046Y-96495526D01*
X186427311Y-96581544D01*
X186427310Y-96581545D01*
X186427309Y-96581545D01*
X186284267Y-96640795D01*
X186132416Y-96671000D01*
X185977584Y-96671000D01*
X185825733Y-96640795D01*
X185682691Y-96581545D01*
X185682690Y-96581545D01*
X185682689Y-96581544D01*
X185553954Y-96495526D01*
X185444474Y-96386046D01*
X185358456Y-96257311D01*
X185358455Y-96257309D01*
X185299205Y-96114267D01*
X185269000Y-95962416D01*
X185269000Y-95807584D01*
X185299205Y-95655733D01*
X185358455Y-95512691D01*
X185389653Y-95466000D01*
X185444474Y-95383954D01*
X185553954Y-95274474D01*
X185682689Y-95188456D01*
X185682691Y-95188455D01*
X185825733Y-95129205D01*
X185977584Y-95099000D01*
X186132416Y-95099000D01*
X186284267Y-95129205D01*
G37*
G36*
X149648228Y-93796703D02*
G01*
X149803100Y-93860853D01*
X149942481Y-93953985D01*
X150061015Y-94072519D01*
X150154147Y-94211900D01*
X150218297Y-94366772D01*
X150251000Y-94531184D01*
X150251000Y-94698816D01*
X150218297Y-94863228D01*
X150154147Y-95018100D01*
X150061015Y-95157481D01*
X149942481Y-95276015D01*
X149803100Y-95369147D01*
X149648228Y-95433297D01*
X149483816Y-95466000D01*
X149316184Y-95466000D01*
X149151772Y-95433297D01*
X148996900Y-95369147D01*
X148857519Y-95276015D01*
X148738985Y-95157481D01*
X148645853Y-95018100D01*
X148581703Y-94863228D01*
X148549000Y-94698816D01*
X148549000Y-94531184D01*
X148581703Y-94366772D01*
X148645853Y-94211900D01*
X148738985Y-94072519D01*
X148857519Y-93953985D01*
X148996900Y-93860853D01*
X149151772Y-93796703D01*
X149316184Y-93764000D01*
X149483816Y-93764000D01*
X149648228Y-93796703D01*
G37*
G36*
X193110997Y-91073051D02*
G01*
X193144652Y-91083261D01*
X193175665Y-91099838D01*
X193202851Y-91122149D01*
X193225162Y-91149335D01*
X193241739Y-91180348D01*
X193251949Y-91214003D01*
X193256000Y-91255138D01*
X193256000Y-94484862D01*
X193251949Y-94525997D01*
X193241739Y-94559652D01*
X193225162Y-94590665D01*
X193202851Y-94617851D01*
X193175665Y-94640162D01*
X193144652Y-94656739D01*
X193110997Y-94666949D01*
X193069862Y-94671000D01*
X191740138Y-94671000D01*
X191699003Y-94666949D01*
X191665348Y-94656739D01*
X191634335Y-94640162D01*
X191607149Y-94617851D01*
X191584838Y-94590665D01*
X191568261Y-94559652D01*
X191558051Y-94525997D01*
X191554000Y-94484862D01*
X191554000Y-91255138D01*
X191558051Y-91214003D01*
X191568261Y-91180348D01*
X191584838Y-91149335D01*
X191607149Y-91122149D01*
X191634335Y-91099838D01*
X191665348Y-91083261D01*
X191699003Y-91073051D01*
X191740138Y-91069000D01*
X193069862Y-91069000D01*
X193110997Y-91073051D01*
G37*
G36*
X152648228Y-92526703D02*
G01*
X152803100Y-92590853D01*
X152942481Y-92683985D01*
X153061015Y-92802519D01*
X153154147Y-92941900D01*
X153218297Y-93096772D01*
X153251000Y-93261184D01*
X153251000Y-93428816D01*
X153218297Y-93593228D01*
X153154147Y-93748100D01*
X153061015Y-93887481D01*
X152942481Y-94006015D01*
X152803100Y-94099147D01*
X152648228Y-94163297D01*
X152483816Y-94196000D01*
X152316184Y-94196000D01*
X152151772Y-94163297D01*
X151996900Y-94099147D01*
X151857519Y-94006015D01*
X151738985Y-93887481D01*
X151645853Y-93748100D01*
X151581703Y-93593228D01*
X151549000Y-93428816D01*
X151549000Y-93261184D01*
X151581703Y-93096772D01*
X151645853Y-92941900D01*
X151738985Y-92802519D01*
X151857519Y-92683985D01*
X151996900Y-92590853D01*
X152151772Y-92526703D01*
X152316184Y-92494000D01*
X152483816Y-92494000D01*
X152648228Y-92526703D01*
G37*
G36*
X137408228Y-92526703D02*
G01*
X137563100Y-92590853D01*
X137702481Y-92683985D01*
X137821015Y-92802519D01*
X137914147Y-92941900D01*
X137978297Y-93096772D01*
X138011000Y-93261184D01*
X138011000Y-93428816D01*
X137978297Y-93593228D01*
X137914147Y-93748100D01*
X137821015Y-93887481D01*
X137702481Y-94006015D01*
X137563100Y-94099147D01*
X137408228Y-94163297D01*
X137243816Y-94196000D01*
X137076184Y-94196000D01*
X136911772Y-94163297D01*
X136756900Y-94099147D01*
X136617519Y-94006015D01*
X136498985Y-93887481D01*
X136405853Y-93748100D01*
X136341703Y-93593228D01*
X136309000Y-93428816D01*
X136309000Y-93261184D01*
X136341703Y-93096772D01*
X136405853Y-92941900D01*
X136498985Y-92802519D01*
X136617519Y-92683985D01*
X136756900Y-92590853D01*
X136911772Y-92526703D01*
X137076184Y-92494000D01*
X137243816Y-92494000D01*
X137408228Y-92526703D01*
G37*
G36*
X139948228Y-92526703D02*
G01*
X140103100Y-92590853D01*
X140242481Y-92683985D01*
X140361015Y-92802519D01*
X140454147Y-92941900D01*
X140518297Y-93096772D01*
X140551000Y-93261184D01*
X140551000Y-93428816D01*
X140518297Y-93593228D01*
X140454147Y-93748100D01*
X140361015Y-93887481D01*
X140242481Y-94006015D01*
X140103100Y-94099147D01*
X139948228Y-94163297D01*
X139783816Y-94196000D01*
X139616184Y-94196000D01*
X139451772Y-94163297D01*
X139296900Y-94099147D01*
X139157519Y-94006015D01*
X139038985Y-93887481D01*
X138945853Y-93748100D01*
X138881703Y-93593228D01*
X138849000Y-93428816D01*
X138849000Y-93261184D01*
X138881703Y-93096772D01*
X138945853Y-92941900D01*
X139038985Y-92802519D01*
X139157519Y-92683985D01*
X139296900Y-92590853D01*
X139451772Y-92526703D01*
X139616184Y-92494000D01*
X139783816Y-92494000D01*
X139948228Y-92526703D01*
G37*
G36*
X186284267Y-92589205D02*
G01*
X186427309Y-92648455D01*
X186427311Y-92648456D01*
X186556046Y-92734474D01*
X186665526Y-92843954D01*
X186698496Y-92893297D01*
X186751545Y-92972691D01*
X186810795Y-93115733D01*
X186841000Y-93267584D01*
X186841000Y-93422416D01*
X186810795Y-93574267D01*
X186751545Y-93717309D01*
X186751544Y-93717311D01*
X186665526Y-93846046D01*
X186556046Y-93955526D01*
X186427311Y-94041544D01*
X186427310Y-94041545D01*
X186427309Y-94041545D01*
X186284267Y-94100795D01*
X186132416Y-94131000D01*
X185977584Y-94131000D01*
X185825733Y-94100795D01*
X185682691Y-94041545D01*
X185682690Y-94041545D01*
X185682689Y-94041544D01*
X185553954Y-93955526D01*
X185444474Y-93846046D01*
X185358456Y-93717311D01*
X185358455Y-93717309D01*
X185299205Y-93574267D01*
X185269000Y-93422416D01*
X185269000Y-93267584D01*
X185299205Y-93115733D01*
X185358455Y-92972691D01*
X185411504Y-92893297D01*
X185444474Y-92843954D01*
X185553954Y-92734474D01*
X185682689Y-92648456D01*
X185682691Y-92648455D01*
X185825733Y-92589205D01*
X185977584Y-92559000D01*
X186132416Y-92559000D01*
X186284267Y-92589205D01*
G37*
G36*
X163424267Y-92589205D02*
G01*
X163567309Y-92648455D01*
X163567311Y-92648456D01*
X163696046Y-92734474D01*
X163805526Y-92843954D01*
X163838496Y-92893297D01*
X163891545Y-92972691D01*
X163950795Y-93115733D01*
X163981000Y-93267584D01*
X163981000Y-93422416D01*
X163950795Y-93574267D01*
X163891545Y-93717309D01*
X163891544Y-93717311D01*
X163805526Y-93846046D01*
X163696046Y-93955526D01*
X163567311Y-94041544D01*
X163567310Y-94041545D01*
X163567309Y-94041545D01*
X163424267Y-94100795D01*
X163272416Y-94131000D01*
X163117584Y-94131000D01*
X162965733Y-94100795D01*
X162822691Y-94041545D01*
X162822690Y-94041545D01*
X162822689Y-94041544D01*
X162693954Y-93955526D01*
X162584474Y-93846046D01*
X162498456Y-93717311D01*
X162498455Y-93717309D01*
X162439205Y-93574267D01*
X162409000Y-93422416D01*
X162409000Y-93267584D01*
X162439205Y-93115733D01*
X162498455Y-92972691D01*
X162551504Y-92893297D01*
X162584474Y-92843954D01*
X162693954Y-92734474D01*
X162822689Y-92648456D01*
X162822691Y-92648455D01*
X162965733Y-92589205D01*
X163117584Y-92559000D01*
X163272416Y-92559000D01*
X163424267Y-92589205D01*
G37*
G36*
X149648228Y-91256703D02*
G01*
X149803100Y-91320853D01*
X149942481Y-91413985D01*
X150061015Y-91532519D01*
X150154147Y-91671900D01*
X150218297Y-91826772D01*
X150251000Y-91991184D01*
X150251000Y-92158816D01*
X150218297Y-92323228D01*
X150154147Y-92478100D01*
X150061015Y-92617481D01*
X149942481Y-92736015D01*
X149803100Y-92829147D01*
X149648228Y-92893297D01*
X149483816Y-92926000D01*
X149316184Y-92926000D01*
X149151772Y-92893297D01*
X148996900Y-92829147D01*
X148857519Y-92736015D01*
X148738985Y-92617481D01*
X148645853Y-92478100D01*
X148581703Y-92323228D01*
X148549000Y-92158816D01*
X148549000Y-91991184D01*
X148581703Y-91826772D01*
X148645853Y-91671900D01*
X148738985Y-91532519D01*
X148857519Y-91413985D01*
X148996900Y-91320853D01*
X149151772Y-91256703D01*
X149316184Y-91224000D01*
X149483816Y-91224000D01*
X149648228Y-91256703D01*
G37*
G36*
X137408228Y-89986703D02*
G01*
X137563100Y-90050853D01*
X137702481Y-90143985D01*
X137821015Y-90262519D01*
X137914147Y-90401900D01*
X137978297Y-90556772D01*
X138011000Y-90721184D01*
X138011000Y-90888816D01*
X137978297Y-91053228D01*
X137914147Y-91208100D01*
X137821015Y-91347481D01*
X137702481Y-91466015D01*
X137563100Y-91559147D01*
X137408228Y-91623297D01*
X137243816Y-91656000D01*
X137076184Y-91656000D01*
X136911772Y-91623297D01*
X136756900Y-91559147D01*
X136617519Y-91466015D01*
X136498985Y-91347481D01*
X136405853Y-91208100D01*
X136341703Y-91053228D01*
X136309000Y-90888816D01*
X136309000Y-90721184D01*
X136341703Y-90556772D01*
X136405853Y-90401900D01*
X136498985Y-90262519D01*
X136617519Y-90143985D01*
X136756900Y-90050853D01*
X136911772Y-89986703D01*
X137076184Y-89954000D01*
X137243816Y-89954000D01*
X137408228Y-89986703D01*
G37*
G36*
X152648228Y-89986703D02*
G01*
X152803100Y-90050853D01*
X152942481Y-90143985D01*
X153061015Y-90262519D01*
X153154147Y-90401900D01*
X153218297Y-90556772D01*
X153251000Y-90721184D01*
X153251000Y-90888816D01*
X153218297Y-91053228D01*
X153154147Y-91208100D01*
X153061015Y-91347481D01*
X152942481Y-91466015D01*
X152803100Y-91559147D01*
X152648228Y-91623297D01*
X152483816Y-91656000D01*
X152316184Y-91656000D01*
X152151772Y-91623297D01*
X151996900Y-91559147D01*
X151857519Y-91466015D01*
X151738985Y-91347481D01*
X151645853Y-91208100D01*
X151581703Y-91053228D01*
X151549000Y-90888816D01*
X151549000Y-90721184D01*
X151581703Y-90556772D01*
X151645853Y-90401900D01*
X151738985Y-90262519D01*
X151857519Y-90143985D01*
X151996900Y-90050853D01*
X152151772Y-89986703D01*
X152316184Y-89954000D01*
X152483816Y-89954000D01*
X152648228Y-89986703D01*
G37*
G36*
X145028228Y-89986703D02*
G01*
X145183100Y-90050853D01*
X145322481Y-90143985D01*
X145441015Y-90262519D01*
X145534147Y-90401900D01*
X145598297Y-90556772D01*
X145631000Y-90721184D01*
X145631000Y-90888816D01*
X145598297Y-91053228D01*
X145534147Y-91208100D01*
X145441015Y-91347481D01*
X145322481Y-91466015D01*
X145183100Y-91559147D01*
X145028228Y-91623297D01*
X144863816Y-91656000D01*
X144696184Y-91656000D01*
X144531772Y-91623297D01*
X144376900Y-91559147D01*
X144237519Y-91466015D01*
X144118985Y-91347481D01*
X144025853Y-91208100D01*
X143961703Y-91053228D01*
X143929000Y-90888816D01*
X143929000Y-90721184D01*
X143961703Y-90556772D01*
X144025853Y-90401900D01*
X144118985Y-90262519D01*
X144237519Y-90143985D01*
X144376900Y-90050853D01*
X144531772Y-89986703D01*
X144696184Y-89954000D01*
X144863816Y-89954000D01*
X145028228Y-89986703D01*
G37*
G36*
X142488228Y-89986703D02*
G01*
X142643100Y-90050853D01*
X142782481Y-90143985D01*
X142901015Y-90262519D01*
X142994147Y-90401900D01*
X143058297Y-90556772D01*
X143091000Y-90721184D01*
X143091000Y-90888816D01*
X143058297Y-91053228D01*
X142994147Y-91208100D01*
X142901015Y-91347481D01*
X142782481Y-91466015D01*
X142643100Y-91559147D01*
X142488228Y-91623297D01*
X142323816Y-91656000D01*
X142156184Y-91656000D01*
X141991772Y-91623297D01*
X141836900Y-91559147D01*
X141697519Y-91466015D01*
X141578985Y-91347481D01*
X141485853Y-91208100D01*
X141421703Y-91053228D01*
X141389000Y-90888816D01*
X141389000Y-90721184D01*
X141421703Y-90556772D01*
X141485853Y-90401900D01*
X141578985Y-90262519D01*
X141697519Y-90143985D01*
X141836900Y-90050853D01*
X141991772Y-89986703D01*
X142156184Y-89954000D01*
X142323816Y-89954000D01*
X142488228Y-89986703D01*
G37*
G36*
X163424267Y-90049205D02*
G01*
X163567309Y-90108455D01*
X163567311Y-90108456D01*
X163696046Y-90194474D01*
X163805526Y-90303954D01*
X163838496Y-90353297D01*
X163891545Y-90432691D01*
X163950795Y-90575733D01*
X163981000Y-90727584D01*
X163981000Y-90882416D01*
X163950795Y-91034267D01*
X163903132Y-91149335D01*
X163891544Y-91177311D01*
X163805526Y-91306046D01*
X163696046Y-91415526D01*
X163567311Y-91501544D01*
X163567310Y-91501545D01*
X163567309Y-91501545D01*
X163424267Y-91560795D01*
X163272416Y-91591000D01*
X163117584Y-91591000D01*
X162965733Y-91560795D01*
X162822691Y-91501545D01*
X162822690Y-91501545D01*
X162822689Y-91501544D01*
X162693954Y-91415526D01*
X162584474Y-91306046D01*
X162498456Y-91177311D01*
X162486868Y-91149335D01*
X162439205Y-91034267D01*
X162409000Y-90882416D01*
X162409000Y-90727584D01*
X162439205Y-90575733D01*
X162498455Y-90432691D01*
X162551504Y-90353297D01*
X162584474Y-90303954D01*
X162693954Y-90194474D01*
X162822689Y-90108456D01*
X162822691Y-90108455D01*
X162965733Y-90049205D01*
X163117584Y-90019000D01*
X163272416Y-90019000D01*
X163424267Y-90049205D01*
G37*
G36*
X186284267Y-90049205D02*
G01*
X186427309Y-90108455D01*
X186427311Y-90108456D01*
X186556046Y-90194474D01*
X186665526Y-90303954D01*
X186698496Y-90353297D01*
X186751545Y-90432691D01*
X186810795Y-90575733D01*
X186841000Y-90727584D01*
X186841000Y-90882416D01*
X186810795Y-91034267D01*
X186763132Y-91149335D01*
X186751544Y-91177311D01*
X186665526Y-91306046D01*
X186556046Y-91415526D01*
X186427311Y-91501544D01*
X186427310Y-91501545D01*
X186427309Y-91501545D01*
X186284267Y-91560795D01*
X186132416Y-91591000D01*
X185977584Y-91591000D01*
X185825733Y-91560795D01*
X185682691Y-91501545D01*
X185682690Y-91501545D01*
X185682689Y-91501544D01*
X185553954Y-91415526D01*
X185444474Y-91306046D01*
X185358456Y-91177311D01*
X185346868Y-91149335D01*
X185299205Y-91034267D01*
X185269000Y-90882416D01*
X185269000Y-90727584D01*
X185299205Y-90575733D01*
X185358455Y-90432691D01*
X185411504Y-90353297D01*
X185444474Y-90303954D01*
X185553954Y-90194474D01*
X185682689Y-90108456D01*
X185682691Y-90108455D01*
X185825733Y-90049205D01*
X185977584Y-90019000D01*
X186132416Y-90019000D01*
X186284267Y-90049205D01*
G37*
G36*
X149648228Y-88716703D02*
G01*
X149803100Y-88780853D01*
X149942481Y-88873985D01*
X150061015Y-88992519D01*
X150154147Y-89131900D01*
X150218297Y-89286772D01*
X150251000Y-89451184D01*
X150251000Y-89618816D01*
X150218297Y-89783228D01*
X150154147Y-89938100D01*
X150061015Y-90077481D01*
X149942481Y-90196015D01*
X149803100Y-90289147D01*
X149648228Y-90353297D01*
X149483816Y-90386000D01*
X149316184Y-90386000D01*
X149151772Y-90353297D01*
X148996900Y-90289147D01*
X148857519Y-90196015D01*
X148738985Y-90077481D01*
X148645853Y-89938100D01*
X148581703Y-89783228D01*
X148549000Y-89618816D01*
X148549000Y-89451184D01*
X148581703Y-89286772D01*
X148645853Y-89131900D01*
X148738985Y-88992519D01*
X148857519Y-88873985D01*
X148996900Y-88780853D01*
X149151772Y-88716703D01*
X149316184Y-88684000D01*
X149483816Y-88684000D01*
X149648228Y-88716703D01*
G37*
G36*
X193110997Y-85673051D02*
G01*
X193144652Y-85683261D01*
X193175665Y-85699838D01*
X193202851Y-85722149D01*
X193225162Y-85749335D01*
X193241739Y-85780348D01*
X193251949Y-85814003D01*
X193256000Y-85855138D01*
X193256000Y-89084862D01*
X193251949Y-89125997D01*
X193241739Y-89159652D01*
X193225162Y-89190665D01*
X193202851Y-89217851D01*
X193175665Y-89240162D01*
X193144652Y-89256739D01*
X193110997Y-89266949D01*
X193069862Y-89271000D01*
X191740138Y-89271000D01*
X191699003Y-89266949D01*
X191665348Y-89256739D01*
X191634335Y-89240162D01*
X191607149Y-89217851D01*
X191584838Y-89190665D01*
X191568261Y-89159652D01*
X191558051Y-89125997D01*
X191554000Y-89084862D01*
X191554000Y-85855138D01*
X191558051Y-85814003D01*
X191568261Y-85780348D01*
X191584838Y-85749335D01*
X191607149Y-85722149D01*
X191634335Y-85699838D01*
X191665348Y-85683261D01*
X191699003Y-85673051D01*
X191740138Y-85669000D01*
X193069862Y-85669000D01*
X193110997Y-85673051D01*
G37*
G36*
X137408228Y-87446703D02*
G01*
X137563100Y-87510853D01*
X137702481Y-87603985D01*
X137821015Y-87722519D01*
X137914147Y-87861900D01*
X137978297Y-88016772D01*
X138011000Y-88181184D01*
X138011000Y-88348816D01*
X137978297Y-88513228D01*
X137914147Y-88668100D01*
X137821015Y-88807481D01*
X137702481Y-88926015D01*
X137563100Y-89019147D01*
X137408228Y-89083297D01*
X137243816Y-89116000D01*
X137076184Y-89116000D01*
X136911772Y-89083297D01*
X136756900Y-89019147D01*
X136617519Y-88926015D01*
X136498985Y-88807481D01*
X136405853Y-88668100D01*
X136341703Y-88513228D01*
X136309000Y-88348816D01*
X136309000Y-88181184D01*
X136341703Y-88016772D01*
X136405853Y-87861900D01*
X136498985Y-87722519D01*
X136617519Y-87603985D01*
X136756900Y-87510853D01*
X136911772Y-87446703D01*
X137076184Y-87414000D01*
X137243816Y-87414000D01*
X137408228Y-87446703D01*
G37*
G36*
X142488228Y-87446703D02*
G01*
X142643100Y-87510853D01*
X142782481Y-87603985D01*
X142901015Y-87722519D01*
X142994147Y-87861900D01*
X143058297Y-88016772D01*
X143091000Y-88181184D01*
X143091000Y-88348816D01*
X143058297Y-88513228D01*
X142994147Y-88668100D01*
X142901015Y-88807481D01*
X142782481Y-88926015D01*
X142643100Y-89019147D01*
X142488228Y-89083297D01*
X142323816Y-89116000D01*
X142156184Y-89116000D01*
X141991772Y-89083297D01*
X141836900Y-89019147D01*
X141697519Y-88926015D01*
X141578985Y-88807481D01*
X141485853Y-88668100D01*
X141421703Y-88513228D01*
X141389000Y-88348816D01*
X141389000Y-88181184D01*
X141421703Y-88016772D01*
X141485853Y-87861900D01*
X141578985Y-87722519D01*
X141697519Y-87603985D01*
X141836900Y-87510853D01*
X141991772Y-87446703D01*
X142156184Y-87414000D01*
X142323816Y-87414000D01*
X142488228Y-87446703D01*
G37*
G36*
X145028228Y-87446703D02*
G01*
X145183100Y-87510853D01*
X145322481Y-87603985D01*
X145441015Y-87722519D01*
X145534147Y-87861900D01*
X145598297Y-88016772D01*
X145631000Y-88181184D01*
X145631000Y-88348816D01*
X145598297Y-88513228D01*
X145534147Y-88668100D01*
X145441015Y-88807481D01*
X145322481Y-88926015D01*
X145183100Y-89019147D01*
X145028228Y-89083297D01*
X144863816Y-89116000D01*
X144696184Y-89116000D01*
X144531772Y-89083297D01*
X144376900Y-89019147D01*
X144237519Y-88926015D01*
X144118985Y-88807481D01*
X144025853Y-88668100D01*
X143961703Y-88513228D01*
X143929000Y-88348816D01*
X143929000Y-88181184D01*
X143961703Y-88016772D01*
X144025853Y-87861900D01*
X144118985Y-87722519D01*
X144237519Y-87603985D01*
X144376900Y-87510853D01*
X144531772Y-87446703D01*
X144696184Y-87414000D01*
X144863816Y-87414000D01*
X145028228Y-87446703D01*
G37*
G36*
X152648228Y-87446703D02*
G01*
X152803100Y-87510853D01*
X152942481Y-87603985D01*
X153061015Y-87722519D01*
X153154147Y-87861900D01*
X153218297Y-88016772D01*
X153251000Y-88181184D01*
X153251000Y-88348816D01*
X153218297Y-88513228D01*
X153154147Y-88668100D01*
X153061015Y-88807481D01*
X152942481Y-88926015D01*
X152803100Y-89019147D01*
X152648228Y-89083297D01*
X152483816Y-89116000D01*
X152316184Y-89116000D01*
X152151772Y-89083297D01*
X151996900Y-89019147D01*
X151857519Y-88926015D01*
X151738985Y-88807481D01*
X151645853Y-88668100D01*
X151581703Y-88513228D01*
X151549000Y-88348816D01*
X151549000Y-88181184D01*
X151581703Y-88016772D01*
X151645853Y-87861900D01*
X151738985Y-87722519D01*
X151857519Y-87603985D01*
X151996900Y-87510853D01*
X152151772Y-87446703D01*
X152316184Y-87414000D01*
X152483816Y-87414000D01*
X152648228Y-87446703D01*
G37*
G36*
X163424267Y-87509205D02*
G01*
X163567309Y-87568455D01*
X163567311Y-87568456D01*
X163696046Y-87654474D01*
X163805526Y-87763954D01*
X163805527Y-87763956D01*
X163891545Y-87892691D01*
X163950795Y-88035733D01*
X163981000Y-88187584D01*
X163981000Y-88342416D01*
X163950795Y-88494267D01*
X163891545Y-88637309D01*
X163891544Y-88637311D01*
X163805526Y-88766046D01*
X163696046Y-88875526D01*
X163567311Y-88961544D01*
X163567310Y-88961545D01*
X163567309Y-88961545D01*
X163424267Y-89020795D01*
X163272416Y-89051000D01*
X163117584Y-89051000D01*
X162965733Y-89020795D01*
X162822691Y-88961545D01*
X162822690Y-88961545D01*
X162822689Y-88961544D01*
X162693954Y-88875526D01*
X162584474Y-88766046D01*
X162498456Y-88637311D01*
X162498455Y-88637309D01*
X162439205Y-88494267D01*
X162409000Y-88342416D01*
X162409000Y-88187584D01*
X162439205Y-88035733D01*
X162498455Y-87892691D01*
X162584473Y-87763956D01*
X162584474Y-87763954D01*
X162693954Y-87654474D01*
X162822689Y-87568456D01*
X162822691Y-87568455D01*
X162965733Y-87509205D01*
X163117584Y-87479000D01*
X163272416Y-87479000D01*
X163424267Y-87509205D01*
G37*
G36*
X145028228Y-84906703D02*
G01*
X145183100Y-84970853D01*
X145322481Y-85063985D01*
X145441015Y-85182519D01*
X145534147Y-85321900D01*
X145598297Y-85476772D01*
X145631000Y-85641184D01*
X145631000Y-85808816D01*
X145598297Y-85973228D01*
X145534147Y-86128100D01*
X145441015Y-86267481D01*
X145322481Y-86386015D01*
X145183100Y-86479147D01*
X145028228Y-86543297D01*
X144863816Y-86576000D01*
X144696184Y-86576000D01*
X144531772Y-86543297D01*
X144376900Y-86479147D01*
X144237519Y-86386015D01*
X144118985Y-86267481D01*
X144025853Y-86128100D01*
X143961703Y-85973228D01*
X143929000Y-85808816D01*
X143929000Y-85641184D01*
X143961703Y-85476772D01*
X144025853Y-85321900D01*
X144118985Y-85182519D01*
X144237519Y-85063985D01*
X144376900Y-84970853D01*
X144531772Y-84906703D01*
X144696184Y-84874000D01*
X144863816Y-84874000D01*
X145028228Y-84906703D01*
G37*
G36*
X137408228Y-84906703D02*
G01*
X137563100Y-84970853D01*
X137702481Y-85063985D01*
X137821015Y-85182519D01*
X137914147Y-85321900D01*
X137978297Y-85476772D01*
X138011000Y-85641184D01*
X138011000Y-85808816D01*
X137978297Y-85973228D01*
X137914147Y-86128100D01*
X137821015Y-86267481D01*
X137702481Y-86386015D01*
X137563100Y-86479147D01*
X137408228Y-86543297D01*
X137243816Y-86576000D01*
X137076184Y-86576000D01*
X136911772Y-86543297D01*
X136756900Y-86479147D01*
X136617519Y-86386015D01*
X136498985Y-86267481D01*
X136405853Y-86128100D01*
X136341703Y-85973228D01*
X136309000Y-85808816D01*
X136309000Y-85641184D01*
X136341703Y-85476772D01*
X136405853Y-85321900D01*
X136498985Y-85182519D01*
X136617519Y-85063985D01*
X136756900Y-84970853D01*
X136911772Y-84906703D01*
X137076184Y-84874000D01*
X137243816Y-84874000D01*
X137408228Y-84906703D01*
G37*
G36*
X152648228Y-84906703D02*
G01*
X152803100Y-84970853D01*
X152942481Y-85063985D01*
X153061015Y-85182519D01*
X153154147Y-85321900D01*
X153218297Y-85476772D01*
X153251000Y-85641184D01*
X153251000Y-85808816D01*
X153218297Y-85973228D01*
X153154147Y-86128100D01*
X153061015Y-86267481D01*
X152942481Y-86386015D01*
X152803100Y-86479147D01*
X152648228Y-86543297D01*
X152483816Y-86576000D01*
X152316184Y-86576000D01*
X152151772Y-86543297D01*
X151996900Y-86479147D01*
X151857519Y-86386015D01*
X151738985Y-86267481D01*
X151645853Y-86128100D01*
X151581703Y-85973228D01*
X151549000Y-85808816D01*
X151549000Y-85641184D01*
X151581703Y-85476772D01*
X151645853Y-85321900D01*
X151738985Y-85182519D01*
X151857519Y-85063985D01*
X151996900Y-84970853D01*
X152151772Y-84906703D01*
X152316184Y-84874000D01*
X152483816Y-84874000D01*
X152648228Y-84906703D01*
G37*
G36*
X142488228Y-84906703D02*
G01*
X142643100Y-84970853D01*
X142782481Y-85063985D01*
X142901015Y-85182519D01*
X142994147Y-85321900D01*
X143058297Y-85476772D01*
X143091000Y-85641184D01*
X143091000Y-85808816D01*
X143058297Y-85973228D01*
X142994147Y-86128100D01*
X142901015Y-86267481D01*
X142782481Y-86386015D01*
X142643100Y-86479147D01*
X142488228Y-86543297D01*
X142323816Y-86576000D01*
X142156184Y-86576000D01*
X141991772Y-86543297D01*
X141836900Y-86479147D01*
X141697519Y-86386015D01*
X141578985Y-86267481D01*
X141485853Y-86128100D01*
X141421703Y-85973228D01*
X141389000Y-85808816D01*
X141389000Y-85641184D01*
X141421703Y-85476772D01*
X141485853Y-85321900D01*
X141578985Y-85182519D01*
X141697519Y-85063985D01*
X141836900Y-84970853D01*
X141991772Y-84906703D01*
X142156184Y-84874000D01*
X142323816Y-84874000D01*
X142488228Y-84906703D01*
G37*
G36*
X186284267Y-84969205D02*
G01*
X186427309Y-85028455D01*
X186427311Y-85028456D01*
X186556046Y-85114474D01*
X186665526Y-85223954D01*
X186665527Y-85223956D01*
X186751545Y-85352691D01*
X186810795Y-85495733D01*
X186841000Y-85647584D01*
X186841000Y-85802416D01*
X186810795Y-85954267D01*
X186751545Y-86097309D01*
X186751544Y-86097311D01*
X186665526Y-86226046D01*
X186556046Y-86335526D01*
X186427311Y-86421544D01*
X186427310Y-86421545D01*
X186427309Y-86421545D01*
X186284267Y-86480795D01*
X186132416Y-86511000D01*
X185977584Y-86511000D01*
X185825733Y-86480795D01*
X185682691Y-86421545D01*
X185682690Y-86421545D01*
X185682689Y-86421544D01*
X185553954Y-86335526D01*
X185444474Y-86226046D01*
X185358456Y-86097311D01*
X185358455Y-86097309D01*
X185299205Y-85954267D01*
X185269000Y-85802416D01*
X185269000Y-85647584D01*
X185299205Y-85495733D01*
X185358455Y-85352691D01*
X185444473Y-85223956D01*
X185444474Y-85223954D01*
X185553954Y-85114474D01*
X185682689Y-85028456D01*
X185682691Y-85028455D01*
X185825733Y-84969205D01*
X185977584Y-84939000D01*
X186132416Y-84939000D01*
X186284267Y-84969205D01*
G37*
G36*
X163424267Y-84969205D02*
G01*
X163567309Y-85028455D01*
X163567311Y-85028456D01*
X163696046Y-85114474D01*
X163805526Y-85223954D01*
X163805527Y-85223956D01*
X163891545Y-85352691D01*
X163950795Y-85495733D01*
X163981000Y-85647584D01*
X163981000Y-85802416D01*
X163950795Y-85954267D01*
X163891545Y-86097309D01*
X163891544Y-86097311D01*
X163805526Y-86226046D01*
X163696046Y-86335526D01*
X163567311Y-86421544D01*
X163567310Y-86421545D01*
X163567309Y-86421545D01*
X163424267Y-86480795D01*
X163272416Y-86511000D01*
X163117584Y-86511000D01*
X162965733Y-86480795D01*
X162822691Y-86421545D01*
X162822690Y-86421545D01*
X162822689Y-86421544D01*
X162693954Y-86335526D01*
X162584474Y-86226046D01*
X162498456Y-86097311D01*
X162498455Y-86097309D01*
X162439205Y-85954267D01*
X162409000Y-85802416D01*
X162409000Y-85647584D01*
X162439205Y-85495733D01*
X162498455Y-85352691D01*
X162584473Y-85223956D01*
X162584474Y-85223954D01*
X162693954Y-85114474D01*
X162822689Y-85028456D01*
X162822691Y-85028455D01*
X162965733Y-84969205D01*
X163117584Y-84939000D01*
X163272416Y-84939000D01*
X163424267Y-84969205D01*
G37*
G36*
X152648228Y-82366703D02*
G01*
X152803100Y-82430853D01*
X152942481Y-82523985D01*
X153061015Y-82642519D01*
X153154147Y-82781900D01*
X153218297Y-82936772D01*
X153251000Y-83101184D01*
X153251000Y-83268816D01*
X153218297Y-83433228D01*
X153154147Y-83588100D01*
X153061015Y-83727481D01*
X152942481Y-83846015D01*
X152803100Y-83939147D01*
X152648228Y-84003297D01*
X152483816Y-84036000D01*
X152316184Y-84036000D01*
X152151772Y-84003297D01*
X151996900Y-83939147D01*
X151857519Y-83846015D01*
X151738985Y-83727481D01*
X151645853Y-83588100D01*
X151581703Y-83433228D01*
X151549000Y-83268816D01*
X151549000Y-83101184D01*
X151581703Y-82936772D01*
X151645853Y-82781900D01*
X151738985Y-82642519D01*
X151857519Y-82523985D01*
X151996900Y-82430853D01*
X152151772Y-82366703D01*
X152316184Y-82334000D01*
X152483816Y-82334000D01*
X152648228Y-82366703D01*
G37*
G36*
X145028228Y-82366703D02*
G01*
X145183100Y-82430853D01*
X145322481Y-82523985D01*
X145441015Y-82642519D01*
X145534147Y-82781900D01*
X145598297Y-82936772D01*
X145631000Y-83101184D01*
X145631000Y-83268816D01*
X145598297Y-83433228D01*
X145534147Y-83588100D01*
X145441015Y-83727481D01*
X145322481Y-83846015D01*
X145183100Y-83939147D01*
X145028228Y-84003297D01*
X144863816Y-84036000D01*
X144696184Y-84036000D01*
X144531772Y-84003297D01*
X144376900Y-83939147D01*
X144237519Y-83846015D01*
X144118985Y-83727481D01*
X144025853Y-83588100D01*
X143961703Y-83433228D01*
X143929000Y-83268816D01*
X143929000Y-83101184D01*
X143961703Y-82936772D01*
X144025853Y-82781900D01*
X144118985Y-82642519D01*
X144237519Y-82523985D01*
X144376900Y-82430853D01*
X144531772Y-82366703D01*
X144696184Y-82334000D01*
X144863816Y-82334000D01*
X145028228Y-82366703D01*
G37*
G36*
X142488228Y-82366703D02*
G01*
X142643100Y-82430853D01*
X142782481Y-82523985D01*
X142901015Y-82642519D01*
X142994147Y-82781900D01*
X143058297Y-82936772D01*
X143091000Y-83101184D01*
X143091000Y-83268816D01*
X143058297Y-83433228D01*
X142994147Y-83588100D01*
X142901015Y-83727481D01*
X142782481Y-83846015D01*
X142643100Y-83939147D01*
X142488228Y-84003297D01*
X142323816Y-84036000D01*
X142156184Y-84036000D01*
X141991772Y-84003297D01*
X141836900Y-83939147D01*
X141697519Y-83846015D01*
X141578985Y-83727481D01*
X141485853Y-83588100D01*
X141421703Y-83433228D01*
X141389000Y-83268816D01*
X141389000Y-83101184D01*
X141421703Y-82936772D01*
X141485853Y-82781900D01*
X141578985Y-82642519D01*
X141697519Y-82523985D01*
X141836900Y-82430853D01*
X141991772Y-82366703D01*
X142156184Y-82334000D01*
X142323816Y-82334000D01*
X142488228Y-82366703D01*
G37*
G36*
X137408228Y-82366703D02*
G01*
X137563100Y-82430853D01*
X137702481Y-82523985D01*
X137821015Y-82642519D01*
X137914147Y-82781900D01*
X137978297Y-82936772D01*
X138011000Y-83101184D01*
X138011000Y-83268816D01*
X137978297Y-83433228D01*
X137914147Y-83588100D01*
X137821015Y-83727481D01*
X137702481Y-83846015D01*
X137563100Y-83939147D01*
X137408228Y-84003297D01*
X137243816Y-84036000D01*
X137076184Y-84036000D01*
X136911772Y-84003297D01*
X136756900Y-83939147D01*
X136617519Y-83846015D01*
X136498985Y-83727481D01*
X136405853Y-83588100D01*
X136341703Y-83433228D01*
X136309000Y-83268816D01*
X136309000Y-83101184D01*
X136341703Y-82936772D01*
X136405853Y-82781900D01*
X136498985Y-82642519D01*
X136617519Y-82523985D01*
X136756900Y-82430853D01*
X136911772Y-82366703D01*
X137076184Y-82334000D01*
X137243816Y-82334000D01*
X137408228Y-82366703D01*
G37*
G36*
X163424267Y-82429205D02*
G01*
X163567309Y-82488455D01*
X163567311Y-82488456D01*
X163696046Y-82574474D01*
X163805526Y-82683954D01*
X163805527Y-82683956D01*
X163891545Y-82812691D01*
X163950795Y-82955733D01*
X163981000Y-83107584D01*
X163981000Y-83262416D01*
X163950795Y-83414267D01*
X163891545Y-83557309D01*
X163891544Y-83557311D01*
X163805526Y-83686046D01*
X163696046Y-83795526D01*
X163567311Y-83881544D01*
X163567310Y-83881545D01*
X163567309Y-83881545D01*
X163424267Y-83940795D01*
X163272416Y-83971000D01*
X163117584Y-83971000D01*
X162965733Y-83940795D01*
X162822691Y-83881545D01*
X162822690Y-83881545D01*
X162822689Y-83881544D01*
X162693954Y-83795526D01*
X162584474Y-83686046D01*
X162498456Y-83557311D01*
X162498455Y-83557309D01*
X162439205Y-83414267D01*
X162409000Y-83262416D01*
X162409000Y-83107584D01*
X162439205Y-82955733D01*
X162498455Y-82812691D01*
X162584473Y-82683956D01*
X162584474Y-82683954D01*
X162693954Y-82574474D01*
X162822689Y-82488456D01*
X162822691Y-82488455D01*
X162965733Y-82429205D01*
X163117584Y-82399000D01*
X163272416Y-82399000D01*
X163424267Y-82429205D01*
G37*
G36*
X186284267Y-82429205D02*
G01*
X186427309Y-82488455D01*
X186427311Y-82488456D01*
X186556046Y-82574474D01*
X186665526Y-82683954D01*
X186665527Y-82683956D01*
X186751545Y-82812691D01*
X186810795Y-82955733D01*
X186841000Y-83107584D01*
X186841000Y-83262416D01*
X186810795Y-83414267D01*
X186751545Y-83557309D01*
X186751544Y-83557311D01*
X186665526Y-83686046D01*
X186556046Y-83795526D01*
X186427311Y-83881544D01*
X186427310Y-83881545D01*
X186427309Y-83881545D01*
X186284267Y-83940795D01*
X186132416Y-83971000D01*
X185977584Y-83971000D01*
X185825733Y-83940795D01*
X185682691Y-83881545D01*
X185682690Y-83881545D01*
X185682689Y-83881544D01*
X185553954Y-83795526D01*
X185444474Y-83686046D01*
X185358456Y-83557311D01*
X185358455Y-83557309D01*
X185299205Y-83414267D01*
X185269000Y-83262416D01*
X185269000Y-83107584D01*
X185299205Y-82955733D01*
X185358455Y-82812691D01*
X185444473Y-82683956D01*
X185444474Y-82683954D01*
X185553954Y-82574474D01*
X185682689Y-82488456D01*
X185682691Y-82488455D01*
X185825733Y-82429205D01*
X185977584Y-82399000D01*
X186132416Y-82399000D01*
X186284267Y-82429205D01*
G37*
G36*
X157111000Y-82181000D02*
G01*
X155309000Y-82181000D01*
X155309000Y-80379000D01*
X157111000Y-80379000D01*
X157111000Y-82181000D01*
G37*
G36*
X137408228Y-79826703D02*
G01*
X137563100Y-79890853D01*
X137702481Y-79983985D01*
X137821015Y-80102519D01*
X137914147Y-80241900D01*
X137978297Y-80396772D01*
X138011000Y-80561184D01*
X138011000Y-80728816D01*
X137978297Y-80893228D01*
X137914147Y-81048100D01*
X137821015Y-81187481D01*
X137702481Y-81306015D01*
X137563100Y-81399147D01*
X137408228Y-81463297D01*
X137243816Y-81496000D01*
X137076184Y-81496000D01*
X136911772Y-81463297D01*
X136756900Y-81399147D01*
X136617519Y-81306015D01*
X136498985Y-81187481D01*
X136405853Y-81048100D01*
X136341703Y-80893228D01*
X136309000Y-80728816D01*
X136309000Y-80561184D01*
X136341703Y-80396772D01*
X136405853Y-80241900D01*
X136498985Y-80102519D01*
X136617519Y-79983985D01*
X136756900Y-79890853D01*
X136911772Y-79826703D01*
X137076184Y-79794000D01*
X137243816Y-79794000D01*
X137408228Y-79826703D01*
G37*
G36*
X152648228Y-79826703D02*
G01*
X152803100Y-79890853D01*
X152942481Y-79983985D01*
X153061015Y-80102519D01*
X153154147Y-80241900D01*
X153218297Y-80396772D01*
X153251000Y-80561184D01*
X153251000Y-80728816D01*
X153218297Y-80893228D01*
X153154147Y-81048100D01*
X153061015Y-81187481D01*
X152942481Y-81306015D01*
X152803100Y-81399147D01*
X152648228Y-81463297D01*
X152483816Y-81496000D01*
X152316184Y-81496000D01*
X152151772Y-81463297D01*
X151996900Y-81399147D01*
X151857519Y-81306015D01*
X151738985Y-81187481D01*
X151645853Y-81048100D01*
X151581703Y-80893228D01*
X151549000Y-80728816D01*
X151549000Y-80561184D01*
X151581703Y-80396772D01*
X151645853Y-80241900D01*
X151738985Y-80102519D01*
X151857519Y-79983985D01*
X151996900Y-79890853D01*
X152151772Y-79826703D01*
X152316184Y-79794000D01*
X152483816Y-79794000D01*
X152648228Y-79826703D01*
G37*
G36*
X163424267Y-79889205D02*
G01*
X163567309Y-79948455D01*
X163567311Y-79948456D01*
X163696046Y-80034474D01*
X163805526Y-80143954D01*
X163854393Y-80217089D01*
X163891545Y-80272691D01*
X163950795Y-80415733D01*
X163981000Y-80567584D01*
X163981000Y-80722416D01*
X163950795Y-80874267D01*
X163891545Y-81017309D01*
X163891544Y-81017311D01*
X163805526Y-81146046D01*
X163696046Y-81255526D01*
X163567311Y-81341544D01*
X163567310Y-81341545D01*
X163567309Y-81341545D01*
X163424267Y-81400795D01*
X163272416Y-81431000D01*
X163117584Y-81431000D01*
X162965733Y-81400795D01*
X162822691Y-81341545D01*
X162822690Y-81341545D01*
X162822689Y-81341544D01*
X162693954Y-81255526D01*
X162584474Y-81146046D01*
X162498456Y-81017311D01*
X162498455Y-81017309D01*
X162439205Y-80874267D01*
X162409000Y-80722416D01*
X162409000Y-80567584D01*
X162439205Y-80415733D01*
X162498455Y-80272691D01*
X162535607Y-80217089D01*
X162584474Y-80143954D01*
X162693954Y-80034474D01*
X162822689Y-79948456D01*
X162822691Y-79948455D01*
X162965733Y-79889205D01*
X163117584Y-79859000D01*
X163272416Y-79859000D01*
X163424267Y-79889205D01*
G37*
G36*
X185042714Y-78079382D02*
G01*
X185170322Y-78104765D01*
X185311148Y-78163097D01*
X185410727Y-78204344D01*
X185410728Y-78204345D01*
X185627089Y-78348912D01*
X185811088Y-78532911D01*
X185890165Y-78651259D01*
X185955656Y-78749273D01*
X185988572Y-78828741D01*
X186055235Y-78989678D01*
X186106000Y-79244893D01*
X186106000Y-79505107D01*
X186055235Y-79760322D01*
X186027738Y-79826705D01*
X185955656Y-80000727D01*
X185933107Y-80034474D01*
X185811088Y-80217089D01*
X185627089Y-80401088D01*
X185482521Y-80497685D01*
X185410727Y-80545656D01*
X185311148Y-80586903D01*
X185170322Y-80645235D01*
X185042714Y-80670618D01*
X184915109Y-80696000D01*
X184654891Y-80696000D01*
X184527286Y-80670618D01*
X184399678Y-80645235D01*
X184258852Y-80586903D01*
X184159273Y-80545656D01*
X184087479Y-80497685D01*
X183942911Y-80401088D01*
X183758912Y-80217089D01*
X183636893Y-80034474D01*
X183614344Y-80000727D01*
X183542262Y-79826705D01*
X183514765Y-79760322D01*
X183464000Y-79505107D01*
X183464000Y-79244893D01*
X183514765Y-78989678D01*
X183581428Y-78828741D01*
X183614344Y-78749273D01*
X183679835Y-78651259D01*
X183758912Y-78532911D01*
X183942911Y-78348912D01*
X184159272Y-78204345D01*
X184159273Y-78204344D01*
X184258852Y-78163097D01*
X184399678Y-78104765D01*
X184527286Y-78079382D01*
X184654891Y-78054000D01*
X184915109Y-78054000D01*
X185042714Y-78079382D01*
G37*
G36*
X156323512Y-77843927D02*
G01*
X156472812Y-77873624D01*
X156636784Y-77941544D01*
X156784354Y-78040147D01*
X156909853Y-78165646D01*
X157008456Y-78313216D01*
X157076376Y-78477188D01*
X157111000Y-78651259D01*
X157111000Y-78828741D01*
X157076376Y-79002812D01*
X157008456Y-79166784D01*
X156909853Y-79314354D01*
X156784354Y-79439853D01*
X156636784Y-79538456D01*
X156472812Y-79606376D01*
X156323512Y-79636073D01*
X156298742Y-79641000D01*
X156121258Y-79641000D01*
X156096488Y-79636073D01*
X155947188Y-79606376D01*
X155783216Y-79538456D01*
X155635646Y-79439853D01*
X155510147Y-79314354D01*
X155411544Y-79166784D01*
X155343624Y-79002812D01*
X155309000Y-78828741D01*
X155309000Y-78651259D01*
X155343624Y-78477188D01*
X155411544Y-78313216D01*
X155510147Y-78165646D01*
X155635646Y-78040147D01*
X155783216Y-77941544D01*
X155947188Y-77873624D01*
X156096488Y-77843927D01*
X156121258Y-77839000D01*
X156298742Y-77839000D01*
X156323512Y-77843927D01*
G37*
G36*
X137408228Y-77286703D02*
G01*
X137563100Y-77350853D01*
X137702481Y-77443985D01*
X137821015Y-77562519D01*
X137914147Y-77701900D01*
X137978297Y-77856772D01*
X138011000Y-78021184D01*
X138011000Y-78188816D01*
X137978297Y-78353228D01*
X137914147Y-78508100D01*
X137821015Y-78647481D01*
X137702481Y-78766015D01*
X137563100Y-78859147D01*
X137408228Y-78923297D01*
X137243816Y-78956000D01*
X137076184Y-78956000D01*
X136911772Y-78923297D01*
X136756900Y-78859147D01*
X136617519Y-78766015D01*
X136498985Y-78647481D01*
X136405853Y-78508100D01*
X136341703Y-78353228D01*
X136309000Y-78188816D01*
X136309000Y-78021184D01*
X136341703Y-77856772D01*
X136405853Y-77701900D01*
X136498985Y-77562519D01*
X136617519Y-77443985D01*
X136756900Y-77350853D01*
X136911772Y-77286703D01*
X137076184Y-77254000D01*
X137243816Y-77254000D01*
X137408228Y-77286703D01*
G37*
G36*
X152648228Y-77286703D02*
G01*
X152803100Y-77350853D01*
X152942481Y-77443985D01*
X153061015Y-77562519D01*
X153154147Y-77701900D01*
X153218297Y-77856772D01*
X153251000Y-78021184D01*
X153251000Y-78188816D01*
X153218297Y-78353228D01*
X153154147Y-78508100D01*
X153061015Y-78647481D01*
X152942481Y-78766015D01*
X152803100Y-78859147D01*
X152648228Y-78923297D01*
X152483816Y-78956000D01*
X152316184Y-78956000D01*
X152151772Y-78923297D01*
X151996900Y-78859147D01*
X151857519Y-78766015D01*
X151738985Y-78647481D01*
X151645853Y-78508100D01*
X151581703Y-78353228D01*
X151549000Y-78188816D01*
X151549000Y-78021184D01*
X151581703Y-77856772D01*
X151645853Y-77701900D01*
X151738985Y-77562519D01*
X151857519Y-77443985D01*
X151996900Y-77350853D01*
X152151772Y-77286703D01*
X152316184Y-77254000D01*
X152483816Y-77254000D01*
X152648228Y-77286703D01*
G37*
G36*
X165964267Y-77349205D02*
G01*
X166107309Y-77408455D01*
X166107311Y-77408456D01*
X166236046Y-77494474D01*
X166345526Y-77603954D01*
X166345527Y-77603956D01*
X166431545Y-77732691D01*
X166490795Y-77875733D01*
X166521000Y-78027584D01*
X166521000Y-78182416D01*
X166490795Y-78334267D01*
X166431595Y-78477188D01*
X166431544Y-78477311D01*
X166345526Y-78606046D01*
X166236046Y-78715526D01*
X166107311Y-78801544D01*
X166107310Y-78801545D01*
X166107309Y-78801545D01*
X165964267Y-78860795D01*
X165812416Y-78891000D01*
X165657584Y-78891000D01*
X165505733Y-78860795D01*
X165362691Y-78801545D01*
X165362690Y-78801545D01*
X165362689Y-78801544D01*
X165233954Y-78715526D01*
X165124474Y-78606046D01*
X165038456Y-78477311D01*
X165038405Y-78477188D01*
X164979205Y-78334267D01*
X164949000Y-78182416D01*
X164949000Y-78027584D01*
X164979205Y-77875733D01*
X165038455Y-77732691D01*
X165124473Y-77603956D01*
X165124474Y-77603954D01*
X165233954Y-77494474D01*
X165362689Y-77408456D01*
X165362691Y-77408455D01*
X165505733Y-77349205D01*
X165657584Y-77319000D01*
X165812416Y-77319000D01*
X165964267Y-77349205D01*
G37*
G36*
X163424267Y-77349205D02*
G01*
X163567309Y-77408455D01*
X163567311Y-77408456D01*
X163696046Y-77494474D01*
X163805526Y-77603954D01*
X163805527Y-77603956D01*
X163891545Y-77732691D01*
X163950795Y-77875733D01*
X163981000Y-78027584D01*
X163981000Y-78182416D01*
X163950795Y-78334267D01*
X163891595Y-78477188D01*
X163891544Y-78477311D01*
X163805526Y-78606046D01*
X163696046Y-78715526D01*
X163567311Y-78801544D01*
X163567310Y-78801545D01*
X163567309Y-78801545D01*
X163424267Y-78860795D01*
X163272416Y-78891000D01*
X163117584Y-78891000D01*
X162965733Y-78860795D01*
X162822691Y-78801545D01*
X162822690Y-78801545D01*
X162822689Y-78801544D01*
X162693954Y-78715526D01*
X162584474Y-78606046D01*
X162498456Y-78477311D01*
X162498405Y-78477188D01*
X162439205Y-78334267D01*
X162409000Y-78182416D01*
X162409000Y-78027584D01*
X162439205Y-77875733D01*
X162498455Y-77732691D01*
X162584473Y-77603956D01*
X162584474Y-77603954D01*
X162693954Y-77494474D01*
X162822689Y-77408456D01*
X162822691Y-77408455D01*
X162965733Y-77349205D01*
X163117584Y-77319000D01*
X163272416Y-77319000D01*
X163424267Y-77349205D01*
G37*
G36*
X156323512Y-75303927D02*
G01*
X156472812Y-75333624D01*
X156636784Y-75401544D01*
X156784354Y-75500147D01*
X156909853Y-75625646D01*
X157008456Y-75773216D01*
X157076376Y-75937188D01*
X157111000Y-76111259D01*
X157111000Y-76288741D01*
X157076376Y-76462812D01*
X157008456Y-76626784D01*
X156909853Y-76774354D01*
X156784354Y-76899853D01*
X156636784Y-76998456D01*
X156472812Y-77066376D01*
X156323512Y-77096073D01*
X156298742Y-77101000D01*
X156121258Y-77101000D01*
X156096488Y-77096073D01*
X155947188Y-77066376D01*
X155783216Y-76998456D01*
X155635646Y-76899853D01*
X155510147Y-76774354D01*
X155411544Y-76626784D01*
X155343624Y-76462812D01*
X155309000Y-76288741D01*
X155309000Y-76111259D01*
X155343624Y-75937188D01*
X155411544Y-75773216D01*
X155510147Y-75625646D01*
X155635646Y-75500147D01*
X155783216Y-75401544D01*
X155947188Y-75333624D01*
X156096488Y-75303927D01*
X156121258Y-75299000D01*
X156298742Y-75299000D01*
X156323512Y-75303927D01*
G37*
G36*
X137408228Y-74746703D02*
G01*
X137563100Y-74810853D01*
X137702481Y-74903985D01*
X137821015Y-75022519D01*
X137914147Y-75161900D01*
X137978297Y-75316772D01*
X138011000Y-75481184D01*
X138011000Y-75648816D01*
X137978297Y-75813228D01*
X137914147Y-75968100D01*
X137821015Y-76107481D01*
X137702481Y-76226015D01*
X137563100Y-76319147D01*
X137408228Y-76383297D01*
X137243816Y-76416000D01*
X137076184Y-76416000D01*
X136911772Y-76383297D01*
X136756900Y-76319147D01*
X136617519Y-76226015D01*
X136498985Y-76107481D01*
X136405853Y-75968100D01*
X136341703Y-75813228D01*
X136309000Y-75648816D01*
X136309000Y-75481184D01*
X136341703Y-75316772D01*
X136405853Y-75161900D01*
X136498985Y-75022519D01*
X136617519Y-74903985D01*
X136756900Y-74810853D01*
X136911772Y-74746703D01*
X137076184Y-74714000D01*
X137243816Y-74714000D01*
X137408228Y-74746703D01*
G37*
G36*
X152648228Y-74746703D02*
G01*
X152803100Y-74810853D01*
X152942481Y-74903985D01*
X153061015Y-75022519D01*
X153154147Y-75161900D01*
X153218297Y-75316772D01*
X153251000Y-75481184D01*
X153251000Y-75648816D01*
X153218297Y-75813228D01*
X153154147Y-75968100D01*
X153061015Y-76107481D01*
X152942481Y-76226015D01*
X152803100Y-76319147D01*
X152648228Y-76383297D01*
X152483816Y-76416000D01*
X152316184Y-76416000D01*
X152151772Y-76383297D01*
X151996900Y-76319147D01*
X151857519Y-76226015D01*
X151738985Y-76107481D01*
X151645853Y-75968100D01*
X151581703Y-75813228D01*
X151549000Y-75648816D01*
X151549000Y-75481184D01*
X151581703Y-75316772D01*
X151645853Y-75161900D01*
X151738985Y-75022519D01*
X151857519Y-74903985D01*
X151996900Y-74810853D01*
X152151772Y-74746703D01*
X152316184Y-74714000D01*
X152483816Y-74714000D01*
X152648228Y-74746703D01*
G37*
G36*
X163424267Y-74809205D02*
G01*
X163567309Y-74868455D01*
X163567311Y-74868456D01*
X163696046Y-74954474D01*
X163805526Y-75063954D01*
X163854393Y-75137089D01*
X163891545Y-75192691D01*
X163950795Y-75335733D01*
X163981000Y-75487584D01*
X163981000Y-75642416D01*
X163950795Y-75794267D01*
X163891595Y-75937188D01*
X163891544Y-75937311D01*
X163805526Y-76066046D01*
X163696046Y-76175526D01*
X163567311Y-76261544D01*
X163567310Y-76261545D01*
X163567309Y-76261545D01*
X163424267Y-76320795D01*
X163272416Y-76351000D01*
X163117584Y-76351000D01*
X162965733Y-76320795D01*
X162822691Y-76261545D01*
X162822690Y-76261545D01*
X162822689Y-76261544D01*
X162693954Y-76175526D01*
X162584474Y-76066046D01*
X162498456Y-75937311D01*
X162498405Y-75937188D01*
X162439205Y-75794267D01*
X162409000Y-75642416D01*
X162409000Y-75487584D01*
X162439205Y-75335733D01*
X162498455Y-75192691D01*
X162535607Y-75137089D01*
X162584474Y-75063954D01*
X162693954Y-74954474D01*
X162822689Y-74868456D01*
X162822691Y-74868455D01*
X162965733Y-74809205D01*
X163117584Y-74779000D01*
X163272416Y-74779000D01*
X163424267Y-74809205D01*
G37*
G36*
X185042715Y-72999383D02*
G01*
X185170322Y-73024765D01*
X185311148Y-73083097D01*
X185410727Y-73124344D01*
X185410728Y-73124345D01*
X185627089Y-73268912D01*
X185811088Y-73452911D01*
X185890165Y-73571259D01*
X185955656Y-73669273D01*
X185988572Y-73748741D01*
X186055235Y-73909678D01*
X186106000Y-74164893D01*
X186106000Y-74425107D01*
X186055235Y-74680322D01*
X186027738Y-74746705D01*
X185955656Y-74920727D01*
X185933107Y-74954474D01*
X185811088Y-75137089D01*
X185627089Y-75321088D01*
X185506677Y-75401544D01*
X185410727Y-75465656D01*
X185327455Y-75500148D01*
X185170322Y-75565235D01*
X185042714Y-75590618D01*
X184915109Y-75616000D01*
X184654891Y-75616000D01*
X184527286Y-75590618D01*
X184399678Y-75565235D01*
X184242545Y-75500148D01*
X184159273Y-75465656D01*
X184063323Y-75401544D01*
X183942911Y-75321088D01*
X183758912Y-75137089D01*
X183636893Y-74954474D01*
X183614344Y-74920727D01*
X183542262Y-74746705D01*
X183514765Y-74680322D01*
X183464000Y-74425107D01*
X183464000Y-74164893D01*
X183514765Y-73909678D01*
X183581428Y-73748741D01*
X183614344Y-73669273D01*
X183679835Y-73571259D01*
X183758912Y-73452911D01*
X183942911Y-73268912D01*
X184159272Y-73124345D01*
X184159273Y-73124344D01*
X184258852Y-73083097D01*
X184399678Y-73024765D01*
X184527285Y-72999383D01*
X184654891Y-72974000D01*
X184915109Y-72974000D01*
X185042715Y-72999383D01*
G37*
G36*
X156323512Y-72763927D02*
G01*
X156472812Y-72793624D01*
X156636784Y-72861544D01*
X156784354Y-72960147D01*
X156909853Y-73085646D01*
X157008456Y-73233216D01*
X157076376Y-73397188D01*
X157111000Y-73571259D01*
X157111000Y-73748741D01*
X157076376Y-73922812D01*
X157008456Y-74086784D01*
X156909853Y-74234354D01*
X156784354Y-74359853D01*
X156636784Y-74458456D01*
X156472812Y-74526376D01*
X156323512Y-74556073D01*
X156298742Y-74561000D01*
X156121258Y-74561000D01*
X156096488Y-74556073D01*
X155947188Y-74526376D01*
X155783216Y-74458456D01*
X155635646Y-74359853D01*
X155510147Y-74234354D01*
X155411544Y-74086784D01*
X155343624Y-73922812D01*
X155309000Y-73748741D01*
X155309000Y-73571259D01*
X155343624Y-73397188D01*
X155411544Y-73233216D01*
X155510147Y-73085646D01*
X155635646Y-72960147D01*
X155783216Y-72861544D01*
X155947188Y-72793624D01*
X156096488Y-72763927D01*
X156121258Y-72759000D01*
X156298742Y-72759000D01*
X156323512Y-72763927D01*
G37*
G36*
X137408228Y-72206703D02*
G01*
X137563100Y-72270853D01*
X137702481Y-72363985D01*
X137821015Y-72482519D01*
X137914147Y-72621900D01*
X137978297Y-72776772D01*
X138011000Y-72941184D01*
X138011000Y-73108816D01*
X137978297Y-73273228D01*
X137914147Y-73428100D01*
X137821015Y-73567481D01*
X137702481Y-73686015D01*
X137563100Y-73779147D01*
X137408228Y-73843297D01*
X137243816Y-73876000D01*
X137076184Y-73876000D01*
X136911772Y-73843297D01*
X136756900Y-73779147D01*
X136617519Y-73686015D01*
X136498985Y-73567481D01*
X136405853Y-73428100D01*
X136341703Y-73273228D01*
X136309000Y-73108816D01*
X136309000Y-72941184D01*
X136341703Y-72776772D01*
X136405853Y-72621900D01*
X136498985Y-72482519D01*
X136617519Y-72363985D01*
X136756900Y-72270853D01*
X136911772Y-72206703D01*
X137076184Y-72174000D01*
X137243816Y-72174000D01*
X137408228Y-72206703D01*
G37*
G36*
X152648228Y-72206703D02*
G01*
X152803100Y-72270853D01*
X152942481Y-72363985D01*
X153061015Y-72482519D01*
X153154147Y-72621900D01*
X153218297Y-72776772D01*
X153251000Y-72941184D01*
X153251000Y-73108816D01*
X153218297Y-73273228D01*
X153154147Y-73428100D01*
X153061015Y-73567481D01*
X152942481Y-73686015D01*
X152803100Y-73779147D01*
X152648228Y-73843297D01*
X152483816Y-73876000D01*
X152316184Y-73876000D01*
X152151772Y-73843297D01*
X151996900Y-73779147D01*
X151857519Y-73686015D01*
X151738985Y-73567481D01*
X151645853Y-73428100D01*
X151581703Y-73273228D01*
X151549000Y-73108816D01*
X151549000Y-72941184D01*
X151581703Y-72776772D01*
X151645853Y-72621900D01*
X151738985Y-72482519D01*
X151857519Y-72363985D01*
X151996900Y-72270853D01*
X152151772Y-72206703D01*
X152316184Y-72174000D01*
X152483816Y-72174000D01*
X152648228Y-72206703D01*
G37*
G36*
X163424267Y-72269205D02*
G01*
X163567309Y-72328455D01*
X163567311Y-72328456D01*
X163696046Y-72414474D01*
X163805526Y-72523954D01*
X163805527Y-72523956D01*
X163891545Y-72652691D01*
X163950795Y-72795733D01*
X163981000Y-72947584D01*
X163981000Y-73102416D01*
X163950795Y-73254267D01*
X163891595Y-73397188D01*
X163891544Y-73397311D01*
X163805526Y-73526046D01*
X163696046Y-73635526D01*
X163567311Y-73721544D01*
X163567310Y-73721545D01*
X163567309Y-73721545D01*
X163424267Y-73780795D01*
X163272416Y-73811000D01*
X163117584Y-73811000D01*
X162965733Y-73780795D01*
X162822691Y-73721545D01*
X162822690Y-73721545D01*
X162822689Y-73721544D01*
X162693954Y-73635526D01*
X162584474Y-73526046D01*
X162498456Y-73397311D01*
X162498405Y-73397188D01*
X162439205Y-73254267D01*
X162409000Y-73102416D01*
X162409000Y-72947584D01*
X162439205Y-72795733D01*
X162498455Y-72652691D01*
X162584473Y-72523956D01*
X162584474Y-72523954D01*
X162693954Y-72414474D01*
X162822689Y-72328456D01*
X162822691Y-72328455D01*
X162965733Y-72269205D01*
X163117584Y-72239000D01*
X163272416Y-72239000D01*
X163424267Y-72269205D01*
G37*
G36*
X193110997Y-70118051D02*
G01*
X193144652Y-70128261D01*
X193175665Y-70144838D01*
X193202851Y-70167149D01*
X193225162Y-70194335D01*
X193241739Y-70225348D01*
X193251949Y-70259003D01*
X193256000Y-70300138D01*
X193256000Y-73529862D01*
X193251949Y-73570997D01*
X193241739Y-73604652D01*
X193225162Y-73635665D01*
X193202851Y-73662851D01*
X193175665Y-73685162D01*
X193144652Y-73701739D01*
X193110997Y-73711949D01*
X193069862Y-73716000D01*
X191740138Y-73716000D01*
X191699003Y-73711949D01*
X191665348Y-73701739D01*
X191634335Y-73685162D01*
X191607149Y-73662851D01*
X191584838Y-73635665D01*
X191568261Y-73604652D01*
X191558051Y-73570997D01*
X191554000Y-73529862D01*
X191554000Y-70300138D01*
X191558051Y-70259003D01*
X191568261Y-70225348D01*
X191584838Y-70194335D01*
X191607149Y-70167149D01*
X191634335Y-70144838D01*
X191665348Y-70128261D01*
X191699003Y-70118051D01*
X191740138Y-70114000D01*
X193069862Y-70114000D01*
X193110997Y-70118051D01*
G37*
G36*
X156323512Y-70223927D02*
G01*
X156472812Y-70253624D01*
X156636784Y-70321544D01*
X156784354Y-70420147D01*
X156909853Y-70545646D01*
X157008456Y-70693216D01*
X157076376Y-70857188D01*
X157111000Y-71031259D01*
X157111000Y-71208741D01*
X157076376Y-71382812D01*
X157008456Y-71546784D01*
X156909853Y-71694354D01*
X156784354Y-71819853D01*
X156636784Y-71918456D01*
X156472812Y-71986376D01*
X156323512Y-72016073D01*
X156298742Y-72021000D01*
X156121258Y-72021000D01*
X156096488Y-72016073D01*
X155947188Y-71986376D01*
X155783216Y-71918456D01*
X155635646Y-71819853D01*
X155510147Y-71694354D01*
X155411544Y-71546784D01*
X155343624Y-71382812D01*
X155309000Y-71208741D01*
X155309000Y-71031259D01*
X155343624Y-70857188D01*
X155411544Y-70693216D01*
X155510147Y-70545646D01*
X155635646Y-70420147D01*
X155783216Y-70321544D01*
X155947188Y-70253624D01*
X156096488Y-70223927D01*
X156121258Y-70219000D01*
X156298742Y-70219000D01*
X156323512Y-70223927D01*
G37*
G36*
X152648228Y-69666703D02*
G01*
X152803100Y-69730853D01*
X152942481Y-69823985D01*
X153061015Y-69942519D01*
X153154147Y-70081900D01*
X153218297Y-70236772D01*
X153251000Y-70401184D01*
X153251000Y-70568816D01*
X153218297Y-70733228D01*
X153154147Y-70888100D01*
X153061015Y-71027481D01*
X152942481Y-71146015D01*
X152803100Y-71239147D01*
X152648228Y-71303297D01*
X152483816Y-71336000D01*
X152316184Y-71336000D01*
X152151772Y-71303297D01*
X151996900Y-71239147D01*
X151857519Y-71146015D01*
X151738985Y-71027481D01*
X151645853Y-70888100D01*
X151581703Y-70733228D01*
X151549000Y-70568816D01*
X151549000Y-70401184D01*
X151581703Y-70236772D01*
X151645853Y-70081900D01*
X151738985Y-69942519D01*
X151857519Y-69823985D01*
X151996900Y-69730853D01*
X152151772Y-69666703D01*
X152316184Y-69634000D01*
X152483816Y-69634000D01*
X152648228Y-69666703D01*
G37*
G36*
X137408228Y-69666703D02*
G01*
X137563100Y-69730853D01*
X137702481Y-69823985D01*
X137821015Y-69942519D01*
X137914147Y-70081900D01*
X137978297Y-70236772D01*
X138011000Y-70401184D01*
X138011000Y-70568816D01*
X137978297Y-70733228D01*
X137914147Y-70888100D01*
X137821015Y-71027481D01*
X137702481Y-71146015D01*
X137563100Y-71239147D01*
X137408228Y-71303297D01*
X137243816Y-71336000D01*
X137076184Y-71336000D01*
X136911772Y-71303297D01*
X136756900Y-71239147D01*
X136617519Y-71146015D01*
X136498985Y-71027481D01*
X136405853Y-70888100D01*
X136341703Y-70733228D01*
X136309000Y-70568816D01*
X136309000Y-70401184D01*
X136341703Y-70236772D01*
X136405853Y-70081900D01*
X136498985Y-69942519D01*
X136617519Y-69823985D01*
X136756900Y-69730853D01*
X136911772Y-69666703D01*
X137076184Y-69634000D01*
X137243816Y-69634000D01*
X137408228Y-69666703D01*
G37*
G36*
X163424267Y-69729205D02*
G01*
X163567309Y-69788455D01*
X163567311Y-69788456D01*
X163696046Y-69874474D01*
X163805526Y-69983954D01*
X163805527Y-69983956D01*
X163891545Y-70112691D01*
X163950795Y-70255733D01*
X163981000Y-70407584D01*
X163981000Y-70562416D01*
X163950795Y-70714267D01*
X163891595Y-70857188D01*
X163891544Y-70857311D01*
X163805526Y-70986046D01*
X163696046Y-71095526D01*
X163567311Y-71181544D01*
X163567310Y-71181545D01*
X163567309Y-71181545D01*
X163424267Y-71240795D01*
X163272416Y-71271000D01*
X163117584Y-71271000D01*
X162965733Y-71240795D01*
X162822691Y-71181545D01*
X162822690Y-71181545D01*
X162822689Y-71181544D01*
X162693954Y-71095526D01*
X162584474Y-70986046D01*
X162498456Y-70857311D01*
X162498405Y-70857188D01*
X162439205Y-70714267D01*
X162409000Y-70562416D01*
X162409000Y-70407584D01*
X162439205Y-70255733D01*
X162498455Y-70112691D01*
X162584473Y-69983956D01*
X162584474Y-69983954D01*
X162693954Y-69874474D01*
X162822689Y-69788456D01*
X162822691Y-69788455D01*
X162965733Y-69729205D01*
X163117584Y-69699000D01*
X163272416Y-69699000D01*
X163424267Y-69729205D01*
G37*
G36*
X152648228Y-67126703D02*
G01*
X152803100Y-67190853D01*
X152942481Y-67283985D01*
X153061015Y-67402519D01*
X153154147Y-67541900D01*
X153218297Y-67696772D01*
X153251000Y-67861184D01*
X153251000Y-68028816D01*
X153218297Y-68193228D01*
X153154147Y-68348100D01*
X153061015Y-68487481D01*
X152942481Y-68606015D01*
X152803100Y-68699147D01*
X152648228Y-68763297D01*
X152483816Y-68796000D01*
X152316184Y-68796000D01*
X152151772Y-68763297D01*
X151996900Y-68699147D01*
X151857519Y-68606015D01*
X151738985Y-68487481D01*
X151645853Y-68348100D01*
X151581703Y-68193228D01*
X151549000Y-68028816D01*
X151549000Y-67861184D01*
X151581703Y-67696772D01*
X151645853Y-67541900D01*
X151738985Y-67402519D01*
X151857519Y-67283985D01*
X151996900Y-67190853D01*
X152151772Y-67126703D01*
X152316184Y-67094000D01*
X152483816Y-67094000D01*
X152648228Y-67126703D01*
G37*
G36*
X145028228Y-67126703D02*
G01*
X145183100Y-67190853D01*
X145322481Y-67283985D01*
X145441015Y-67402519D01*
X145534147Y-67541900D01*
X145598297Y-67696772D01*
X145631000Y-67861184D01*
X145631000Y-68028816D01*
X145598297Y-68193228D01*
X145534147Y-68348100D01*
X145441015Y-68487481D01*
X145322481Y-68606015D01*
X145183100Y-68699147D01*
X145028228Y-68763297D01*
X144863816Y-68796000D01*
X144696184Y-68796000D01*
X144531772Y-68763297D01*
X144376900Y-68699147D01*
X144237519Y-68606015D01*
X144118985Y-68487481D01*
X144025853Y-68348100D01*
X143961703Y-68193228D01*
X143929000Y-68028816D01*
X143929000Y-67861184D01*
X143961703Y-67696772D01*
X144025853Y-67541900D01*
X144118985Y-67402519D01*
X144237519Y-67283985D01*
X144376900Y-67190853D01*
X144531772Y-67126703D01*
X144696184Y-67094000D01*
X144863816Y-67094000D01*
X145028228Y-67126703D01*
G37*
G36*
X137408228Y-67126703D02*
G01*
X137563100Y-67190853D01*
X137702481Y-67283985D01*
X137821015Y-67402519D01*
X137914147Y-67541900D01*
X137978297Y-67696772D01*
X138011000Y-67861184D01*
X138011000Y-68028816D01*
X137978297Y-68193228D01*
X137914147Y-68348100D01*
X137821015Y-68487481D01*
X137702481Y-68606015D01*
X137563100Y-68699147D01*
X137408228Y-68763297D01*
X137243816Y-68796000D01*
X137076184Y-68796000D01*
X136911772Y-68763297D01*
X136756900Y-68699147D01*
X136617519Y-68606015D01*
X136498985Y-68487481D01*
X136405853Y-68348100D01*
X136341703Y-68193228D01*
X136309000Y-68028816D01*
X136309000Y-67861184D01*
X136341703Y-67696772D01*
X136405853Y-67541900D01*
X136498985Y-67402519D01*
X136617519Y-67283985D01*
X136756900Y-67190853D01*
X136911772Y-67126703D01*
X137076184Y-67094000D01*
X137243816Y-67094000D01*
X137408228Y-67126703D01*
G37*
G36*
X142488228Y-67126703D02*
G01*
X142643100Y-67190853D01*
X142782481Y-67283985D01*
X142901015Y-67402519D01*
X142994147Y-67541900D01*
X143058297Y-67696772D01*
X143091000Y-67861184D01*
X143091000Y-68028816D01*
X143058297Y-68193228D01*
X142994147Y-68348100D01*
X142901015Y-68487481D01*
X142782481Y-68606015D01*
X142643100Y-68699147D01*
X142488228Y-68763297D01*
X142323816Y-68796000D01*
X142156184Y-68796000D01*
X141991772Y-68763297D01*
X141836900Y-68699147D01*
X141697519Y-68606015D01*
X141578985Y-68487481D01*
X141485853Y-68348100D01*
X141421703Y-68193228D01*
X141389000Y-68028816D01*
X141389000Y-67861184D01*
X141421703Y-67696772D01*
X141485853Y-67541900D01*
X141578985Y-67402519D01*
X141697519Y-67283985D01*
X141836900Y-67190853D01*
X141991772Y-67126703D01*
X142156184Y-67094000D01*
X142323816Y-67094000D01*
X142488228Y-67126703D01*
G37*
G36*
X186284267Y-67189205D02*
G01*
X186427309Y-67248455D01*
X186427311Y-67248456D01*
X186556046Y-67334474D01*
X186665526Y-67443954D01*
X186665527Y-67443956D01*
X186751545Y-67572691D01*
X186810795Y-67715733D01*
X186841000Y-67867584D01*
X186841000Y-68022416D01*
X186810795Y-68174267D01*
X186760472Y-68295757D01*
X186751544Y-68317311D01*
X186665526Y-68446046D01*
X186556046Y-68555526D01*
X186427311Y-68641544D01*
X186427310Y-68641545D01*
X186427309Y-68641545D01*
X186284267Y-68700795D01*
X186132416Y-68731000D01*
X185977584Y-68731000D01*
X185825733Y-68700795D01*
X185682691Y-68641545D01*
X185682690Y-68641545D01*
X185682689Y-68641544D01*
X185553954Y-68555526D01*
X185444474Y-68446046D01*
X185358456Y-68317311D01*
X185349528Y-68295757D01*
X185299205Y-68174267D01*
X185269000Y-68022416D01*
X185269000Y-67867584D01*
X185299205Y-67715733D01*
X185358455Y-67572691D01*
X185444473Y-67443956D01*
X185444474Y-67443954D01*
X185553954Y-67334474D01*
X185682689Y-67248456D01*
X185682691Y-67248455D01*
X185825733Y-67189205D01*
X185977584Y-67159000D01*
X186132416Y-67159000D01*
X186284267Y-67189205D01*
G37*
G36*
X163424267Y-67189205D02*
G01*
X163567309Y-67248455D01*
X163567311Y-67248456D01*
X163696046Y-67334474D01*
X163805526Y-67443954D01*
X163805527Y-67443956D01*
X163891545Y-67572691D01*
X163950795Y-67715733D01*
X163981000Y-67867584D01*
X163981000Y-68022416D01*
X163950795Y-68174267D01*
X163900472Y-68295757D01*
X163891544Y-68317311D01*
X163805526Y-68446046D01*
X163696046Y-68555526D01*
X163567311Y-68641544D01*
X163567310Y-68641545D01*
X163567309Y-68641545D01*
X163424267Y-68700795D01*
X163272416Y-68731000D01*
X163117584Y-68731000D01*
X162965733Y-68700795D01*
X162822691Y-68641545D01*
X162822690Y-68641545D01*
X162822689Y-68641544D01*
X162693954Y-68555526D01*
X162584474Y-68446046D01*
X162498456Y-68317311D01*
X162489528Y-68295757D01*
X162439205Y-68174267D01*
X162409000Y-68022416D01*
X162409000Y-67867584D01*
X162439205Y-67715733D01*
X162498455Y-67572691D01*
X162584473Y-67443956D01*
X162584474Y-67443954D01*
X162693954Y-67334474D01*
X162822689Y-67248456D01*
X162822691Y-67248455D01*
X162965733Y-67189205D01*
X163117584Y-67159000D01*
X163272416Y-67159000D01*
X163424267Y-67189205D01*
G37*
G36*
X193110997Y-64718051D02*
G01*
X193144652Y-64728261D01*
X193175665Y-64744838D01*
X193202851Y-64767149D01*
X193225162Y-64794335D01*
X193241739Y-64825348D01*
X193251949Y-64859003D01*
X193256000Y-64900138D01*
X193256000Y-68129862D01*
X193251949Y-68170997D01*
X193241739Y-68204652D01*
X193225162Y-68235665D01*
X193202851Y-68262851D01*
X193175665Y-68285162D01*
X193144652Y-68301739D01*
X193110997Y-68311949D01*
X193069862Y-68316000D01*
X191740138Y-68316000D01*
X191699003Y-68311949D01*
X191665348Y-68301739D01*
X191634335Y-68285162D01*
X191607149Y-68262851D01*
X191584838Y-68235665D01*
X191568261Y-68204652D01*
X191558051Y-68170997D01*
X191554000Y-68129862D01*
X191554000Y-64900138D01*
X191558051Y-64859003D01*
X191568261Y-64825348D01*
X191584838Y-64794335D01*
X191607149Y-64767149D01*
X191634335Y-64744838D01*
X191665348Y-64728261D01*
X191699003Y-64718051D01*
X191740138Y-64714000D01*
X193069862Y-64714000D01*
X193110997Y-64718051D01*
G37*
G36*
X137408228Y-64586703D02*
G01*
X137563100Y-64650853D01*
X137702481Y-64743985D01*
X137821015Y-64862519D01*
X137914147Y-65001900D01*
X137978297Y-65156772D01*
X138011000Y-65321184D01*
X138011000Y-65488816D01*
X137978297Y-65653228D01*
X137914147Y-65808100D01*
X137821015Y-65947481D01*
X137702481Y-66066015D01*
X137563100Y-66159147D01*
X137408228Y-66223297D01*
X137243816Y-66256000D01*
X137076184Y-66256000D01*
X136911772Y-66223297D01*
X136756900Y-66159147D01*
X136617519Y-66066015D01*
X136498985Y-65947481D01*
X136405853Y-65808100D01*
X136341703Y-65653228D01*
X136309000Y-65488816D01*
X136309000Y-65321184D01*
X136341703Y-65156772D01*
X136405853Y-65001900D01*
X136498985Y-64862519D01*
X136617519Y-64743985D01*
X136756900Y-64650853D01*
X136911772Y-64586703D01*
X137076184Y-64554000D01*
X137243816Y-64554000D01*
X137408228Y-64586703D01*
G37*
G36*
X142488228Y-64586703D02*
G01*
X142643100Y-64650853D01*
X142782481Y-64743985D01*
X142901015Y-64862519D01*
X142994147Y-65001900D01*
X143058297Y-65156772D01*
X143091000Y-65321184D01*
X143091000Y-65488816D01*
X143058297Y-65653228D01*
X142994147Y-65808100D01*
X142901015Y-65947481D01*
X142782481Y-66066015D01*
X142643100Y-66159147D01*
X142488228Y-66223297D01*
X142323816Y-66256000D01*
X142156184Y-66256000D01*
X141991772Y-66223297D01*
X141836900Y-66159147D01*
X141697519Y-66066015D01*
X141578985Y-65947481D01*
X141485853Y-65808100D01*
X141421703Y-65653228D01*
X141389000Y-65488816D01*
X141389000Y-65321184D01*
X141421703Y-65156772D01*
X141485853Y-65001900D01*
X141578985Y-64862519D01*
X141697519Y-64743985D01*
X141836900Y-64650853D01*
X141991772Y-64586703D01*
X142156184Y-64554000D01*
X142323816Y-64554000D01*
X142488228Y-64586703D01*
G37*
G36*
X145028228Y-64586703D02*
G01*
X145183100Y-64650853D01*
X145322481Y-64743985D01*
X145441015Y-64862519D01*
X145534147Y-65001900D01*
X145598297Y-65156772D01*
X145631000Y-65321184D01*
X145631000Y-65488816D01*
X145598297Y-65653228D01*
X145534147Y-65808100D01*
X145441015Y-65947481D01*
X145322481Y-66066015D01*
X145183100Y-66159147D01*
X145028228Y-66223297D01*
X144863816Y-66256000D01*
X144696184Y-66256000D01*
X144531772Y-66223297D01*
X144376900Y-66159147D01*
X144237519Y-66066015D01*
X144118985Y-65947481D01*
X144025853Y-65808100D01*
X143961703Y-65653228D01*
X143929000Y-65488816D01*
X143929000Y-65321184D01*
X143961703Y-65156772D01*
X144025853Y-65001900D01*
X144118985Y-64862519D01*
X144237519Y-64743985D01*
X144376900Y-64650853D01*
X144531772Y-64586703D01*
X144696184Y-64554000D01*
X144863816Y-64554000D01*
X145028228Y-64586703D01*
G37*
G36*
X152648228Y-64586703D02*
G01*
X152803100Y-64650853D01*
X152942481Y-64743985D01*
X153061015Y-64862519D01*
X153154147Y-65001900D01*
X153218297Y-65156772D01*
X153251000Y-65321184D01*
X153251000Y-65488816D01*
X153218297Y-65653228D01*
X153154147Y-65808100D01*
X153061015Y-65947481D01*
X152942481Y-66066015D01*
X152803100Y-66159147D01*
X152648228Y-66223297D01*
X152483816Y-66256000D01*
X152316184Y-66256000D01*
X152151772Y-66223297D01*
X151996900Y-66159147D01*
X151857519Y-66066015D01*
X151738985Y-65947481D01*
X151645853Y-65808100D01*
X151581703Y-65653228D01*
X151549000Y-65488816D01*
X151549000Y-65321184D01*
X151581703Y-65156772D01*
X151645853Y-65001900D01*
X151738985Y-64862519D01*
X151857519Y-64743985D01*
X151996900Y-64650853D01*
X152151772Y-64586703D01*
X152316184Y-64554000D01*
X152483816Y-64554000D01*
X152648228Y-64586703D01*
G37*
G36*
X186284267Y-64649205D02*
G01*
X186427309Y-64708455D01*
X186427311Y-64708456D01*
X186556046Y-64794474D01*
X186665526Y-64903954D01*
X186716296Y-64979937D01*
X186751545Y-65032691D01*
X186810795Y-65175733D01*
X186841000Y-65327584D01*
X186841000Y-65482416D01*
X186810795Y-65634267D01*
X186751545Y-65777309D01*
X186751544Y-65777311D01*
X186665526Y-65906046D01*
X186556046Y-66015526D01*
X186427311Y-66101544D01*
X186427310Y-66101545D01*
X186427309Y-66101545D01*
X186284267Y-66160795D01*
X186132416Y-66191000D01*
X185977584Y-66191000D01*
X185825733Y-66160795D01*
X185682691Y-66101545D01*
X185682690Y-66101545D01*
X185682689Y-66101544D01*
X185553954Y-66015526D01*
X185444474Y-65906046D01*
X185358456Y-65777311D01*
X185358455Y-65777309D01*
X185299205Y-65634267D01*
X185269000Y-65482416D01*
X185269000Y-65327584D01*
X185299205Y-65175733D01*
X185358455Y-65032691D01*
X185393704Y-64979937D01*
X185444474Y-64903954D01*
X185553954Y-64794474D01*
X185682689Y-64708456D01*
X185682691Y-64708455D01*
X185825733Y-64649205D01*
X185977584Y-64619000D01*
X186132416Y-64619000D01*
X186284267Y-64649205D01*
G37*
G36*
X163424267Y-64649205D02*
G01*
X163567309Y-64708455D01*
X163567311Y-64708456D01*
X163696046Y-64794474D01*
X163805526Y-64903954D01*
X163856296Y-64979937D01*
X163891545Y-65032691D01*
X163950795Y-65175733D01*
X163981000Y-65327584D01*
X163981000Y-65482416D01*
X163950795Y-65634267D01*
X163891545Y-65777309D01*
X163891544Y-65777311D01*
X163805526Y-65906046D01*
X163696046Y-66015526D01*
X163567311Y-66101544D01*
X163567310Y-66101545D01*
X163567309Y-66101545D01*
X163424267Y-66160795D01*
X163272416Y-66191000D01*
X163117584Y-66191000D01*
X162965733Y-66160795D01*
X162822691Y-66101545D01*
X162822690Y-66101545D01*
X162822689Y-66101544D01*
X162693954Y-66015526D01*
X162584474Y-65906046D01*
X162498456Y-65777311D01*
X162498455Y-65777309D01*
X162439205Y-65634267D01*
X162409000Y-65482416D01*
X162409000Y-65327584D01*
X162439205Y-65175733D01*
X162498455Y-65032691D01*
X162533704Y-64979937D01*
X162584474Y-64903954D01*
X162693954Y-64794474D01*
X162822689Y-64708456D01*
X162822691Y-64708455D01*
X162965733Y-64649205D01*
X163117584Y-64619000D01*
X163272416Y-64619000D01*
X163424267Y-64649205D01*
G37*
G36*
X157111000Y-65671000D02*
G01*
X155309000Y-65671000D01*
X155309000Y-63869000D01*
X157111000Y-63869000D01*
X157111000Y-65671000D01*
G37*
G36*
X193110997Y-60593051D02*
G01*
X193144652Y-60603261D01*
X193175665Y-60619838D01*
X193202851Y-60642149D01*
X193225162Y-60669335D01*
X193241739Y-60700348D01*
X193251949Y-60734003D01*
X193256000Y-60775138D01*
X193256000Y-64004862D01*
X193251949Y-64045997D01*
X193241739Y-64079652D01*
X193225162Y-64110665D01*
X193202851Y-64137851D01*
X193175665Y-64160162D01*
X193144652Y-64176739D01*
X193110997Y-64186949D01*
X193069862Y-64191000D01*
X191740138Y-64191000D01*
X191699003Y-64186949D01*
X191665348Y-64176739D01*
X191634335Y-64160162D01*
X191607149Y-64137851D01*
X191584838Y-64110665D01*
X191568261Y-64079652D01*
X191558051Y-64045997D01*
X191554000Y-64004862D01*
X191554000Y-60775138D01*
X191558051Y-60734003D01*
X191568261Y-60700348D01*
X191584838Y-60669335D01*
X191607149Y-60642149D01*
X191634335Y-60619838D01*
X191665348Y-60603261D01*
X191699003Y-60593051D01*
X191740138Y-60589000D01*
X193069862Y-60589000D01*
X193110997Y-60593051D01*
G37*
G36*
X142488228Y-62046703D02*
G01*
X142643100Y-62110853D01*
X142782481Y-62203985D01*
X142901015Y-62322519D01*
X142994147Y-62461900D01*
X143058297Y-62616772D01*
X143091000Y-62781184D01*
X143091000Y-62948816D01*
X143058297Y-63113228D01*
X142994147Y-63268100D01*
X142901015Y-63407481D01*
X142782481Y-63526015D01*
X142643100Y-63619147D01*
X142488228Y-63683297D01*
X142323816Y-63716000D01*
X142156184Y-63716000D01*
X141991772Y-63683297D01*
X141836900Y-63619147D01*
X141697519Y-63526015D01*
X141578985Y-63407481D01*
X141485853Y-63268100D01*
X141421703Y-63113228D01*
X141389000Y-62948816D01*
X141389000Y-62781184D01*
X141421703Y-62616772D01*
X141485853Y-62461900D01*
X141578985Y-62322519D01*
X141697519Y-62203985D01*
X141836900Y-62110853D01*
X141991772Y-62046703D01*
X142156184Y-62014000D01*
X142323816Y-62014000D01*
X142488228Y-62046703D01*
G37*
G36*
X152648228Y-62046703D02*
G01*
X152803100Y-62110853D01*
X152942481Y-62203985D01*
X153061015Y-62322519D01*
X153154147Y-62461900D01*
X153218297Y-62616772D01*
X153251000Y-62781184D01*
X153251000Y-62948816D01*
X153218297Y-63113228D01*
X153154147Y-63268100D01*
X153061015Y-63407481D01*
X152942481Y-63526015D01*
X152803100Y-63619147D01*
X152648228Y-63683297D01*
X152483816Y-63716000D01*
X152316184Y-63716000D01*
X152151772Y-63683297D01*
X151996900Y-63619147D01*
X151857519Y-63526015D01*
X151738985Y-63407481D01*
X151645853Y-63268100D01*
X151581703Y-63113228D01*
X151549000Y-62948816D01*
X151549000Y-62781184D01*
X151581703Y-62616772D01*
X151645853Y-62461900D01*
X151738985Y-62322519D01*
X151857519Y-62203985D01*
X151996900Y-62110853D01*
X152151772Y-62046703D01*
X152316184Y-62014000D01*
X152483816Y-62014000D01*
X152648228Y-62046703D01*
G37*
G36*
X145028228Y-62046703D02*
G01*
X145183100Y-62110853D01*
X145322481Y-62203985D01*
X145441015Y-62322519D01*
X145534147Y-62461900D01*
X145598297Y-62616772D01*
X145631000Y-62781184D01*
X145631000Y-62948816D01*
X145598297Y-63113228D01*
X145534147Y-63268100D01*
X145441015Y-63407481D01*
X145322481Y-63526015D01*
X145183100Y-63619147D01*
X145028228Y-63683297D01*
X144863816Y-63716000D01*
X144696184Y-63716000D01*
X144531772Y-63683297D01*
X144376900Y-63619147D01*
X144237519Y-63526015D01*
X144118985Y-63407481D01*
X144025853Y-63268100D01*
X143961703Y-63113228D01*
X143929000Y-62948816D01*
X143929000Y-62781184D01*
X143961703Y-62616772D01*
X144025853Y-62461900D01*
X144118985Y-62322519D01*
X144237519Y-62203985D01*
X144376900Y-62110853D01*
X144531772Y-62046703D01*
X144696184Y-62014000D01*
X144863816Y-62014000D01*
X145028228Y-62046703D01*
G37*
G36*
X137408228Y-62046703D02*
G01*
X137563100Y-62110853D01*
X137702481Y-62203985D01*
X137821015Y-62322519D01*
X137914147Y-62461900D01*
X137978297Y-62616772D01*
X138011000Y-62781184D01*
X138011000Y-62948816D01*
X137978297Y-63113228D01*
X137914147Y-63268100D01*
X137821015Y-63407481D01*
X137702481Y-63526015D01*
X137563100Y-63619147D01*
X137408228Y-63683297D01*
X137243816Y-63716000D01*
X137076184Y-63716000D01*
X136911772Y-63683297D01*
X136756900Y-63619147D01*
X136617519Y-63526015D01*
X136498985Y-63407481D01*
X136405853Y-63268100D01*
X136341703Y-63113228D01*
X136309000Y-62948816D01*
X136309000Y-62781184D01*
X136341703Y-62616772D01*
X136405853Y-62461900D01*
X136498985Y-62322519D01*
X136617519Y-62203985D01*
X136756900Y-62110853D01*
X136911772Y-62046703D01*
X137076184Y-62014000D01*
X137243816Y-62014000D01*
X137408228Y-62046703D01*
G37*
G36*
X186284267Y-62109205D02*
G01*
X186427309Y-62168455D01*
X186427311Y-62168456D01*
X186556046Y-62254474D01*
X186665526Y-62363954D01*
X186665527Y-62363956D01*
X186751545Y-62492691D01*
X186810795Y-62635733D01*
X186841000Y-62787584D01*
X186841000Y-62942416D01*
X186810795Y-63094267D01*
X186751545Y-63237309D01*
X186751544Y-63237311D01*
X186665526Y-63366046D01*
X186556046Y-63475526D01*
X186427311Y-63561544D01*
X186427310Y-63561545D01*
X186427309Y-63561545D01*
X186284267Y-63620795D01*
X186132416Y-63651000D01*
X185977584Y-63651000D01*
X185825733Y-63620795D01*
X185682691Y-63561545D01*
X185682690Y-63561545D01*
X185682689Y-63561544D01*
X185553954Y-63475526D01*
X185444474Y-63366046D01*
X185358456Y-63237311D01*
X185358455Y-63237309D01*
X185299205Y-63094267D01*
X185269000Y-62942416D01*
X185269000Y-62787584D01*
X185299205Y-62635733D01*
X185358455Y-62492691D01*
X185444473Y-62363956D01*
X185444474Y-62363954D01*
X185553954Y-62254474D01*
X185682689Y-62168456D01*
X185682691Y-62168455D01*
X185825733Y-62109205D01*
X185977584Y-62079000D01*
X186132416Y-62079000D01*
X186284267Y-62109205D01*
G37*
G36*
X163424267Y-62109205D02*
G01*
X163567309Y-62168455D01*
X163567311Y-62168456D01*
X163696046Y-62254474D01*
X163805526Y-62363954D01*
X163805527Y-62363956D01*
X163891545Y-62492691D01*
X163950795Y-62635733D01*
X163981000Y-62787584D01*
X163981000Y-62942416D01*
X163950795Y-63094267D01*
X163891545Y-63237309D01*
X163891544Y-63237311D01*
X163805526Y-63366046D01*
X163696046Y-63475526D01*
X163567311Y-63561544D01*
X163567310Y-63561545D01*
X163567309Y-63561545D01*
X163424267Y-63620795D01*
X163272416Y-63651000D01*
X163117584Y-63651000D01*
X162965733Y-63620795D01*
X162822691Y-63561545D01*
X162822690Y-63561545D01*
X162822689Y-63561544D01*
X162693954Y-63475526D01*
X162584474Y-63366046D01*
X162498456Y-63237311D01*
X162498455Y-63237309D01*
X162439205Y-63094267D01*
X162409000Y-62942416D01*
X162409000Y-62787584D01*
X162439205Y-62635733D01*
X162498455Y-62492691D01*
X162584473Y-62363956D01*
X162584474Y-62363954D01*
X162693954Y-62254474D01*
X162822689Y-62168456D01*
X162822691Y-62168455D01*
X162965733Y-62109205D01*
X163117584Y-62079000D01*
X163272416Y-62079000D01*
X163424267Y-62109205D01*
G37*
G36*
X156323512Y-61333927D02*
G01*
X156472812Y-61363624D01*
X156636784Y-61431544D01*
X156784354Y-61530147D01*
X156909853Y-61655646D01*
X157008456Y-61803216D01*
X157076376Y-61967188D01*
X157111000Y-62141259D01*
X157111000Y-62318741D01*
X157076376Y-62492812D01*
X157008456Y-62656784D01*
X156909853Y-62804354D01*
X156784354Y-62929853D01*
X156636784Y-63028456D01*
X156472812Y-63096376D01*
X156323512Y-63126073D01*
X156298742Y-63131000D01*
X156121258Y-63131000D01*
X156096488Y-63126073D01*
X155947188Y-63096376D01*
X155783216Y-63028456D01*
X155635646Y-62929853D01*
X155510147Y-62804354D01*
X155411544Y-62656784D01*
X155343624Y-62492812D01*
X155309000Y-62318741D01*
X155309000Y-62141259D01*
X155343624Y-61967188D01*
X155411544Y-61803216D01*
X155510147Y-61655646D01*
X155635646Y-61530147D01*
X155783216Y-61431544D01*
X155947188Y-61363624D01*
X156096488Y-61333927D01*
X156121258Y-61329000D01*
X156298742Y-61329000D01*
X156323512Y-61333927D01*
G37*
G36*
X137408228Y-59506703D02*
G01*
X137563100Y-59570853D01*
X137702481Y-59663985D01*
X137821015Y-59782519D01*
X137914147Y-59921900D01*
X137978297Y-60076772D01*
X138011000Y-60241184D01*
X138011000Y-60408816D01*
X137978297Y-60573228D01*
X137914147Y-60728100D01*
X137821015Y-60867481D01*
X137702481Y-60986015D01*
X137563100Y-61079147D01*
X137408228Y-61143297D01*
X137243816Y-61176000D01*
X137076184Y-61176000D01*
X136911772Y-61143297D01*
X136756900Y-61079147D01*
X136617519Y-60986015D01*
X136498985Y-60867481D01*
X136405853Y-60728100D01*
X136341703Y-60573228D01*
X136309000Y-60408816D01*
X136309000Y-60241184D01*
X136341703Y-60076772D01*
X136405853Y-59921900D01*
X136498985Y-59782519D01*
X136617519Y-59663985D01*
X136756900Y-59570853D01*
X136911772Y-59506703D01*
X137076184Y-59474000D01*
X137243816Y-59474000D01*
X137408228Y-59506703D01*
G37*
G36*
X139948228Y-59506703D02*
G01*
X140103100Y-59570853D01*
X140242481Y-59663985D01*
X140361015Y-59782519D01*
X140454147Y-59921900D01*
X140518297Y-60076772D01*
X140551000Y-60241184D01*
X140551000Y-60408816D01*
X140518297Y-60573228D01*
X140454147Y-60728100D01*
X140361015Y-60867481D01*
X140242481Y-60986015D01*
X140103100Y-61079147D01*
X139948228Y-61143297D01*
X139783816Y-61176000D01*
X139616184Y-61176000D01*
X139451772Y-61143297D01*
X139296900Y-61079147D01*
X139157519Y-60986015D01*
X139038985Y-60867481D01*
X138945853Y-60728100D01*
X138881703Y-60573228D01*
X138849000Y-60408816D01*
X138849000Y-60241184D01*
X138881703Y-60076772D01*
X138945853Y-59921900D01*
X139038985Y-59782519D01*
X139157519Y-59663985D01*
X139296900Y-59570853D01*
X139451772Y-59506703D01*
X139616184Y-59474000D01*
X139783816Y-59474000D01*
X139948228Y-59506703D01*
G37*
G36*
X145028228Y-59506703D02*
G01*
X145183100Y-59570853D01*
X145322481Y-59663985D01*
X145441015Y-59782519D01*
X145534147Y-59921900D01*
X145598297Y-60076772D01*
X145631000Y-60241184D01*
X145631000Y-60408816D01*
X145598297Y-60573228D01*
X145534147Y-60728100D01*
X145441015Y-60867481D01*
X145322481Y-60986015D01*
X145183100Y-61079147D01*
X145028228Y-61143297D01*
X144863816Y-61176000D01*
X144696184Y-61176000D01*
X144531772Y-61143297D01*
X144376900Y-61079147D01*
X144237519Y-60986015D01*
X144118985Y-60867481D01*
X144025853Y-60728100D01*
X143961703Y-60573228D01*
X143929000Y-60408816D01*
X143929000Y-60241184D01*
X143961703Y-60076772D01*
X144025853Y-59921900D01*
X144118985Y-59782519D01*
X144237519Y-59663985D01*
X144376900Y-59570853D01*
X144531772Y-59506703D01*
X144696184Y-59474000D01*
X144863816Y-59474000D01*
X145028228Y-59506703D01*
G37*
G36*
X147568228Y-59506703D02*
G01*
X147723100Y-59570853D01*
X147862481Y-59663985D01*
X147981015Y-59782519D01*
X148074147Y-59921900D01*
X148138297Y-60076772D01*
X148171000Y-60241184D01*
X148171000Y-60408816D01*
X148138297Y-60573228D01*
X148074147Y-60728100D01*
X147981015Y-60867481D01*
X147862481Y-60986015D01*
X147723100Y-61079147D01*
X147568228Y-61143297D01*
X147403816Y-61176000D01*
X147236184Y-61176000D01*
X147071772Y-61143297D01*
X146916900Y-61079147D01*
X146777519Y-60986015D01*
X146658985Y-60867481D01*
X146565853Y-60728100D01*
X146501703Y-60573228D01*
X146469000Y-60408816D01*
X146469000Y-60241184D01*
X146501703Y-60076772D01*
X146565853Y-59921900D01*
X146658985Y-59782519D01*
X146777519Y-59663985D01*
X146916900Y-59570853D01*
X147071772Y-59506703D01*
X147236184Y-59474000D01*
X147403816Y-59474000D01*
X147568228Y-59506703D01*
G37*
G36*
X152648228Y-59506703D02*
G01*
X152803100Y-59570853D01*
X152942481Y-59663985D01*
X153061015Y-59782519D01*
X153154147Y-59921900D01*
X153218297Y-60076772D01*
X153251000Y-60241184D01*
X153251000Y-60408816D01*
X153218297Y-60573228D01*
X153154147Y-60728100D01*
X153061015Y-60867481D01*
X152942481Y-60986015D01*
X152803100Y-61079147D01*
X152648228Y-61143297D01*
X152483816Y-61176000D01*
X152316184Y-61176000D01*
X152151772Y-61143297D01*
X151996900Y-61079147D01*
X151857519Y-60986015D01*
X151738985Y-60867481D01*
X151645853Y-60728100D01*
X151581703Y-60573228D01*
X151549000Y-60408816D01*
X151549000Y-60241184D01*
X151581703Y-60076772D01*
X151645853Y-59921900D01*
X151738985Y-59782519D01*
X151857519Y-59663985D01*
X151996900Y-59570853D01*
X152151772Y-59506703D01*
X152316184Y-59474000D01*
X152483816Y-59474000D01*
X152648228Y-59506703D01*
G37*
G36*
X150108228Y-59506703D02*
G01*
X150263100Y-59570853D01*
X150402481Y-59663985D01*
X150521015Y-59782519D01*
X150614147Y-59921900D01*
X150678297Y-60076772D01*
X150711000Y-60241184D01*
X150711000Y-60408816D01*
X150678297Y-60573228D01*
X150614147Y-60728100D01*
X150521015Y-60867481D01*
X150402481Y-60986015D01*
X150263100Y-61079147D01*
X150108228Y-61143297D01*
X149943816Y-61176000D01*
X149776184Y-61176000D01*
X149611772Y-61143297D01*
X149456900Y-61079147D01*
X149317519Y-60986015D01*
X149198985Y-60867481D01*
X149105853Y-60728100D01*
X149041703Y-60573228D01*
X149009000Y-60408816D01*
X149009000Y-60241184D01*
X149041703Y-60076772D01*
X149105853Y-59921900D01*
X149198985Y-59782519D01*
X149317519Y-59663985D01*
X149456900Y-59570853D01*
X149611772Y-59506703D01*
X149776184Y-59474000D01*
X149943816Y-59474000D01*
X150108228Y-59506703D01*
G37*
G36*
X142488228Y-59506703D02*
G01*
X142643100Y-59570853D01*
X142782481Y-59663985D01*
X142901015Y-59782519D01*
X142994147Y-59921900D01*
X143058297Y-60076772D01*
X143091000Y-60241184D01*
X143091000Y-60408816D01*
X143058297Y-60573228D01*
X142994147Y-60728100D01*
X142901015Y-60867481D01*
X142782481Y-60986015D01*
X142643100Y-61079147D01*
X142488228Y-61143297D01*
X142323816Y-61176000D01*
X142156184Y-61176000D01*
X141991772Y-61143297D01*
X141836900Y-61079147D01*
X141697519Y-60986015D01*
X141578985Y-60867481D01*
X141485853Y-60728100D01*
X141421703Y-60573228D01*
X141389000Y-60408816D01*
X141389000Y-60241184D01*
X141421703Y-60076772D01*
X141485853Y-59921900D01*
X141578985Y-59782519D01*
X141697519Y-59663985D01*
X141836900Y-59570853D01*
X141991772Y-59506703D01*
X142156184Y-59474000D01*
X142323816Y-59474000D01*
X142488228Y-59506703D01*
G37*
G36*
X186284267Y-59569205D02*
G01*
X186427309Y-59628455D01*
X186427311Y-59628456D01*
X186556046Y-59714474D01*
X186665526Y-59823954D01*
X186665527Y-59823956D01*
X186751545Y-59952691D01*
X186810795Y-60095733D01*
X186841000Y-60247584D01*
X186841000Y-60402416D01*
X186810795Y-60554267D01*
X186763132Y-60669335D01*
X186751544Y-60697311D01*
X186665526Y-60826046D01*
X186556046Y-60935526D01*
X186427311Y-61021544D01*
X186427310Y-61021545D01*
X186427309Y-61021545D01*
X186284267Y-61080795D01*
X186132416Y-61111000D01*
X185977584Y-61111000D01*
X185825733Y-61080795D01*
X185682691Y-61021545D01*
X185682690Y-61021545D01*
X185682689Y-61021544D01*
X185553954Y-60935526D01*
X185444474Y-60826046D01*
X185358456Y-60697311D01*
X185346868Y-60669335D01*
X185299205Y-60554267D01*
X185269000Y-60402416D01*
X185269000Y-60247584D01*
X185299205Y-60095733D01*
X185358455Y-59952691D01*
X185444473Y-59823956D01*
X185444474Y-59823954D01*
X185553954Y-59714474D01*
X185682689Y-59628456D01*
X185682691Y-59628455D01*
X185825733Y-59569205D01*
X185977584Y-59539000D01*
X186132416Y-59539000D01*
X186284267Y-59569205D01*
G37*
G36*
X163424267Y-59569205D02*
G01*
X163567309Y-59628455D01*
X163567311Y-59628456D01*
X163696046Y-59714474D01*
X163805526Y-59823954D01*
X163805527Y-59823956D01*
X163891545Y-59952691D01*
X163950795Y-60095733D01*
X163981000Y-60247584D01*
X163981000Y-60402416D01*
X163950795Y-60554267D01*
X163903132Y-60669335D01*
X163891544Y-60697311D01*
X163805526Y-60826046D01*
X163696046Y-60935526D01*
X163567311Y-61021544D01*
X163567310Y-61021545D01*
X163567309Y-61021545D01*
X163424267Y-61080795D01*
X163272416Y-61111000D01*
X163117584Y-61111000D01*
X162965733Y-61080795D01*
X162822691Y-61021545D01*
X162822690Y-61021545D01*
X162822689Y-61021544D01*
X162693954Y-60935526D01*
X162584474Y-60826046D01*
X162498456Y-60697311D01*
X162486868Y-60669335D01*
X162439205Y-60554267D01*
X162409000Y-60402416D01*
X162409000Y-60247584D01*
X162439205Y-60095733D01*
X162498455Y-59952691D01*
X162584473Y-59823956D01*
X162584474Y-59823954D01*
X162693954Y-59714474D01*
X162822689Y-59628456D01*
X162822691Y-59628455D01*
X162965733Y-59569205D01*
X163117584Y-59539000D01*
X163272416Y-59539000D01*
X163424267Y-59569205D01*
G37*
G36*
X193110997Y-55193051D02*
G01*
X193144652Y-55203261D01*
X193175665Y-55219838D01*
X193202851Y-55242149D01*
X193225162Y-55269335D01*
X193241739Y-55300348D01*
X193251949Y-55334003D01*
X193256000Y-55375138D01*
X193256000Y-58604862D01*
X193251949Y-58645997D01*
X193241739Y-58679652D01*
X193225162Y-58710665D01*
X193202851Y-58737851D01*
X193175665Y-58760162D01*
X193144652Y-58776739D01*
X193110997Y-58786949D01*
X193069862Y-58791000D01*
X191740138Y-58791000D01*
X191699003Y-58786949D01*
X191665348Y-58776739D01*
X191634335Y-58760162D01*
X191607149Y-58737851D01*
X191584838Y-58710665D01*
X191568261Y-58679652D01*
X191558051Y-58645997D01*
X191554000Y-58604862D01*
X191554000Y-55375138D01*
X191558051Y-55334003D01*
X191568261Y-55300348D01*
X191584838Y-55269335D01*
X191607149Y-55242149D01*
X191634335Y-55219838D01*
X191665348Y-55203261D01*
X191699003Y-55193051D01*
X191740138Y-55189000D01*
X193069862Y-55189000D01*
X193110997Y-55193051D01*
G37*
G36*
X142488228Y-56966703D02*
G01*
X142643100Y-57030853D01*
X142782481Y-57123985D01*
X142901015Y-57242519D01*
X142994147Y-57381900D01*
X143058297Y-57536772D01*
X143091000Y-57701184D01*
X143091000Y-57868816D01*
X143058297Y-58033228D01*
X142994147Y-58188100D01*
X142901015Y-58327481D01*
X142782481Y-58446015D01*
X142643100Y-58539147D01*
X142488228Y-58603297D01*
X142323816Y-58636000D01*
X142156184Y-58636000D01*
X141991772Y-58603297D01*
X141836900Y-58539147D01*
X141697519Y-58446015D01*
X141578985Y-58327481D01*
X141485853Y-58188100D01*
X141421703Y-58033228D01*
X141389000Y-57868816D01*
X141389000Y-57701184D01*
X141421703Y-57536772D01*
X141485853Y-57381900D01*
X141578985Y-57242519D01*
X141697519Y-57123985D01*
X141836900Y-57030853D01*
X141991772Y-56966703D01*
X142156184Y-56934000D01*
X142323816Y-56934000D01*
X142488228Y-56966703D01*
G37*
G36*
X145028228Y-56966703D02*
G01*
X145183100Y-57030853D01*
X145322481Y-57123985D01*
X145441015Y-57242519D01*
X145534147Y-57381900D01*
X145598297Y-57536772D01*
X145631000Y-57701184D01*
X145631000Y-57868816D01*
X145598297Y-58033228D01*
X145534147Y-58188100D01*
X145441015Y-58327481D01*
X145322481Y-58446015D01*
X145183100Y-58539147D01*
X145028228Y-58603297D01*
X144863816Y-58636000D01*
X144696184Y-58636000D01*
X144531772Y-58603297D01*
X144376900Y-58539147D01*
X144237519Y-58446015D01*
X144118985Y-58327481D01*
X144025853Y-58188100D01*
X143961703Y-58033228D01*
X143929000Y-57868816D01*
X143929000Y-57701184D01*
X143961703Y-57536772D01*
X144025853Y-57381900D01*
X144118985Y-57242519D01*
X144237519Y-57123985D01*
X144376900Y-57030853D01*
X144531772Y-56966703D01*
X144696184Y-56934000D01*
X144863816Y-56934000D01*
X145028228Y-56966703D01*
G37*
G36*
X152648228Y-56966703D02*
G01*
X152803100Y-57030853D01*
X152942481Y-57123985D01*
X153061015Y-57242519D01*
X153154147Y-57381900D01*
X153218297Y-57536772D01*
X153251000Y-57701184D01*
X153251000Y-57868816D01*
X153218297Y-58033228D01*
X153154147Y-58188100D01*
X153061015Y-58327481D01*
X152942481Y-58446015D01*
X152803100Y-58539147D01*
X152648228Y-58603297D01*
X152483816Y-58636000D01*
X152316184Y-58636000D01*
X152151772Y-58603297D01*
X151996900Y-58539147D01*
X151857519Y-58446015D01*
X151738985Y-58327481D01*
X151645853Y-58188100D01*
X151581703Y-58033228D01*
X151549000Y-57868816D01*
X151549000Y-57701184D01*
X151581703Y-57536772D01*
X151645853Y-57381900D01*
X151738985Y-57242519D01*
X151857519Y-57123985D01*
X151996900Y-57030853D01*
X152151772Y-56966703D01*
X152316184Y-56934000D01*
X152483816Y-56934000D01*
X152648228Y-56966703D01*
G37*
G36*
X137408228Y-56966703D02*
G01*
X137563100Y-57030853D01*
X137702481Y-57123985D01*
X137821015Y-57242519D01*
X137914147Y-57381900D01*
X137978297Y-57536772D01*
X138011000Y-57701184D01*
X138011000Y-57868816D01*
X137978297Y-58033228D01*
X137914147Y-58188100D01*
X137821015Y-58327481D01*
X137702481Y-58446015D01*
X137563100Y-58539147D01*
X137408228Y-58603297D01*
X137243816Y-58636000D01*
X137076184Y-58636000D01*
X136911772Y-58603297D01*
X136756900Y-58539147D01*
X136617519Y-58446015D01*
X136498985Y-58327481D01*
X136405853Y-58188100D01*
X136341703Y-58033228D01*
X136309000Y-57868816D01*
X136309000Y-57701184D01*
X136341703Y-57536772D01*
X136405853Y-57381900D01*
X136498985Y-57242519D01*
X136617519Y-57123985D01*
X136756900Y-57030853D01*
X136911772Y-56966703D01*
X137076184Y-56934000D01*
X137243816Y-56934000D01*
X137408228Y-56966703D01*
G37*
G36*
X163424267Y-57029205D02*
G01*
X163567309Y-57088455D01*
X163567311Y-57088456D01*
X163696046Y-57174474D01*
X163805526Y-57283954D01*
X163805527Y-57283956D01*
X163891545Y-57412691D01*
X163950795Y-57555733D01*
X163981000Y-57707584D01*
X163981000Y-57862416D01*
X163950795Y-58014267D01*
X163891545Y-58157309D01*
X163891544Y-58157311D01*
X163805526Y-58286046D01*
X163696046Y-58395526D01*
X163567311Y-58481544D01*
X163567310Y-58481545D01*
X163567309Y-58481545D01*
X163424267Y-58540795D01*
X163272416Y-58571000D01*
X163117584Y-58571000D01*
X162965733Y-58540795D01*
X162822691Y-58481545D01*
X162822690Y-58481545D01*
X162822689Y-58481544D01*
X162693954Y-58395526D01*
X162584474Y-58286046D01*
X162498456Y-58157311D01*
X162498455Y-58157309D01*
X162439205Y-58014267D01*
X162409000Y-57862416D01*
X162409000Y-57707584D01*
X162439205Y-57555733D01*
X162498455Y-57412691D01*
X162584473Y-57283956D01*
X162584474Y-57283954D01*
X162693954Y-57174474D01*
X162822689Y-57088456D01*
X162822691Y-57088455D01*
X162965733Y-57029205D01*
X163117584Y-56999000D01*
X163272416Y-56999000D01*
X163424267Y-57029205D01*
G37*
G36*
X157111000Y-56781000D02*
G01*
X155309000Y-56781000D01*
X155309000Y-54979000D01*
X157111000Y-54979000D01*
X157111000Y-56781000D01*
G37*
G36*
X152648228Y-54426703D02*
G01*
X152803100Y-54490853D01*
X152942481Y-54583985D01*
X153061015Y-54702519D01*
X153154147Y-54841900D01*
X153218297Y-54996772D01*
X153251000Y-55161184D01*
X153251000Y-55328816D01*
X153218297Y-55493228D01*
X153154147Y-55648100D01*
X153061015Y-55787481D01*
X152942481Y-55906015D01*
X152803100Y-55999147D01*
X152648228Y-56063297D01*
X152483816Y-56096000D01*
X152316184Y-56096000D01*
X152151772Y-56063297D01*
X151996900Y-55999147D01*
X151857519Y-55906015D01*
X151738985Y-55787481D01*
X151645853Y-55648100D01*
X151581703Y-55493228D01*
X151549000Y-55328816D01*
X151549000Y-55161184D01*
X151581703Y-54996772D01*
X151645853Y-54841900D01*
X151738985Y-54702519D01*
X151857519Y-54583985D01*
X151996900Y-54490853D01*
X152151772Y-54426703D01*
X152316184Y-54394000D01*
X152483816Y-54394000D01*
X152648228Y-54426703D01*
G37*
G36*
X137408228Y-54426703D02*
G01*
X137563100Y-54490853D01*
X137702481Y-54583985D01*
X137821015Y-54702519D01*
X137914147Y-54841900D01*
X137978297Y-54996772D01*
X138011000Y-55161184D01*
X138011000Y-55328816D01*
X137978297Y-55493228D01*
X137914147Y-55648100D01*
X137821015Y-55787481D01*
X137702481Y-55906015D01*
X137563100Y-55999147D01*
X137408228Y-56063297D01*
X137243816Y-56096000D01*
X137076184Y-56096000D01*
X136911772Y-56063297D01*
X136756900Y-55999147D01*
X136617519Y-55906015D01*
X136498985Y-55787481D01*
X136405853Y-55648100D01*
X136341703Y-55493228D01*
X136309000Y-55328816D01*
X136309000Y-55161184D01*
X136341703Y-54996772D01*
X136405853Y-54841900D01*
X136498985Y-54702519D01*
X136617519Y-54583985D01*
X136756900Y-54490853D01*
X136911772Y-54426703D01*
X137076184Y-54394000D01*
X137243816Y-54394000D01*
X137408228Y-54426703D01*
G37*
G36*
X145028228Y-54426703D02*
G01*
X145183100Y-54490853D01*
X145322481Y-54583985D01*
X145441015Y-54702519D01*
X145534147Y-54841900D01*
X145598297Y-54996772D01*
X145631000Y-55161184D01*
X145631000Y-55328816D01*
X145598297Y-55493228D01*
X145534147Y-55648100D01*
X145441015Y-55787481D01*
X145322481Y-55906015D01*
X145183100Y-55999147D01*
X145028228Y-56063297D01*
X144863816Y-56096000D01*
X144696184Y-56096000D01*
X144531772Y-56063297D01*
X144376900Y-55999147D01*
X144237519Y-55906015D01*
X144118985Y-55787481D01*
X144025853Y-55648100D01*
X143961703Y-55493228D01*
X143929000Y-55328816D01*
X143929000Y-55161184D01*
X143961703Y-54996772D01*
X144025853Y-54841900D01*
X144118985Y-54702519D01*
X144237519Y-54583985D01*
X144376900Y-54490853D01*
X144531772Y-54426703D01*
X144696184Y-54394000D01*
X144863816Y-54394000D01*
X145028228Y-54426703D01*
G37*
G36*
X142488228Y-54426703D02*
G01*
X142643100Y-54490853D01*
X142782481Y-54583985D01*
X142901015Y-54702519D01*
X142994147Y-54841900D01*
X143058297Y-54996772D01*
X143091000Y-55161184D01*
X143091000Y-55328816D01*
X143058297Y-55493228D01*
X142994147Y-55648100D01*
X142901015Y-55787481D01*
X142782481Y-55906015D01*
X142643100Y-55999147D01*
X142488228Y-56063297D01*
X142323816Y-56096000D01*
X142156184Y-56096000D01*
X141991772Y-56063297D01*
X141836900Y-55999147D01*
X141697519Y-55906015D01*
X141578985Y-55787481D01*
X141485853Y-55648100D01*
X141421703Y-55493228D01*
X141389000Y-55328816D01*
X141389000Y-55161184D01*
X141421703Y-54996772D01*
X141485853Y-54841900D01*
X141578985Y-54702519D01*
X141697519Y-54583985D01*
X141836900Y-54490853D01*
X141991772Y-54426703D01*
X142156184Y-54394000D01*
X142323816Y-54394000D01*
X142488228Y-54426703D01*
G37*
G36*
X163424267Y-54489205D02*
G01*
X163567309Y-54548455D01*
X163567311Y-54548456D01*
X163696046Y-54634474D01*
X163805526Y-54743954D01*
X163805527Y-54743956D01*
X163891545Y-54872691D01*
X163950795Y-55015733D01*
X163981000Y-55167584D01*
X163981000Y-55322416D01*
X163950795Y-55474267D01*
X163891545Y-55617309D01*
X163891544Y-55617311D01*
X163805526Y-55746046D01*
X163696046Y-55855526D01*
X163567311Y-55941544D01*
X163567310Y-55941545D01*
X163567309Y-55941545D01*
X163424267Y-56000795D01*
X163272416Y-56031000D01*
X163117584Y-56031000D01*
X162965733Y-56000795D01*
X162822691Y-55941545D01*
X162822690Y-55941545D01*
X162822689Y-55941544D01*
X162693954Y-55855526D01*
X162584474Y-55746046D01*
X162498456Y-55617311D01*
X162498455Y-55617309D01*
X162439205Y-55474267D01*
X162409000Y-55322416D01*
X162409000Y-55167584D01*
X162439205Y-55015733D01*
X162498455Y-54872691D01*
X162584473Y-54743956D01*
X162584474Y-54743954D01*
X162693954Y-54634474D01*
X162822689Y-54548456D01*
X162822691Y-54548455D01*
X162965733Y-54489205D01*
X163117584Y-54459000D01*
X163272416Y-54459000D01*
X163424267Y-54489205D01*
G37*
G36*
X186284267Y-54489205D02*
G01*
X186427309Y-54548455D01*
X186427311Y-54548456D01*
X186556046Y-54634474D01*
X186665526Y-54743954D01*
X186665527Y-54743956D01*
X186751545Y-54872691D01*
X186810795Y-55015733D01*
X186841000Y-55167584D01*
X186841000Y-55322416D01*
X186810795Y-55474267D01*
X186751545Y-55617309D01*
X186751544Y-55617311D01*
X186665526Y-55746046D01*
X186556046Y-55855526D01*
X186427311Y-55941544D01*
X186427310Y-55941545D01*
X186427309Y-55941545D01*
X186284267Y-56000795D01*
X186132416Y-56031000D01*
X185977584Y-56031000D01*
X185825733Y-56000795D01*
X185682691Y-55941545D01*
X185682690Y-55941545D01*
X185682689Y-55941544D01*
X185553954Y-55855526D01*
X185444474Y-55746046D01*
X185358456Y-55617311D01*
X185358455Y-55617309D01*
X185299205Y-55474267D01*
X185269000Y-55322416D01*
X185269000Y-55167584D01*
X185299205Y-55015733D01*
X185358455Y-54872691D01*
X185444473Y-54743956D01*
X185444474Y-54743954D01*
X185553954Y-54634474D01*
X185682689Y-54548456D01*
X185682691Y-54548455D01*
X185825733Y-54489205D01*
X185977584Y-54459000D01*
X186132416Y-54459000D01*
X186284267Y-54489205D01*
G37*
G36*
X156323512Y-52443927D02*
G01*
X156472812Y-52473624D01*
X156636784Y-52541544D01*
X156784354Y-52640147D01*
X156909853Y-52765646D01*
X157008456Y-52913216D01*
X157076376Y-53077188D01*
X157111000Y-53251259D01*
X157111000Y-53428741D01*
X157076376Y-53602812D01*
X157008456Y-53766784D01*
X156909853Y-53914354D01*
X156784354Y-54039853D01*
X156636784Y-54138456D01*
X156472812Y-54206376D01*
X156323512Y-54236073D01*
X156298742Y-54241000D01*
X156121258Y-54241000D01*
X156096488Y-54236073D01*
X155947188Y-54206376D01*
X155783216Y-54138456D01*
X155635646Y-54039853D01*
X155510147Y-53914354D01*
X155411544Y-53766784D01*
X155343624Y-53602812D01*
X155309000Y-53428741D01*
X155309000Y-53251259D01*
X155343624Y-53077188D01*
X155411544Y-52913216D01*
X155510147Y-52765646D01*
X155635646Y-52640147D01*
X155783216Y-52541544D01*
X155947188Y-52473624D01*
X156096488Y-52443927D01*
X156121258Y-52439000D01*
X156298742Y-52439000D01*
X156323512Y-52443927D01*
G37*
G36*
X152648228Y-51886703D02*
G01*
X152803100Y-51950853D01*
X152942481Y-52043985D01*
X153061015Y-52162519D01*
X153154147Y-52301900D01*
X153218297Y-52456772D01*
X153251000Y-52621184D01*
X153251000Y-52788816D01*
X153218297Y-52953228D01*
X153154147Y-53108100D01*
X153061015Y-53247481D01*
X152942481Y-53366015D01*
X152803100Y-53459147D01*
X152648228Y-53523297D01*
X152483816Y-53556000D01*
X152316184Y-53556000D01*
X152151772Y-53523297D01*
X151996900Y-53459147D01*
X151857519Y-53366015D01*
X151738985Y-53247481D01*
X151645853Y-53108100D01*
X151581703Y-52953228D01*
X151549000Y-52788816D01*
X151549000Y-52621184D01*
X151581703Y-52456772D01*
X151645853Y-52301900D01*
X151738985Y-52162519D01*
X151857519Y-52043985D01*
X151996900Y-51950853D01*
X152151772Y-51886703D01*
X152316184Y-51854000D01*
X152483816Y-51854000D01*
X152648228Y-51886703D01*
G37*
G36*
X145028228Y-51886703D02*
G01*
X145183100Y-51950853D01*
X145322481Y-52043985D01*
X145441015Y-52162519D01*
X145534147Y-52301900D01*
X145598297Y-52456772D01*
X145631000Y-52621184D01*
X145631000Y-52788816D01*
X145598297Y-52953228D01*
X145534147Y-53108100D01*
X145441015Y-53247481D01*
X145322481Y-53366015D01*
X145183100Y-53459147D01*
X145028228Y-53523297D01*
X144863816Y-53556000D01*
X144696184Y-53556000D01*
X144531772Y-53523297D01*
X144376900Y-53459147D01*
X144237519Y-53366015D01*
X144118985Y-53247481D01*
X144025853Y-53108100D01*
X143961703Y-52953228D01*
X143929000Y-52788816D01*
X143929000Y-52621184D01*
X143961703Y-52456772D01*
X144025853Y-52301900D01*
X144118985Y-52162519D01*
X144237519Y-52043985D01*
X144376900Y-51950853D01*
X144531772Y-51886703D01*
X144696184Y-51854000D01*
X144863816Y-51854000D01*
X145028228Y-51886703D01*
G37*
G36*
X142488228Y-51886703D02*
G01*
X142643100Y-51950853D01*
X142782481Y-52043985D01*
X142901015Y-52162519D01*
X142994147Y-52301900D01*
X143058297Y-52456772D01*
X143091000Y-52621184D01*
X143091000Y-52788816D01*
X143058297Y-52953228D01*
X142994147Y-53108100D01*
X142901015Y-53247481D01*
X142782481Y-53366015D01*
X142643100Y-53459147D01*
X142488228Y-53523297D01*
X142323816Y-53556000D01*
X142156184Y-53556000D01*
X141991772Y-53523297D01*
X141836900Y-53459147D01*
X141697519Y-53366015D01*
X141578985Y-53247481D01*
X141485853Y-53108100D01*
X141421703Y-52953228D01*
X141389000Y-52788816D01*
X141389000Y-52621184D01*
X141421703Y-52456772D01*
X141485853Y-52301900D01*
X141578985Y-52162519D01*
X141697519Y-52043985D01*
X141836900Y-51950853D01*
X141991772Y-51886703D01*
X142156184Y-51854000D01*
X142323816Y-51854000D01*
X142488228Y-51886703D01*
G37*
G36*
X137408228Y-51886703D02*
G01*
X137563100Y-51950853D01*
X137702481Y-52043985D01*
X137821015Y-52162519D01*
X137914147Y-52301900D01*
X137978297Y-52456772D01*
X138011000Y-52621184D01*
X138011000Y-52788816D01*
X137978297Y-52953228D01*
X137914147Y-53108100D01*
X137821015Y-53247481D01*
X137702481Y-53366015D01*
X137563100Y-53459147D01*
X137408228Y-53523297D01*
X137243816Y-53556000D01*
X137076184Y-53556000D01*
X136911772Y-53523297D01*
X136756900Y-53459147D01*
X136617519Y-53366015D01*
X136498985Y-53247481D01*
X136405853Y-53108100D01*
X136341703Y-52953228D01*
X136309000Y-52788816D01*
X136309000Y-52621184D01*
X136341703Y-52456772D01*
X136405853Y-52301900D01*
X136498985Y-52162519D01*
X136617519Y-52043985D01*
X136756900Y-51950853D01*
X136911772Y-51886703D01*
X137076184Y-51854000D01*
X137243816Y-51854000D01*
X137408228Y-51886703D01*
G37*
G36*
X186284267Y-51949205D02*
G01*
X186427309Y-52008455D01*
X186427311Y-52008456D01*
X186556046Y-52094474D01*
X186665526Y-52203954D01*
X186674271Y-52217042D01*
X186751545Y-52332691D01*
X186810795Y-52475733D01*
X186841000Y-52627584D01*
X186841000Y-52782416D01*
X186810795Y-52934267D01*
X186751595Y-53077188D01*
X186751544Y-53077311D01*
X186665526Y-53206046D01*
X186556046Y-53315526D01*
X186427311Y-53401544D01*
X186427310Y-53401545D01*
X186427309Y-53401545D01*
X186284267Y-53460795D01*
X186132416Y-53491000D01*
X185977584Y-53491000D01*
X185825733Y-53460795D01*
X185682691Y-53401545D01*
X185682690Y-53401545D01*
X185682689Y-53401544D01*
X185553954Y-53315526D01*
X185444474Y-53206046D01*
X185358456Y-53077311D01*
X185358405Y-53077188D01*
X185299205Y-52934267D01*
X185269000Y-52782416D01*
X185269000Y-52627584D01*
X185299205Y-52475733D01*
X185358455Y-52332691D01*
X185435729Y-52217042D01*
X185444474Y-52203954D01*
X185553954Y-52094474D01*
X185682689Y-52008456D01*
X185682691Y-52008455D01*
X185825733Y-51949205D01*
X185977584Y-51919000D01*
X186132416Y-51919000D01*
X186284267Y-51949205D01*
G37*
G36*
X163424267Y-51949205D02*
G01*
X163567309Y-52008455D01*
X163567311Y-52008456D01*
X163696046Y-52094474D01*
X163805526Y-52203954D01*
X163814271Y-52217042D01*
X163891545Y-52332691D01*
X163950795Y-52475733D01*
X163981000Y-52627584D01*
X163981000Y-52782416D01*
X163950795Y-52934267D01*
X163891595Y-53077188D01*
X163891544Y-53077311D01*
X163805526Y-53206046D01*
X163696046Y-53315526D01*
X163567311Y-53401544D01*
X163567310Y-53401545D01*
X163567309Y-53401545D01*
X163424267Y-53460795D01*
X163272416Y-53491000D01*
X163117584Y-53491000D01*
X162965733Y-53460795D01*
X162822691Y-53401545D01*
X162822690Y-53401545D01*
X162822689Y-53401544D01*
X162693954Y-53315526D01*
X162584474Y-53206046D01*
X162498456Y-53077311D01*
X162498405Y-53077188D01*
X162439205Y-52934267D01*
X162409000Y-52782416D01*
X162409000Y-52627584D01*
X162439205Y-52475733D01*
X162498455Y-52332691D01*
X162575729Y-52217042D01*
X162584474Y-52203954D01*
X162693954Y-52094474D01*
X162822689Y-52008456D01*
X162822691Y-52008455D01*
X162965733Y-51949205D01*
X163117584Y-51919000D01*
X163272416Y-51919000D01*
X163424267Y-51949205D01*
G37*
G36*
X124200256Y-49826298D02*
G01*
X124306579Y-49847447D01*
X124607042Y-49971903D01*
X124877451Y-50152585D01*
X125107415Y-50382549D01*
X125288097Y-50652958D01*
X125288098Y-50652960D01*
X125293518Y-50666046D01*
X125398357Y-50919148D01*
X125412553Y-50953422D01*
X125476000Y-51272389D01*
X125476000Y-51597611D01*
X125455434Y-51701000D01*
X125412553Y-51916579D01*
X125338867Y-52094473D01*
X125293518Y-52203956D01*
X125288097Y-52217042D01*
X125107415Y-52487451D01*
X124877451Y-52717415D01*
X124607042Y-52898097D01*
X124306579Y-53022553D01*
X124200256Y-53043702D01*
X123987611Y-53086000D01*
X123662389Y-53086000D01*
X123449744Y-53043702D01*
X123343421Y-53022553D01*
X123042958Y-52898097D01*
X122772549Y-52717415D01*
X122542585Y-52487451D01*
X122361903Y-52217042D01*
X122356483Y-52203956D01*
X122311133Y-52094473D01*
X122237447Y-51916579D01*
X122194566Y-51701000D01*
X122174000Y-51597611D01*
X122174000Y-51272389D01*
X122237447Y-50953422D01*
X122251644Y-50919148D01*
X122356482Y-50666046D01*
X122361902Y-50652960D01*
X122361903Y-50652958D01*
X122542585Y-50382549D01*
X122772549Y-50152585D01*
X123042958Y-49971903D01*
X123343421Y-49847447D01*
X123449744Y-49826298D01*
X123662389Y-49784000D01*
X123987611Y-49784000D01*
X124200256Y-49826298D01*
G37*
G36*
X192780256Y-49826298D02*
G01*
X192886579Y-49847447D01*
X193187042Y-49971903D01*
X193457451Y-50152585D01*
X193687415Y-50382549D01*
X193868097Y-50652958D01*
X193868098Y-50652960D01*
X193873518Y-50666046D01*
X193978357Y-50919148D01*
X193992553Y-50953422D01*
X194056000Y-51272389D01*
X194056000Y-51597611D01*
X194035434Y-51701000D01*
X193992553Y-51916579D01*
X193918867Y-52094473D01*
X193873518Y-52203956D01*
X193868097Y-52217042D01*
X193687415Y-52487451D01*
X193457451Y-52717415D01*
X193187042Y-52898097D01*
X192886579Y-53022553D01*
X192780256Y-53043702D01*
X192567611Y-53086000D01*
X192242389Y-53086000D01*
X192029744Y-53043702D01*
X191923421Y-53022553D01*
X191622958Y-52898097D01*
X191352549Y-52717415D01*
X191122585Y-52487451D01*
X190941903Y-52217042D01*
X190936483Y-52203956D01*
X190891133Y-52094473D01*
X190817447Y-51916579D01*
X190774566Y-51701000D01*
X190754000Y-51597611D01*
X190754000Y-51272389D01*
X190817447Y-50953422D01*
X190831644Y-50919148D01*
X190936482Y-50666046D01*
X190941902Y-50652960D01*
X190941903Y-50652958D01*
X191122585Y-50382549D01*
X191352549Y-50152585D01*
X191622958Y-49971903D01*
X191923421Y-49847447D01*
X192029744Y-49826298D01*
X192242389Y-49784000D01*
X192567611Y-49784000D01*
X192780256Y-49826298D01*
G37*
G36*
X156323512Y-49903927D02*
G01*
X156472812Y-49933624D01*
X156636784Y-50001544D01*
X156784354Y-50100147D01*
X156909853Y-50225646D01*
X157008456Y-50373216D01*
X157076376Y-50537188D01*
X157111000Y-50711259D01*
X157111000Y-50888741D01*
X157076376Y-51062812D01*
X157008456Y-51226784D01*
X156909853Y-51374354D01*
X156784354Y-51499853D01*
X156636784Y-51598456D01*
X156472812Y-51666376D01*
X156323512Y-51696073D01*
X156298742Y-51701000D01*
X156121258Y-51701000D01*
X156096488Y-51696073D01*
X155947188Y-51666376D01*
X155783216Y-51598456D01*
X155635646Y-51499853D01*
X155510147Y-51374354D01*
X155411544Y-51226784D01*
X155343624Y-51062812D01*
X155309000Y-50888741D01*
X155309000Y-50711259D01*
X155343624Y-50537188D01*
X155411544Y-50373216D01*
X155510147Y-50225646D01*
X155635646Y-50100147D01*
X155783216Y-50001544D01*
X155947188Y-49933624D01*
X156096488Y-49903927D01*
X156121258Y-49899000D01*
X156298742Y-49899000D01*
X156323512Y-49903927D01*
G37*
G36*
X137408228Y-49346703D02*
G01*
X137563100Y-49410853D01*
X137702481Y-49503985D01*
X137821015Y-49622519D01*
X137914147Y-49761900D01*
X137978297Y-49916772D01*
X138011000Y-50081184D01*
X138011000Y-50248816D01*
X137978297Y-50413228D01*
X137914147Y-50568100D01*
X137821015Y-50707481D01*
X137702481Y-50826015D01*
X137563100Y-50919147D01*
X137408228Y-50983297D01*
X137243816Y-51016000D01*
X137076184Y-51016000D01*
X136911772Y-50983297D01*
X136756900Y-50919147D01*
X136617519Y-50826015D01*
X136498985Y-50707481D01*
X136405853Y-50568100D01*
X136341703Y-50413228D01*
X136309000Y-50248816D01*
X136309000Y-50081184D01*
X136341703Y-49916772D01*
X136405853Y-49761900D01*
X136498985Y-49622519D01*
X136617519Y-49503985D01*
X136756900Y-49410853D01*
X136911772Y-49346703D01*
X137076184Y-49314000D01*
X137243816Y-49314000D01*
X137408228Y-49346703D01*
G37*
G36*
X145028228Y-49346703D02*
G01*
X145183100Y-49410853D01*
X145322481Y-49503985D01*
X145441015Y-49622519D01*
X145534147Y-49761900D01*
X145598297Y-49916772D01*
X145631000Y-50081184D01*
X145631000Y-50248816D01*
X145598297Y-50413228D01*
X145534147Y-50568100D01*
X145441015Y-50707481D01*
X145322481Y-50826015D01*
X145183100Y-50919147D01*
X145028228Y-50983297D01*
X144863816Y-51016000D01*
X144696184Y-51016000D01*
X144531772Y-50983297D01*
X144376900Y-50919147D01*
X144237519Y-50826015D01*
X144118985Y-50707481D01*
X144025853Y-50568100D01*
X143961703Y-50413228D01*
X143929000Y-50248816D01*
X143929000Y-50081184D01*
X143961703Y-49916772D01*
X144025853Y-49761900D01*
X144118985Y-49622519D01*
X144237519Y-49503985D01*
X144376900Y-49410853D01*
X144531772Y-49346703D01*
X144696184Y-49314000D01*
X144863816Y-49314000D01*
X145028228Y-49346703D01*
G37*
G36*
X152648228Y-49346703D02*
G01*
X152803100Y-49410853D01*
X152942481Y-49503985D01*
X153061015Y-49622519D01*
X153154147Y-49761900D01*
X153218297Y-49916772D01*
X153251000Y-50081184D01*
X153251000Y-50248816D01*
X153218297Y-50413228D01*
X153154147Y-50568100D01*
X153061015Y-50707481D01*
X152942481Y-50826015D01*
X152803100Y-50919147D01*
X152648228Y-50983297D01*
X152483816Y-51016000D01*
X152316184Y-51016000D01*
X152151772Y-50983297D01*
X151996900Y-50919147D01*
X151857519Y-50826015D01*
X151738985Y-50707481D01*
X151645853Y-50568100D01*
X151581703Y-50413228D01*
X151549000Y-50248816D01*
X151549000Y-50081184D01*
X151581703Y-49916772D01*
X151645853Y-49761900D01*
X151738985Y-49622519D01*
X151857519Y-49503985D01*
X151996900Y-49410853D01*
X152151772Y-49346703D01*
X152316184Y-49314000D01*
X152483816Y-49314000D01*
X152648228Y-49346703D01*
G37*
G36*
X142488228Y-49346703D02*
G01*
X142643100Y-49410853D01*
X142782481Y-49503985D01*
X142901015Y-49622519D01*
X142994147Y-49761900D01*
X143058297Y-49916772D01*
X143091000Y-50081184D01*
X143091000Y-50248816D01*
X143058297Y-50413228D01*
X142994147Y-50568100D01*
X142901015Y-50707481D01*
X142782481Y-50826015D01*
X142643100Y-50919147D01*
X142488228Y-50983297D01*
X142323816Y-51016000D01*
X142156184Y-51016000D01*
X141991772Y-50983297D01*
X141836900Y-50919147D01*
X141697519Y-50826015D01*
X141578985Y-50707481D01*
X141485853Y-50568100D01*
X141421703Y-50413228D01*
X141389000Y-50248816D01*
X141389000Y-50081184D01*
X141421703Y-49916772D01*
X141485853Y-49761900D01*
X141578985Y-49622519D01*
X141697519Y-49503985D01*
X141836900Y-49410853D01*
X141991772Y-49346703D01*
X142156184Y-49314000D01*
X142323816Y-49314000D01*
X142488228Y-49346703D01*
G37*
G36*
X163424267Y-49409205D02*
G01*
X163567309Y-49468455D01*
X163567311Y-49468456D01*
X163696046Y-49554474D01*
X163805526Y-49663954D01*
X163854393Y-49737089D01*
X163891545Y-49792691D01*
X163950795Y-49935733D01*
X163981000Y-50087584D01*
X163981000Y-50242416D01*
X163950795Y-50394267D01*
X163891595Y-50537188D01*
X163891544Y-50537311D01*
X163805526Y-50666046D01*
X163696046Y-50775526D01*
X163567311Y-50861544D01*
X163567310Y-50861545D01*
X163567309Y-50861545D01*
X163424267Y-50920795D01*
X163272416Y-50951000D01*
X163117584Y-50951000D01*
X162965733Y-50920795D01*
X162822691Y-50861545D01*
X162822690Y-50861545D01*
X162822689Y-50861544D01*
X162693954Y-50775526D01*
X162584474Y-50666046D01*
X162498456Y-50537311D01*
X162498405Y-50537188D01*
X162439205Y-50394267D01*
X162409000Y-50242416D01*
X162409000Y-50087584D01*
X162439205Y-49935733D01*
X162498455Y-49792691D01*
X162535607Y-49737089D01*
X162584474Y-49663954D01*
X162693954Y-49554474D01*
X162822689Y-49468456D01*
X162822691Y-49468455D01*
X162965733Y-49409205D01*
X163117584Y-49379000D01*
X163272416Y-49379000D01*
X163424267Y-49409205D01*
G37*
G36*
X185042714Y-47599382D02*
G01*
X185170322Y-47624765D01*
X185311148Y-47683097D01*
X185410727Y-47724344D01*
X185410728Y-47724345D01*
X185627089Y-47868912D01*
X185811088Y-48052911D01*
X185890165Y-48171259D01*
X185955656Y-48269273D01*
X185988572Y-48348741D01*
X186055235Y-48509678D01*
X186106000Y-48764893D01*
X186106000Y-49025107D01*
X186055235Y-49280322D01*
X186027738Y-49346705D01*
X185955656Y-49520727D01*
X185933107Y-49554474D01*
X185811088Y-49737089D01*
X185627089Y-49921088D01*
X185506677Y-50001544D01*
X185410727Y-50065656D01*
X185327455Y-50100148D01*
X185170322Y-50165235D01*
X185042714Y-50190618D01*
X184915109Y-50216000D01*
X184654891Y-50216000D01*
X184527285Y-50190617D01*
X184399678Y-50165235D01*
X184242545Y-50100148D01*
X184159273Y-50065656D01*
X184063323Y-50001544D01*
X183942911Y-49921088D01*
X183758912Y-49737089D01*
X183636893Y-49554474D01*
X183614344Y-49520727D01*
X183542262Y-49346705D01*
X183514765Y-49280322D01*
X183464000Y-49025107D01*
X183464000Y-48764893D01*
X183514765Y-48509678D01*
X183581428Y-48348741D01*
X183614344Y-48269273D01*
X183679835Y-48171259D01*
X183758912Y-48052911D01*
X183942911Y-47868912D01*
X184159272Y-47724345D01*
X184159273Y-47724344D01*
X184258852Y-47683097D01*
X184399678Y-47624765D01*
X184527286Y-47599382D01*
X184654891Y-47574000D01*
X184915109Y-47574000D01*
X185042714Y-47599382D01*
G37*
G36*
X156323512Y-47363927D02*
G01*
X156472812Y-47393624D01*
X156636784Y-47461544D01*
X156784354Y-47560147D01*
X156909853Y-47685646D01*
X157008456Y-47833216D01*
X157076376Y-47997188D01*
X157111000Y-48171259D01*
X157111000Y-48348741D01*
X157076376Y-48522812D01*
X157008456Y-48686784D01*
X156909853Y-48834354D01*
X156784354Y-48959853D01*
X156636784Y-49058456D01*
X156472812Y-49126376D01*
X156323512Y-49156073D01*
X156298742Y-49161000D01*
X156121258Y-49161000D01*
X156096488Y-49156073D01*
X155947188Y-49126376D01*
X155783216Y-49058456D01*
X155635646Y-48959853D01*
X155510147Y-48834354D01*
X155411544Y-48686784D01*
X155343624Y-48522812D01*
X155309000Y-48348741D01*
X155309000Y-48171259D01*
X155343624Y-47997188D01*
X155411544Y-47833216D01*
X155510147Y-47685646D01*
X155635646Y-47560147D01*
X155783216Y-47461544D01*
X155947188Y-47393624D01*
X156096488Y-47363927D01*
X156121258Y-47359000D01*
X156298742Y-47359000D01*
X156323512Y-47363927D01*
G37*
G36*
X142488228Y-46806703D02*
G01*
X142643100Y-46870853D01*
X142782481Y-46963985D01*
X142901015Y-47082519D01*
X142994147Y-47221900D01*
X143058297Y-47376772D01*
X143091000Y-47541184D01*
X143091000Y-47708816D01*
X143058297Y-47873228D01*
X142994147Y-48028100D01*
X142901015Y-48167481D01*
X142782481Y-48286015D01*
X142643100Y-48379147D01*
X142488228Y-48443297D01*
X142323816Y-48476000D01*
X142156184Y-48476000D01*
X141991772Y-48443297D01*
X141836900Y-48379147D01*
X141697519Y-48286015D01*
X141578985Y-48167481D01*
X141485853Y-48028100D01*
X141421703Y-47873228D01*
X141389000Y-47708816D01*
X141389000Y-47541184D01*
X141421703Y-47376772D01*
X141485853Y-47221900D01*
X141578985Y-47082519D01*
X141697519Y-46963985D01*
X141836900Y-46870853D01*
X141991772Y-46806703D01*
X142156184Y-46774000D01*
X142323816Y-46774000D01*
X142488228Y-46806703D01*
G37*
G36*
X145028228Y-46806703D02*
G01*
X145183100Y-46870853D01*
X145322481Y-46963985D01*
X145441015Y-47082519D01*
X145534147Y-47221900D01*
X145598297Y-47376772D01*
X145631000Y-47541184D01*
X145631000Y-47708816D01*
X145598297Y-47873228D01*
X145534147Y-48028100D01*
X145441015Y-48167481D01*
X145322481Y-48286015D01*
X145183100Y-48379147D01*
X145028228Y-48443297D01*
X144863816Y-48476000D01*
X144696184Y-48476000D01*
X144531772Y-48443297D01*
X144376900Y-48379147D01*
X144237519Y-48286015D01*
X144118985Y-48167481D01*
X144025853Y-48028100D01*
X143961703Y-47873228D01*
X143929000Y-47708816D01*
X143929000Y-47541184D01*
X143961703Y-47376772D01*
X144025853Y-47221900D01*
X144118985Y-47082519D01*
X144237519Y-46963985D01*
X144376900Y-46870853D01*
X144531772Y-46806703D01*
X144696184Y-46774000D01*
X144863816Y-46774000D01*
X145028228Y-46806703D01*
G37*
G36*
X137408228Y-46806703D02*
G01*
X137563100Y-46870853D01*
X137702481Y-46963985D01*
X137821015Y-47082519D01*
X137914147Y-47221900D01*
X137978297Y-47376772D01*
X138011000Y-47541184D01*
X138011000Y-47708816D01*
X137978297Y-47873228D01*
X137914147Y-48028100D01*
X137821015Y-48167481D01*
X137702481Y-48286015D01*
X137563100Y-48379147D01*
X137408228Y-48443297D01*
X137243816Y-48476000D01*
X137076184Y-48476000D01*
X136911772Y-48443297D01*
X136756900Y-48379147D01*
X136617519Y-48286015D01*
X136498985Y-48167481D01*
X136405853Y-48028100D01*
X136341703Y-47873228D01*
X136309000Y-47708816D01*
X136309000Y-47541184D01*
X136341703Y-47376772D01*
X136405853Y-47221900D01*
X136498985Y-47082519D01*
X136617519Y-46963985D01*
X136756900Y-46870853D01*
X136911772Y-46806703D01*
X137076184Y-46774000D01*
X137243816Y-46774000D01*
X137408228Y-46806703D01*
G37*
G36*
X152648228Y-46806703D02*
G01*
X152803100Y-46870853D01*
X152942481Y-46963985D01*
X153061015Y-47082519D01*
X153154147Y-47221900D01*
X153218297Y-47376772D01*
X153251000Y-47541184D01*
X153251000Y-47708816D01*
X153218297Y-47873228D01*
X153154147Y-48028100D01*
X153061015Y-48167481D01*
X152942481Y-48286015D01*
X152803100Y-48379147D01*
X152648228Y-48443297D01*
X152483816Y-48476000D01*
X152316184Y-48476000D01*
X152151772Y-48443297D01*
X151996900Y-48379147D01*
X151857519Y-48286015D01*
X151738985Y-48167481D01*
X151645853Y-48028100D01*
X151581703Y-47873228D01*
X151549000Y-47708816D01*
X151549000Y-47541184D01*
X151581703Y-47376772D01*
X151645853Y-47221900D01*
X151738985Y-47082519D01*
X151857519Y-46963985D01*
X151996900Y-46870853D01*
X152151772Y-46806703D01*
X152316184Y-46774000D01*
X152483816Y-46774000D01*
X152648228Y-46806703D01*
G37*
G36*
X163424267Y-46869205D02*
G01*
X163567309Y-46928455D01*
X163567311Y-46928456D01*
X163696046Y-47014474D01*
X163805526Y-47123954D01*
X163805527Y-47123956D01*
X163891545Y-47252691D01*
X163950795Y-47395733D01*
X163981000Y-47547584D01*
X163981000Y-47702416D01*
X163950795Y-47854267D01*
X163891595Y-47997188D01*
X163891544Y-47997311D01*
X163805526Y-48126046D01*
X163696046Y-48235526D01*
X163567311Y-48321544D01*
X163567310Y-48321545D01*
X163567309Y-48321545D01*
X163424267Y-48380795D01*
X163272416Y-48411000D01*
X163117584Y-48411000D01*
X162965733Y-48380795D01*
X162822691Y-48321545D01*
X162822690Y-48321545D01*
X162822689Y-48321544D01*
X162693954Y-48235526D01*
X162584474Y-48126046D01*
X162498456Y-47997311D01*
X162498405Y-47997188D01*
X162439205Y-47854267D01*
X162409000Y-47702416D01*
X162409000Y-47547584D01*
X162439205Y-47395733D01*
X162498455Y-47252691D01*
X162584473Y-47123956D01*
X162584474Y-47123954D01*
X162693954Y-47014474D01*
X162822689Y-46928456D01*
X162822691Y-46928455D01*
X162965733Y-46869205D01*
X163117584Y-46839000D01*
X163272416Y-46839000D01*
X163424267Y-46869205D01*
G37*
G36*
X165964267Y-46869205D02*
G01*
X166107309Y-46928455D01*
X166107311Y-46928456D01*
X166236046Y-47014474D01*
X166345526Y-47123954D01*
X166345527Y-47123956D01*
X166431545Y-47252691D01*
X166490795Y-47395733D01*
X166521000Y-47547584D01*
X166521000Y-47702416D01*
X166490795Y-47854267D01*
X166431595Y-47997188D01*
X166431544Y-47997311D01*
X166345526Y-48126046D01*
X166236046Y-48235526D01*
X166107311Y-48321544D01*
X166107310Y-48321545D01*
X166107309Y-48321545D01*
X165964267Y-48380795D01*
X165812416Y-48411000D01*
X165657584Y-48411000D01*
X165505733Y-48380795D01*
X165362691Y-48321545D01*
X165362690Y-48321545D01*
X165362689Y-48321544D01*
X165233954Y-48235526D01*
X165124474Y-48126046D01*
X165038456Y-47997311D01*
X165038405Y-47997188D01*
X164979205Y-47854267D01*
X164949000Y-47702416D01*
X164949000Y-47547584D01*
X164979205Y-47395733D01*
X165038455Y-47252691D01*
X165124473Y-47123956D01*
X165124474Y-47123954D01*
X165233954Y-47014474D01*
X165362689Y-46928456D01*
X165362691Y-46928455D01*
X165505733Y-46869205D01*
X165657584Y-46839000D01*
X165812416Y-46839000D01*
X165964267Y-46869205D01*
G37*
M02*
