G04 #@! TF.GenerationSoftware,KiCad,Pcbnew,5.1.6*
G04 #@! TF.CreationDate,2020-08-31T22:31:01-05:00*
G04 #@! TF.ProjectId,shear_pcb,73686561-725f-4706-9362-2e6b69636164,rev?*
G04 #@! TF.SameCoordinates,Original*
G04 #@! TF.FileFunction,Legend,Top*
G04 #@! TF.FilePolarity,Positive*
%FSLAX46Y46*%
G04 Gerber Fmt 4.6, Leading zero omitted, Abs format (unit mm)*
G04 Created by KiCad (PCBNEW 5.1.6) date 2020-08-31 22:31:01*
%MOMM*%
%LPD*%
G01*
G04 APERTURE LIST*
%ADD10C,0.150000*%
%ADD11C,0.010000*%
%ADD12C,0.120000*%
G04 APERTURE END LIST*
D10*
X131214761Y-94232380D02*
X131262380Y-94089523D01*
X131262380Y-93851428D01*
X131214761Y-93756190D01*
X131167142Y-93708571D01*
X131071904Y-93660952D01*
X130976666Y-93660952D01*
X130881428Y-93708571D01*
X130833809Y-93756190D01*
X130786190Y-93851428D01*
X130738571Y-94041904D01*
X130690952Y-94137142D01*
X130643333Y-94184761D01*
X130548095Y-94232380D01*
X130452857Y-94232380D01*
X130357619Y-94184761D01*
X130310000Y-94137142D01*
X130262380Y-94041904D01*
X130262380Y-93803809D01*
X130310000Y-93660952D01*
X131262380Y-93232380D02*
X130262380Y-93232380D01*
X131262380Y-92803809D02*
X130738571Y-92803809D01*
X130643333Y-92851428D01*
X130595714Y-92946666D01*
X130595714Y-93089523D01*
X130643333Y-93184761D01*
X130690952Y-93232380D01*
X131214761Y-91946666D02*
X131262380Y-92041904D01*
X131262380Y-92232380D01*
X131214761Y-92327619D01*
X131119523Y-92375238D01*
X130738571Y-92375238D01*
X130643333Y-92327619D01*
X130595714Y-92232380D01*
X130595714Y-92041904D01*
X130643333Y-91946666D01*
X130738571Y-91899047D01*
X130833809Y-91899047D01*
X130929047Y-92375238D01*
X131262380Y-91041904D02*
X130738571Y-91041904D01*
X130643333Y-91089523D01*
X130595714Y-91184761D01*
X130595714Y-91375238D01*
X130643333Y-91470476D01*
X131214761Y-91041904D02*
X131262380Y-91137142D01*
X131262380Y-91375238D01*
X131214761Y-91470476D01*
X131119523Y-91518095D01*
X131024285Y-91518095D01*
X130929047Y-91470476D01*
X130881428Y-91375238D01*
X130881428Y-91137142D01*
X130833809Y-91041904D01*
X131262380Y-90565714D02*
X130595714Y-90565714D01*
X130786190Y-90565714D02*
X130690952Y-90518095D01*
X130643333Y-90470476D01*
X130595714Y-90375238D01*
X130595714Y-90280000D01*
X130738571Y-88851428D02*
X130786190Y-88708571D01*
X130833809Y-88660952D01*
X130929047Y-88613333D01*
X131071904Y-88613333D01*
X131167142Y-88660952D01*
X131214761Y-88708571D01*
X131262380Y-88803809D01*
X131262380Y-89184761D01*
X130262380Y-89184761D01*
X130262380Y-88851428D01*
X130310000Y-88756190D01*
X130357619Y-88708571D01*
X130452857Y-88660952D01*
X130548095Y-88660952D01*
X130643333Y-88708571D01*
X130690952Y-88756190D01*
X130738571Y-88851428D01*
X130738571Y-89184761D01*
X131262380Y-87756190D02*
X130738571Y-87756190D01*
X130643333Y-87803809D01*
X130595714Y-87899047D01*
X130595714Y-88089523D01*
X130643333Y-88184761D01*
X131214761Y-87756190D02*
X131262380Y-87851428D01*
X131262380Y-88089523D01*
X131214761Y-88184761D01*
X131119523Y-88232380D01*
X131024285Y-88232380D01*
X130929047Y-88184761D01*
X130881428Y-88089523D01*
X130881428Y-87851428D01*
X130833809Y-87756190D01*
X131214761Y-86851428D02*
X131262380Y-86946666D01*
X131262380Y-87137142D01*
X131214761Y-87232380D01*
X131167142Y-87280000D01*
X131071904Y-87327619D01*
X130786190Y-87327619D01*
X130690952Y-87280000D01*
X130643333Y-87232380D01*
X130595714Y-87137142D01*
X130595714Y-86946666D01*
X130643333Y-86851428D01*
X131262380Y-86422857D02*
X130262380Y-86422857D01*
X130881428Y-86327619D02*
X131262380Y-86041904D01*
X130595714Y-86041904D02*
X130976666Y-86422857D01*
X131214761Y-85660952D02*
X131262380Y-85565714D01*
X131262380Y-85375238D01*
X131214761Y-85280000D01*
X131119523Y-85232380D01*
X131071904Y-85232380D01*
X130976666Y-85280000D01*
X130929047Y-85375238D01*
X130929047Y-85518095D01*
X130881428Y-85613333D01*
X130786190Y-85660952D01*
X130738571Y-85660952D01*
X130643333Y-85613333D01*
X130595714Y-85518095D01*
X130595714Y-85375238D01*
X130643333Y-85280000D01*
X130595714Y-84946666D02*
X130595714Y-84565714D01*
X130262380Y-84803809D02*
X131119523Y-84803809D01*
X131214761Y-84756190D01*
X131262380Y-84660952D01*
X131262380Y-84565714D01*
X131262380Y-84089523D02*
X131214761Y-84184761D01*
X131167142Y-84232380D01*
X131071904Y-84280000D01*
X130786190Y-84280000D01*
X130690952Y-84232380D01*
X130643333Y-84184761D01*
X130595714Y-84089523D01*
X130595714Y-83946666D01*
X130643333Y-83851428D01*
X130690952Y-83803809D01*
X130786190Y-83756190D01*
X131071904Y-83756190D01*
X131167142Y-83803809D01*
X131214761Y-83851428D01*
X131262380Y-83946666D01*
X131262380Y-84089523D01*
X130595714Y-83327619D02*
X131595714Y-83327619D01*
X130643333Y-83327619D02*
X130595714Y-83232380D01*
X130595714Y-83041904D01*
X130643333Y-82946666D01*
X130690952Y-82899047D01*
X130786190Y-82851428D01*
X131071904Y-82851428D01*
X131167142Y-82899047D01*
X131214761Y-82946666D01*
X131262380Y-83041904D01*
X131262380Y-83232380D01*
X131214761Y-83327619D01*
X131167142Y-81089523D02*
X131214761Y-81137142D01*
X131262380Y-81280000D01*
X131262380Y-81375238D01*
X131214761Y-81518095D01*
X131119523Y-81613333D01*
X131024285Y-81660952D01*
X130833809Y-81708571D01*
X130690952Y-81708571D01*
X130500476Y-81660952D01*
X130405238Y-81613333D01*
X130310000Y-81518095D01*
X130262380Y-81375238D01*
X130262380Y-81280000D01*
X130310000Y-81137142D01*
X130357619Y-81089523D01*
X131262380Y-80518095D02*
X131214761Y-80613333D01*
X131167142Y-80660952D01*
X131071904Y-80708571D01*
X130786190Y-80708571D01*
X130690952Y-80660952D01*
X130643333Y-80613333D01*
X130595714Y-80518095D01*
X130595714Y-80375238D01*
X130643333Y-80280000D01*
X130690952Y-80232380D01*
X130786190Y-80184761D01*
X131071904Y-80184761D01*
X131167142Y-80232380D01*
X131214761Y-80280000D01*
X131262380Y-80375238D01*
X131262380Y-80518095D01*
X130595714Y-79756190D02*
X131262380Y-79756190D01*
X130690952Y-79756190D02*
X130643333Y-79708571D01*
X130595714Y-79613333D01*
X130595714Y-79470476D01*
X130643333Y-79375238D01*
X130738571Y-79327619D01*
X131262380Y-79327619D01*
X130595714Y-78994285D02*
X130595714Y-78613333D01*
X130262380Y-78851428D02*
X131119523Y-78851428D01*
X131214761Y-78803809D01*
X131262380Y-78708571D01*
X131262380Y-78613333D01*
X131262380Y-78280000D02*
X130595714Y-78280000D01*
X130786190Y-78280000D02*
X130690952Y-78232380D01*
X130643333Y-78184761D01*
X130595714Y-78089523D01*
X130595714Y-77994285D01*
X131262380Y-77518095D02*
X131214761Y-77613333D01*
X131167142Y-77660952D01*
X131071904Y-77708571D01*
X130786190Y-77708571D01*
X130690952Y-77660952D01*
X130643333Y-77613333D01*
X130595714Y-77518095D01*
X130595714Y-77375238D01*
X130643333Y-77280000D01*
X130690952Y-77232380D01*
X130786190Y-77184761D01*
X131071904Y-77184761D01*
X131167142Y-77232380D01*
X131214761Y-77280000D01*
X131262380Y-77375238D01*
X131262380Y-77518095D01*
X131262380Y-76613333D02*
X131214761Y-76708571D01*
X131119523Y-76756190D01*
X130262380Y-76756190D01*
X131262380Y-76089523D02*
X131214761Y-76184761D01*
X131119523Y-76232380D01*
X130262380Y-76232380D01*
X131214761Y-75327619D02*
X131262380Y-75422857D01*
X131262380Y-75613333D01*
X131214761Y-75708571D01*
X131119523Y-75756190D01*
X130738571Y-75756190D01*
X130643333Y-75708571D01*
X130595714Y-75613333D01*
X130595714Y-75422857D01*
X130643333Y-75327619D01*
X130738571Y-75280000D01*
X130833809Y-75280000D01*
X130929047Y-75756190D01*
X131262380Y-74851428D02*
X130595714Y-74851428D01*
X130786190Y-74851428D02*
X130690952Y-74803809D01*
X130643333Y-74756190D01*
X130595714Y-74660952D01*
X130595714Y-74565714D01*
X131262380Y-73470476D02*
X130262380Y-73470476D01*
X130262380Y-73089523D01*
X130310000Y-72994285D01*
X130357619Y-72946666D01*
X130452857Y-72899047D01*
X130595714Y-72899047D01*
X130690952Y-72946666D01*
X130738571Y-72994285D01*
X130786190Y-73089523D01*
X130786190Y-73470476D01*
X131167142Y-71899047D02*
X131214761Y-71946666D01*
X131262380Y-72089523D01*
X131262380Y-72184761D01*
X131214761Y-72327619D01*
X131119523Y-72422857D01*
X131024285Y-72470476D01*
X130833809Y-72518095D01*
X130690952Y-72518095D01*
X130500476Y-72470476D01*
X130405238Y-72422857D01*
X130310000Y-72327619D01*
X130262380Y-72184761D01*
X130262380Y-72089523D01*
X130310000Y-71946666D01*
X130357619Y-71899047D01*
X130738571Y-71137142D02*
X130786190Y-70994285D01*
X130833809Y-70946666D01*
X130929047Y-70899047D01*
X131071904Y-70899047D01*
X131167142Y-70946666D01*
X131214761Y-70994285D01*
X131262380Y-71089523D01*
X131262380Y-71470476D01*
X130262380Y-71470476D01*
X130262380Y-71137142D01*
X130310000Y-71041904D01*
X130357619Y-70994285D01*
X130452857Y-70946666D01*
X130548095Y-70946666D01*
X130643333Y-70994285D01*
X130690952Y-71041904D01*
X130738571Y-71137142D01*
X130738571Y-71470476D01*
X130262380Y-69851428D02*
X131262380Y-69518095D01*
X130262380Y-69184761D01*
X130357619Y-68899047D02*
X130310000Y-68851428D01*
X130262380Y-68756190D01*
X130262380Y-68518095D01*
X130310000Y-68422857D01*
X130357619Y-68375238D01*
X130452857Y-68327619D01*
X130548095Y-68327619D01*
X130690952Y-68375238D01*
X131262380Y-68946666D01*
X131262380Y-68327619D01*
D11*
G36*
X122477444Y-83146401D02*
G01*
X122478877Y-83141269D01*
X122482188Y-83134339D01*
X122490141Y-83119295D01*
X122502336Y-83096846D01*
X122518373Y-83067698D01*
X122537851Y-83032559D01*
X122560370Y-82992136D01*
X122585530Y-82947136D01*
X122612931Y-82898267D01*
X122642172Y-82846236D01*
X122672853Y-82791750D01*
X122704575Y-82735517D01*
X122736936Y-82678244D01*
X122769537Y-82620638D01*
X122801978Y-82563407D01*
X122833857Y-82507258D01*
X122864776Y-82452897D01*
X122894333Y-82401034D01*
X122922128Y-82352374D01*
X122947762Y-82307625D01*
X122970834Y-82267495D01*
X122990943Y-82232690D01*
X123007690Y-82203919D01*
X123020675Y-82181888D01*
X123029496Y-82167304D01*
X123033273Y-82161494D01*
X123059073Y-82134122D01*
X123090353Y-82115294D01*
X123127043Y-82105043D01*
X123155266Y-82102989D01*
X123183229Y-82106947D01*
X123212559Y-82117685D01*
X123239526Y-82133423D01*
X123260404Y-82152378D01*
X123261526Y-82153760D01*
X123265363Y-82159827D01*
X123273809Y-82174025D01*
X123286460Y-82195649D01*
X123302915Y-82223994D01*
X123322769Y-82258353D01*
X123345620Y-82298020D01*
X123371066Y-82342290D01*
X123398703Y-82390456D01*
X123428129Y-82441812D01*
X123458940Y-82495653D01*
X123490734Y-82551273D01*
X123523109Y-82607965D01*
X123555660Y-82665024D01*
X123587986Y-82721744D01*
X123619683Y-82777418D01*
X123650349Y-82831342D01*
X123679580Y-82882808D01*
X123706974Y-82931111D01*
X123732129Y-82975546D01*
X123754640Y-83015405D01*
X123774106Y-83049983D01*
X123790123Y-83078575D01*
X123802289Y-83100474D01*
X123810201Y-83114974D01*
X123812063Y-83118502D01*
X123821239Y-83144286D01*
X123825643Y-83174622D01*
X123824599Y-83204768D01*
X123824461Y-83205725D01*
X123814200Y-83240893D01*
X123794653Y-83272560D01*
X123780980Y-83287311D01*
X123756187Y-83307226D01*
X123730592Y-83319365D01*
X123700377Y-83325400D01*
X123692370Y-83326101D01*
X123654025Y-83324824D01*
X123620439Y-83314875D01*
X123590532Y-83295895D01*
X123583854Y-83290024D01*
X123580456Y-83286740D01*
X123576904Y-83282923D01*
X123572940Y-83278131D01*
X123568307Y-83271923D01*
X123562748Y-83263859D01*
X123556004Y-83253496D01*
X123547819Y-83240394D01*
X123537936Y-83224112D01*
X123526096Y-83204208D01*
X123512042Y-83180243D01*
X123495518Y-83151774D01*
X123476265Y-83118360D01*
X123454026Y-83079562D01*
X123428543Y-83034937D01*
X123399560Y-82984044D01*
X123366819Y-82926443D01*
X123330062Y-82861693D01*
X123289032Y-82789351D01*
X123243472Y-82708978D01*
X123201600Y-82635090D01*
X123186482Y-82608711D01*
X123172949Y-82585659D01*
X123161823Y-82567291D01*
X123153927Y-82554965D01*
X123150084Y-82550035D01*
X123149967Y-82550000D01*
X123146992Y-82554314D01*
X123139400Y-82566814D01*
X123127570Y-82586841D01*
X123111884Y-82613738D01*
X123092722Y-82646843D01*
X123070462Y-82685498D01*
X123045487Y-82729044D01*
X123018175Y-82776821D01*
X122988907Y-82828170D01*
X122958062Y-82882432D01*
X122944197Y-82906870D01*
X122900950Y-82982944D01*
X122862191Y-83050711D01*
X122827965Y-83110093D01*
X122798322Y-83161010D01*
X122773306Y-83203382D01*
X122752966Y-83237130D01*
X122737347Y-83262174D01*
X122726498Y-83278435D01*
X122721313Y-83285035D01*
X122692894Y-83307791D01*
X122660962Y-83322009D01*
X122627106Y-83327937D01*
X122592915Y-83325824D01*
X122559978Y-83315919D01*
X122529883Y-83298470D01*
X122504219Y-83273725D01*
X122487768Y-83248500D01*
X122479982Y-83226431D01*
X122475422Y-83199107D01*
X122474453Y-83170955D01*
X122477444Y-83146401D01*
G37*
X122477444Y-83146401D02*
X122478877Y-83141269D01*
X122482188Y-83134339D01*
X122490141Y-83119295D01*
X122502336Y-83096846D01*
X122518373Y-83067698D01*
X122537851Y-83032559D01*
X122560370Y-82992136D01*
X122585530Y-82947136D01*
X122612931Y-82898267D01*
X122642172Y-82846236D01*
X122672853Y-82791750D01*
X122704575Y-82735517D01*
X122736936Y-82678244D01*
X122769537Y-82620638D01*
X122801978Y-82563407D01*
X122833857Y-82507258D01*
X122864776Y-82452897D01*
X122894333Y-82401034D01*
X122922128Y-82352374D01*
X122947762Y-82307625D01*
X122970834Y-82267495D01*
X122990943Y-82232690D01*
X123007690Y-82203919D01*
X123020675Y-82181888D01*
X123029496Y-82167304D01*
X123033273Y-82161494D01*
X123059073Y-82134122D01*
X123090353Y-82115294D01*
X123127043Y-82105043D01*
X123155266Y-82102989D01*
X123183229Y-82106947D01*
X123212559Y-82117685D01*
X123239526Y-82133423D01*
X123260404Y-82152378D01*
X123261526Y-82153760D01*
X123265363Y-82159827D01*
X123273809Y-82174025D01*
X123286460Y-82195649D01*
X123302915Y-82223994D01*
X123322769Y-82258353D01*
X123345620Y-82298020D01*
X123371066Y-82342290D01*
X123398703Y-82390456D01*
X123428129Y-82441812D01*
X123458940Y-82495653D01*
X123490734Y-82551273D01*
X123523109Y-82607965D01*
X123555660Y-82665024D01*
X123587986Y-82721744D01*
X123619683Y-82777418D01*
X123650349Y-82831342D01*
X123679580Y-82882808D01*
X123706974Y-82931111D01*
X123732129Y-82975546D01*
X123754640Y-83015405D01*
X123774106Y-83049983D01*
X123790123Y-83078575D01*
X123802289Y-83100474D01*
X123810201Y-83114974D01*
X123812063Y-83118502D01*
X123821239Y-83144286D01*
X123825643Y-83174622D01*
X123824599Y-83204768D01*
X123824461Y-83205725D01*
X123814200Y-83240893D01*
X123794653Y-83272560D01*
X123780980Y-83287311D01*
X123756187Y-83307226D01*
X123730592Y-83319365D01*
X123700377Y-83325400D01*
X123692370Y-83326101D01*
X123654025Y-83324824D01*
X123620439Y-83314875D01*
X123590532Y-83295895D01*
X123583854Y-83290024D01*
X123580456Y-83286740D01*
X123576904Y-83282923D01*
X123572940Y-83278131D01*
X123568307Y-83271923D01*
X123562748Y-83263859D01*
X123556004Y-83253496D01*
X123547819Y-83240394D01*
X123537936Y-83224112D01*
X123526096Y-83204208D01*
X123512042Y-83180243D01*
X123495518Y-83151774D01*
X123476265Y-83118360D01*
X123454026Y-83079562D01*
X123428543Y-83034937D01*
X123399560Y-82984044D01*
X123366819Y-82926443D01*
X123330062Y-82861693D01*
X123289032Y-82789351D01*
X123243472Y-82708978D01*
X123201600Y-82635090D01*
X123186482Y-82608711D01*
X123172949Y-82585659D01*
X123161823Y-82567291D01*
X123153927Y-82554965D01*
X123150084Y-82550035D01*
X123149967Y-82550000D01*
X123146992Y-82554314D01*
X123139400Y-82566814D01*
X123127570Y-82586841D01*
X123111884Y-82613738D01*
X123092722Y-82646843D01*
X123070462Y-82685498D01*
X123045487Y-82729044D01*
X123018175Y-82776821D01*
X122988907Y-82828170D01*
X122958062Y-82882432D01*
X122944197Y-82906870D01*
X122900950Y-82982944D01*
X122862191Y-83050711D01*
X122827965Y-83110093D01*
X122798322Y-83161010D01*
X122773306Y-83203382D01*
X122752966Y-83237130D01*
X122737347Y-83262174D01*
X122726498Y-83278435D01*
X122721313Y-83285035D01*
X122692894Y-83307791D01*
X122660962Y-83322009D01*
X122627106Y-83327937D01*
X122592915Y-83325824D01*
X122559978Y-83315919D01*
X122529883Y-83298470D01*
X122504219Y-83273725D01*
X122487768Y-83248500D01*
X122479982Y-83226431D01*
X122475422Y-83199107D01*
X122474453Y-83170955D01*
X122477444Y-83146401D01*
G36*
X123723118Y-80525867D02*
G01*
X123736625Y-80494109D01*
X123757503Y-80466436D01*
X123784420Y-80444120D01*
X123816039Y-80428435D01*
X123851027Y-80420651D01*
X123865640Y-80420035D01*
X123904530Y-80424726D01*
X123937931Y-80437949D01*
X123965754Y-80459630D01*
X123987912Y-80489695D01*
X124004318Y-80528071D01*
X124007533Y-80539038D01*
X124015776Y-80572526D01*
X124024804Y-80614354D01*
X124034320Y-80662758D01*
X124044026Y-80715977D01*
X124053623Y-80772246D01*
X124062814Y-80829805D01*
X124071300Y-80886890D01*
X124078785Y-80941738D01*
X124084969Y-80992587D01*
X124086407Y-81005680D01*
X124094786Y-81094605D01*
X124100067Y-81177233D01*
X124102356Y-81256913D01*
X124101755Y-81336992D01*
X124098966Y-81409540D01*
X124090644Y-81524452D01*
X124077338Y-81644820D01*
X124059489Y-81767510D01*
X124037535Y-81889385D01*
X124019817Y-81973175D01*
X124010884Y-82009792D01*
X124002119Y-82038245D01*
X123992627Y-82060475D01*
X123981508Y-82078421D01*
X123967867Y-82094024D01*
X123960891Y-82100596D01*
X123930609Y-82121739D01*
X123898053Y-82133939D01*
X123864590Y-82137740D01*
X123831585Y-82133685D01*
X123800405Y-82122318D01*
X123772416Y-82104181D01*
X123748984Y-82079819D01*
X123731475Y-82049773D01*
X123721255Y-82014589D01*
X123719973Y-82004789D01*
X123719934Y-81983048D01*
X123723676Y-81954565D01*
X123730283Y-81922620D01*
X123753239Y-81814267D01*
X123772457Y-81704515D01*
X123787764Y-81595048D01*
X123798991Y-81487546D01*
X123805966Y-81383693D01*
X123808518Y-81285171D01*
X123806477Y-81193662D01*
X123805728Y-81180047D01*
X123797656Y-81073514D01*
X123786061Y-80967199D01*
X123770593Y-80858507D01*
X123750903Y-80744844D01*
X123738330Y-80680184D01*
X123732114Y-80648284D01*
X123726684Y-80618492D01*
X123722362Y-80592730D01*
X123719469Y-80572919D01*
X123718326Y-80560979D01*
X123718320Y-80560439D01*
X123723118Y-80525867D01*
G37*
X123723118Y-80525867D02*
X123736625Y-80494109D01*
X123757503Y-80466436D01*
X123784420Y-80444120D01*
X123816039Y-80428435D01*
X123851027Y-80420651D01*
X123865640Y-80420035D01*
X123904530Y-80424726D01*
X123937931Y-80437949D01*
X123965754Y-80459630D01*
X123987912Y-80489695D01*
X124004318Y-80528071D01*
X124007533Y-80539038D01*
X124015776Y-80572526D01*
X124024804Y-80614354D01*
X124034320Y-80662758D01*
X124044026Y-80715977D01*
X124053623Y-80772246D01*
X124062814Y-80829805D01*
X124071300Y-80886890D01*
X124078785Y-80941738D01*
X124084969Y-80992587D01*
X124086407Y-81005680D01*
X124094786Y-81094605D01*
X124100067Y-81177233D01*
X124102356Y-81256913D01*
X124101755Y-81336992D01*
X124098966Y-81409540D01*
X124090644Y-81524452D01*
X124077338Y-81644820D01*
X124059489Y-81767510D01*
X124037535Y-81889385D01*
X124019817Y-81973175D01*
X124010884Y-82009792D01*
X124002119Y-82038245D01*
X123992627Y-82060475D01*
X123981508Y-82078421D01*
X123967867Y-82094024D01*
X123960891Y-82100596D01*
X123930609Y-82121739D01*
X123898053Y-82133939D01*
X123864590Y-82137740D01*
X123831585Y-82133685D01*
X123800405Y-82122318D01*
X123772416Y-82104181D01*
X123748984Y-82079819D01*
X123731475Y-82049773D01*
X123721255Y-82014589D01*
X123719973Y-82004789D01*
X123719934Y-81983048D01*
X123723676Y-81954565D01*
X123730283Y-81922620D01*
X123753239Y-81814267D01*
X123772457Y-81704515D01*
X123787764Y-81595048D01*
X123798991Y-81487546D01*
X123805966Y-81383693D01*
X123808518Y-81285171D01*
X123806477Y-81193662D01*
X123805728Y-81180047D01*
X123797656Y-81073514D01*
X123786061Y-80967199D01*
X123770593Y-80858507D01*
X123750903Y-80744844D01*
X123738330Y-80680184D01*
X123732114Y-80648284D01*
X123726684Y-80618492D01*
X123722362Y-80592730D01*
X123719469Y-80572919D01*
X123718326Y-80560979D01*
X123718320Y-80560439D01*
X123723118Y-80525867D01*
G36*
X121242253Y-78663202D02*
G01*
X121267205Y-78607762D01*
X121299893Y-78558827D01*
X121339977Y-78516730D01*
X121387121Y-78481807D01*
X121440988Y-78454392D01*
X121460308Y-78447005D01*
X121500900Y-78432660D01*
X124970540Y-78432660D01*
X125009129Y-78446333D01*
X125065050Y-78471081D01*
X125114422Y-78503218D01*
X125156768Y-78542333D01*
X125191613Y-78588014D01*
X125209133Y-78619235D01*
X125213650Y-78628130D01*
X125217797Y-78636039D01*
X125221589Y-78643406D01*
X125225042Y-78650676D01*
X125228173Y-78658293D01*
X125230996Y-78666702D01*
X125233528Y-78676348D01*
X125235785Y-78687677D01*
X125237782Y-78701132D01*
X125239535Y-78717158D01*
X125241060Y-78736201D01*
X125242373Y-78758704D01*
X125243489Y-78785114D01*
X125244424Y-78815874D01*
X125245195Y-78851429D01*
X125245817Y-78892224D01*
X125246305Y-78938705D01*
X125246676Y-78991315D01*
X125246945Y-79050499D01*
X125247129Y-79116703D01*
X125247242Y-79190371D01*
X125247301Y-79271947D01*
X125247321Y-79361877D01*
X125247319Y-79460606D01*
X125247311Y-79568578D01*
X125247311Y-79693770D01*
X125247400Y-80650080D01*
X125887480Y-80650080D01*
X125887488Y-80332580D01*
X125902047Y-80301806D01*
X125922753Y-80268672D01*
X125949382Y-80243675D01*
X125981329Y-80227165D01*
X126017991Y-80219489D01*
X126044369Y-80219425D01*
X126082180Y-80226858D01*
X126115229Y-80243137D01*
X126142931Y-80267846D01*
X126164702Y-80300572D01*
X126167899Y-80307180D01*
X126179580Y-80332580D01*
X126180333Y-81267300D01*
X126180388Y-81364298D01*
X126180398Y-81458741D01*
X126180363Y-81550111D01*
X126180286Y-81637894D01*
X126180169Y-81721571D01*
X126180013Y-81800628D01*
X126179820Y-81874546D01*
X126179592Y-81942809D01*
X126179332Y-82004901D01*
X126179041Y-82060305D01*
X126178720Y-82108505D01*
X126178372Y-82148983D01*
X126177999Y-82181224D01*
X126177602Y-82204711D01*
X126177183Y-82218927D01*
X126176869Y-82223134D01*
X126164741Y-82259018D01*
X126143538Y-82290399D01*
X126128710Y-82305160D01*
X126097430Y-82326384D01*
X126063159Y-82338485D01*
X126027364Y-82341471D01*
X125991514Y-82335349D01*
X125957075Y-82320127D01*
X125934764Y-82304205D01*
X125923857Y-82292272D01*
X125911864Y-82275070D01*
X125903014Y-82259426D01*
X125887480Y-82228338D01*
X125887480Y-81909920D01*
X125247400Y-81909920D01*
X125247400Y-81620360D01*
X125887480Y-81620360D01*
X125887480Y-80939640D01*
X125247400Y-80939640D01*
X125247400Y-81620360D01*
X125247400Y-81909920D01*
X125247311Y-82866230D01*
X125247308Y-82984504D01*
X125247313Y-83093060D01*
X125247309Y-83192343D01*
X125247284Y-83282794D01*
X125247222Y-83364858D01*
X125247109Y-83438978D01*
X125246930Y-83505596D01*
X125246671Y-83565156D01*
X125246317Y-83618100D01*
X125245853Y-83664872D01*
X125245265Y-83705915D01*
X125244538Y-83741671D01*
X125243658Y-83772585D01*
X125242610Y-83799099D01*
X125241379Y-83821656D01*
X125239952Y-83840699D01*
X125238312Y-83856671D01*
X125236447Y-83870016D01*
X125234340Y-83881176D01*
X125231978Y-83890595D01*
X125229346Y-83898715D01*
X125226430Y-83905980D01*
X125223214Y-83912833D01*
X125219684Y-83919716D01*
X125215826Y-83927074D01*
X125212144Y-83934300D01*
X125180854Y-83987129D01*
X125143533Y-84031787D01*
X125100111Y-84068331D01*
X125050522Y-84096816D01*
X124994698Y-84117297D01*
X124984803Y-84119931D01*
X124981069Y-84120846D01*
X124977112Y-84121702D01*
X124972607Y-84122503D01*
X124967229Y-84123249D01*
X124960651Y-84123943D01*
X124952548Y-84124585D01*
X124942594Y-84125178D01*
X124930463Y-84125723D01*
X124915830Y-84126221D01*
X124898369Y-84126675D01*
X124877754Y-84127085D01*
X124853659Y-84127454D01*
X124825758Y-84127783D01*
X124793727Y-84128074D01*
X124757238Y-84128328D01*
X124715967Y-84128547D01*
X124669588Y-84128733D01*
X124617774Y-84128886D01*
X124560200Y-84129010D01*
X124496541Y-84129104D01*
X124426470Y-84129172D01*
X124349662Y-84129214D01*
X124265791Y-84129233D01*
X124174531Y-84129229D01*
X124075557Y-84129204D01*
X123968543Y-84129161D01*
X123853163Y-84129100D01*
X123729091Y-84129024D01*
X123596002Y-84128933D01*
X123453570Y-84128830D01*
X123301468Y-84128716D01*
X123220465Y-84128654D01*
X121544983Y-84127378D01*
X121544983Y-83835240D01*
X124923061Y-83835240D01*
X124937910Y-83820391D01*
X124952760Y-83805542D01*
X124952760Y-78754459D01*
X124938345Y-78740045D01*
X124917984Y-78726709D01*
X124901515Y-78722445D01*
X124894738Y-78722202D01*
X124878184Y-78721972D01*
X124852234Y-78721757D01*
X124817271Y-78721556D01*
X124773678Y-78721370D01*
X124721837Y-78721199D01*
X124662131Y-78721044D01*
X124594941Y-78720905D01*
X124520650Y-78720783D01*
X124439641Y-78720677D01*
X124352296Y-78720589D01*
X124258997Y-78720518D01*
X124160127Y-78720465D01*
X124056068Y-78720431D01*
X123947203Y-78720416D01*
X123833914Y-78720420D01*
X123716583Y-78720443D01*
X123595593Y-78720486D01*
X123471326Y-78720550D01*
X123344164Y-78720634D01*
X123214491Y-78720740D01*
X123213713Y-78720740D01*
X121548326Y-78722220D01*
X121533503Y-78738811D01*
X121518680Y-78755401D01*
X121518680Y-83803981D01*
X121531831Y-83819611D01*
X121544983Y-83835240D01*
X121544983Y-84127378D01*
X121495820Y-84127340D01*
X121455925Y-84112735D01*
X121401436Y-84087551D01*
X121352862Y-84054293D01*
X121310726Y-84013498D01*
X121275554Y-83965705D01*
X121247871Y-83911452D01*
X121240252Y-83891610D01*
X121226580Y-83853020D01*
X121226580Y-78706980D01*
X121242253Y-78663202D01*
G37*
X121242253Y-78663202D02*
X121267205Y-78607762D01*
X121299893Y-78558827D01*
X121339977Y-78516730D01*
X121387121Y-78481807D01*
X121440988Y-78454392D01*
X121460308Y-78447005D01*
X121500900Y-78432660D01*
X124970540Y-78432660D01*
X125009129Y-78446333D01*
X125065050Y-78471081D01*
X125114422Y-78503218D01*
X125156768Y-78542333D01*
X125191613Y-78588014D01*
X125209133Y-78619235D01*
X125213650Y-78628130D01*
X125217797Y-78636039D01*
X125221589Y-78643406D01*
X125225042Y-78650676D01*
X125228173Y-78658293D01*
X125230996Y-78666702D01*
X125233528Y-78676348D01*
X125235785Y-78687677D01*
X125237782Y-78701132D01*
X125239535Y-78717158D01*
X125241060Y-78736201D01*
X125242373Y-78758704D01*
X125243489Y-78785114D01*
X125244424Y-78815874D01*
X125245195Y-78851429D01*
X125245817Y-78892224D01*
X125246305Y-78938705D01*
X125246676Y-78991315D01*
X125246945Y-79050499D01*
X125247129Y-79116703D01*
X125247242Y-79190371D01*
X125247301Y-79271947D01*
X125247321Y-79361877D01*
X125247319Y-79460606D01*
X125247311Y-79568578D01*
X125247311Y-79693770D01*
X125247400Y-80650080D01*
X125887480Y-80650080D01*
X125887488Y-80332580D01*
X125902047Y-80301806D01*
X125922753Y-80268672D01*
X125949382Y-80243675D01*
X125981329Y-80227165D01*
X126017991Y-80219489D01*
X126044369Y-80219425D01*
X126082180Y-80226858D01*
X126115229Y-80243137D01*
X126142931Y-80267846D01*
X126164702Y-80300572D01*
X126167899Y-80307180D01*
X126179580Y-80332580D01*
X126180333Y-81267300D01*
X126180388Y-81364298D01*
X126180398Y-81458741D01*
X126180363Y-81550111D01*
X126180286Y-81637894D01*
X126180169Y-81721571D01*
X126180013Y-81800628D01*
X126179820Y-81874546D01*
X126179592Y-81942809D01*
X126179332Y-82004901D01*
X126179041Y-82060305D01*
X126178720Y-82108505D01*
X126178372Y-82148983D01*
X126177999Y-82181224D01*
X126177602Y-82204711D01*
X126177183Y-82218927D01*
X126176869Y-82223134D01*
X126164741Y-82259018D01*
X126143538Y-82290399D01*
X126128710Y-82305160D01*
X126097430Y-82326384D01*
X126063159Y-82338485D01*
X126027364Y-82341471D01*
X125991514Y-82335349D01*
X125957075Y-82320127D01*
X125934764Y-82304205D01*
X125923857Y-82292272D01*
X125911864Y-82275070D01*
X125903014Y-82259426D01*
X125887480Y-82228338D01*
X125887480Y-81909920D01*
X125247400Y-81909920D01*
X125247400Y-81620360D01*
X125887480Y-81620360D01*
X125887480Y-80939640D01*
X125247400Y-80939640D01*
X125247400Y-81620360D01*
X125247400Y-81909920D01*
X125247311Y-82866230D01*
X125247308Y-82984504D01*
X125247313Y-83093060D01*
X125247309Y-83192343D01*
X125247284Y-83282794D01*
X125247222Y-83364858D01*
X125247109Y-83438978D01*
X125246930Y-83505596D01*
X125246671Y-83565156D01*
X125246317Y-83618100D01*
X125245853Y-83664872D01*
X125245265Y-83705915D01*
X125244538Y-83741671D01*
X125243658Y-83772585D01*
X125242610Y-83799099D01*
X125241379Y-83821656D01*
X125239952Y-83840699D01*
X125238312Y-83856671D01*
X125236447Y-83870016D01*
X125234340Y-83881176D01*
X125231978Y-83890595D01*
X125229346Y-83898715D01*
X125226430Y-83905980D01*
X125223214Y-83912833D01*
X125219684Y-83919716D01*
X125215826Y-83927074D01*
X125212144Y-83934300D01*
X125180854Y-83987129D01*
X125143533Y-84031787D01*
X125100111Y-84068331D01*
X125050522Y-84096816D01*
X124994698Y-84117297D01*
X124984803Y-84119931D01*
X124981069Y-84120846D01*
X124977112Y-84121702D01*
X124972607Y-84122503D01*
X124967229Y-84123249D01*
X124960651Y-84123943D01*
X124952548Y-84124585D01*
X124942594Y-84125178D01*
X124930463Y-84125723D01*
X124915830Y-84126221D01*
X124898369Y-84126675D01*
X124877754Y-84127085D01*
X124853659Y-84127454D01*
X124825758Y-84127783D01*
X124793727Y-84128074D01*
X124757238Y-84128328D01*
X124715967Y-84128547D01*
X124669588Y-84128733D01*
X124617774Y-84128886D01*
X124560200Y-84129010D01*
X124496541Y-84129104D01*
X124426470Y-84129172D01*
X124349662Y-84129214D01*
X124265791Y-84129233D01*
X124174531Y-84129229D01*
X124075557Y-84129204D01*
X123968543Y-84129161D01*
X123853163Y-84129100D01*
X123729091Y-84129024D01*
X123596002Y-84128933D01*
X123453570Y-84128830D01*
X123301468Y-84128716D01*
X123220465Y-84128654D01*
X121544983Y-84127378D01*
X121544983Y-83835240D01*
X124923061Y-83835240D01*
X124937910Y-83820391D01*
X124952760Y-83805542D01*
X124952760Y-78754459D01*
X124938345Y-78740045D01*
X124917984Y-78726709D01*
X124901515Y-78722445D01*
X124894738Y-78722202D01*
X124878184Y-78721972D01*
X124852234Y-78721757D01*
X124817271Y-78721556D01*
X124773678Y-78721370D01*
X124721837Y-78721199D01*
X124662131Y-78721044D01*
X124594941Y-78720905D01*
X124520650Y-78720783D01*
X124439641Y-78720677D01*
X124352296Y-78720589D01*
X124258997Y-78720518D01*
X124160127Y-78720465D01*
X124056068Y-78720431D01*
X123947203Y-78720416D01*
X123833914Y-78720420D01*
X123716583Y-78720443D01*
X123595593Y-78720486D01*
X123471326Y-78720550D01*
X123344164Y-78720634D01*
X123214491Y-78720740D01*
X123213713Y-78720740D01*
X121548326Y-78722220D01*
X121533503Y-78738811D01*
X121518680Y-78755401D01*
X121518680Y-83803981D01*
X121531831Y-83819611D01*
X121544983Y-83835240D01*
X121544983Y-84127378D01*
X121495820Y-84127340D01*
X121455925Y-84112735D01*
X121401436Y-84087551D01*
X121352862Y-84054293D01*
X121310726Y-84013498D01*
X121275554Y-83965705D01*
X121247871Y-83911452D01*
X121240252Y-83891610D01*
X121226580Y-83853020D01*
X121226580Y-78706980D01*
X121242253Y-78663202D01*
G36*
X127143725Y-81430338D02*
G01*
X127144168Y-81428994D01*
X127160061Y-81396768D01*
X127183753Y-81369024D01*
X127213390Y-81347081D01*
X127247118Y-81332258D01*
X127283081Y-81325872D01*
X127289466Y-81325720D01*
X127326618Y-81328893D01*
X127358303Y-81339096D01*
X127387257Y-81357364D01*
X127398290Y-81366797D01*
X127423622Y-81396172D01*
X127441017Y-81429831D01*
X127449987Y-81465961D01*
X127450041Y-81502751D01*
X127443027Y-81532312D01*
X127425303Y-81568057D01*
X127400810Y-81597257D01*
X127370934Y-81619343D01*
X127337061Y-81633746D01*
X127300576Y-81639899D01*
X127262864Y-81637232D01*
X127225311Y-81625178D01*
X127221300Y-81623280D01*
X127189922Y-81602563D01*
X127165089Y-81575166D01*
X127147426Y-81542666D01*
X127137559Y-81506643D01*
X127136117Y-81468674D01*
X127143725Y-81430338D01*
G37*
X127143725Y-81430338D02*
X127144168Y-81428994D01*
X127160061Y-81396768D01*
X127183753Y-81369024D01*
X127213390Y-81347081D01*
X127247118Y-81332258D01*
X127283081Y-81325872D01*
X127289466Y-81325720D01*
X127326618Y-81328893D01*
X127358303Y-81339096D01*
X127387257Y-81357364D01*
X127398290Y-81366797D01*
X127423622Y-81396172D01*
X127441017Y-81429831D01*
X127449987Y-81465961D01*
X127450041Y-81502751D01*
X127443027Y-81532312D01*
X127425303Y-81568057D01*
X127400810Y-81597257D01*
X127370934Y-81619343D01*
X127337061Y-81633746D01*
X127300576Y-81639899D01*
X127262864Y-81637232D01*
X127225311Y-81625178D01*
X127221300Y-81623280D01*
X127189922Y-81602563D01*
X127165089Y-81575166D01*
X127147426Y-81542666D01*
X127137559Y-81506643D01*
X127136117Y-81468674D01*
X127143725Y-81430338D01*
G36*
X127605243Y-81611445D02*
G01*
X127607353Y-81576730D01*
X127608908Y-81561940D01*
X127619623Y-81512912D01*
X127638860Y-81467253D01*
X127665626Y-81426079D01*
X127698925Y-81390505D01*
X127737761Y-81361646D01*
X127781139Y-81340617D01*
X127815220Y-81330825D01*
X127823871Y-81329750D01*
X127838983Y-81328823D01*
X127860929Y-81328043D01*
X127890085Y-81327405D01*
X127926824Y-81326907D01*
X127971520Y-81326546D01*
X128024546Y-81326318D01*
X128086278Y-81326220D01*
X128157088Y-81326250D01*
X128237351Y-81326404D01*
X128316934Y-81326642D01*
X128790700Y-81328260D01*
X128816100Y-81339941D01*
X128849759Y-81360404D01*
X128876036Y-81386944D01*
X128894215Y-81418482D01*
X128903577Y-81453942D01*
X128904727Y-81473040D01*
X128903546Y-81493935D01*
X128900672Y-81513802D01*
X128897752Y-81525121D01*
X128882195Y-81555038D01*
X128859167Y-81581588D01*
X128831120Y-81602465D01*
X128802200Y-81614905D01*
X128795568Y-81616048D01*
X128784074Y-81617032D01*
X128767213Y-81617863D01*
X128744477Y-81618545D01*
X128715358Y-81619084D01*
X128679351Y-81619484D01*
X128635949Y-81619750D01*
X128584644Y-81619888D01*
X128524929Y-81619902D01*
X128456298Y-81619797D01*
X128378244Y-81619579D01*
X128339675Y-81619444D01*
X127899157Y-81617820D01*
X127899158Y-81672240D01*
X127897635Y-81710796D01*
X127892603Y-81741741D01*
X127883373Y-81767229D01*
X127869255Y-81789409D01*
X127857266Y-81802934D01*
X127831506Y-81824993D01*
X127804500Y-81838699D01*
X127773387Y-81845228D01*
X127751840Y-81846187D01*
X127728906Y-81845419D01*
X127711686Y-81842527D01*
X127695805Y-81836587D01*
X127687882Y-81832649D01*
X127656399Y-81810609D01*
X127631103Y-81781230D01*
X127618185Y-81757779D01*
X127612821Y-81739668D01*
X127608737Y-81713722D01*
X127606042Y-81682198D01*
X127604841Y-81647354D01*
X127605243Y-81611445D01*
G37*
X127605243Y-81611445D02*
X127607353Y-81576730D01*
X127608908Y-81561940D01*
X127619623Y-81512912D01*
X127638860Y-81467253D01*
X127665626Y-81426079D01*
X127698925Y-81390505D01*
X127737761Y-81361646D01*
X127781139Y-81340617D01*
X127815220Y-81330825D01*
X127823871Y-81329750D01*
X127838983Y-81328823D01*
X127860929Y-81328043D01*
X127890085Y-81327405D01*
X127926824Y-81326907D01*
X127971520Y-81326546D01*
X128024546Y-81326318D01*
X128086278Y-81326220D01*
X128157088Y-81326250D01*
X128237351Y-81326404D01*
X128316934Y-81326642D01*
X128790700Y-81328260D01*
X128816100Y-81339941D01*
X128849759Y-81360404D01*
X128876036Y-81386944D01*
X128894215Y-81418482D01*
X128903577Y-81453942D01*
X128904727Y-81473040D01*
X128903546Y-81493935D01*
X128900672Y-81513802D01*
X128897752Y-81525121D01*
X128882195Y-81555038D01*
X128859167Y-81581588D01*
X128831120Y-81602465D01*
X128802200Y-81614905D01*
X128795568Y-81616048D01*
X128784074Y-81617032D01*
X128767213Y-81617863D01*
X128744477Y-81618545D01*
X128715358Y-81619084D01*
X128679351Y-81619484D01*
X128635949Y-81619750D01*
X128584644Y-81619888D01*
X128524929Y-81619902D01*
X128456298Y-81619797D01*
X128378244Y-81619579D01*
X128339675Y-81619444D01*
X127899157Y-81617820D01*
X127899158Y-81672240D01*
X127897635Y-81710796D01*
X127892603Y-81741741D01*
X127883373Y-81767229D01*
X127869255Y-81789409D01*
X127857266Y-81802934D01*
X127831506Y-81824993D01*
X127804500Y-81838699D01*
X127773387Y-81845228D01*
X127751840Y-81846187D01*
X127728906Y-81845419D01*
X127711686Y-81842527D01*
X127695805Y-81836587D01*
X127687882Y-81832649D01*
X127656399Y-81810609D01*
X127631103Y-81781230D01*
X127618185Y-81757779D01*
X127612821Y-81739668D01*
X127608737Y-81713722D01*
X127606042Y-81682198D01*
X127604841Y-81647354D01*
X127605243Y-81611445D01*
G36*
X127599526Y-82183839D02*
G01*
X127615539Y-82133915D01*
X127640797Y-82086968D01*
X127675319Y-82042756D01*
X127688267Y-82029204D01*
X127714680Y-82004465D01*
X127738750Y-81985955D01*
X127763580Y-81971324D01*
X127767080Y-81969558D01*
X127790125Y-81958665D01*
X127811074Y-81950323D01*
X127831853Y-81944201D01*
X127854392Y-81939973D01*
X127880618Y-81937307D01*
X127912460Y-81935876D01*
X127951848Y-81935351D01*
X127967809Y-81935320D01*
X128002591Y-81935366D01*
X128028875Y-81935614D01*
X128048320Y-81936237D01*
X128062589Y-81937402D01*
X128073343Y-81939280D01*
X128082243Y-81942041D01*
X128090949Y-81945855D01*
X128096225Y-81948447D01*
X128127753Y-81969275D01*
X128151950Y-81995757D01*
X128168560Y-82026379D01*
X128177325Y-82059624D01*
X128177991Y-82093977D01*
X128170300Y-82127920D01*
X128153998Y-82159939D01*
X128135711Y-82182032D01*
X128119280Y-82197111D01*
X128103152Y-82208263D01*
X128085391Y-82216049D01*
X128064060Y-82221029D01*
X128037223Y-82223762D01*
X128002943Y-82224809D01*
X127987485Y-82224880D01*
X127953010Y-82225237D01*
X127927351Y-82226478D01*
X127909185Y-82228860D01*
X127897189Y-82232641D01*
X127890039Y-82238076D01*
X127886702Y-82244437D01*
X127885947Y-82259429D01*
X127890258Y-82281090D01*
X127898943Y-82307722D01*
X127911306Y-82337623D01*
X127926653Y-82369096D01*
X127944291Y-82400439D01*
X127961006Y-82426350D01*
X127975776Y-82445922D01*
X127995309Y-82469312D01*
X128016931Y-82493418D01*
X128035624Y-82512824D01*
X128083189Y-82560160D01*
X128434770Y-82560160D01*
X128505784Y-82560158D01*
X128567383Y-82560192D01*
X128620313Y-82560321D01*
X128665319Y-82560605D01*
X128703145Y-82561106D01*
X128734537Y-82561881D01*
X128760240Y-82562993D01*
X128780999Y-82564500D01*
X128797560Y-82566462D01*
X128810667Y-82568940D01*
X128821066Y-82571994D01*
X128829502Y-82575683D01*
X128836719Y-82580067D01*
X128843464Y-82585208D01*
X128850481Y-82591163D01*
X128853643Y-82593883D01*
X128877368Y-82618135D01*
X128892838Y-82644252D01*
X128901299Y-82674857D01*
X128903675Y-82699393D01*
X128904205Y-82721854D01*
X128902977Y-82738009D01*
X128899393Y-82751644D01*
X128893169Y-82765900D01*
X128872447Y-82797446D01*
X128844291Y-82823823D01*
X128816100Y-82840580D01*
X128790700Y-82852260D01*
X127899160Y-82855118D01*
X127899160Y-82895409D01*
X127895932Y-82935986D01*
X127885885Y-82970086D01*
X127868476Y-82999225D01*
X127857266Y-83011974D01*
X127831506Y-83034033D01*
X127804500Y-83047739D01*
X127773387Y-83054268D01*
X127751840Y-83055227D01*
X127713737Y-83051072D01*
X127680944Y-83038437D01*
X127652709Y-83016997D01*
X127645239Y-83009055D01*
X127630794Y-82991084D01*
X127620442Y-82973722D01*
X127613543Y-82954721D01*
X127609457Y-82931829D01*
X127607546Y-82902797D01*
X127607152Y-82875120D01*
X127608822Y-82824134D01*
X127614449Y-82780839D01*
X127624740Y-82743305D01*
X127640400Y-82709598D01*
X127662133Y-82677787D01*
X127690645Y-82645938D01*
X127690826Y-82645755D01*
X127729280Y-82606889D01*
X127709605Y-82579715D01*
X127699966Y-82564862D01*
X127687516Y-82543454D01*
X127673734Y-82518142D01*
X127660101Y-82491580D01*
X127657595Y-82486500D01*
X127627618Y-82418095D01*
X127606806Y-82353867D01*
X127595176Y-82293574D01*
X127592744Y-82236978D01*
X127599526Y-82183839D01*
G37*
X127599526Y-82183839D02*
X127615539Y-82133915D01*
X127640797Y-82086968D01*
X127675319Y-82042756D01*
X127688267Y-82029204D01*
X127714680Y-82004465D01*
X127738750Y-81985955D01*
X127763580Y-81971324D01*
X127767080Y-81969558D01*
X127790125Y-81958665D01*
X127811074Y-81950323D01*
X127831853Y-81944201D01*
X127854392Y-81939973D01*
X127880618Y-81937307D01*
X127912460Y-81935876D01*
X127951848Y-81935351D01*
X127967809Y-81935320D01*
X128002591Y-81935366D01*
X128028875Y-81935614D01*
X128048320Y-81936237D01*
X128062589Y-81937402D01*
X128073343Y-81939280D01*
X128082243Y-81942041D01*
X128090949Y-81945855D01*
X128096225Y-81948447D01*
X128127753Y-81969275D01*
X128151950Y-81995757D01*
X128168560Y-82026379D01*
X128177325Y-82059624D01*
X128177991Y-82093977D01*
X128170300Y-82127920D01*
X128153998Y-82159939D01*
X128135711Y-82182032D01*
X128119280Y-82197111D01*
X128103152Y-82208263D01*
X128085391Y-82216049D01*
X128064060Y-82221029D01*
X128037223Y-82223762D01*
X128002943Y-82224809D01*
X127987485Y-82224880D01*
X127953010Y-82225237D01*
X127927351Y-82226478D01*
X127909185Y-82228860D01*
X127897189Y-82232641D01*
X127890039Y-82238076D01*
X127886702Y-82244437D01*
X127885947Y-82259429D01*
X127890258Y-82281090D01*
X127898943Y-82307722D01*
X127911306Y-82337623D01*
X127926653Y-82369096D01*
X127944291Y-82400439D01*
X127961006Y-82426350D01*
X127975776Y-82445922D01*
X127995309Y-82469312D01*
X128016931Y-82493418D01*
X128035624Y-82512824D01*
X128083189Y-82560160D01*
X128434770Y-82560160D01*
X128505784Y-82560158D01*
X128567383Y-82560192D01*
X128620313Y-82560321D01*
X128665319Y-82560605D01*
X128703145Y-82561106D01*
X128734537Y-82561881D01*
X128760240Y-82562993D01*
X128780999Y-82564500D01*
X128797560Y-82566462D01*
X128810667Y-82568940D01*
X128821066Y-82571994D01*
X128829502Y-82575683D01*
X128836719Y-82580067D01*
X128843464Y-82585208D01*
X128850481Y-82591163D01*
X128853643Y-82593883D01*
X128877368Y-82618135D01*
X128892838Y-82644252D01*
X128901299Y-82674857D01*
X128903675Y-82699393D01*
X128904205Y-82721854D01*
X128902977Y-82738009D01*
X128899393Y-82751644D01*
X128893169Y-82765900D01*
X128872447Y-82797446D01*
X128844291Y-82823823D01*
X128816100Y-82840580D01*
X128790700Y-82852260D01*
X127899160Y-82855118D01*
X127899160Y-82895409D01*
X127895932Y-82935986D01*
X127885885Y-82970086D01*
X127868476Y-82999225D01*
X127857266Y-83011974D01*
X127831506Y-83034033D01*
X127804500Y-83047739D01*
X127773387Y-83054268D01*
X127751840Y-83055227D01*
X127713737Y-83051072D01*
X127680944Y-83038437D01*
X127652709Y-83016997D01*
X127645239Y-83009055D01*
X127630794Y-82991084D01*
X127620442Y-82973722D01*
X127613543Y-82954721D01*
X127609457Y-82931829D01*
X127607546Y-82902797D01*
X127607152Y-82875120D01*
X127608822Y-82824134D01*
X127614449Y-82780839D01*
X127624740Y-82743305D01*
X127640400Y-82709598D01*
X127662133Y-82677787D01*
X127690645Y-82645938D01*
X127690826Y-82645755D01*
X127729280Y-82606889D01*
X127709605Y-82579715D01*
X127699966Y-82564862D01*
X127687516Y-82543454D01*
X127673734Y-82518142D01*
X127660101Y-82491580D01*
X127657595Y-82486500D01*
X127627618Y-82418095D01*
X127606806Y-82353867D01*
X127595176Y-82293574D01*
X127592744Y-82236978D01*
X127599526Y-82183839D01*
G36*
X127612584Y-83370953D02*
G01*
X127625458Y-83338891D01*
X127645018Y-83311141D01*
X127657327Y-83299465D01*
X127664629Y-83293315D01*
X127671015Y-83287914D01*
X127677157Y-83283210D01*
X127683729Y-83279152D01*
X127691402Y-83275686D01*
X127700850Y-83272762D01*
X127712746Y-83270326D01*
X127727761Y-83268328D01*
X127746568Y-83266714D01*
X127769840Y-83265434D01*
X127798251Y-83264434D01*
X127832471Y-83263663D01*
X127873174Y-83263068D01*
X127921033Y-83262598D01*
X127976720Y-83262201D01*
X128040907Y-83261824D01*
X128114268Y-83261416D01*
X128151777Y-83261200D01*
X128584735Y-83258660D01*
X128598005Y-83245387D01*
X128604661Y-83237522D01*
X128609106Y-83228210D01*
X128612113Y-83214813D01*
X128614457Y-83194691D01*
X128615146Y-83186967D01*
X128619043Y-83154819D01*
X128625197Y-83129838D01*
X128634738Y-83109095D01*
X128648799Y-83089661D01*
X128655809Y-83081743D01*
X128683487Y-83058618D01*
X128714951Y-83043857D01*
X128748569Y-83037227D01*
X128782706Y-83038499D01*
X128815731Y-83047440D01*
X128846010Y-83063820D01*
X128871911Y-83087407D01*
X128890298Y-83114937D01*
X128901523Y-83145579D01*
X128906744Y-83182265D01*
X128906083Y-83226023D01*
X128904852Y-83239762D01*
X128895190Y-83296606D01*
X128878170Y-83347502D01*
X128852937Y-83394301D01*
X128818639Y-83438850D01*
X128807210Y-83451262D01*
X128792649Y-83466627D01*
X128781158Y-83478926D01*
X128774246Y-83486536D01*
X128772920Y-83488191D01*
X128775559Y-83492528D01*
X128782676Y-83503454D01*
X128793066Y-83519133D01*
X128801261Y-83531385D01*
X128841536Y-83599680D01*
X128872549Y-83670413D01*
X128894128Y-83742862D01*
X128906099Y-83816302D01*
X128908288Y-83890011D01*
X128902239Y-83952916D01*
X128886562Y-84022011D01*
X128862041Y-84086720D01*
X128829225Y-84146401D01*
X128788663Y-84200412D01*
X128740903Y-84248112D01*
X128686496Y-84288860D01*
X128625990Y-84322013D01*
X128566869Y-84344798D01*
X128550120Y-84349736D01*
X128532980Y-84353958D01*
X128514533Y-84357516D01*
X128493864Y-84360465D01*
X128470056Y-84362860D01*
X128442195Y-84364754D01*
X128409364Y-84366201D01*
X128370647Y-84367256D01*
X128325130Y-84367972D01*
X128271895Y-84368404D01*
X128210028Y-84368607D01*
X128163520Y-84368640D01*
X127899160Y-84368640D01*
X127899160Y-84418536D01*
X127897799Y-84454449D01*
X127893187Y-84483030D01*
X127884530Y-84506805D01*
X127871032Y-84528300D01*
X127860742Y-84540641D01*
X127832728Y-84564896D01*
X127801148Y-84580597D01*
X127767518Y-84587988D01*
X127733351Y-84587313D01*
X127700164Y-84578818D01*
X127669469Y-84562746D01*
X127642783Y-84539342D01*
X127621620Y-84508851D01*
X127617977Y-84501478D01*
X127613801Y-84491484D01*
X127610849Y-84481198D01*
X127608922Y-84468662D01*
X127607820Y-84451918D01*
X127607344Y-84429009D01*
X127607294Y-84397976D01*
X127607298Y-84396580D01*
X127607923Y-84357042D01*
X127609848Y-84325217D01*
X127613540Y-84298694D01*
X127619463Y-84275062D01*
X127628084Y-84251908D01*
X127639868Y-84226821D01*
X127640215Y-84226132D01*
X127664180Y-84188648D01*
X127696078Y-84153774D01*
X127733708Y-84123381D01*
X127774869Y-84099341D01*
X127802640Y-84087953D01*
X127809609Y-84085667D01*
X127816577Y-84083706D01*
X127824363Y-84082038D01*
X127833790Y-84080630D01*
X127845678Y-84079450D01*
X127860850Y-84078465D01*
X127880127Y-84077643D01*
X127904329Y-84076951D01*
X127934279Y-84076357D01*
X127970799Y-84075829D01*
X128014708Y-84075334D01*
X128066830Y-84074839D01*
X128127984Y-84074312D01*
X128153160Y-84074102D01*
X128470660Y-84071460D01*
X128504130Y-84055601D01*
X128541372Y-84032764D01*
X128571296Y-84003533D01*
X128593671Y-83968791D01*
X128608266Y-83929423D01*
X128614850Y-83886313D01*
X128613194Y-83840345D01*
X128603065Y-83792403D01*
X128585079Y-83745174D01*
X128557260Y-83695984D01*
X128520182Y-83647520D01*
X128474741Y-83600885D01*
X128451346Y-83580409D01*
X128421872Y-83555840D01*
X128074346Y-83555840D01*
X128006353Y-83555831D01*
X127947754Y-83555789D01*
X127897783Y-83555693D01*
X127855673Y-83555524D01*
X127820659Y-83555260D01*
X127791973Y-83554880D01*
X127768852Y-83554365D01*
X127750527Y-83553692D01*
X127736233Y-83552842D01*
X127725203Y-83551794D01*
X127716673Y-83550527D01*
X127709874Y-83549021D01*
X127704042Y-83547254D01*
X127699795Y-83545729D01*
X127671889Y-83530536D01*
X127646025Y-83507558D01*
X127624701Y-83479158D01*
X127619329Y-83469480D01*
X127608993Y-83438600D01*
X127606920Y-83404973D01*
X127612584Y-83370953D01*
G37*
X127612584Y-83370953D02*
X127625458Y-83338891D01*
X127645018Y-83311141D01*
X127657327Y-83299465D01*
X127664629Y-83293315D01*
X127671015Y-83287914D01*
X127677157Y-83283210D01*
X127683729Y-83279152D01*
X127691402Y-83275686D01*
X127700850Y-83272762D01*
X127712746Y-83270326D01*
X127727761Y-83268328D01*
X127746568Y-83266714D01*
X127769840Y-83265434D01*
X127798251Y-83264434D01*
X127832471Y-83263663D01*
X127873174Y-83263068D01*
X127921033Y-83262598D01*
X127976720Y-83262201D01*
X128040907Y-83261824D01*
X128114268Y-83261416D01*
X128151777Y-83261200D01*
X128584735Y-83258660D01*
X128598005Y-83245387D01*
X128604661Y-83237522D01*
X128609106Y-83228210D01*
X128612113Y-83214813D01*
X128614457Y-83194691D01*
X128615146Y-83186967D01*
X128619043Y-83154819D01*
X128625197Y-83129838D01*
X128634738Y-83109095D01*
X128648799Y-83089661D01*
X128655809Y-83081743D01*
X128683487Y-83058618D01*
X128714951Y-83043857D01*
X128748569Y-83037227D01*
X128782706Y-83038499D01*
X128815731Y-83047440D01*
X128846010Y-83063820D01*
X128871911Y-83087407D01*
X128890298Y-83114937D01*
X128901523Y-83145579D01*
X128906744Y-83182265D01*
X128906083Y-83226023D01*
X128904852Y-83239762D01*
X128895190Y-83296606D01*
X128878170Y-83347502D01*
X128852937Y-83394301D01*
X128818639Y-83438850D01*
X128807210Y-83451262D01*
X128792649Y-83466627D01*
X128781158Y-83478926D01*
X128774246Y-83486536D01*
X128772920Y-83488191D01*
X128775559Y-83492528D01*
X128782676Y-83503454D01*
X128793066Y-83519133D01*
X128801261Y-83531385D01*
X128841536Y-83599680D01*
X128872549Y-83670413D01*
X128894128Y-83742862D01*
X128906099Y-83816302D01*
X128908288Y-83890011D01*
X128902239Y-83952916D01*
X128886562Y-84022011D01*
X128862041Y-84086720D01*
X128829225Y-84146401D01*
X128788663Y-84200412D01*
X128740903Y-84248112D01*
X128686496Y-84288860D01*
X128625990Y-84322013D01*
X128566869Y-84344798D01*
X128550120Y-84349736D01*
X128532980Y-84353958D01*
X128514533Y-84357516D01*
X128493864Y-84360465D01*
X128470056Y-84362860D01*
X128442195Y-84364754D01*
X128409364Y-84366201D01*
X128370647Y-84367256D01*
X128325130Y-84367972D01*
X128271895Y-84368404D01*
X128210028Y-84368607D01*
X128163520Y-84368640D01*
X127899160Y-84368640D01*
X127899160Y-84418536D01*
X127897799Y-84454449D01*
X127893187Y-84483030D01*
X127884530Y-84506805D01*
X127871032Y-84528300D01*
X127860742Y-84540641D01*
X127832728Y-84564896D01*
X127801148Y-84580597D01*
X127767518Y-84587988D01*
X127733351Y-84587313D01*
X127700164Y-84578818D01*
X127669469Y-84562746D01*
X127642783Y-84539342D01*
X127621620Y-84508851D01*
X127617977Y-84501478D01*
X127613801Y-84491484D01*
X127610849Y-84481198D01*
X127608922Y-84468662D01*
X127607820Y-84451918D01*
X127607344Y-84429009D01*
X127607294Y-84397976D01*
X127607298Y-84396580D01*
X127607923Y-84357042D01*
X127609848Y-84325217D01*
X127613540Y-84298694D01*
X127619463Y-84275062D01*
X127628084Y-84251908D01*
X127639868Y-84226821D01*
X127640215Y-84226132D01*
X127664180Y-84188648D01*
X127696078Y-84153774D01*
X127733708Y-84123381D01*
X127774869Y-84099341D01*
X127802640Y-84087953D01*
X127809609Y-84085667D01*
X127816577Y-84083706D01*
X127824363Y-84082038D01*
X127833790Y-84080630D01*
X127845678Y-84079450D01*
X127860850Y-84078465D01*
X127880127Y-84077643D01*
X127904329Y-84076951D01*
X127934279Y-84076357D01*
X127970799Y-84075829D01*
X128014708Y-84075334D01*
X128066830Y-84074839D01*
X128127984Y-84074312D01*
X128153160Y-84074102D01*
X128470660Y-84071460D01*
X128504130Y-84055601D01*
X128541372Y-84032764D01*
X128571296Y-84003533D01*
X128593671Y-83968791D01*
X128608266Y-83929423D01*
X128614850Y-83886313D01*
X128613194Y-83840345D01*
X128603065Y-83792403D01*
X128585079Y-83745174D01*
X128557260Y-83695984D01*
X128520182Y-83647520D01*
X128474741Y-83600885D01*
X128451346Y-83580409D01*
X128421872Y-83555840D01*
X128074346Y-83555840D01*
X128006353Y-83555831D01*
X127947754Y-83555789D01*
X127897783Y-83555693D01*
X127855673Y-83555524D01*
X127820659Y-83555260D01*
X127791973Y-83554880D01*
X127768852Y-83554365D01*
X127750527Y-83553692D01*
X127736233Y-83552842D01*
X127725203Y-83551794D01*
X127716673Y-83550527D01*
X127709874Y-83549021D01*
X127704042Y-83547254D01*
X127699795Y-83545729D01*
X127671889Y-83530536D01*
X127646025Y-83507558D01*
X127624701Y-83479158D01*
X127619329Y-83469480D01*
X127608993Y-83438600D01*
X127606920Y-83404973D01*
X127612584Y-83370953D01*
G36*
X126893245Y-76923729D02*
G01*
X126894004Y-76880452D01*
X126895214Y-76840849D01*
X126896874Y-76806895D01*
X126898375Y-76786740D01*
X126909503Y-76691015D01*
X126924689Y-76603869D01*
X126943884Y-76525418D01*
X126967037Y-76455779D01*
X126994100Y-76395068D01*
X127025023Y-76343404D01*
X127059757Y-76300902D01*
X127098253Y-76267679D01*
X127124460Y-76251541D01*
X127149860Y-76238100D01*
X127500380Y-76238100D01*
X127526237Y-76251744D01*
X127558334Y-76273481D01*
X127581740Y-76300398D01*
X127596700Y-76332873D01*
X127603456Y-76371285D01*
X127603470Y-76371500D01*
X127601806Y-76410987D01*
X127591289Y-76445540D01*
X127571808Y-76475403D01*
X127545234Y-76499407D01*
X127533259Y-76507616D01*
X127521793Y-76514043D01*
X127509358Y-76518944D01*
X127494477Y-76522578D01*
X127475675Y-76525203D01*
X127451473Y-76527076D01*
X127420396Y-76528456D01*
X127380966Y-76529599D01*
X127370857Y-76529849D01*
X127251495Y-76532740D01*
X127239702Y-76562487D01*
X127226964Y-76598695D01*
X127216175Y-76638611D01*
X127207138Y-76683441D01*
X127199654Y-76734392D01*
X127193526Y-76792671D01*
X127188555Y-76859483D01*
X127187197Y-76882495D01*
X127184313Y-76971014D01*
X127185824Y-77052991D01*
X127191621Y-77128133D01*
X127201593Y-77196148D01*
X127215630Y-77256743D01*
X127233622Y-77309626D01*
X127255458Y-77354505D01*
X127281029Y-77391086D01*
X127310223Y-77419078D01*
X127342932Y-77438187D01*
X127379043Y-77448123D01*
X127400954Y-77449569D01*
X127429787Y-77446360D01*
X127456547Y-77436298D01*
X127483406Y-77418373D01*
X127500911Y-77403009D01*
X127528323Y-77373602D01*
X127554852Y-77337871D01*
X127580742Y-77295292D01*
X127606231Y-77245343D01*
X127631562Y-77187503D01*
X127656976Y-77121250D01*
X127682714Y-77046061D01*
X127709017Y-76961413D01*
X127716325Y-76936600D01*
X127741065Y-76853209D01*
X127764121Y-76778902D01*
X127785868Y-76712817D01*
X127806683Y-76654089D01*
X127826943Y-76601856D01*
X127847025Y-76555254D01*
X127867304Y-76513419D01*
X127888159Y-76475487D01*
X127909964Y-76440595D01*
X127933097Y-76407880D01*
X127957935Y-76376478D01*
X127963441Y-76369923D01*
X128007761Y-76325036D01*
X128059551Y-76285365D01*
X128116981Y-76252031D01*
X128178221Y-76226159D01*
X128216660Y-76214523D01*
X128235076Y-76210110D01*
X128252225Y-76206942D01*
X128270393Y-76204825D01*
X128291865Y-76203564D01*
X128318926Y-76202963D01*
X128353820Y-76202829D01*
X128389393Y-76203048D01*
X128417095Y-76203763D01*
X128439210Y-76205164D01*
X128458022Y-76207440D01*
X128475814Y-76210779D01*
X128489833Y-76214087D01*
X128559318Y-76236521D01*
X128623509Y-76267530D01*
X128682237Y-76306916D01*
X128735332Y-76354481D01*
X128782626Y-76410027D01*
X128823950Y-76473357D01*
X128859134Y-76544272D01*
X128888010Y-76622575D01*
X128909869Y-76705574D01*
X128919488Y-76758249D01*
X128927342Y-76818277D01*
X128933270Y-76882981D01*
X128937108Y-76949681D01*
X128938694Y-77015698D01*
X128937865Y-77078353D01*
X128935330Y-77124560D01*
X128922163Y-77240345D01*
X128901018Y-77353312D01*
X128872224Y-77462094D01*
X128836113Y-77565323D01*
X128818389Y-77607729D01*
X128795594Y-77655954D01*
X128773536Y-77694900D01*
X128751572Y-77725355D01*
X128729057Y-77748106D01*
X128705347Y-77763941D01*
X128683507Y-77772628D01*
X128674090Y-77774885D01*
X128662416Y-77776634D01*
X128647295Y-77777914D01*
X128627538Y-77778765D01*
X128601953Y-77779227D01*
X128569352Y-77779341D01*
X128528543Y-77779147D01*
X128497644Y-77778880D01*
X128338580Y-77777340D01*
X128311357Y-77762262D01*
X128279188Y-77739458D01*
X128255728Y-77711453D01*
X128240912Y-77678129D01*
X128234670Y-77639371D01*
X128234440Y-77629559D01*
X128239282Y-77594473D01*
X128252903Y-77561745D01*
X128273945Y-77533054D01*
X128301051Y-77510079D01*
X128332861Y-77494496D01*
X128346832Y-77490659D01*
X128360332Y-77488862D01*
X128381712Y-77487317D01*
X128408697Y-77486131D01*
X128439009Y-77485411D01*
X128462176Y-77485240D01*
X128552252Y-77485240D01*
X128558851Y-77468730D01*
X128591544Y-77374531D01*
X128616742Y-77275055D01*
X128634175Y-77172170D01*
X128643572Y-77067746D01*
X128644661Y-76963648D01*
X128641125Y-76901040D01*
X128632423Y-76823315D01*
X128619903Y-76754687D01*
X128603408Y-76694778D01*
X128582781Y-76643206D01*
X128557864Y-76599592D01*
X128528500Y-76563555D01*
X128494532Y-76534717D01*
X128487491Y-76529986D01*
X128456883Y-76513183D01*
X128424931Y-76502169D01*
X128389121Y-76496362D01*
X128346940Y-76495183D01*
X128337939Y-76495436D01*
X128311896Y-76496660D01*
X128292852Y-76498582D01*
X128277647Y-76501836D01*
X128263120Y-76507058D01*
X128249680Y-76513166D01*
X128226088Y-76526387D01*
X128203907Y-76543156D01*
X128182825Y-76564085D01*
X128162535Y-76589783D01*
X128142727Y-76620863D01*
X128123091Y-76657934D01*
X128103320Y-76701608D01*
X128083103Y-76752495D01*
X128062132Y-76811206D01*
X128040098Y-76878352D01*
X128016691Y-76954544D01*
X128003221Y-77000181D01*
X127977308Y-77086557D01*
X127952509Y-77163870D01*
X127928418Y-77233102D01*
X127904626Y-77295235D01*
X127880728Y-77351251D01*
X127856317Y-77402133D01*
X127830984Y-77448861D01*
X127804324Y-77492420D01*
X127791013Y-77512379D01*
X127753253Y-77562343D01*
X127711800Y-77607912D01*
X127668139Y-77647745D01*
X127623753Y-77680500D01*
X127580124Y-77704835D01*
X127576398Y-77706516D01*
X127515309Y-77728101D01*
X127452011Y-77740233D01*
X127387720Y-77743026D01*
X127323654Y-77736590D01*
X127261030Y-77721039D01*
X127201067Y-77696484D01*
X127151230Y-77667356D01*
X127099284Y-77626595D01*
X127053293Y-77578701D01*
X127013138Y-77523435D01*
X126978705Y-77460558D01*
X126949876Y-77389832D01*
X126926536Y-77311019D01*
X126908566Y-77223880D01*
X126898202Y-77149960D01*
X126896238Y-77126110D01*
X126894731Y-77094084D01*
X126893679Y-77055858D01*
X126893081Y-77013407D01*
X126892937Y-76968706D01*
X126893245Y-76923729D01*
G37*
X126893245Y-76923729D02*
X126894004Y-76880452D01*
X126895214Y-76840849D01*
X126896874Y-76806895D01*
X126898375Y-76786740D01*
X126909503Y-76691015D01*
X126924689Y-76603869D01*
X126943884Y-76525418D01*
X126967037Y-76455779D01*
X126994100Y-76395068D01*
X127025023Y-76343404D01*
X127059757Y-76300902D01*
X127098253Y-76267679D01*
X127124460Y-76251541D01*
X127149860Y-76238100D01*
X127500380Y-76238100D01*
X127526237Y-76251744D01*
X127558334Y-76273481D01*
X127581740Y-76300398D01*
X127596700Y-76332873D01*
X127603456Y-76371285D01*
X127603470Y-76371500D01*
X127601806Y-76410987D01*
X127591289Y-76445540D01*
X127571808Y-76475403D01*
X127545234Y-76499407D01*
X127533259Y-76507616D01*
X127521793Y-76514043D01*
X127509358Y-76518944D01*
X127494477Y-76522578D01*
X127475675Y-76525203D01*
X127451473Y-76527076D01*
X127420396Y-76528456D01*
X127380966Y-76529599D01*
X127370857Y-76529849D01*
X127251495Y-76532740D01*
X127239702Y-76562487D01*
X127226964Y-76598695D01*
X127216175Y-76638611D01*
X127207138Y-76683441D01*
X127199654Y-76734392D01*
X127193526Y-76792671D01*
X127188555Y-76859483D01*
X127187197Y-76882495D01*
X127184313Y-76971014D01*
X127185824Y-77052991D01*
X127191621Y-77128133D01*
X127201593Y-77196148D01*
X127215630Y-77256743D01*
X127233622Y-77309626D01*
X127255458Y-77354505D01*
X127281029Y-77391086D01*
X127310223Y-77419078D01*
X127342932Y-77438187D01*
X127379043Y-77448123D01*
X127400954Y-77449569D01*
X127429787Y-77446360D01*
X127456547Y-77436298D01*
X127483406Y-77418373D01*
X127500911Y-77403009D01*
X127528323Y-77373602D01*
X127554852Y-77337871D01*
X127580742Y-77295292D01*
X127606231Y-77245343D01*
X127631562Y-77187503D01*
X127656976Y-77121250D01*
X127682714Y-77046061D01*
X127709017Y-76961413D01*
X127716325Y-76936600D01*
X127741065Y-76853209D01*
X127764121Y-76778902D01*
X127785868Y-76712817D01*
X127806683Y-76654089D01*
X127826943Y-76601856D01*
X127847025Y-76555254D01*
X127867304Y-76513419D01*
X127888159Y-76475487D01*
X127909964Y-76440595D01*
X127933097Y-76407880D01*
X127957935Y-76376478D01*
X127963441Y-76369923D01*
X128007761Y-76325036D01*
X128059551Y-76285365D01*
X128116981Y-76252031D01*
X128178221Y-76226159D01*
X128216660Y-76214523D01*
X128235076Y-76210110D01*
X128252225Y-76206942D01*
X128270393Y-76204825D01*
X128291865Y-76203564D01*
X128318926Y-76202963D01*
X128353820Y-76202829D01*
X128389393Y-76203048D01*
X128417095Y-76203763D01*
X128439210Y-76205164D01*
X128458022Y-76207440D01*
X128475814Y-76210779D01*
X128489833Y-76214087D01*
X128559318Y-76236521D01*
X128623509Y-76267530D01*
X128682237Y-76306916D01*
X128735332Y-76354481D01*
X128782626Y-76410027D01*
X128823950Y-76473357D01*
X128859134Y-76544272D01*
X128888010Y-76622575D01*
X128909869Y-76705574D01*
X128919488Y-76758249D01*
X128927342Y-76818277D01*
X128933270Y-76882981D01*
X128937108Y-76949681D01*
X128938694Y-77015698D01*
X128937865Y-77078353D01*
X128935330Y-77124560D01*
X128922163Y-77240345D01*
X128901018Y-77353312D01*
X128872224Y-77462094D01*
X128836113Y-77565323D01*
X128818389Y-77607729D01*
X128795594Y-77655954D01*
X128773536Y-77694900D01*
X128751572Y-77725355D01*
X128729057Y-77748106D01*
X128705347Y-77763941D01*
X128683507Y-77772628D01*
X128674090Y-77774885D01*
X128662416Y-77776634D01*
X128647295Y-77777914D01*
X128627538Y-77778765D01*
X128601953Y-77779227D01*
X128569352Y-77779341D01*
X128528543Y-77779147D01*
X128497644Y-77778880D01*
X128338580Y-77777340D01*
X128311357Y-77762262D01*
X128279188Y-77739458D01*
X128255728Y-77711453D01*
X128240912Y-77678129D01*
X128234670Y-77639371D01*
X128234440Y-77629559D01*
X128239282Y-77594473D01*
X128252903Y-77561745D01*
X128273945Y-77533054D01*
X128301051Y-77510079D01*
X128332861Y-77494496D01*
X128346832Y-77490659D01*
X128360332Y-77488862D01*
X128381712Y-77487317D01*
X128408697Y-77486131D01*
X128439009Y-77485411D01*
X128462176Y-77485240D01*
X128552252Y-77485240D01*
X128558851Y-77468730D01*
X128591544Y-77374531D01*
X128616742Y-77275055D01*
X128634175Y-77172170D01*
X128643572Y-77067746D01*
X128644661Y-76963648D01*
X128641125Y-76901040D01*
X128632423Y-76823315D01*
X128619903Y-76754687D01*
X128603408Y-76694778D01*
X128582781Y-76643206D01*
X128557864Y-76599592D01*
X128528500Y-76563555D01*
X128494532Y-76534717D01*
X128487491Y-76529986D01*
X128456883Y-76513183D01*
X128424931Y-76502169D01*
X128389121Y-76496362D01*
X128346940Y-76495183D01*
X128337939Y-76495436D01*
X128311896Y-76496660D01*
X128292852Y-76498582D01*
X128277647Y-76501836D01*
X128263120Y-76507058D01*
X128249680Y-76513166D01*
X128226088Y-76526387D01*
X128203907Y-76543156D01*
X128182825Y-76564085D01*
X128162535Y-76589783D01*
X128142727Y-76620863D01*
X128123091Y-76657934D01*
X128103320Y-76701608D01*
X128083103Y-76752495D01*
X128062132Y-76811206D01*
X128040098Y-76878352D01*
X128016691Y-76954544D01*
X128003221Y-77000181D01*
X127977308Y-77086557D01*
X127952509Y-77163870D01*
X127928418Y-77233102D01*
X127904626Y-77295235D01*
X127880728Y-77351251D01*
X127856317Y-77402133D01*
X127830984Y-77448861D01*
X127804324Y-77492420D01*
X127791013Y-77512379D01*
X127753253Y-77562343D01*
X127711800Y-77607912D01*
X127668139Y-77647745D01*
X127623753Y-77680500D01*
X127580124Y-77704835D01*
X127576398Y-77706516D01*
X127515309Y-77728101D01*
X127452011Y-77740233D01*
X127387720Y-77743026D01*
X127323654Y-77736590D01*
X127261030Y-77721039D01*
X127201067Y-77696484D01*
X127151230Y-77667356D01*
X127099284Y-77626595D01*
X127053293Y-77578701D01*
X127013138Y-77523435D01*
X126978705Y-77460558D01*
X126949876Y-77389832D01*
X126926536Y-77311019D01*
X126908566Y-77223880D01*
X126898202Y-77149960D01*
X126896238Y-77126110D01*
X126894731Y-77094084D01*
X126893679Y-77055858D01*
X126893081Y-77013407D01*
X126892937Y-76968706D01*
X126893245Y-76923729D01*
G36*
X126894847Y-78751166D02*
G01*
X126897723Y-78705134D01*
X126901200Y-78673688D01*
X126919526Y-78578352D01*
X126947220Y-78486144D01*
X126983825Y-78397602D01*
X127028884Y-78313262D01*
X127081941Y-78233663D01*
X127142540Y-78159341D01*
X127210223Y-78090833D01*
X127284535Y-78028677D01*
X127365019Y-77973409D01*
X127451218Y-77925568D01*
X127542676Y-77885690D01*
X127583084Y-77871266D01*
X127680833Y-77843747D01*
X127779347Y-77825959D01*
X127877988Y-77817685D01*
X127976120Y-77818711D01*
X128073105Y-77828818D01*
X128168305Y-77847791D01*
X128261084Y-77875414D01*
X128350805Y-77911469D01*
X128436831Y-77955741D01*
X128518523Y-78008013D01*
X128595246Y-78068068D01*
X128666361Y-78135690D01*
X128731232Y-78210664D01*
X128779397Y-78277591D01*
X128826102Y-78356766D01*
X128865302Y-78440809D01*
X128896627Y-78528337D01*
X128919709Y-78617965D01*
X128934177Y-78708310D01*
X128939665Y-78797989D01*
X128937245Y-78869540D01*
X128924476Y-78970378D01*
X128902405Y-79067147D01*
X128870972Y-79160001D01*
X128830113Y-79249098D01*
X128779767Y-79334591D01*
X128720535Y-79415814D01*
X128654949Y-79489466D01*
X128582586Y-79555976D01*
X128504184Y-79615038D01*
X128420479Y-79666348D01*
X128332210Y-79709601D01*
X128240114Y-79744492D01*
X128144929Y-79770716D01*
X128047392Y-79787968D01*
X127948241Y-79795943D01*
X127881193Y-79794866D01*
X127881193Y-79501697D01*
X127966041Y-79500601D01*
X128050241Y-79490251D01*
X128132834Y-79470745D01*
X128212865Y-79442181D01*
X128289376Y-79404657D01*
X128335278Y-79376503D01*
X128365446Y-79354320D01*
X128398871Y-79326226D01*
X128433140Y-79294539D01*
X128465839Y-79261581D01*
X128494554Y-79229671D01*
X128515008Y-79203751D01*
X128559828Y-79133186D01*
X128595789Y-79058583D01*
X128622483Y-78980947D01*
X128639503Y-78901284D01*
X128640518Y-78894256D01*
X128643029Y-78865600D01*
X128643920Y-78830134D01*
X128643318Y-78790938D01*
X128641348Y-78751090D01*
X128638136Y-78713670D01*
X128633810Y-78681756D01*
X128631281Y-78668880D01*
X128609272Y-78590447D01*
X128579903Y-78518172D01*
X128542494Y-78450835D01*
X128496365Y-78387213D01*
X128440838Y-78326085D01*
X128440557Y-78325804D01*
X128376647Y-78268726D01*
X128308169Y-78220460D01*
X128234617Y-78180733D01*
X128155486Y-78149274D01*
X128070267Y-78125811D01*
X128066649Y-78125019D01*
X128029505Y-78118919D01*
X127985386Y-78114805D01*
X127937290Y-78112705D01*
X127888211Y-78112648D01*
X127841145Y-78114661D01*
X127799088Y-78118773D01*
X127777240Y-78122311D01*
X127693785Y-78143378D01*
X127614592Y-78172880D01*
X127540242Y-78210285D01*
X127471316Y-78255059D01*
X127408392Y-78306669D01*
X127352053Y-78364582D01*
X127302877Y-78428266D01*
X127261447Y-78497186D01*
X127228342Y-78570810D01*
X127204143Y-78648605D01*
X127204127Y-78648670D01*
X127189596Y-78728710D01*
X127184986Y-78808807D01*
X127190089Y-78888231D01*
X127204695Y-78966254D01*
X127228596Y-79042145D01*
X127261583Y-79115177D01*
X127303449Y-79184620D01*
X127353983Y-79249745D01*
X127385919Y-79283985D01*
X127441167Y-79335079D01*
X127497430Y-79377782D01*
X127557194Y-79413753D01*
X127622948Y-79444652D01*
X127632317Y-79448485D01*
X127713374Y-79475737D01*
X127796652Y-79493442D01*
X127881193Y-79501697D01*
X127881193Y-79794866D01*
X127848213Y-79794336D01*
X127812068Y-79791347D01*
X127711830Y-79776453D01*
X127615079Y-79752560D01*
X127522293Y-79720114D01*
X127433947Y-79679562D01*
X127350518Y-79631351D01*
X127272481Y-79575927D01*
X127200314Y-79513738D01*
X127134493Y-79445230D01*
X127075493Y-79370849D01*
X127023791Y-79291043D01*
X126979864Y-79206259D01*
X126944187Y-79116942D01*
X126917237Y-79023539D01*
X126900887Y-78936699D01*
X126896738Y-78896869D01*
X126894351Y-78850416D01*
X126893722Y-78800721D01*
X126894847Y-78751166D01*
G37*
X126894847Y-78751166D02*
X126897723Y-78705134D01*
X126901200Y-78673688D01*
X126919526Y-78578352D01*
X126947220Y-78486144D01*
X126983825Y-78397602D01*
X127028884Y-78313262D01*
X127081941Y-78233663D01*
X127142540Y-78159341D01*
X127210223Y-78090833D01*
X127284535Y-78028677D01*
X127365019Y-77973409D01*
X127451218Y-77925568D01*
X127542676Y-77885690D01*
X127583084Y-77871266D01*
X127680833Y-77843747D01*
X127779347Y-77825959D01*
X127877988Y-77817685D01*
X127976120Y-77818711D01*
X128073105Y-77828818D01*
X128168305Y-77847791D01*
X128261084Y-77875414D01*
X128350805Y-77911469D01*
X128436831Y-77955741D01*
X128518523Y-78008013D01*
X128595246Y-78068068D01*
X128666361Y-78135690D01*
X128731232Y-78210664D01*
X128779397Y-78277591D01*
X128826102Y-78356766D01*
X128865302Y-78440809D01*
X128896627Y-78528337D01*
X128919709Y-78617965D01*
X128934177Y-78708310D01*
X128939665Y-78797989D01*
X128937245Y-78869540D01*
X128924476Y-78970378D01*
X128902405Y-79067147D01*
X128870972Y-79160001D01*
X128830113Y-79249098D01*
X128779767Y-79334591D01*
X128720535Y-79415814D01*
X128654949Y-79489466D01*
X128582586Y-79555976D01*
X128504184Y-79615038D01*
X128420479Y-79666348D01*
X128332210Y-79709601D01*
X128240114Y-79744492D01*
X128144929Y-79770716D01*
X128047392Y-79787968D01*
X127948241Y-79795943D01*
X127881193Y-79794866D01*
X127881193Y-79501697D01*
X127966041Y-79500601D01*
X128050241Y-79490251D01*
X128132834Y-79470745D01*
X128212865Y-79442181D01*
X128289376Y-79404657D01*
X128335278Y-79376503D01*
X128365446Y-79354320D01*
X128398871Y-79326226D01*
X128433140Y-79294539D01*
X128465839Y-79261581D01*
X128494554Y-79229671D01*
X128515008Y-79203751D01*
X128559828Y-79133186D01*
X128595789Y-79058583D01*
X128622483Y-78980947D01*
X128639503Y-78901284D01*
X128640518Y-78894256D01*
X128643029Y-78865600D01*
X128643920Y-78830134D01*
X128643318Y-78790938D01*
X128641348Y-78751090D01*
X128638136Y-78713670D01*
X128633810Y-78681756D01*
X128631281Y-78668880D01*
X128609272Y-78590447D01*
X128579903Y-78518172D01*
X128542494Y-78450835D01*
X128496365Y-78387213D01*
X128440838Y-78326085D01*
X128440557Y-78325804D01*
X128376647Y-78268726D01*
X128308169Y-78220460D01*
X128234617Y-78180733D01*
X128155486Y-78149274D01*
X128070267Y-78125811D01*
X128066649Y-78125019D01*
X128029505Y-78118919D01*
X127985386Y-78114805D01*
X127937290Y-78112705D01*
X127888211Y-78112648D01*
X127841145Y-78114661D01*
X127799088Y-78118773D01*
X127777240Y-78122311D01*
X127693785Y-78143378D01*
X127614592Y-78172880D01*
X127540242Y-78210285D01*
X127471316Y-78255059D01*
X127408392Y-78306669D01*
X127352053Y-78364582D01*
X127302877Y-78428266D01*
X127261447Y-78497186D01*
X127228342Y-78570810D01*
X127204143Y-78648605D01*
X127204127Y-78648670D01*
X127189596Y-78728710D01*
X127184986Y-78808807D01*
X127190089Y-78888231D01*
X127204695Y-78966254D01*
X127228596Y-79042145D01*
X127261583Y-79115177D01*
X127303449Y-79184620D01*
X127353983Y-79249745D01*
X127385919Y-79283985D01*
X127441167Y-79335079D01*
X127497430Y-79377782D01*
X127557194Y-79413753D01*
X127622948Y-79444652D01*
X127632317Y-79448485D01*
X127713374Y-79475737D01*
X127796652Y-79493442D01*
X127881193Y-79501697D01*
X127881193Y-79794866D01*
X127848213Y-79794336D01*
X127812068Y-79791347D01*
X127711830Y-79776453D01*
X127615079Y-79752560D01*
X127522293Y-79720114D01*
X127433947Y-79679562D01*
X127350518Y-79631351D01*
X127272481Y-79575927D01*
X127200314Y-79513738D01*
X127134493Y-79445230D01*
X127075493Y-79370849D01*
X127023791Y-79291043D01*
X126979864Y-79206259D01*
X126944187Y-79116942D01*
X126917237Y-79023539D01*
X126900887Y-78936699D01*
X126896738Y-78896869D01*
X126894351Y-78850416D01*
X126893722Y-78800721D01*
X126894847Y-78751166D01*
G36*
X127595212Y-80428363D02*
G01*
X127611016Y-80353387D01*
X127635830Y-80281006D01*
X127653484Y-80242405D01*
X127694058Y-80172475D01*
X127742318Y-80108424D01*
X127797472Y-80050831D01*
X127858731Y-80000277D01*
X127925303Y-79957342D01*
X127996397Y-79922604D01*
X128071222Y-79896643D01*
X128147654Y-79880240D01*
X128193545Y-79874555D01*
X128231537Y-79872888D01*
X128263187Y-79875543D01*
X128290052Y-79882825D01*
X128313690Y-79895037D01*
X128335659Y-79912486D01*
X128341526Y-79918154D01*
X128349226Y-79925683D01*
X128356004Y-79932350D01*
X128361918Y-79938818D01*
X128367026Y-79945750D01*
X128371387Y-79953810D01*
X128375060Y-79963660D01*
X128378104Y-79975964D01*
X128380577Y-79991386D01*
X128382538Y-80010588D01*
X128384047Y-80034234D01*
X128385160Y-80062988D01*
X128385938Y-80097511D01*
X128386439Y-80138469D01*
X128386722Y-80186523D01*
X128386845Y-80242338D01*
X128386867Y-80306577D01*
X128386847Y-80379902D01*
X128386840Y-80430023D01*
X128386858Y-80506889D01*
X128386919Y-80574203D01*
X128387035Y-80632573D01*
X128387214Y-80682607D01*
X128387468Y-80724912D01*
X128387806Y-80760096D01*
X128388240Y-80788767D01*
X128388780Y-80811534D01*
X128389435Y-80829003D01*
X128390217Y-80841782D01*
X128391135Y-80850481D01*
X128392201Y-80855705D01*
X128393424Y-80858064D01*
X128394152Y-80858360D01*
X128401528Y-80856158D01*
X128415636Y-80850214D01*
X128434218Y-80841522D01*
X128448762Y-80834294D01*
X128499237Y-80803008D01*
X128543953Y-80763828D01*
X128582029Y-80717773D01*
X128612586Y-80665860D01*
X128629527Y-80625170D01*
X128635264Y-80607684D01*
X128639095Y-80592278D01*
X128641378Y-80576107D01*
X128642472Y-80556327D01*
X128642735Y-80530091D01*
X128642706Y-80520540D01*
X128642257Y-80490462D01*
X128640968Y-80467292D01*
X128638430Y-80447787D01*
X128634232Y-80428703D01*
X128628624Y-80408968D01*
X128603347Y-80338100D01*
X128572883Y-80275345D01*
X128563220Y-80258920D01*
X128551579Y-80239928D01*
X128540468Y-80221732D01*
X128532270Y-80208237D01*
X128532199Y-80208120D01*
X128526734Y-80197146D01*
X128523449Y-80184538D01*
X128521854Y-80167404D01*
X128521460Y-80144620D01*
X128521806Y-80121512D01*
X128523275Y-80105333D01*
X128526506Y-80092863D01*
X128532142Y-80080882D01*
X128535235Y-80075467D01*
X128559281Y-80043226D01*
X128588233Y-80019850D01*
X128621946Y-80005426D01*
X128660273Y-80000040D01*
X128663700Y-80000002D01*
X128693408Y-80002259D01*
X128719878Y-80009702D01*
X128744172Y-80023174D01*
X128767353Y-80043519D01*
X128790484Y-80071580D01*
X128814627Y-80108200D01*
X128827331Y-80129844D01*
X128861890Y-80197473D01*
X128890634Y-80268111D01*
X128913154Y-80340090D01*
X128929043Y-80411740D01*
X128937894Y-80481392D01*
X128939299Y-80547377D01*
X128937029Y-80578960D01*
X128923549Y-80658994D01*
X128900963Y-80735248D01*
X128869793Y-80807192D01*
X128830561Y-80874296D01*
X128783789Y-80936031D01*
X128729996Y-80991865D01*
X128669705Y-81041268D01*
X128603437Y-81083711D01*
X128531713Y-81118662D01*
X128455056Y-81145593D01*
X128373985Y-81163972D01*
X128359563Y-81166243D01*
X128280908Y-81172874D01*
X128201323Y-81170075D01*
X128122170Y-81158190D01*
X128092200Y-81150198D01*
X128092200Y-80843755D01*
X128092200Y-80196995D01*
X128068070Y-80210962D01*
X128017597Y-80245543D01*
X127974357Y-80286213D01*
X127938771Y-80332046D01*
X127911256Y-80382118D01*
X127892232Y-80435503D01*
X127882118Y-80491276D01*
X127881334Y-80548512D01*
X127889838Y-80604360D01*
X127898209Y-80630393D01*
X127911420Y-80660749D01*
X127927726Y-80692017D01*
X127945382Y-80720783D01*
X127958617Y-80738857D01*
X127988744Y-80771313D01*
X128023819Y-80801472D01*
X128059948Y-80826056D01*
X128066848Y-80829957D01*
X128092200Y-80843755D01*
X128092200Y-81150198D01*
X128044811Y-81137560D01*
X127970607Y-81108530D01*
X127900919Y-81071441D01*
X127852401Y-81038516D01*
X127797317Y-80992040D01*
X127746038Y-80938757D01*
X127700456Y-80880916D01*
X127662465Y-80820763D01*
X127651492Y-80799940D01*
X127622182Y-80730089D01*
X127601903Y-80656798D01*
X127590651Y-80581276D01*
X127588423Y-80504729D01*
X127595212Y-80428363D01*
G37*
X127595212Y-80428363D02*
X127611016Y-80353387D01*
X127635830Y-80281006D01*
X127653484Y-80242405D01*
X127694058Y-80172475D01*
X127742318Y-80108424D01*
X127797472Y-80050831D01*
X127858731Y-80000277D01*
X127925303Y-79957342D01*
X127996397Y-79922604D01*
X128071222Y-79896643D01*
X128147654Y-79880240D01*
X128193545Y-79874555D01*
X128231537Y-79872888D01*
X128263187Y-79875543D01*
X128290052Y-79882825D01*
X128313690Y-79895037D01*
X128335659Y-79912486D01*
X128341526Y-79918154D01*
X128349226Y-79925683D01*
X128356004Y-79932350D01*
X128361918Y-79938818D01*
X128367026Y-79945750D01*
X128371387Y-79953810D01*
X128375060Y-79963660D01*
X128378104Y-79975964D01*
X128380577Y-79991386D01*
X128382538Y-80010588D01*
X128384047Y-80034234D01*
X128385160Y-80062988D01*
X128385938Y-80097511D01*
X128386439Y-80138469D01*
X128386722Y-80186523D01*
X128386845Y-80242338D01*
X128386867Y-80306577D01*
X128386847Y-80379902D01*
X128386840Y-80430023D01*
X128386858Y-80506889D01*
X128386919Y-80574203D01*
X128387035Y-80632573D01*
X128387214Y-80682607D01*
X128387468Y-80724912D01*
X128387806Y-80760096D01*
X128388240Y-80788767D01*
X128388780Y-80811534D01*
X128389435Y-80829003D01*
X128390217Y-80841782D01*
X128391135Y-80850481D01*
X128392201Y-80855705D01*
X128393424Y-80858064D01*
X128394152Y-80858360D01*
X128401528Y-80856158D01*
X128415636Y-80850214D01*
X128434218Y-80841522D01*
X128448762Y-80834294D01*
X128499237Y-80803008D01*
X128543953Y-80763828D01*
X128582029Y-80717773D01*
X128612586Y-80665860D01*
X128629527Y-80625170D01*
X128635264Y-80607684D01*
X128639095Y-80592278D01*
X128641378Y-80576107D01*
X128642472Y-80556327D01*
X128642735Y-80530091D01*
X128642706Y-80520540D01*
X128642257Y-80490462D01*
X128640968Y-80467292D01*
X128638430Y-80447787D01*
X128634232Y-80428703D01*
X128628624Y-80408968D01*
X128603347Y-80338100D01*
X128572883Y-80275345D01*
X128563220Y-80258920D01*
X128551579Y-80239928D01*
X128540468Y-80221732D01*
X128532270Y-80208237D01*
X128532199Y-80208120D01*
X128526734Y-80197146D01*
X128523449Y-80184538D01*
X128521854Y-80167404D01*
X128521460Y-80144620D01*
X128521806Y-80121512D01*
X128523275Y-80105333D01*
X128526506Y-80092863D01*
X128532142Y-80080882D01*
X128535235Y-80075467D01*
X128559281Y-80043226D01*
X128588233Y-80019850D01*
X128621946Y-80005426D01*
X128660273Y-80000040D01*
X128663700Y-80000002D01*
X128693408Y-80002259D01*
X128719878Y-80009702D01*
X128744172Y-80023174D01*
X128767353Y-80043519D01*
X128790484Y-80071580D01*
X128814627Y-80108200D01*
X128827331Y-80129844D01*
X128861890Y-80197473D01*
X128890634Y-80268111D01*
X128913154Y-80340090D01*
X128929043Y-80411740D01*
X128937894Y-80481392D01*
X128939299Y-80547377D01*
X128937029Y-80578960D01*
X128923549Y-80658994D01*
X128900963Y-80735248D01*
X128869793Y-80807192D01*
X128830561Y-80874296D01*
X128783789Y-80936031D01*
X128729996Y-80991865D01*
X128669705Y-81041268D01*
X128603437Y-81083711D01*
X128531713Y-81118662D01*
X128455056Y-81145593D01*
X128373985Y-81163972D01*
X128359563Y-81166243D01*
X128280908Y-81172874D01*
X128201323Y-81170075D01*
X128122170Y-81158190D01*
X128092200Y-81150198D01*
X128092200Y-80843755D01*
X128092200Y-80196995D01*
X128068070Y-80210962D01*
X128017597Y-80245543D01*
X127974357Y-80286213D01*
X127938771Y-80332046D01*
X127911256Y-80382118D01*
X127892232Y-80435503D01*
X127882118Y-80491276D01*
X127881334Y-80548512D01*
X127889838Y-80604360D01*
X127898209Y-80630393D01*
X127911420Y-80660749D01*
X127927726Y-80692017D01*
X127945382Y-80720783D01*
X127958617Y-80738857D01*
X127988744Y-80771313D01*
X128023819Y-80801472D01*
X128059948Y-80826056D01*
X128066848Y-80829957D01*
X128092200Y-80843755D01*
X128092200Y-81150198D01*
X128044811Y-81137560D01*
X127970607Y-81108530D01*
X127900919Y-81071441D01*
X127852401Y-81038516D01*
X127797317Y-80992040D01*
X127746038Y-80938757D01*
X127700456Y-80880916D01*
X127662465Y-80820763D01*
X127651492Y-80799940D01*
X127622182Y-80730089D01*
X127601903Y-80656798D01*
X127590651Y-80581276D01*
X127588423Y-80504729D01*
X127595212Y-80428363D01*
G36*
X126883771Y-85243508D02*
G01*
X126902063Y-85151550D01*
X126929579Y-85061487D01*
X126966209Y-84974019D01*
X127011840Y-84889843D01*
X127066360Y-84809661D01*
X127081398Y-84790280D01*
X127113843Y-84751787D01*
X127144325Y-84720095D01*
X127172113Y-84695880D01*
X127196472Y-84679818D01*
X127205740Y-84675575D01*
X127214388Y-84672592D01*
X127223819Y-84670281D01*
X127235407Y-84668556D01*
X127250523Y-84667336D01*
X127270541Y-84666536D01*
X127296832Y-84666073D01*
X127330770Y-84665863D01*
X127365760Y-84665820D01*
X127500380Y-84665820D01*
X127529242Y-84679994D01*
X127562295Y-84701323D01*
X127587198Y-84728579D01*
X127603600Y-84761196D01*
X127611149Y-84798604D01*
X127611631Y-84813140D01*
X127607819Y-84848704D01*
X127596346Y-84879154D01*
X127576211Y-84906676D01*
X127562800Y-84919826D01*
X127547216Y-84932628D01*
X127531595Y-84942271D01*
X127514172Y-84949176D01*
X127493182Y-84953767D01*
X127466859Y-84956468D01*
X127433440Y-84957703D01*
X127403981Y-84957920D01*
X127322127Y-84957920D01*
X127304086Y-84982050D01*
X127270237Y-85030404D01*
X127242960Y-85076846D01*
X127220326Y-85125030D01*
X127200577Y-85178099D01*
X127184120Y-85234531D01*
X127173826Y-85288561D01*
X127169157Y-85344065D01*
X127169473Y-85402420D01*
X127177184Y-85483258D01*
X127193722Y-85559534D01*
X127219301Y-85631724D01*
X127254132Y-85700301D01*
X127298429Y-85765742D01*
X127352407Y-85828520D01*
X127367968Y-85844380D01*
X127431425Y-85900930D01*
X127499768Y-85949156D01*
X127573619Y-85989393D01*
X127653597Y-86021978D01*
X127740321Y-86047247D01*
X127744609Y-86048269D01*
X127765052Y-86052960D01*
X127782592Y-86056496D01*
X127799212Y-86059038D01*
X127816894Y-86060749D01*
X127837622Y-86061790D01*
X127863378Y-86062322D01*
X127896145Y-86062508D01*
X127919480Y-86062520D01*
X127958764Y-86062385D01*
X127989806Y-86061927D01*
X128014524Y-86061014D01*
X128034833Y-86059518D01*
X128052650Y-86057306D01*
X128069892Y-86054250D01*
X128083353Y-86051379D01*
X128169255Y-86028118D01*
X128248047Y-85998184D01*
X128320709Y-85961054D01*
X128388223Y-85916198D01*
X128451569Y-85863092D01*
X128473350Y-85842046D01*
X128530294Y-85778802D01*
X128577499Y-85712749D01*
X128615036Y-85643722D01*
X128642976Y-85571554D01*
X128661391Y-85496079D01*
X128670352Y-85417130D01*
X128671320Y-85380046D01*
X128666600Y-85297944D01*
X128652429Y-85219485D01*
X128628784Y-85144626D01*
X128595646Y-85073324D01*
X128552993Y-85005538D01*
X128500805Y-84941225D01*
X128439061Y-84880341D01*
X128418426Y-84862533D01*
X128388470Y-84836531D01*
X128366018Y-84814470D01*
X128350067Y-84794734D01*
X128339615Y-84775708D01*
X128333658Y-84755775D01*
X128331195Y-84733320D01*
X128330960Y-84721564D01*
X128331680Y-84699476D01*
X128334641Y-84682498D01*
X128341038Y-84665635D01*
X128347470Y-84652630D01*
X128368667Y-84622007D01*
X128395894Y-84598614D01*
X128427575Y-84582942D01*
X128462133Y-84575483D01*
X128497996Y-84576729D01*
X128533587Y-84587170D01*
X128542961Y-84591637D01*
X128565754Y-84605812D01*
X128593264Y-84626697D01*
X128624070Y-84652908D01*
X128656746Y-84683061D01*
X128689871Y-84715772D01*
X128722020Y-84749657D01*
X128751770Y-84783332D01*
X128777697Y-84815415D01*
X128789237Y-84831066D01*
X128841470Y-84912581D01*
X128884499Y-84997029D01*
X128918786Y-85085512D01*
X128944797Y-85179134D01*
X128953888Y-85223040D01*
X128957150Y-85246566D01*
X128959848Y-85277753D01*
X128961918Y-85314115D01*
X128963297Y-85353165D01*
X128963920Y-85392417D01*
X128963724Y-85429385D01*
X128962645Y-85461582D01*
X128960652Y-85486240D01*
X128944137Y-85580397D01*
X128917986Y-85672330D01*
X128882609Y-85761344D01*
X128838413Y-85846747D01*
X128785809Y-85927844D01*
X128725203Y-86003940D01*
X128657006Y-86074343D01*
X128581625Y-86138358D01*
X128572549Y-86145253D01*
X128487342Y-86202902D01*
X128396747Y-86252013D01*
X128301094Y-86292449D01*
X128200712Y-86324069D01*
X128095930Y-86346736D01*
X128092200Y-86347364D01*
X128048393Y-86353008D01*
X127997732Y-86356799D01*
X127943362Y-86358681D01*
X127888427Y-86358596D01*
X127836074Y-86356487D01*
X127793244Y-86352753D01*
X127691808Y-86336183D01*
X127593710Y-86310695D01*
X127499496Y-86276699D01*
X127409713Y-86234607D01*
X127324908Y-86184829D01*
X127245626Y-86127775D01*
X127172413Y-86063856D01*
X127105817Y-85993484D01*
X127046383Y-85917068D01*
X126994657Y-85835019D01*
X126951186Y-85747748D01*
X126934607Y-85707259D01*
X126905094Y-85616310D01*
X126885366Y-85523762D01*
X126875311Y-85430313D01*
X126874817Y-85336662D01*
X126883771Y-85243508D01*
G37*
X126883771Y-85243508D02*
X126902063Y-85151550D01*
X126929579Y-85061487D01*
X126966209Y-84974019D01*
X127011840Y-84889843D01*
X127066360Y-84809661D01*
X127081398Y-84790280D01*
X127113843Y-84751787D01*
X127144325Y-84720095D01*
X127172113Y-84695880D01*
X127196472Y-84679818D01*
X127205740Y-84675575D01*
X127214388Y-84672592D01*
X127223819Y-84670281D01*
X127235407Y-84668556D01*
X127250523Y-84667336D01*
X127270541Y-84666536D01*
X127296832Y-84666073D01*
X127330770Y-84665863D01*
X127365760Y-84665820D01*
X127500380Y-84665820D01*
X127529242Y-84679994D01*
X127562295Y-84701323D01*
X127587198Y-84728579D01*
X127603600Y-84761196D01*
X127611149Y-84798604D01*
X127611631Y-84813140D01*
X127607819Y-84848704D01*
X127596346Y-84879154D01*
X127576211Y-84906676D01*
X127562800Y-84919826D01*
X127547216Y-84932628D01*
X127531595Y-84942271D01*
X127514172Y-84949176D01*
X127493182Y-84953767D01*
X127466859Y-84956468D01*
X127433440Y-84957703D01*
X127403981Y-84957920D01*
X127322127Y-84957920D01*
X127304086Y-84982050D01*
X127270237Y-85030404D01*
X127242960Y-85076846D01*
X127220326Y-85125030D01*
X127200577Y-85178099D01*
X127184120Y-85234531D01*
X127173826Y-85288561D01*
X127169157Y-85344065D01*
X127169473Y-85402420D01*
X127177184Y-85483258D01*
X127193722Y-85559534D01*
X127219301Y-85631724D01*
X127254132Y-85700301D01*
X127298429Y-85765742D01*
X127352407Y-85828520D01*
X127367968Y-85844380D01*
X127431425Y-85900930D01*
X127499768Y-85949156D01*
X127573619Y-85989393D01*
X127653597Y-86021978D01*
X127740321Y-86047247D01*
X127744609Y-86048269D01*
X127765052Y-86052960D01*
X127782592Y-86056496D01*
X127799212Y-86059038D01*
X127816894Y-86060749D01*
X127837622Y-86061790D01*
X127863378Y-86062322D01*
X127896145Y-86062508D01*
X127919480Y-86062520D01*
X127958764Y-86062385D01*
X127989806Y-86061927D01*
X128014524Y-86061014D01*
X128034833Y-86059518D01*
X128052650Y-86057306D01*
X128069892Y-86054250D01*
X128083353Y-86051379D01*
X128169255Y-86028118D01*
X128248047Y-85998184D01*
X128320709Y-85961054D01*
X128388223Y-85916198D01*
X128451569Y-85863092D01*
X128473350Y-85842046D01*
X128530294Y-85778802D01*
X128577499Y-85712749D01*
X128615036Y-85643722D01*
X128642976Y-85571554D01*
X128661391Y-85496079D01*
X128670352Y-85417130D01*
X128671320Y-85380046D01*
X128666600Y-85297944D01*
X128652429Y-85219485D01*
X128628784Y-85144626D01*
X128595646Y-85073324D01*
X128552993Y-85005538D01*
X128500805Y-84941225D01*
X128439061Y-84880341D01*
X128418426Y-84862533D01*
X128388470Y-84836531D01*
X128366018Y-84814470D01*
X128350067Y-84794734D01*
X128339615Y-84775708D01*
X128333658Y-84755775D01*
X128331195Y-84733320D01*
X128330960Y-84721564D01*
X128331680Y-84699476D01*
X128334641Y-84682498D01*
X128341038Y-84665635D01*
X128347470Y-84652630D01*
X128368667Y-84622007D01*
X128395894Y-84598614D01*
X128427575Y-84582942D01*
X128462133Y-84575483D01*
X128497996Y-84576729D01*
X128533587Y-84587170D01*
X128542961Y-84591637D01*
X128565754Y-84605812D01*
X128593264Y-84626697D01*
X128624070Y-84652908D01*
X128656746Y-84683061D01*
X128689871Y-84715772D01*
X128722020Y-84749657D01*
X128751770Y-84783332D01*
X128777697Y-84815415D01*
X128789237Y-84831066D01*
X128841470Y-84912581D01*
X128884499Y-84997029D01*
X128918786Y-85085512D01*
X128944797Y-85179134D01*
X128953888Y-85223040D01*
X128957150Y-85246566D01*
X128959848Y-85277753D01*
X128961918Y-85314115D01*
X128963297Y-85353165D01*
X128963920Y-85392417D01*
X128963724Y-85429385D01*
X128962645Y-85461582D01*
X128960652Y-85486240D01*
X128944137Y-85580397D01*
X128917986Y-85672330D01*
X128882609Y-85761344D01*
X128838413Y-85846747D01*
X128785809Y-85927844D01*
X128725203Y-86003940D01*
X128657006Y-86074343D01*
X128581625Y-86138358D01*
X128572549Y-86145253D01*
X128487342Y-86202902D01*
X128396747Y-86252013D01*
X128301094Y-86292449D01*
X128200712Y-86324069D01*
X128095930Y-86346736D01*
X128092200Y-86347364D01*
X128048393Y-86353008D01*
X127997732Y-86356799D01*
X127943362Y-86358681D01*
X127888427Y-86358596D01*
X127836074Y-86356487D01*
X127793244Y-86352753D01*
X127691808Y-86336183D01*
X127593710Y-86310695D01*
X127499496Y-86276699D01*
X127409713Y-86234607D01*
X127324908Y-86184829D01*
X127245626Y-86127775D01*
X127172413Y-86063856D01*
X127105817Y-85993484D01*
X127046383Y-85917068D01*
X126994657Y-85835019D01*
X126951186Y-85747748D01*
X126934607Y-85707259D01*
X126905094Y-85616310D01*
X126885366Y-85523762D01*
X126875311Y-85430313D01*
X126874817Y-85336662D01*
X126883771Y-85243508D01*
D12*
X179635000Y-108780000D02*
X179635000Y-112800000D01*
X179635000Y-112800000D02*
X187355000Y-112800000D01*
X187355000Y-112800000D02*
X187355000Y-108780000D01*
X187355000Y-108780000D02*
X179635000Y-108780000D01*
X179635000Y-110490000D02*
X180135000Y-110490000D01*
X180135000Y-110490000D02*
X180135000Y-109280000D01*
X180135000Y-109280000D02*
X186855000Y-109280000D01*
X186855000Y-109280000D02*
X186855000Y-110490000D01*
X186855000Y-110490000D02*
X187355000Y-110490000D01*
X179635000Y-111300000D02*
X180635000Y-111300000D01*
X180635000Y-111300000D02*
X180635000Y-112800000D01*
X187355000Y-111300000D02*
X186355000Y-111300000D01*
X186355000Y-111300000D02*
X186355000Y-112800000D01*
X179335000Y-110600000D02*
X179335000Y-113100000D01*
X179335000Y-113100000D02*
X181835000Y-113100000D01*
X187325000Y-107315000D02*
X161925000Y-107315000D01*
X187325000Y-76835000D02*
X187325000Y-107315000D01*
X161925000Y-76835000D02*
X187325000Y-76835000D01*
X161925000Y-107315000D02*
X161925000Y-76835000D01*
X187325000Y-81915000D02*
X184785000Y-81915000D01*
X184785000Y-81915000D02*
X184785000Y-86995000D01*
X184785000Y-86995000D02*
X187325000Y-86995000D01*
X187325000Y-86995000D02*
X187325000Y-89535000D01*
X187325000Y-89535000D02*
X184785000Y-89535000D01*
X184785000Y-89535000D02*
X184785000Y-99695000D01*
X184785000Y-99695000D02*
X187325000Y-99695000D01*
X167005000Y-76835000D02*
X167005000Y-79375000D01*
X167005000Y-79375000D02*
X164465000Y-79375000D01*
X164465000Y-76835000D02*
X164465000Y-107315000D01*
X166310000Y-120075000D02*
X166310000Y-118745000D01*
X167640000Y-120075000D02*
X166310000Y-120075000D01*
X168910000Y-120075000D02*
X168910000Y-117415000D01*
X168910000Y-117415000D02*
X174050000Y-117415000D01*
X168910000Y-120075000D02*
X174050000Y-120075000D01*
X174050000Y-120075000D02*
X174050000Y-117415000D01*
X155515000Y-120075000D02*
X155515000Y-118745000D01*
X156845000Y-120075000D02*
X155515000Y-120075000D01*
X158115000Y-120075000D02*
X158115000Y-117415000D01*
X158115000Y-117415000D02*
X163255000Y-117415000D01*
X158115000Y-120075000D02*
X163255000Y-120075000D01*
X163255000Y-120075000D02*
X163255000Y-117415000D01*
X157540000Y-82610000D02*
X156210000Y-82610000D01*
X157540000Y-81280000D02*
X157540000Y-82610000D01*
X157540000Y-80010000D02*
X154880000Y-80010000D01*
X154880000Y-80010000D02*
X154880000Y-69790000D01*
X157540000Y-80010000D02*
X157540000Y-69790000D01*
X157540000Y-69790000D02*
X154880000Y-69790000D01*
X157540000Y-57210000D02*
X156210000Y-57210000D01*
X157540000Y-55880000D02*
X157540000Y-57210000D01*
X157540000Y-54610000D02*
X154880000Y-54610000D01*
X154880000Y-54610000D02*
X154880000Y-46930000D01*
X157540000Y-54610000D02*
X157540000Y-46930000D01*
X157540000Y-46930000D02*
X154880000Y-46930000D01*
X157540000Y-66100000D02*
X156210000Y-66100000D01*
X157540000Y-64770000D02*
X157540000Y-66100000D01*
X157540000Y-63500000D02*
X154880000Y-63500000D01*
X154880000Y-63500000D02*
X154880000Y-60900000D01*
X157540000Y-63500000D02*
X157540000Y-60900000D01*
X157540000Y-60900000D02*
X154880000Y-60900000D01*
X194646250Y-65171250D02*
X193858750Y-65171250D01*
X194252500Y-64777500D02*
X194252500Y-65565000D01*
X190059437Y-65805000D02*
X188995000Y-66869437D01*
X194750563Y-65805000D02*
X195815000Y-66869437D01*
X194750563Y-65805000D02*
X193465000Y-65805000D01*
X190059437Y-65805000D02*
X191345000Y-65805000D01*
X188995000Y-66869437D02*
X188995000Y-72625000D01*
X195815000Y-66869437D02*
X195815000Y-72625000D01*
X195815000Y-72625000D02*
X193465000Y-72625000D01*
X188995000Y-72625000D02*
X191345000Y-72625000D01*
X190163750Y-63733750D02*
X190951250Y-63733750D01*
X190557500Y-64127500D02*
X190557500Y-63340000D01*
X194750563Y-63100000D02*
X195815000Y-62035563D01*
X190059437Y-63100000D02*
X188995000Y-62035563D01*
X190059437Y-63100000D02*
X191345000Y-63100000D01*
X194750563Y-63100000D02*
X193465000Y-63100000D01*
X195815000Y-62035563D02*
X195815000Y-56280000D01*
X188995000Y-62035563D02*
X188995000Y-56280000D01*
X188995000Y-56280000D02*
X191345000Y-56280000D01*
X195815000Y-56280000D02*
X193465000Y-56280000D01*
X194646250Y-95811250D02*
X193858750Y-95811250D01*
X194252500Y-95417500D02*
X194252500Y-96205000D01*
X190059437Y-96445000D02*
X188995000Y-97509437D01*
X194750563Y-96445000D02*
X195815000Y-97509437D01*
X194750563Y-96445000D02*
X193465000Y-96445000D01*
X190059437Y-96445000D02*
X191345000Y-96445000D01*
X188995000Y-97509437D02*
X188995000Y-103265000D01*
X195815000Y-97509437D02*
X195815000Y-103265000D01*
X195815000Y-103265000D02*
X193465000Y-103265000D01*
X188995000Y-103265000D02*
X191345000Y-103265000D01*
X190163750Y-94213750D02*
X190951250Y-94213750D01*
X190557500Y-94607500D02*
X190557500Y-93820000D01*
X194750563Y-93580000D02*
X195815000Y-92515563D01*
X190059437Y-93580000D02*
X188995000Y-92515563D01*
X190059437Y-93580000D02*
X191345000Y-93580000D01*
X194750563Y-93580000D02*
X193465000Y-93580000D01*
X195815000Y-92515563D02*
X195815000Y-86760000D01*
X188995000Y-92515563D02*
X188995000Y-86760000D01*
X188995000Y-86760000D02*
X191345000Y-86760000D01*
X195815000Y-86760000D02*
X193465000Y-86760000D01*
D10*
X153670000Y-107315000D02*
X135890000Y-107315000D01*
X135890000Y-46355000D02*
X153670000Y-46355000D01*
X142240000Y-65405000D02*
X142240000Y-62865000D01*
X147320000Y-65405000D02*
X142240000Y-65405000D01*
X147320000Y-62865000D02*
X147320000Y-65405000D01*
X142240000Y-62865000D02*
X147320000Y-62865000D01*
X148590000Y-102235000D02*
X148590000Y-107315000D01*
X140970000Y-102235000D02*
X140970000Y-107315000D01*
X148590000Y-102235000D02*
X140970000Y-102235000D01*
X140970000Y-108585000D02*
X140970000Y-107315000D01*
X148590000Y-108585000D02*
X140970000Y-108585000D01*
X148590000Y-107315000D02*
X148590000Y-108585000D01*
X153670000Y-107315000D02*
X153670000Y-46355000D01*
X135890000Y-46355000D02*
X135890000Y-107315000D01*
X151130000Y-59055000D02*
X151130000Y-46355000D01*
X138430000Y-59055000D02*
X151130000Y-59055000D01*
X138430000Y-46355000D02*
X138430000Y-59055000D01*
X139700000Y-47625000D02*
X138430000Y-46355000D01*
X149860000Y-47625000D02*
X139700000Y-47625000D01*
X151130000Y-46355000D02*
X149860000Y-47625000D01*
X139700000Y-47625000D02*
X139700000Y-46355000D01*
X140970000Y-47625000D02*
X140970000Y-46355000D01*
X142240000Y-47625000D02*
X142240000Y-46355000D01*
X143510000Y-47625000D02*
X143510000Y-46355000D01*
X144780000Y-47625000D02*
X144780000Y-46355000D01*
X146050000Y-47625000D02*
X146050000Y-46355000D01*
X147320000Y-47625000D02*
X147320000Y-46355000D01*
X148590000Y-47625000D02*
X148590000Y-46355000D01*
X149860000Y-47625000D02*
X149860000Y-46355000D01*
X138430000Y-81915000D02*
X138430000Y-69215000D01*
X151130000Y-81915000D02*
X151130000Y-69215000D01*
X138430000Y-81915000D02*
X151130000Y-81915000D01*
X151130000Y-69215000D02*
X138430000Y-69215000D01*
X147320000Y-83185000D02*
X149860000Y-83185000D01*
X147320000Y-86995000D02*
X147320000Y-83185000D01*
X149860000Y-86995000D02*
X147320000Y-86995000D01*
X149860000Y-83185000D02*
X149860000Y-86995000D01*
X140970000Y-88265000D02*
X140970000Y-90805000D01*
X143510000Y-88265000D02*
X140970000Y-88265000D01*
X143510000Y-90805000D02*
X143510000Y-88265000D01*
X140970000Y-90805000D02*
X143510000Y-90805000D01*
D12*
X134195000Y-95689000D02*
X134195000Y-107410000D01*
X125575000Y-95689000D02*
X125575000Y-107410000D01*
X134195000Y-95689000D02*
X125575000Y-95689000D01*
X134195000Y-107410000D02*
X125575000Y-107410000D01*
X126575000Y-95449000D02*
X125335000Y-95449000D01*
X125335000Y-95449000D02*
X125335000Y-96689000D01*
X171466252Y-115645000D02*
X170943748Y-115645000D01*
X171466252Y-114225000D02*
X170943748Y-114225000D01*
X160671252Y-115645000D02*
X160148748Y-115645000D01*
X160671252Y-114225000D02*
X160148748Y-114225000D01*
X187325000Y-120650000D02*
X177165000Y-120650000D01*
X187325000Y-121920000D02*
X187325000Y-114300000D01*
X187325000Y-114300000D02*
X177165000Y-114300000D01*
X177165000Y-114300000D02*
X177165000Y-121920000D01*
X177165000Y-121920000D02*
X187325000Y-121920000D01*
X164465000Y-46355000D02*
X164465000Y-76835000D01*
X167005000Y-48895000D02*
X164465000Y-48895000D01*
X167005000Y-46355000D02*
X167005000Y-48895000D01*
X184785000Y-69215000D02*
X187325000Y-69215000D01*
X184785000Y-59055000D02*
X184785000Y-69215000D01*
X187325000Y-59055000D02*
X184785000Y-59055000D01*
X187325000Y-56515000D02*
X187325000Y-59055000D01*
X184785000Y-56515000D02*
X187325000Y-56515000D01*
X184785000Y-51435000D02*
X184785000Y-56515000D01*
X187325000Y-51435000D02*
X184785000Y-51435000D01*
X161925000Y-76835000D02*
X161925000Y-46355000D01*
X161925000Y-46355000D02*
X187325000Y-46355000D01*
X187325000Y-46355000D02*
X187325000Y-76835000D01*
X187325000Y-76835000D02*
X161925000Y-76835000D01*
D10*
X183161666Y-107142380D02*
X183161666Y-107856666D01*
X183114047Y-107999523D01*
X183018809Y-108094761D01*
X182875952Y-108142380D01*
X182780714Y-108142380D01*
X183542619Y-107142380D02*
X184209285Y-107142380D01*
X183780714Y-108142380D01*
X173863095Y-92027380D02*
X173863095Y-92836904D01*
X173910714Y-92932142D01*
X173958333Y-92979761D01*
X174053571Y-93027380D01*
X174244047Y-93027380D01*
X174339285Y-92979761D01*
X174386904Y-92932142D01*
X174434523Y-92836904D01*
X174434523Y-92027380D01*
X174863095Y-92122619D02*
X174910714Y-92075000D01*
X175005952Y-92027380D01*
X175244047Y-92027380D01*
X175339285Y-92075000D01*
X175386904Y-92122619D01*
X175434523Y-92217857D01*
X175434523Y-92313095D01*
X175386904Y-92455952D01*
X174815476Y-93027380D01*
X175434523Y-93027380D01*
X164762380Y-119078333D02*
X165476666Y-119078333D01*
X165619523Y-119125952D01*
X165714761Y-119221190D01*
X165762380Y-119364047D01*
X165762380Y-119459285D01*
X164762380Y-118697380D02*
X164762380Y-118078333D01*
X165143333Y-118411666D01*
X165143333Y-118268809D01*
X165190952Y-118173571D01*
X165238571Y-118125952D01*
X165333809Y-118078333D01*
X165571904Y-118078333D01*
X165667142Y-118125952D01*
X165714761Y-118173571D01*
X165762380Y-118268809D01*
X165762380Y-118554523D01*
X165714761Y-118649761D01*
X165667142Y-118697380D01*
X153967380Y-119078333D02*
X154681666Y-119078333D01*
X154824523Y-119125952D01*
X154919761Y-119221190D01*
X154967380Y-119364047D01*
X154967380Y-119459285D01*
X154062619Y-118649761D02*
X154015000Y-118602142D01*
X153967380Y-118506904D01*
X153967380Y-118268809D01*
X154015000Y-118173571D01*
X154062619Y-118125952D01*
X154157857Y-118078333D01*
X154253095Y-118078333D01*
X154395952Y-118125952D01*
X154967380Y-118697380D01*
X154967380Y-118078333D01*
X155876666Y-83062380D02*
X155876666Y-83776666D01*
X155829047Y-83919523D01*
X155733809Y-84014761D01*
X155590952Y-84062380D01*
X155495714Y-84062380D01*
X156781428Y-83062380D02*
X156590952Y-83062380D01*
X156495714Y-83110000D01*
X156448095Y-83157619D01*
X156352857Y-83300476D01*
X156305238Y-83490952D01*
X156305238Y-83871904D01*
X156352857Y-83967142D01*
X156400476Y-84014761D01*
X156495714Y-84062380D01*
X156686190Y-84062380D01*
X156781428Y-84014761D01*
X156829047Y-83967142D01*
X156876666Y-83871904D01*
X156876666Y-83633809D01*
X156829047Y-83538571D01*
X156781428Y-83490952D01*
X156686190Y-83443333D01*
X156495714Y-83443333D01*
X156400476Y-83490952D01*
X156352857Y-83538571D01*
X156305238Y-83633809D01*
X155876666Y-57662380D02*
X155876666Y-58376666D01*
X155829047Y-58519523D01*
X155733809Y-58614761D01*
X155590952Y-58662380D01*
X155495714Y-58662380D01*
X156829047Y-57662380D02*
X156352857Y-57662380D01*
X156305238Y-58138571D01*
X156352857Y-58090952D01*
X156448095Y-58043333D01*
X156686190Y-58043333D01*
X156781428Y-58090952D01*
X156829047Y-58138571D01*
X156876666Y-58233809D01*
X156876666Y-58471904D01*
X156829047Y-58567142D01*
X156781428Y-58614761D01*
X156686190Y-58662380D01*
X156448095Y-58662380D01*
X156352857Y-58614761D01*
X156305238Y-58567142D01*
X155876666Y-66552380D02*
X155876666Y-67266666D01*
X155829047Y-67409523D01*
X155733809Y-67504761D01*
X155590952Y-67552380D01*
X155495714Y-67552380D01*
X156781428Y-66885714D02*
X156781428Y-67552380D01*
X156543333Y-66504761D02*
X156305238Y-67219047D01*
X156924285Y-67219047D01*
X197207142Y-69381666D02*
X197254761Y-69429285D01*
X197302380Y-69572142D01*
X197302380Y-69667380D01*
X197254761Y-69810238D01*
X197159523Y-69905476D01*
X197064285Y-69953095D01*
X196873809Y-70000714D01*
X196730952Y-70000714D01*
X196540476Y-69953095D01*
X196445238Y-69905476D01*
X196350000Y-69810238D01*
X196302380Y-69667380D01*
X196302380Y-69572142D01*
X196350000Y-69429285D01*
X196397619Y-69381666D01*
X196302380Y-69048333D02*
X196302380Y-68381666D01*
X197302380Y-68810238D01*
X197207142Y-59856666D02*
X197254761Y-59904285D01*
X197302380Y-60047142D01*
X197302380Y-60142380D01*
X197254761Y-60285238D01*
X197159523Y-60380476D01*
X197064285Y-60428095D01*
X196873809Y-60475714D01*
X196730952Y-60475714D01*
X196540476Y-60428095D01*
X196445238Y-60380476D01*
X196350000Y-60285238D01*
X196302380Y-60142380D01*
X196302380Y-60047142D01*
X196350000Y-59904285D01*
X196397619Y-59856666D01*
X196302380Y-58999523D02*
X196302380Y-59190000D01*
X196350000Y-59285238D01*
X196397619Y-59332857D01*
X196540476Y-59428095D01*
X196730952Y-59475714D01*
X197111904Y-59475714D01*
X197207142Y-59428095D01*
X197254761Y-59380476D01*
X197302380Y-59285238D01*
X197302380Y-59094761D01*
X197254761Y-58999523D01*
X197207142Y-58951904D01*
X197111904Y-58904285D01*
X196873809Y-58904285D01*
X196778571Y-58951904D01*
X196730952Y-58999523D01*
X196683333Y-59094761D01*
X196683333Y-59285238D01*
X196730952Y-59380476D01*
X196778571Y-59428095D01*
X196873809Y-59475714D01*
X197112142Y-100021666D02*
X197159761Y-100069285D01*
X197207380Y-100212142D01*
X197207380Y-100307380D01*
X197159761Y-100450238D01*
X197064523Y-100545476D01*
X196969285Y-100593095D01*
X196778809Y-100640714D01*
X196635952Y-100640714D01*
X196445476Y-100593095D01*
X196350238Y-100545476D01*
X196255000Y-100450238D01*
X196207380Y-100307380D01*
X196207380Y-100212142D01*
X196255000Y-100069285D01*
X196302619Y-100021666D01*
X196207380Y-99116904D02*
X196207380Y-99593095D01*
X196683571Y-99640714D01*
X196635952Y-99593095D01*
X196588333Y-99497857D01*
X196588333Y-99259761D01*
X196635952Y-99164523D01*
X196683571Y-99116904D01*
X196778809Y-99069285D01*
X197016904Y-99069285D01*
X197112142Y-99116904D01*
X197159761Y-99164523D01*
X197207380Y-99259761D01*
X197207380Y-99497857D01*
X197159761Y-99593095D01*
X197112142Y-99640714D01*
X197207142Y-90336666D02*
X197254761Y-90384285D01*
X197302380Y-90527142D01*
X197302380Y-90622380D01*
X197254761Y-90765238D01*
X197159523Y-90860476D01*
X197064285Y-90908095D01*
X196873809Y-90955714D01*
X196730952Y-90955714D01*
X196540476Y-90908095D01*
X196445238Y-90860476D01*
X196350000Y-90765238D01*
X196302380Y-90622380D01*
X196302380Y-90527142D01*
X196350000Y-90384285D01*
X196397619Y-90336666D01*
X196635714Y-89479523D02*
X197302380Y-89479523D01*
X196254761Y-89717619D02*
X196969047Y-89955714D01*
X196969047Y-89336666D01*
X191643095Y-48037380D02*
X191643095Y-47037380D01*
X191643095Y-47513571D02*
X192214523Y-47513571D01*
X192214523Y-48037380D02*
X192214523Y-47037380D01*
X193119285Y-47370714D02*
X193119285Y-48037380D01*
X192881190Y-46989761D02*
X192643095Y-47704047D01*
X193262142Y-47704047D01*
X123063095Y-48037380D02*
X123063095Y-47037380D01*
X123063095Y-47513571D02*
X123634523Y-47513571D01*
X123634523Y-48037380D02*
X123634523Y-47037380D01*
X124015476Y-47037380D02*
X124634523Y-47037380D01*
X124301190Y-47418333D01*
X124444047Y-47418333D01*
X124539285Y-47465952D01*
X124586904Y-47513571D01*
X124634523Y-47608809D01*
X124634523Y-47846904D01*
X124586904Y-47942142D01*
X124539285Y-47989761D01*
X124444047Y-48037380D01*
X124158333Y-48037380D01*
X124063095Y-47989761D01*
X124015476Y-47942142D01*
X122428095Y-119157380D02*
X122428095Y-118157380D01*
X122428095Y-118633571D02*
X122999523Y-118633571D01*
X122999523Y-119157380D02*
X122999523Y-118157380D01*
X123428095Y-118252619D02*
X123475714Y-118205000D01*
X123570952Y-118157380D01*
X123809047Y-118157380D01*
X123904285Y-118205000D01*
X123951904Y-118252619D01*
X123999523Y-118347857D01*
X123999523Y-118443095D01*
X123951904Y-118585952D01*
X123380476Y-119157380D01*
X123999523Y-119157380D01*
X191643095Y-119157380D02*
X191643095Y-118157380D01*
X191643095Y-118633571D02*
X192214523Y-118633571D01*
X192214523Y-119157380D02*
X192214523Y-118157380D01*
X193214523Y-119157380D02*
X192643095Y-119157380D01*
X192928809Y-119157380D02*
X192928809Y-118157380D01*
X192833571Y-118300238D01*
X192738333Y-118395476D01*
X192643095Y-118443095D01*
X134072380Y-77596904D02*
X134881904Y-77596904D01*
X134977142Y-77549285D01*
X135024761Y-77501666D01*
X135072380Y-77406428D01*
X135072380Y-77215952D01*
X135024761Y-77120714D01*
X134977142Y-77073095D01*
X134881904Y-77025476D01*
X134072380Y-77025476D01*
X135072380Y-76025476D02*
X135072380Y-76596904D01*
X135072380Y-76311190D02*
X134072380Y-76311190D01*
X134215238Y-76406428D01*
X134310476Y-76501666D01*
X134358095Y-76596904D01*
X123912380Y-101726904D02*
X124721904Y-101726904D01*
X124817142Y-101679285D01*
X124864761Y-101631666D01*
X124912380Y-101536428D01*
X124912380Y-101345952D01*
X124864761Y-101250714D01*
X124817142Y-101203095D01*
X124721904Y-101155476D01*
X123912380Y-101155476D01*
X124245714Y-100250714D02*
X124912380Y-100250714D01*
X123864761Y-100488809D02*
X124579047Y-100726904D01*
X124579047Y-100107857D01*
X171283333Y-112847380D02*
X170950000Y-112371190D01*
X170711904Y-112847380D02*
X170711904Y-111847380D01*
X171092857Y-111847380D01*
X171188095Y-111895000D01*
X171235714Y-111942619D01*
X171283333Y-112037857D01*
X171283333Y-112180714D01*
X171235714Y-112275952D01*
X171188095Y-112323571D01*
X171092857Y-112371190D01*
X170711904Y-112371190D01*
X171664285Y-111942619D02*
X171711904Y-111895000D01*
X171807142Y-111847380D01*
X172045238Y-111847380D01*
X172140476Y-111895000D01*
X172188095Y-111942619D01*
X172235714Y-112037857D01*
X172235714Y-112133095D01*
X172188095Y-112275952D01*
X171616666Y-112847380D01*
X172235714Y-112847380D01*
X160243333Y-112847380D02*
X159910000Y-112371190D01*
X159671904Y-112847380D02*
X159671904Y-111847380D01*
X160052857Y-111847380D01*
X160148095Y-111895000D01*
X160195714Y-111942619D01*
X160243333Y-112037857D01*
X160243333Y-112180714D01*
X160195714Y-112275952D01*
X160148095Y-112323571D01*
X160052857Y-112371190D01*
X159671904Y-112371190D01*
X161195714Y-112847380D02*
X160624285Y-112847380D01*
X160910000Y-112847380D02*
X160910000Y-111847380D01*
X160814761Y-111990238D01*
X160719523Y-112085476D01*
X160624285Y-112133095D01*
X181911666Y-122642380D02*
X181911666Y-123356666D01*
X181864047Y-123499523D01*
X181768809Y-123594761D01*
X181625952Y-123642380D01*
X181530714Y-123642380D01*
X182911666Y-123642380D02*
X182340238Y-123642380D01*
X182625952Y-123642380D02*
X182625952Y-122642380D01*
X182530714Y-122785238D01*
X182435476Y-122880476D01*
X182340238Y-122928095D01*
X173863095Y-61547380D02*
X173863095Y-62356904D01*
X173910714Y-62452142D01*
X173958333Y-62499761D01*
X174053571Y-62547380D01*
X174244047Y-62547380D01*
X174339285Y-62499761D01*
X174386904Y-62452142D01*
X174434523Y-62356904D01*
X174434523Y-61547380D01*
X174815476Y-61547380D02*
X175434523Y-61547380D01*
X175101190Y-61928333D01*
X175244047Y-61928333D01*
X175339285Y-61975952D01*
X175386904Y-62023571D01*
X175434523Y-62118809D01*
X175434523Y-62356904D01*
X175386904Y-62452142D01*
X175339285Y-62499761D01*
X175244047Y-62547380D01*
X174958333Y-62547380D01*
X174863095Y-62499761D01*
X174815476Y-62452142D01*
M02*
