M48
; DRILL file {KiCad 5.1.6} date Mon Aug 31 22:31:02 2020
; FORMAT={2:4/ absolute / inch / suppress leading zeros}
; #@! TF.CreationDate,2020-08-31T22:31:02-05:00
; #@! TF.GenerationSoftware,Kicad,Pcbnew,5.1.6
FMAT,2
INCH,TZ
T1C0.0098
T2C0.0394
T3C0.0433
T4C0.0598
T5C0.0858
T6C0.1260
%
G90
G05
T1
X62250Y-26250
X67000Y-25500
X67750Y-27250
X75500Y-22000
X75500Y-22250
X75500Y-22500
X75500Y-22750
X75500Y-28000
X75500Y-28250
X75500Y-28500
X75500Y-28750
X75500Y-34000
X75500Y-34250
X75500Y-34500
X75500Y-34750
X75500Y-40000
X75500Y-40250
X75500Y-40500
X75500Y-40750
X75750Y-22000
X75750Y-22250
X75750Y-22500
X75750Y-22750
X75750Y-28000
X75750Y-28250
X75750Y-28500
X75750Y-28750
X75750Y-34000
X75750Y-34250
X75750Y-34500
X75750Y-34750
X75750Y-40000
X75750Y-40250
X75750Y-40500
X75750Y-40750
X76000Y-22000
X76000Y-22250
X76000Y-22500
X76000Y-22750
X76000Y-28000
X76000Y-28250
X76000Y-28500
X76000Y-28750
X76000Y-34000
X76000Y-34250
X76000Y-34500
X76000Y-34750
X76000Y-40000
X76000Y-40250
X76000Y-40500
X76000Y-40750
T2
X61500Y-24500
X61500Y-25500
X64250Y-30750
X64250Y-31750
X64250Y-32750
X64250Y-33750
X64250Y-34750
X64250Y-35750
X64250Y-36750
X64250Y-37750
X64250Y-38750
X64250Y-39750
X64250Y-40750
X64250Y-41750
X65250Y-30750
X73250Y-32750
X73250Y-33750
X73250Y-35750
X73250Y-36750
X73250Y-37750
X73250Y-38750
X61500Y-19000
X61500Y-20000
X61500Y-21000
X61500Y-22000
X61750Y-46750
X62750Y-46750
X63750Y-46750
X66000Y-46750
X67000Y-46750
X68000Y-46750
X64250Y-18750
X64250Y-19750
X64250Y-20750
X64250Y-21750
X64250Y-22750
X64250Y-23750
X64250Y-24750
X64250Y-25750
X64250Y-26750
X64250Y-27750
X64250Y-28750
X64250Y-29750
X65250Y-18750
X73250Y-20750
X73250Y-21750
X73250Y-23750
X73250Y-24750
X73250Y-25750
X73250Y-26750
X71750Y-43500
X72734Y-43500
X50250Y-39000
X50250Y-40000
X50250Y-41000
X61500Y-28000
X61500Y-29000
X61500Y-30000
X61500Y-31000
X61500Y-32000
T3
X54000Y-18750
X54000Y-19750
X54000Y-20750
X54000Y-21750
X54000Y-22750
X54000Y-23750
X54000Y-24750
X54000Y-25750
X54000Y-26750
X54000Y-27750
X54000Y-28750
X54000Y-29750
X54000Y-30750
X54000Y-31750
X54000Y-32750
X54000Y-33750
X54000Y-34750
X54000Y-35750
X54000Y-36750
X54000Y-37750
X54000Y-38750
X54000Y-39750
X54000Y-40750
X54000Y-41750
X55000Y-23750
X55000Y-36750
X55000Y-37750
X55000Y-38750
X55000Y-40750
X56000Y-18750
X56000Y-19750
X56000Y-20750
X56000Y-21750
X56000Y-22750
X56000Y-23750
X56000Y-24750
X56000Y-25750
X56000Y-26750
X56000Y-32750
X56000Y-33750
X56000Y-34750
X56000Y-35750
X57000Y-18750
X57000Y-19750
X57000Y-20750
X57000Y-21750
X57000Y-22750
X57000Y-23750
X57000Y-24750
X57000Y-25750
X57000Y-26750
X57000Y-32750
X57000Y-33750
X57000Y-34750
X57000Y-35750
X58000Y-23750
X58819Y-35250
X58819Y-36250
X58819Y-37250
X58819Y-38250
X58819Y-39250
X59000Y-23750
X60000Y-18750
X60000Y-19750
X60000Y-20750
X60000Y-21750
X60000Y-22750
X60000Y-23750
X60000Y-24750
X60000Y-25750
X60000Y-26750
X60000Y-27750
X60000Y-28750
X60000Y-29750
X60000Y-30750
X60000Y-31750
X60000Y-32750
X60000Y-33750
X60000Y-34750
X60000Y-35750
X60000Y-36750
X60000Y-37750
X60000Y-38750
X60000Y-39750
X60000Y-40750
X60000Y-41750
T4
X70750Y-46500
X72750Y-46500
T5
X72750Y-31250
X72750Y-41250
X72750Y-19250
X72750Y-29250
T6
X75750Y-20250
X48500Y-48250
X48750Y-20250
X75750Y-48250
T0
M30
