  0
SECTION
  2
HEADER
  9
$ANGBASE
  50
0.0
  9
$ANGDIR
  70
  1
  9
$MEASUREMENT
  70
0
  0
ENDSEC
  0
SECTION
  2
TABLES
  0
TABLE
  2
LTYPE
  70
4
  0
LTYPE
  5
40F
  2
CONTINUOUS
  70
0
  3
Solid line
  72
65
  73
0
  40
0.0
  0
LTYPE
  5
410
  2
DASHDOT
 70
0
  3
Dash Dot ____ _ ____ _
 72
65
 73
4
 40
2.0
 49
1.25
 49
-0.25
 49
0.25
 49
-0.25
  0
LTYPE
  5
411
  2
DASHED
 70
0
  3
Dashed __ __ __ __ __
 72
65
 73
2
 40
0.75
 49
0.5
 49
-0.25
  0
LTYPE
  5
43B
  2
DOTTED
 70
0
  3
Dotted .  .  .  .
 72
65
 73
2
 40
0.2
 49
0.0
 49
-0.2
  0
ENDTAB
  0
TABLE
  2
STYLE
  70
4
  0
STYLE
  2
KICAD
  70
0
  40
0
  41
1
  42
1
  50
0
  71
0
  3
isocp.shx
  0
STYLE
  2
KICADB
  70
0
  40
0
  41
1
  42
1
  50
0
  71
0
  3
isocp.shx
  0
STYLE
  2
KICADI
  70
0
  40
0
  41
1
  42
1
  50
15
  71
0
  3
isocp.shx
  0
STYLE
  2
KICADBI
  70
0
  40
0
  41
1
  42
1
  50
15
  71
0
  3
isocp.shx
  0
ENDTAB
  0
TABLE
  2
LAYER
  70
30
  0
LAYER
  2
BLACK
  70
0
  62
7
  6
CONTINUOUS
  0
LAYER
  2
GRAY1
  70
0
  62
251
  6
CONTINUOUS
  0
LAYER
  2
GRAY2
  70
0
  62
8
  6
CONTINUOUS
  0
LAYER
  2
GRAY3
  70
0
  62
9
  6
CONTINUOUS
  0
LAYER
  2
WHITE
  70
0
  62
7
  6
CONTINUOUS
  0
LAYER
  2
LYELLOW
  70
0
  62
51
  6
CONTINUOUS
  0
LAYER
  2
BLUE1
  70
0
  62
178
  6
CONTINUOUS
  0
LAYER
  2
GREEN1
  70
0
  62
98
  6
CONTINUOUS
  0
LAYER
  2
CYAN1
  70
0
  62
138
  6
CONTINUOUS
  0
LAYER
  2
RED1
  70
0
  62
18
  6
CONTINUOUS
  0
LAYER
  2
MAGENTA1
  70
0
  62
228
  6
CONTINUOUS
  0
LAYER
  2
BROWN1
  70
0
  62
58
  6
CONTINUOUS
  0
LAYER
  2
BLUE2
  70
0
  62
5
  6
CONTINUOUS
  0
LAYER
  2
GREEN2
  70
0
  62
3
  6
CONTINUOUS
  0
LAYER
  2
CYAN2
  70
0
  62
4
  6
CONTINUOUS
  0
LAYER
  2
RED2
  70
0
  62
1
  6
CONTINUOUS
  0
LAYER
  2
MAGENTA2
  70
0
  62
6
  6
CONTINUOUS
  0
LAYER
  2
BROWN2
  70
0
  62
54
  6
CONTINUOUS
  0
LAYER
  2
BLUE3
  70
0
  62
171
  6
CONTINUOUS
  0
LAYER
  2
GREEN3
  70
0
  62
91
  6
CONTINUOUS
  0
LAYER
  2
CYAN3
  70
0
  62
131
  6
CONTINUOUS
  0
LAYER
  2
RED3
  70
0
  62
11
  6
CONTINUOUS
  0
LAYER
  2
MAGENTA3
  70
0
  62
221
  6
CONTINUOUS
  0
LAYER
  2
YELLOW3
  70
0
  62
2
  6
CONTINUOUS
  0
LAYER
  2
BLUE4
  70
0
  62
5
  6
CONTINUOUS
  0
LAYER
  2
GREEN4
  70
0
  62
3
  6
CONTINUOUS
  0
LAYER
  2
CYAN4
  70
0
  62
4
  6
CONTINUOUS
  0
LAYER
  2
RED4
  70
0
  62
1
  6
CONTINUOUS
  0
LAYER
  2
MAGENTA4
  70
0
  62
6
  6
CONTINUOUS
  0
LAYER
  2
YELLOW4
  70
0
  62
2
  6
CONTINUOUS
  0
ENDTAB
  0
ENDSEC
  0
SECTION
  2
ENTITIES
0
LINE
8
BLACK
6
CONTINUOUS
10
193.041
20
-73.635
11
193.045
21
-73.6354
0
LINE
8
BLACK
6
CONTINUOUS
10
193.045
20
-73.6354
11
193.05
21
-73.6368
0
LINE
8
BLACK
6
CONTINUOUS
10
193.05
20
-73.6368
11
193.054
21
-73.6391
0
LINE
8
BLACK
6
CONTINUOUS
10
193.054
20
-73.6391
11
193.058
21
-73.6422
0
LINE
8
BLACK
6
CONTINUOUS
10
193.058
20
-73.6422
11
193.061
21
-73.646
0
LINE
8
BLACK
6
CONTINUOUS
10
193.061
20
-73.646
11
193.063
21
-73.6504
0
LINE
8
BLACK
6
CONTINUOUS
10
193.063
20
-73.6504
11
193.065
21
-73.6551
0
LINE
8
BLACK
6
CONTINUOUS
10
193.065
20
-73.6551
11
193.065
21
-73.66
0
LINE
8
BLACK
6
CONTINUOUS
10
193.065
20
-73.66
11
193.065
21
-73.6612
0
LINE
8
BLACK
6
CONTINUOUS
10
193.065
20
-73.6612
11
193.065
21
-149.859
0
LINE
8
BLACK
6
CONTINUOUS
10
193.065
20
-149.859
11
193.065
21
-149.86
0
LINE
8
BLACK
6
CONTINUOUS
10
193.065
20
-149.86
11
193.065
21
-149.865
0
LINE
8
BLACK
6
CONTINUOUS
10
193.065
20
-149.865
11
193.063
21
-149.87
0
LINE
8
BLACK
6
CONTINUOUS
10
193.063
20
-149.87
11
193.061
21
-149.874
0
LINE
8
BLACK
6
CONTINUOUS
10
193.061
20
-149.874
11
193.058
21
-149.878
0
LINE
8
BLACK
6
CONTINUOUS
10
193.058
20
-149.878
11
193.054
21
-149.881
0
LINE
8
BLACK
6
CONTINUOUS
10
193.054
20
-149.881
11
193.05
21
-149.883
0
LINE
8
BLACK
6
CONTINUOUS
10
193.05
20
-149.883
11
193.045
21
-149.885
0
LINE
8
BLACK
6
CONTINUOUS
10
193.045
20
-149.885
11
193.041
21
-149.885
0
LINE
8
BLACK
6
CONTINUOUS
10
193.041
20
-149.885
11
193.041
21
-149.885
0
LINE
8
BLACK
6
CONTINUOUS
10
193.041
20
-149.885
11
193.04
21
-149.885
0
LINE
8
BLACK
6
CONTINUOUS
10
193.04
20
-149.885
11
193.039
21
-149.885
0
LINE
8
BLACK
6
CONTINUOUS
10
193.039
20
-149.885
11
121.921
21
-149.885
0
LINE
8
BLACK
6
CONTINUOUS
10
121.921
20
-149.885
11
121.92
21
-149.885
0
LINE
8
BLACK
6
CONTINUOUS
10
121.92
20
-149.885
11
121.919
21
-149.885
0
LINE
8
BLACK
6
CONTINUOUS
10
121.919
20
-149.885
11
121.919
21
-149.885
0
LINE
8
BLACK
6
CONTINUOUS
10
121.919
20
-149.885
11
121.915
21
-149.885
0
LINE
8
BLACK
6
CONTINUOUS
10
121.915
20
-149.885
11
121.91
21
-149.883
0
LINE
8
BLACK
6
CONTINUOUS
10
121.91
20
-149.883
11
121.906
21
-149.881
0
LINE
8
BLACK
6
CONTINUOUS
10
121.906
20
-149.881
11
121.902
21
-149.878
0
LINE
8
BLACK
6
CONTINUOUS
10
121.902
20
-149.878
11
121.899
21
-149.874
0
LINE
8
BLACK
6
CONTINUOUS
10
121.899
20
-149.874
11
121.897
21
-149.87
0
LINE
8
BLACK
6
CONTINUOUS
10
121.897
20
-149.87
11
121.895
21
-149.865
0
LINE
8
BLACK
6
CONTINUOUS
10
121.895
20
-149.865
11
121.895
21
-149.86
0
LINE
8
BLACK
6
CONTINUOUS
10
121.895
20
-149.86
11
121.895
21
-149.859
0
LINE
8
BLACK
6
CONTINUOUS
10
121.895
20
-149.859
11
121.895
21
-73.6612
0
LINE
8
BLACK
6
CONTINUOUS
10
121.895
20
-73.6612
11
121.895
21
-73.66
0
LINE
8
BLACK
6
CONTINUOUS
10
121.895
20
-73.66
11
121.895
21
-73.6551
0
LINE
8
BLACK
6
CONTINUOUS
10
121.895
20
-73.6551
11
121.897
21
-73.6504
0
LINE
8
BLACK
6
CONTINUOUS
10
121.897
20
-73.6504
11
121.899
21
-73.646
0
LINE
8
BLACK
6
CONTINUOUS
10
121.899
20
-73.646
11
121.902
21
-73.6422
0
LINE
8
BLACK
6
CONTINUOUS
10
121.902
20
-73.6422
11
121.906
21
-73.6391
0
LINE
8
BLACK
6
CONTINUOUS
10
121.906
20
-73.6391
11
121.91
21
-73.6368
0
LINE
8
BLACK
6
CONTINUOUS
10
121.91
20
-73.6368
11
121.915
21
-73.6354
0
LINE
8
BLACK
6
CONTINUOUS
10
121.915
20
-73.6354
11
121.919
21
-73.635
0
LINE
8
BLACK
6
CONTINUOUS
10
121.919
20
-73.635
11
121.92
21
-73.6349
0
LINE
8
BLACK
6
CONTINUOUS
10
121.92
20
-73.6349
11
121.921
21
-73.635
0
LINE
8
BLACK
6
CONTINUOUS
10
121.921
20
-73.635
11
193.039
21
-73.635
0
LINE
8
BLACK
6
CONTINUOUS
10
193.039
20
-73.635
11
193.04
21
-73.6349
0
LINE
8
BLACK
6
CONTINUOUS
10
193.04
20
-73.6349
11
193.041
21
-73.635
0
LINE
8
BLACK
6
CONTINUOUS
10
121.945
20
-73.685
11
121.945
21
-149.835
0
LINE
8
BLACK
6
CONTINUOUS
10
121.945
20
-149.835
11
193.015
21
-149.835
0
LINE
8
BLACK
6
CONTINUOUS
10
193.015
20
-149.835
11
193.015
21
-73.685
0
LINE
8
BLACK
6
CONTINUOUS
10
193.015
20
-73.685
11
121.945
21
-73.685
  0
ENDSEC
  0
EOF
